G04 #@! TF.GenerationSoftware,KiCad,Pcbnew,(6.0.0)*
G04 #@! TF.CreationDate,2023-01-21T18:13:15+03:00*
G04 #@! TF.ProjectId,im_converter,696d5f63-6f6e-4766-9572-7465722e6b69,rev?*
G04 #@! TF.SameCoordinates,Original*
G04 #@! TF.FileFunction,Copper,L3,Inr*
G04 #@! TF.FilePolarity,Positive*
%FSLAX46Y46*%
G04 Gerber Fmt 4.6, Leading zero omitted, Abs format (unit mm)*
G04 Created by KiCad (PCBNEW (6.0.0)) date 2023-01-21 18:13:15*
%MOMM*%
%LPD*%
G01*
G04 APERTURE LIST*
G04 #@! TA.AperFunction,ComponentPad*
%ADD10R,1.700000X1.700000*%
G04 #@! TD*
G04 #@! TA.AperFunction,ComponentPad*
%ADD11O,1.700000X1.700000*%
G04 #@! TD*
G04 #@! TA.AperFunction,ComponentPad*
%ADD12O,1.700000X0.900000*%
G04 #@! TD*
G04 #@! TA.AperFunction,ComponentPad*
%ADD13O,2.000000X0.900000*%
G04 #@! TD*
G04 #@! TA.AperFunction,ComponentPad*
%ADD14C,1.440000*%
G04 #@! TD*
G04 #@! TA.AperFunction,ViaPad*
%ADD15C,0.600000*%
G04 #@! TD*
G04 #@! TA.AperFunction,ViaPad*
%ADD16C,0.800000*%
G04 #@! TD*
G04 #@! TA.AperFunction,Conductor*
%ADD17C,1.000000*%
G04 #@! TD*
G04 #@! TA.AperFunction,Conductor*
%ADD18C,0.500000*%
G04 #@! TD*
G04 #@! TA.AperFunction,Conductor*
%ADD19C,0.400000*%
G04 #@! TD*
G04 APERTURE END LIST*
D10*
X130220000Y-136000000D03*
D11*
X127680000Y-136000000D03*
X125140000Y-136000000D03*
D10*
X154020000Y-148870000D03*
D11*
X154020000Y-146330000D03*
D10*
X158410000Y-146350000D03*
D11*
X158410000Y-148890000D03*
D10*
X186620000Y-128820000D03*
D11*
X186620000Y-133900000D03*
D10*
X186670000Y-152870000D03*
D11*
X186670000Y-147790000D03*
D10*
X138000000Y-150240000D03*
D11*
X140540000Y-150240000D03*
X138000000Y-152780000D03*
X140540000Y-152780000D03*
D10*
X146110000Y-150190000D03*
D11*
X148650000Y-150190000D03*
X146110000Y-152730000D03*
X148650000Y-152730000D03*
D10*
X131800000Y-127800000D03*
D11*
X134340000Y-127800000D03*
X131800000Y-130340000D03*
X134340000Y-130340000D03*
X131800000Y-132880000D03*
X134340000Y-132880000D03*
D10*
X137320000Y-145990000D03*
D11*
X139860000Y-145990000D03*
X142400000Y-145990000D03*
X144940000Y-145990000D03*
D12*
X117490000Y-145860000D03*
D13*
X121660000Y-145860000D03*
D12*
X117490000Y-137220000D03*
D13*
X121660000Y-137220000D03*
D14*
X171210000Y-128600000D03*
X168670000Y-128600000D03*
X166130000Y-128600000D03*
D15*
X119380000Y-125730000D03*
D16*
X142560000Y-137990000D03*
X175510000Y-141250000D03*
D15*
X151130000Y-125730000D03*
D16*
X133000000Y-136990000D03*
D15*
X144300000Y-151500000D03*
X144300000Y-152700000D03*
X172720000Y-154940000D03*
X126365000Y-153035000D03*
X185420000Y-154940000D03*
D16*
X173900000Y-137470000D03*
D15*
X118110000Y-151130000D03*
X182880000Y-154940000D03*
X184150000Y-154940000D03*
X172720000Y-151130000D03*
D16*
X174740000Y-129260000D03*
X141170000Y-137990000D03*
D15*
X121920000Y-125730000D03*
X144300000Y-153840000D03*
X126365000Y-151765000D03*
X186690000Y-140970000D03*
X162560000Y-134620000D03*
X152400000Y-127000000D03*
X120650000Y-125730000D03*
X118110000Y-125730000D03*
D16*
X173440000Y-136460000D03*
D15*
X130556000Y-142240000D03*
X135890000Y-139700000D03*
X186690000Y-143510000D03*
X162560000Y-137160000D03*
X186690000Y-139700000D03*
X152400000Y-125730000D03*
X151130000Y-127000000D03*
X186690000Y-154940000D03*
X172720000Y-153670000D03*
X132540000Y-144460000D03*
D16*
X174770000Y-130670000D03*
D15*
X123190000Y-125730000D03*
D16*
X137430000Y-128580000D03*
D15*
X186690000Y-138430000D03*
X186690000Y-142240000D03*
X172720000Y-152400000D03*
X118110000Y-153670000D03*
D16*
X176300000Y-134670000D03*
X144420000Y-127310000D03*
D15*
X118110000Y-152400000D03*
X162560000Y-135890000D03*
D16*
X135200000Y-154300000D03*
X135200000Y-153090000D03*
X177050000Y-154720000D03*
X173970000Y-139550000D03*
X123700000Y-143360000D03*
X181630000Y-147790000D03*
X123590000Y-137580000D03*
D15*
X146910000Y-135530000D03*
X174290000Y-152990000D03*
D16*
X149490000Y-144720000D03*
X135010000Y-125340000D03*
X144410000Y-125580000D03*
X139260000Y-125580000D03*
X132750000Y-125340000D03*
X150420000Y-137620000D03*
X133900000Y-125340000D03*
X151580000Y-130200000D03*
X133100000Y-138790000D03*
D15*
X143340000Y-136710000D03*
X139080000Y-135080000D03*
X145590000Y-130960000D03*
X144230000Y-130980000D03*
X139820000Y-136540000D03*
X142600000Y-130970000D03*
X141520000Y-130960000D03*
X124690000Y-142620000D03*
X129200000Y-148270000D03*
X118177500Y-140557500D03*
X118028768Y-143048768D03*
X124060000Y-139195000D03*
X128190000Y-139195000D03*
X118771232Y-143791232D03*
X124060000Y-140045000D03*
X119215000Y-140570000D03*
X128190000Y-140045000D03*
X135840000Y-136170000D03*
X130770000Y-139680000D03*
X178590000Y-149000000D03*
X168190000Y-131780000D03*
X179980000Y-134240000D03*
X179550000Y-150910000D03*
D17*
X173970000Y-141850000D02*
X173970000Y-139550000D01*
X135070000Y-143140000D02*
X172680000Y-143140000D01*
D18*
X172390000Y-130130000D02*
X173050000Y-129470000D01*
X173520000Y-139550000D02*
X172390000Y-138420000D01*
X166130000Y-127370000D02*
X166130000Y-128600000D01*
D19*
X177050000Y-154720000D02*
X177050000Y-148070000D01*
D18*
X167090000Y-126410000D02*
X166130000Y-127370000D01*
D17*
X133720000Y-144490000D02*
X135070000Y-143140000D01*
D19*
X177050000Y-148070000D02*
X172680000Y-143700000D01*
D17*
X172680000Y-143140000D02*
X173970000Y-141850000D01*
D18*
X172390000Y-138420000D02*
X172390000Y-130130000D01*
D19*
X172680000Y-143700000D02*
X172680000Y-143140000D01*
D17*
X133720000Y-146310000D02*
X133720000Y-144490000D01*
D18*
X173050000Y-129470000D02*
X173050000Y-127780000D01*
X173970000Y-139550000D02*
X173520000Y-139550000D01*
X171680000Y-126410000D02*
X167090000Y-126410000D01*
D17*
X133690000Y-146340000D02*
X133720000Y-146310000D01*
X133690000Y-150280000D02*
X133690000Y-146340000D01*
X135200000Y-151790000D02*
X133690000Y-150280000D01*
D18*
X173050000Y-127780000D02*
X171680000Y-126410000D01*
D17*
X135200000Y-154300000D02*
X135200000Y-151790000D01*
D18*
X164750000Y-125270000D02*
X173340000Y-125270000D01*
D17*
X123700000Y-143360000D02*
X126120000Y-145780000D01*
D18*
X171210000Y-128600000D02*
X168990000Y-130820000D01*
X181470000Y-147950000D02*
X181630000Y-147790000D01*
X163630000Y-128840000D02*
X163630000Y-126390000D01*
D17*
X133890000Y-141270000D02*
X170550000Y-141270000D01*
D18*
X180610000Y-147950000D02*
X181470000Y-147950000D01*
D17*
X170550000Y-141270000D02*
X171210000Y-140610000D01*
D18*
X163630000Y-126390000D02*
X164750000Y-125270000D01*
X165610000Y-130820000D02*
X163630000Y-128840000D01*
D17*
X129380000Y-145780000D02*
X133890000Y-141270000D01*
X126120000Y-145780000D02*
X129380000Y-145780000D01*
D18*
X178600000Y-130530000D02*
X178600000Y-145940000D01*
X173340000Y-125270000D02*
X178600000Y-130530000D01*
X168990000Y-130820000D02*
X165610000Y-130820000D01*
D17*
X171210000Y-140610000D02*
X171210000Y-128600000D01*
D18*
X178600000Y-145940000D02*
X180610000Y-147950000D01*
G04 #@! TA.AperFunction,Conductor*
G36*
X172138421Y-144168502D02*
G01*
X172154113Y-144180418D01*
X172191190Y-144213452D01*
X172196446Y-144218416D01*
X176304595Y-148326566D01*
X176338621Y-148388878D01*
X176341500Y-148415661D01*
X176341500Y-154101256D01*
X176321498Y-154169377D01*
X176317436Y-154175317D01*
X176315379Y-154178148D01*
X176310960Y-154183056D01*
X176307659Y-154188774D01*
X176307658Y-154188775D01*
X176245065Y-154297190D01*
X176215473Y-154348444D01*
X176156458Y-154530072D01*
X176155768Y-154536633D01*
X176155768Y-154536635D01*
X176149623Y-154595106D01*
X176136496Y-154720000D01*
X176156458Y-154909928D01*
X176215473Y-155091556D01*
X176310960Y-155256944D01*
X176333243Y-155281691D01*
X176363959Y-155345698D01*
X176355194Y-155416152D01*
X176309731Y-155470682D01*
X176239605Y-155492000D01*
X173556624Y-155492000D01*
X173488503Y-155471998D01*
X173442010Y-155418342D01*
X173431906Y-155348068D01*
X173443256Y-155312484D01*
X173443643Y-155311902D01*
X173508055Y-155142338D01*
X173509035Y-155135366D01*
X173532748Y-154966639D01*
X173532748Y-154966636D01*
X173533299Y-154962717D01*
X173533616Y-154940000D01*
X173513397Y-154759745D01*
X173511080Y-154753091D01*
X173456064Y-154595106D01*
X173456062Y-154595103D01*
X173453745Y-154588448D01*
X173357626Y-154434624D01*
X173317979Y-154394699D01*
X173284172Y-154332268D01*
X173289484Y-154261470D01*
X173320492Y-154214670D01*
X173334272Y-154201547D01*
X173343266Y-154192982D01*
X173443643Y-154041902D01*
X173498348Y-153897892D01*
X173505555Y-153878920D01*
X173505556Y-153878918D01*
X173508055Y-153872338D01*
X173511668Y-153846632D01*
X173532748Y-153696639D01*
X173532748Y-153696636D01*
X173533299Y-153692717D01*
X173533468Y-153680622D01*
X173554420Y-153612788D01*
X173608721Y-153567049D01*
X173679129Y-153557928D01*
X173743291Y-153588321D01*
X173750084Y-153594847D01*
X173771382Y-153616902D01*
X173830633Y-153655675D01*
X173898417Y-153700031D01*
X173923159Y-153716222D01*
X173929763Y-153718678D01*
X173929765Y-153718679D01*
X174086558Y-153776990D01*
X174086560Y-153776990D01*
X174093168Y-153779448D01*
X174176995Y-153790633D01*
X174265980Y-153802507D01*
X174265984Y-153802507D01*
X174272961Y-153803438D01*
X174279972Y-153802800D01*
X174279976Y-153802800D01*
X174422459Y-153789832D01*
X174453600Y-153786998D01*
X174460302Y-153784820D01*
X174460304Y-153784820D01*
X174619409Y-153733124D01*
X174619412Y-153733123D01*
X174626108Y-153730947D01*
X174733150Y-153667137D01*
X174775860Y-153641677D01*
X174775862Y-153641676D01*
X174781912Y-153638069D01*
X174913266Y-153512982D01*
X175013643Y-153361902D01*
X175061297Y-153236453D01*
X175075555Y-153198920D01*
X175075556Y-153198918D01*
X175078055Y-153192338D01*
X175099286Y-153041273D01*
X175102748Y-153016639D01*
X175102748Y-153016636D01*
X175103299Y-153012717D01*
X175103616Y-152990000D01*
X175083397Y-152809745D01*
X175081080Y-152803091D01*
X175026064Y-152645106D01*
X175026062Y-152645103D01*
X175023745Y-152638448D01*
X174984626Y-152575844D01*
X174931359Y-152490598D01*
X174927626Y-152484624D01*
X174918835Y-152475771D01*
X174804778Y-152360915D01*
X174804774Y-152360912D01*
X174799815Y-152355918D01*
X174788697Y-152348862D01*
X174698160Y-152291406D01*
X174646666Y-152258727D01*
X174574815Y-152233142D01*
X174482425Y-152200243D01*
X174482420Y-152200242D01*
X174475790Y-152197881D01*
X174468802Y-152197048D01*
X174468799Y-152197047D01*
X174311605Y-152178303D01*
X174295680Y-152176404D01*
X174288677Y-152177140D01*
X174288676Y-152177140D01*
X174122288Y-152194628D01*
X174122286Y-152194629D01*
X174115288Y-152195364D01*
X173943579Y-152253818D01*
X173929457Y-152262506D01*
X173795095Y-152345166D01*
X173795092Y-152345168D01*
X173789088Y-152348862D01*
X173784050Y-152353796D01*
X173738307Y-152398590D01*
X173675642Y-152431960D01*
X173604883Y-152426154D01*
X173548496Y-152383014D01*
X173524935Y-152322611D01*
X173524003Y-152314297D01*
X173513397Y-152219745D01*
X173511080Y-152213091D01*
X173456064Y-152055106D01*
X173456062Y-152055103D01*
X173453745Y-152048448D01*
X173388765Y-151944457D01*
X173361359Y-151900598D01*
X173357626Y-151894624D01*
X173339532Y-151876403D01*
X173317979Y-151854699D01*
X173284172Y-151792268D01*
X173289484Y-151721470D01*
X173320492Y-151674670D01*
X173331781Y-151663919D01*
X173343266Y-151652982D01*
X173443643Y-151501902D01*
X173497962Y-151358909D01*
X173505555Y-151338920D01*
X173505556Y-151338918D01*
X173508055Y-151332338D01*
X173509035Y-151325366D01*
X173532748Y-151156639D01*
X173532748Y-151156636D01*
X173533299Y-151152717D01*
X173533501Y-151138238D01*
X173533561Y-151133962D01*
X173533561Y-151133957D01*
X173533616Y-151130000D01*
X173513397Y-150949745D01*
X173510727Y-150942077D01*
X173456064Y-150785106D01*
X173456062Y-150785103D01*
X173453745Y-150778448D01*
X173447365Y-150768238D01*
X173361359Y-150630598D01*
X173357626Y-150624624D01*
X173298522Y-150565106D01*
X173234778Y-150500915D01*
X173234774Y-150500912D01*
X173229815Y-150495918D01*
X173218697Y-150488862D01*
X173170538Y-150458300D01*
X173076666Y-150398727D01*
X173003029Y-150372506D01*
X172912425Y-150340243D01*
X172912420Y-150340242D01*
X172905790Y-150337881D01*
X172898802Y-150337048D01*
X172898799Y-150337047D01*
X172750704Y-150319388D01*
X172725680Y-150316404D01*
X172718677Y-150317140D01*
X172718676Y-150317140D01*
X172552288Y-150334628D01*
X172552286Y-150334629D01*
X172545288Y-150335364D01*
X172373579Y-150393818D01*
X172346304Y-150410598D01*
X172225095Y-150485166D01*
X172225092Y-150485168D01*
X172219088Y-150488862D01*
X172214053Y-150493793D01*
X172214050Y-150493795D01*
X172139330Y-150566967D01*
X172089493Y-150615771D01*
X171991235Y-150768238D01*
X171988826Y-150774858D01*
X171988824Y-150774861D01*
X171931606Y-150932066D01*
X171929197Y-150938685D01*
X171906463Y-151118640D01*
X171924163Y-151299160D01*
X171981418Y-151471273D01*
X171985065Y-151477295D01*
X171985066Y-151477297D01*
X172071506Y-151620027D01*
X172075380Y-151626424D01*
X172096023Y-151647800D01*
X172124042Y-151676815D01*
X172156974Y-151739712D01*
X172150674Y-151810428D01*
X172121565Y-151854364D01*
X172089493Y-151885771D01*
X171991235Y-152038238D01*
X171988826Y-152044858D01*
X171988824Y-152044861D01*
X171933129Y-152197881D01*
X171929197Y-152208685D01*
X171906463Y-152388640D01*
X171924163Y-152569160D01*
X171981418Y-152741273D01*
X171985065Y-152747295D01*
X171985066Y-152747297D01*
X172054624Y-152862151D01*
X172075380Y-152896424D01*
X172101027Y-152922982D01*
X172124042Y-152946815D01*
X172156974Y-153009712D01*
X172150674Y-153080428D01*
X172121565Y-153124364D01*
X172089493Y-153155771D01*
X171991235Y-153308238D01*
X171988826Y-153314858D01*
X171988824Y-153314861D01*
X171969566Y-153367773D01*
X171929197Y-153478685D01*
X171906463Y-153658640D01*
X171924163Y-153839160D01*
X171981418Y-154011273D01*
X171985065Y-154017295D01*
X171985066Y-154017297D01*
X172067148Y-154152831D01*
X172075380Y-154166424D01*
X172101027Y-154192982D01*
X172124042Y-154216815D01*
X172156974Y-154279712D01*
X172150674Y-154350428D01*
X172121565Y-154394364D01*
X172089493Y-154425771D01*
X171991235Y-154578238D01*
X171988826Y-154584858D01*
X171988824Y-154584861D01*
X171937248Y-154726565D01*
X171929197Y-154748685D01*
X171906463Y-154928640D01*
X171924163Y-155109160D01*
X171981418Y-155281273D01*
X171993202Y-155300730D01*
X172011380Y-155369358D01*
X171989570Y-155436922D01*
X171934694Y-155481968D01*
X171885425Y-155492000D01*
X135596384Y-155492000D01*
X135528263Y-155471998D01*
X135481770Y-155418342D01*
X135471666Y-155348068D01*
X135501160Y-155283488D01*
X135560809Y-155245126D01*
X135560915Y-155245095D01*
X135579619Y-155239590D01*
X135585077Y-155236737D01*
X135585081Y-155236735D01*
X135675853Y-155189280D01*
X135754890Y-155147960D01*
X135909025Y-155024032D01*
X136036154Y-154872526D01*
X136039121Y-154867128D01*
X136039125Y-154867123D01*
X136128467Y-154704608D01*
X136131433Y-154699213D01*
X136133846Y-154691608D01*
X136189373Y-154516564D01*
X136189373Y-154516563D01*
X136191235Y-154510694D01*
X136208500Y-154356773D01*
X136208500Y-152746695D01*
X136637251Y-152746695D01*
X136637548Y-152751848D01*
X136637548Y-152751851D01*
X136645537Y-152890401D01*
X136650110Y-152969715D01*
X136651247Y-152974761D01*
X136651248Y-152974767D01*
X136667594Y-153047297D01*
X136699222Y-153187639D01*
X136783266Y-153394616D01*
X136830727Y-153472066D01*
X136897291Y-153580688D01*
X136899987Y-153585088D01*
X137046250Y-153753938D01*
X137218126Y-153896632D01*
X137411000Y-154009338D01*
X137415825Y-154011180D01*
X137415826Y-154011181D01*
X137479024Y-154035314D01*
X137619692Y-154089030D01*
X137624760Y-154090061D01*
X137624763Y-154090062D01*
X137679784Y-154101256D01*
X137838597Y-154133567D01*
X137843772Y-154133757D01*
X137843774Y-154133757D01*
X138056673Y-154141564D01*
X138056677Y-154141564D01*
X138061837Y-154141753D01*
X138066957Y-154141097D01*
X138066959Y-154141097D01*
X138278288Y-154114025D01*
X138278289Y-154114025D01*
X138283416Y-154113368D01*
X138299812Y-154108449D01*
X138492429Y-154050661D01*
X138492434Y-154050659D01*
X138497384Y-154049174D01*
X138697994Y-153950896D01*
X138879860Y-153821173D01*
X138892013Y-153809063D01*
X139008766Y-153692717D01*
X139038096Y-153663489D01*
X139041581Y-153658640D01*
X139168453Y-153482077D01*
X139169776Y-153483028D01*
X139216645Y-153439857D01*
X139286580Y-153427625D01*
X139352026Y-153455144D01*
X139379875Y-153486994D01*
X139439987Y-153585088D01*
X139586250Y-153753938D01*
X139758126Y-153896632D01*
X139951000Y-154009338D01*
X139955825Y-154011180D01*
X139955826Y-154011181D01*
X140019024Y-154035314D01*
X140159692Y-154089030D01*
X140164760Y-154090061D01*
X140164763Y-154090062D01*
X140219784Y-154101256D01*
X140378597Y-154133567D01*
X140383772Y-154133757D01*
X140383774Y-154133757D01*
X140596673Y-154141564D01*
X140596677Y-154141564D01*
X140601837Y-154141753D01*
X140606957Y-154141097D01*
X140606959Y-154141097D01*
X140818288Y-154114025D01*
X140818289Y-154114025D01*
X140823416Y-154113368D01*
X140839812Y-154108449D01*
X141032429Y-154050661D01*
X141032434Y-154050659D01*
X141037384Y-154049174D01*
X141237994Y-153950896D01*
X141409392Y-153828640D01*
X143486463Y-153828640D01*
X143504163Y-154009160D01*
X143561418Y-154181273D01*
X143565065Y-154187295D01*
X143565066Y-154187297D01*
X143635719Y-154303959D01*
X143655380Y-154336424D01*
X143660269Y-154341487D01*
X143660270Y-154341488D01*
X143685719Y-154367841D01*
X143781382Y-154466902D01*
X143933159Y-154566222D01*
X143939763Y-154568678D01*
X143939765Y-154568679D01*
X144096558Y-154626990D01*
X144096560Y-154626990D01*
X144103168Y-154629448D01*
X144186995Y-154640633D01*
X144275980Y-154652507D01*
X144275984Y-154652507D01*
X144282961Y-154653438D01*
X144289972Y-154652800D01*
X144289976Y-154652800D01*
X144432459Y-154639832D01*
X144463600Y-154636998D01*
X144470302Y-154634820D01*
X144470304Y-154634820D01*
X144629409Y-154583124D01*
X144629412Y-154583123D01*
X144636108Y-154580947D01*
X144767308Y-154502736D01*
X144785860Y-154491677D01*
X144785862Y-154491676D01*
X144791912Y-154488069D01*
X144923266Y-154362982D01*
X145023643Y-154211902D01*
X145072321Y-154083757D01*
X145085555Y-154048920D01*
X145085556Y-154048918D01*
X145088055Y-154042338D01*
X145090284Y-154026482D01*
X145106329Y-153912310D01*
X145135617Y-153847636D01*
X145195221Y-153809063D01*
X145266217Y-153808838D01*
X145311587Y-153832901D01*
X145328126Y-153846632D01*
X145521000Y-153959338D01*
X145729692Y-154039030D01*
X145734760Y-154040061D01*
X145734763Y-154040062D01*
X145842017Y-154061883D01*
X145948597Y-154083567D01*
X145953772Y-154083757D01*
X145953774Y-154083757D01*
X146166673Y-154091564D01*
X146166677Y-154091564D01*
X146171837Y-154091753D01*
X146176957Y-154091097D01*
X146176959Y-154091097D01*
X146388288Y-154064025D01*
X146388289Y-154064025D01*
X146393416Y-154063368D01*
X146398366Y-154061883D01*
X146602429Y-154000661D01*
X146602434Y-154000659D01*
X146607384Y-153999174D01*
X146807994Y-153900896D01*
X146989860Y-153771173D01*
X147007156Y-153753938D01*
X147128305Y-153633211D01*
X147148096Y-153613489D01*
X147161485Y-153594857D01*
X147278453Y-153432077D01*
X147279776Y-153433028D01*
X147326645Y-153389857D01*
X147396580Y-153377625D01*
X147462026Y-153405144D01*
X147489875Y-153436994D01*
X147500997Y-153455144D01*
X147549987Y-153535088D01*
X147696250Y-153703938D01*
X147797066Y-153787637D01*
X147850684Y-153832151D01*
X147868126Y-153846632D01*
X148061000Y-153959338D01*
X148269692Y-154039030D01*
X148274760Y-154040061D01*
X148274763Y-154040062D01*
X148382017Y-154061883D01*
X148488597Y-154083567D01*
X148493772Y-154083757D01*
X148493774Y-154083757D01*
X148706673Y-154091564D01*
X148706677Y-154091564D01*
X148711837Y-154091753D01*
X148716957Y-154091097D01*
X148716959Y-154091097D01*
X148928288Y-154064025D01*
X148928289Y-154064025D01*
X148933416Y-154063368D01*
X148938366Y-154061883D01*
X149142429Y-154000661D01*
X149142434Y-154000659D01*
X149147384Y-153999174D01*
X149347994Y-153900896D01*
X149529860Y-153771173D01*
X149547156Y-153753938D01*
X149668305Y-153633211D01*
X149688096Y-153613489D01*
X149701485Y-153594857D01*
X149815435Y-153436277D01*
X149818453Y-153432077D01*
X149836968Y-153394616D01*
X149915136Y-153236453D01*
X149915137Y-153236451D01*
X149917430Y-153231811D01*
X149982370Y-153018069D01*
X150011529Y-152796590D01*
X150011852Y-152783365D01*
X150013074Y-152733365D01*
X150013074Y-152733361D01*
X150013156Y-152730000D01*
X149994852Y-152507361D01*
X149940431Y-152290702D01*
X149851354Y-152085840D01*
X149789610Y-151990398D01*
X149732822Y-151902617D01*
X149732820Y-151902614D01*
X149730014Y-151898277D01*
X149579670Y-151733051D01*
X149575619Y-151729852D01*
X149575615Y-151729848D01*
X149408414Y-151597800D01*
X149408410Y-151597798D01*
X149404359Y-151594598D01*
X149363053Y-151571796D01*
X149313084Y-151521364D01*
X149298312Y-151451921D01*
X149323428Y-151385516D01*
X149350780Y-151358909D01*
X149394603Y-151327650D01*
X149529860Y-151231173D01*
X149547156Y-151213938D01*
X149642787Y-151118640D01*
X149688096Y-151073489D01*
X149818453Y-150892077D01*
X149836696Y-150855166D01*
X149915136Y-150696453D01*
X149915137Y-150696451D01*
X149917430Y-150691811D01*
X149959039Y-150554861D01*
X149980865Y-150483023D01*
X149980865Y-150483021D01*
X149982370Y-150478069D01*
X150011529Y-150256590D01*
X150011852Y-150243365D01*
X150013074Y-150193365D01*
X150013074Y-150193361D01*
X150013156Y-150190000D01*
X149994852Y-149967361D01*
X149943939Y-149764669D01*
X152662001Y-149764669D01*
X152662371Y-149771490D01*
X152667895Y-149822352D01*
X152671521Y-149837604D01*
X152716676Y-149958054D01*
X152725214Y-149973649D01*
X152801715Y-150075724D01*
X152814276Y-150088285D01*
X152916351Y-150164786D01*
X152931946Y-150173324D01*
X153052394Y-150218478D01*
X153067649Y-150222105D01*
X153118514Y-150227631D01*
X153125328Y-150228000D01*
X153747885Y-150228000D01*
X153763124Y-150223525D01*
X153764329Y-150222135D01*
X153766000Y-150214452D01*
X153766000Y-150209884D01*
X154274000Y-150209884D01*
X154278475Y-150225123D01*
X154279865Y-150226328D01*
X154287548Y-150227999D01*
X154914669Y-150227999D01*
X154921490Y-150227629D01*
X154972352Y-150222105D01*
X154987604Y-150218479D01*
X155108054Y-150173324D01*
X155123649Y-150164786D01*
X155225724Y-150088285D01*
X155238285Y-150075724D01*
X155314786Y-149973649D01*
X155323324Y-149958054D01*
X155368478Y-149837606D01*
X155372105Y-149822351D01*
X155377631Y-149771486D01*
X155378000Y-149764672D01*
X155378000Y-149142115D01*
X155373525Y-149126876D01*
X155372135Y-149125671D01*
X155364452Y-149124000D01*
X154292115Y-149124000D01*
X154276876Y-149128475D01*
X154275671Y-149129865D01*
X154274000Y-149137548D01*
X154274000Y-150209884D01*
X153766000Y-150209884D01*
X153766000Y-149142115D01*
X153761525Y-149126876D01*
X153760135Y-149125671D01*
X153752452Y-149124000D01*
X152680116Y-149124000D01*
X152664877Y-149128475D01*
X152663672Y-149129865D01*
X152662001Y-149137548D01*
X152662001Y-149764669D01*
X149943939Y-149764669D01*
X149940431Y-149750702D01*
X149851354Y-149545840D01*
X149765168Y-149412617D01*
X149732822Y-149362617D01*
X149732820Y-149362614D01*
X149730014Y-149358277D01*
X149579670Y-149193051D01*
X149575619Y-149189852D01*
X149575615Y-149189848D01*
X149408414Y-149057800D01*
X149408410Y-149057798D01*
X149404359Y-149054598D01*
X149208789Y-148946638D01*
X149203920Y-148944914D01*
X149203916Y-148944912D01*
X149003087Y-148873795D01*
X149003083Y-148873794D01*
X148998212Y-148872069D01*
X148993119Y-148871162D01*
X148993116Y-148871161D01*
X148911905Y-148856695D01*
X157047251Y-148856695D01*
X157047548Y-148861848D01*
X157047548Y-148861851D01*
X157057050Y-149026639D01*
X157060110Y-149079715D01*
X157061247Y-149084761D01*
X157061248Y-149084767D01*
X157080600Y-149170635D01*
X157109222Y-149297639D01*
X157170673Y-149448976D01*
X157189940Y-149496424D01*
X157193266Y-149504616D01*
X157244019Y-149587438D01*
X157246504Y-149591492D01*
X157309987Y-149695088D01*
X157456250Y-149863938D01*
X157628126Y-150006632D01*
X157821000Y-150119338D01*
X158029692Y-150199030D01*
X158034760Y-150200061D01*
X158034763Y-150200062D01*
X158125281Y-150218478D01*
X158248597Y-150243567D01*
X158253772Y-150243757D01*
X158253774Y-150243757D01*
X158466673Y-150251564D01*
X158466677Y-150251564D01*
X158471837Y-150251753D01*
X158476957Y-150251097D01*
X158476959Y-150251097D01*
X158688288Y-150224025D01*
X158688289Y-150224025D01*
X158693416Y-150223368D01*
X158710785Y-150218157D01*
X158902429Y-150160661D01*
X158902434Y-150160659D01*
X158907384Y-150159174D01*
X159107994Y-150060896D01*
X159289860Y-149931173D01*
X159448096Y-149773489D01*
X159507594Y-149690689D01*
X159575435Y-149596277D01*
X159578453Y-149592077D01*
X159600908Y-149546644D01*
X159675136Y-149396453D01*
X159675137Y-149396451D01*
X159677430Y-149391811D01*
X159728936Y-149222285D01*
X159740865Y-149183023D01*
X159740865Y-149183021D01*
X159742370Y-149178069D01*
X159771529Y-148956590D01*
X159771818Y-148944771D01*
X159773074Y-148893365D01*
X159773074Y-148893361D01*
X159773156Y-148890000D01*
X159754852Y-148667361D01*
X159700431Y-148450702D01*
X159611354Y-148245840D01*
X159490014Y-148058277D01*
X159473587Y-148040224D01*
X159342798Y-147896488D01*
X159311746Y-147832642D01*
X159320141Y-147762143D01*
X159365317Y-147707375D01*
X159391761Y-147693706D01*
X159498297Y-147653767D01*
X159506705Y-147650615D01*
X159623261Y-147563261D01*
X159710615Y-147446705D01*
X159761745Y-147310316D01*
X159768500Y-147248134D01*
X159768500Y-145451866D01*
X159761745Y-145389684D01*
X159710615Y-145253295D01*
X159623261Y-145136739D01*
X159506705Y-145049385D01*
X159370316Y-144998255D01*
X159308134Y-144991500D01*
X157511866Y-144991500D01*
X157449684Y-144998255D01*
X157313295Y-145049385D01*
X157196739Y-145136739D01*
X157109385Y-145253295D01*
X157058255Y-145389684D01*
X157051500Y-145451866D01*
X157051500Y-147248134D01*
X157058255Y-147310316D01*
X157109385Y-147446705D01*
X157196739Y-147563261D01*
X157313295Y-147650615D01*
X157321704Y-147653767D01*
X157321705Y-147653768D01*
X157430451Y-147694535D01*
X157487216Y-147737176D01*
X157511916Y-147803738D01*
X157496709Y-147873087D01*
X157477316Y-147899568D01*
X157410289Y-147969708D01*
X157350629Y-148032138D01*
X157224743Y-148216680D01*
X157177716Y-148317992D01*
X157144812Y-148388878D01*
X157130688Y-148419305D01*
X157070989Y-148634570D01*
X157047251Y-148856695D01*
X148911905Y-148856695D01*
X148783373Y-148833800D01*
X148783367Y-148833799D01*
X148778284Y-148832894D01*
X148704452Y-148831992D01*
X148560081Y-148830228D01*
X148560079Y-148830228D01*
X148554911Y-148830165D01*
X148334091Y-148863955D01*
X148121756Y-148933357D01*
X148091443Y-148949137D01*
X148000195Y-148996638D01*
X147923607Y-149036507D01*
X147919474Y-149039610D01*
X147919471Y-149039612D01*
X147749100Y-149167530D01*
X147744965Y-149170635D01*
X147678824Y-149239848D01*
X147664283Y-149255064D01*
X147602759Y-149290494D01*
X147531846Y-149287037D01*
X147474060Y-149245791D01*
X147455207Y-149212243D01*
X147413767Y-149101703D01*
X147410615Y-149093295D01*
X147323261Y-148976739D01*
X147206705Y-148889385D01*
X147070316Y-148838255D01*
X147008134Y-148831500D01*
X145211866Y-148831500D01*
X145149684Y-148838255D01*
X145013295Y-148889385D01*
X144896739Y-148976739D01*
X144809385Y-149093295D01*
X144758255Y-149229684D01*
X144751500Y-149291866D01*
X144751500Y-150623880D01*
X144731498Y-150692001D01*
X144677842Y-150738494D01*
X144607568Y-150748598D01*
X144583235Y-150742580D01*
X144528505Y-150723091D01*
X144492424Y-150710243D01*
X144492422Y-150710243D01*
X144485790Y-150707881D01*
X144478802Y-150707048D01*
X144478799Y-150707047D01*
X144351024Y-150691811D01*
X144305680Y-150686404D01*
X144298677Y-150687140D01*
X144298676Y-150687140D01*
X144132288Y-150704628D01*
X144132286Y-150704629D01*
X144125288Y-150705364D01*
X143953579Y-150763818D01*
X143918976Y-150785106D01*
X143805095Y-150855166D01*
X143805092Y-150855168D01*
X143799088Y-150858862D01*
X143794053Y-150863793D01*
X143794050Y-150863795D01*
X143674525Y-150980843D01*
X143669493Y-150985771D01*
X143571235Y-151138238D01*
X143568826Y-151144858D01*
X143568824Y-151144861D01*
X143512664Y-151299160D01*
X143509197Y-151308685D01*
X143486463Y-151488640D01*
X143504163Y-151669160D01*
X143561418Y-151841273D01*
X143565065Y-151847295D01*
X143565066Y-151847297D01*
X143651730Y-151990398D01*
X143651733Y-151990401D01*
X143655380Y-151996424D01*
X143669593Y-152011142D01*
X143702524Y-152074037D01*
X143696224Y-152144753D01*
X143676598Y-152178303D01*
X143674531Y-152180838D01*
X143669493Y-152185771D01*
X143571235Y-152338238D01*
X143568826Y-152344858D01*
X143568824Y-152344861D01*
X143515780Y-152490598D01*
X143509197Y-152508685D01*
X143486463Y-152688640D01*
X143504163Y-152869160D01*
X143561418Y-153041273D01*
X143655380Y-153196424D01*
X143655623Y-153196675D01*
X143680381Y-153260375D01*
X143666242Y-153329950D01*
X143660750Y-153339337D01*
X143571235Y-153478238D01*
X143568826Y-153484858D01*
X143568824Y-153484861D01*
X143519361Y-153620760D01*
X143509197Y-153648685D01*
X143486463Y-153828640D01*
X141409392Y-153828640D01*
X141419860Y-153821173D01*
X141432013Y-153809063D01*
X141548766Y-153692717D01*
X141578096Y-153663489D01*
X141581581Y-153658640D01*
X141705435Y-153486277D01*
X141708453Y-153482077D01*
X141729320Y-153439857D01*
X141805136Y-153286453D01*
X141805137Y-153286451D01*
X141807430Y-153281811D01*
X141872370Y-153068069D01*
X141901529Y-152846590D01*
X141902670Y-152799908D01*
X141903074Y-152783365D01*
X141903074Y-152783361D01*
X141903156Y-152780000D01*
X141884852Y-152557361D01*
X141830431Y-152340702D01*
X141741354Y-152135840D01*
X141680950Y-152042469D01*
X141622822Y-151952617D01*
X141622820Y-151952614D01*
X141620014Y-151948277D01*
X141469670Y-151783051D01*
X141465619Y-151779852D01*
X141465615Y-151779848D01*
X141298414Y-151647800D01*
X141298410Y-151647798D01*
X141294359Y-151644598D01*
X141253053Y-151621796D01*
X141203084Y-151571364D01*
X141188312Y-151501921D01*
X141213428Y-151435516D01*
X141240780Y-151408909D01*
X141308092Y-151360896D01*
X141419860Y-151281173D01*
X141461835Y-151239345D01*
X141551175Y-151150316D01*
X141578096Y-151123489D01*
X141581581Y-151118640D01*
X141705435Y-150946277D01*
X141708453Y-150942077D01*
X141724307Y-150910000D01*
X141805136Y-150746453D01*
X141805137Y-150746451D01*
X141807430Y-150741811D01*
X141860552Y-150566967D01*
X141870865Y-150533023D01*
X141870865Y-150533021D01*
X141872370Y-150528069D01*
X141901529Y-150306590D01*
X141902156Y-150280915D01*
X141903074Y-150243365D01*
X141903074Y-150243361D01*
X141903156Y-150240000D01*
X141884852Y-150017361D01*
X141830431Y-149800702D01*
X141741354Y-149595840D01*
X141677039Y-149496424D01*
X141622822Y-149412617D01*
X141622820Y-149412614D01*
X141620014Y-149408277D01*
X141469670Y-149243051D01*
X141465619Y-149239852D01*
X141465615Y-149239848D01*
X141298414Y-149107800D01*
X141298410Y-149107798D01*
X141294359Y-149104598D01*
X141280931Y-149097185D01*
X141199260Y-149052101D01*
X141098789Y-148996638D01*
X141093920Y-148994914D01*
X141093916Y-148994912D01*
X140893087Y-148923795D01*
X140893083Y-148923794D01*
X140888212Y-148922069D01*
X140883119Y-148921162D01*
X140883116Y-148921161D01*
X140673373Y-148883800D01*
X140673367Y-148883799D01*
X140668284Y-148882894D01*
X140594452Y-148881992D01*
X140450081Y-148880228D01*
X140450079Y-148880228D01*
X140444911Y-148880165D01*
X140224091Y-148913955D01*
X140011756Y-148983357D01*
X139981443Y-148999137D01*
X139863257Y-149060661D01*
X139813607Y-149086507D01*
X139809474Y-149089610D01*
X139809471Y-149089612D01*
X139646142Y-149212243D01*
X139634965Y-149220635D01*
X139566198Y-149292596D01*
X139554283Y-149305064D01*
X139492759Y-149340494D01*
X139421846Y-149337037D01*
X139364060Y-149295791D01*
X139345207Y-149262243D01*
X139303767Y-149151703D01*
X139300615Y-149143295D01*
X139213261Y-149026739D01*
X139096705Y-148939385D01*
X138960316Y-148888255D01*
X138898134Y-148881500D01*
X137101866Y-148881500D01*
X137039684Y-148888255D01*
X136903295Y-148939385D01*
X136786739Y-149026739D01*
X136699385Y-149143295D01*
X136648255Y-149279684D01*
X136641500Y-149341866D01*
X136641500Y-151138134D01*
X136648255Y-151200316D01*
X136699385Y-151336705D01*
X136786739Y-151453261D01*
X136903295Y-151540615D01*
X136911704Y-151543767D01*
X136911705Y-151543768D01*
X137020451Y-151584535D01*
X137077216Y-151627176D01*
X137101916Y-151693738D01*
X137086709Y-151763087D01*
X137067316Y-151789568D01*
X136967082Y-151894457D01*
X136940629Y-151922138D01*
X136937720Y-151926403D01*
X136937714Y-151926411D01*
X136886499Y-152001489D01*
X136814743Y-152106680D01*
X136799003Y-152140590D01*
X136752206Y-152241406D01*
X136720688Y-152309305D01*
X136660989Y-152524570D01*
X136637251Y-152746695D01*
X136208500Y-152746695D01*
X136208500Y-151851840D01*
X136209237Y-151838232D01*
X136212659Y-151806736D01*
X136212659Y-151806732D01*
X136213324Y-151800611D01*
X136210289Y-151765918D01*
X136208950Y-151750609D01*
X136208621Y-151745784D01*
X136208500Y-151743313D01*
X136208500Y-151740231D01*
X136204309Y-151697489D01*
X136204187Y-151696174D01*
X136199955Y-151647800D01*
X136196087Y-151603587D01*
X136194600Y-151598468D01*
X136194080Y-151593167D01*
X136167199Y-151504133D01*
X136166864Y-151503000D01*
X136142627Y-151419578D01*
X136142625Y-151419574D01*
X136140908Y-151413663D01*
X136138457Y-151408934D01*
X136136916Y-151403831D01*
X136093230Y-151321669D01*
X136092683Y-151320627D01*
X136052728Y-151243545D01*
X136052727Y-151243544D01*
X136049892Y-151238074D01*
X136046569Y-151233911D01*
X136044066Y-151229204D01*
X136036056Y-151219382D01*
X135985263Y-151157105D01*
X135984500Y-151156160D01*
X135953261Y-151117027D01*
X135950770Y-151114536D01*
X135950120Y-151113809D01*
X135946408Y-151109463D01*
X135922955Y-151080708D01*
X135919065Y-151075938D01*
X135914323Y-151072015D01*
X135914321Y-151072013D01*
X135883727Y-151046703D01*
X135874947Y-151038713D01*
X134735405Y-149899171D01*
X134701379Y-149836859D01*
X134698500Y-149810076D01*
X134698500Y-146884669D01*
X135962001Y-146884669D01*
X135962371Y-146891490D01*
X135967895Y-146942352D01*
X135971521Y-146957604D01*
X136016676Y-147078054D01*
X136025214Y-147093649D01*
X136101715Y-147195724D01*
X136114276Y-147208285D01*
X136216351Y-147284786D01*
X136231946Y-147293324D01*
X136352394Y-147338478D01*
X136367649Y-147342105D01*
X136418514Y-147347631D01*
X136425328Y-147348000D01*
X137047885Y-147348000D01*
X137063124Y-147343525D01*
X137064329Y-147342135D01*
X137066000Y-147334452D01*
X137066000Y-147329884D01*
X137574000Y-147329884D01*
X137578475Y-147345123D01*
X137579865Y-147346328D01*
X137587548Y-147347999D01*
X138214669Y-147347999D01*
X138221490Y-147347629D01*
X138272352Y-147342105D01*
X138287604Y-147338479D01*
X138408054Y-147293324D01*
X138423649Y-147284786D01*
X138525724Y-147208285D01*
X138538285Y-147195724D01*
X138614786Y-147093649D01*
X138623324Y-147078054D01*
X138664225Y-146968952D01*
X138706867Y-146912188D01*
X138773428Y-146887488D01*
X138842777Y-146902696D01*
X138877444Y-146930684D01*
X138902865Y-146960031D01*
X138902869Y-146960035D01*
X138906250Y-146963938D01*
X139078126Y-147106632D01*
X139271000Y-147219338D01*
X139479692Y-147299030D01*
X139484760Y-147300061D01*
X139484763Y-147300062D01*
X139571531Y-147317715D01*
X139698597Y-147343567D01*
X139703772Y-147343757D01*
X139703774Y-147343757D01*
X139916673Y-147351564D01*
X139916677Y-147351564D01*
X139921837Y-147351753D01*
X139926957Y-147351097D01*
X139926959Y-147351097D01*
X140138288Y-147324025D01*
X140138289Y-147324025D01*
X140143416Y-147323368D01*
X140160925Y-147318115D01*
X140352429Y-147260661D01*
X140352434Y-147260659D01*
X140357384Y-147259174D01*
X140557994Y-147160896D01*
X140739860Y-147031173D01*
X140750863Y-147020209D01*
X140842992Y-146928401D01*
X140898096Y-146873489D01*
X140992275Y-146742425D01*
X141028453Y-146692077D01*
X141029776Y-146693028D01*
X141076645Y-146649857D01*
X141146580Y-146637625D01*
X141212026Y-146665144D01*
X141239875Y-146696994D01*
X141299987Y-146795088D01*
X141446250Y-146963938D01*
X141618126Y-147106632D01*
X141811000Y-147219338D01*
X142019692Y-147299030D01*
X142024760Y-147300061D01*
X142024763Y-147300062D01*
X142111531Y-147317715D01*
X142238597Y-147343567D01*
X142243772Y-147343757D01*
X142243774Y-147343757D01*
X142456673Y-147351564D01*
X142456677Y-147351564D01*
X142461837Y-147351753D01*
X142466957Y-147351097D01*
X142466959Y-147351097D01*
X142678288Y-147324025D01*
X142678289Y-147324025D01*
X142683416Y-147323368D01*
X142700925Y-147318115D01*
X142892429Y-147260661D01*
X142892434Y-147260659D01*
X142897384Y-147259174D01*
X143097994Y-147160896D01*
X143279860Y-147031173D01*
X143290863Y-147020209D01*
X143382992Y-146928401D01*
X143438096Y-146873489D01*
X143532275Y-146742425D01*
X143568453Y-146692077D01*
X143569776Y-146693028D01*
X143616645Y-146649857D01*
X143686580Y-146637625D01*
X143752026Y-146665144D01*
X143779875Y-146696994D01*
X143839987Y-146795088D01*
X143986250Y-146963938D01*
X144158126Y-147106632D01*
X144351000Y-147219338D01*
X144559692Y-147299030D01*
X144564760Y-147300061D01*
X144564763Y-147300062D01*
X144651531Y-147317715D01*
X144778597Y-147343567D01*
X144783772Y-147343757D01*
X144783774Y-147343757D01*
X144996673Y-147351564D01*
X144996677Y-147351564D01*
X145001837Y-147351753D01*
X145006957Y-147351097D01*
X145006959Y-147351097D01*
X145218288Y-147324025D01*
X145218289Y-147324025D01*
X145223416Y-147323368D01*
X145240925Y-147318115D01*
X145432429Y-147260661D01*
X145432434Y-147260659D01*
X145437384Y-147259174D01*
X145637994Y-147160896D01*
X145819860Y-147031173D01*
X145830863Y-147020209D01*
X145922992Y-146928401D01*
X145978096Y-146873489D01*
X146072275Y-146742425D01*
X146105435Y-146696277D01*
X146108453Y-146692077D01*
X146128211Y-146652101D01*
X146205136Y-146496453D01*
X146205137Y-146496451D01*
X146207430Y-146491811D01*
X146261594Y-146313538D01*
X146266711Y-146296695D01*
X152657251Y-146296695D01*
X152657548Y-146301848D01*
X152657548Y-146301851D01*
X152664217Y-146417508D01*
X152670110Y-146519715D01*
X152671247Y-146524761D01*
X152671248Y-146524767D01*
X152691119Y-146612939D01*
X152719222Y-146737639D01*
X152757461Y-146831811D01*
X152794851Y-146923891D01*
X152803266Y-146944616D01*
X152821293Y-146974034D01*
X152911584Y-147121375D01*
X152919987Y-147135088D01*
X153066250Y-147303938D01*
X153070225Y-147307238D01*
X153070231Y-147307244D01*
X153075425Y-147311556D01*
X153115059Y-147370460D01*
X153116555Y-147441441D01*
X153079439Y-147501962D01*
X153039168Y-147526480D01*
X152931946Y-147566676D01*
X152916351Y-147575214D01*
X152814276Y-147651715D01*
X152801715Y-147664276D01*
X152725214Y-147766351D01*
X152716676Y-147781946D01*
X152671522Y-147902394D01*
X152667895Y-147917649D01*
X152662369Y-147968514D01*
X152662000Y-147975328D01*
X152662000Y-148597885D01*
X152666475Y-148613124D01*
X152667865Y-148614329D01*
X152675548Y-148616000D01*
X155359884Y-148616000D01*
X155375123Y-148611525D01*
X155376328Y-148610135D01*
X155377999Y-148602452D01*
X155377999Y-147975331D01*
X155377629Y-147968510D01*
X155372105Y-147917648D01*
X155368479Y-147902396D01*
X155323324Y-147781946D01*
X155314786Y-147766351D01*
X155238285Y-147664276D01*
X155225724Y-147651715D01*
X155123649Y-147575214D01*
X155108054Y-147566676D01*
X154997813Y-147525348D01*
X154941049Y-147482706D01*
X154916349Y-147416145D01*
X154931557Y-147346796D01*
X154953104Y-147318115D01*
X155054430Y-147217144D01*
X155054440Y-147217132D01*
X155058096Y-147213489D01*
X155061836Y-147208285D01*
X155185435Y-147036277D01*
X155188453Y-147032077D01*
X155194319Y-147020209D01*
X155285136Y-146836453D01*
X155285137Y-146836451D01*
X155287430Y-146831811D01*
X155331294Y-146687438D01*
X155350865Y-146623023D01*
X155350865Y-146623021D01*
X155352370Y-146618069D01*
X155381529Y-146396590D01*
X155382839Y-146342976D01*
X155383074Y-146333365D01*
X155383074Y-146333361D01*
X155383156Y-146330000D01*
X155364852Y-146107361D01*
X155310431Y-145890702D01*
X155221354Y-145685840D01*
X155152688Y-145579698D01*
X155102822Y-145502617D01*
X155102820Y-145502614D01*
X155100014Y-145498277D01*
X154949670Y-145333051D01*
X154945619Y-145329852D01*
X154945615Y-145329848D01*
X154778414Y-145197800D01*
X154778410Y-145197798D01*
X154774359Y-145194598D01*
X154578789Y-145086638D01*
X154573920Y-145084914D01*
X154573916Y-145084912D01*
X154373087Y-145013795D01*
X154373083Y-145013794D01*
X154368212Y-145012069D01*
X154363119Y-145011162D01*
X154363116Y-145011161D01*
X154153373Y-144973800D01*
X154153367Y-144973799D01*
X154148284Y-144972894D01*
X154074452Y-144971992D01*
X153930081Y-144970228D01*
X153930079Y-144970228D01*
X153924911Y-144970165D01*
X153704091Y-145003955D01*
X153491756Y-145073357D01*
X153465736Y-145086902D01*
X153335965Y-145154457D01*
X153293607Y-145176507D01*
X153289474Y-145179610D01*
X153289471Y-145179612D01*
X153146372Y-145287054D01*
X153114965Y-145310635D01*
X152960629Y-145472138D01*
X152834743Y-145656680D01*
X152740688Y-145859305D01*
X152680989Y-146074570D01*
X152657251Y-146296695D01*
X146266711Y-146296695D01*
X146270865Y-146283023D01*
X146270865Y-146283021D01*
X146272370Y-146278069D01*
X146301529Y-146056590D01*
X146303156Y-145990000D01*
X146284852Y-145767361D01*
X146230431Y-145550702D01*
X146141354Y-145345840D01*
X146039682Y-145188679D01*
X146022822Y-145162617D01*
X146022820Y-145162614D01*
X146020014Y-145158277D01*
X145869670Y-144993051D01*
X145865619Y-144989852D01*
X145865615Y-144989848D01*
X145698414Y-144857800D01*
X145698410Y-144857798D01*
X145694359Y-144854598D01*
X145498789Y-144746638D01*
X145493920Y-144744914D01*
X145493916Y-144744912D01*
X145293087Y-144673795D01*
X145293083Y-144673794D01*
X145288212Y-144672069D01*
X145283119Y-144671162D01*
X145283116Y-144671161D01*
X145073373Y-144633800D01*
X145073367Y-144633799D01*
X145068284Y-144632894D01*
X144994452Y-144631992D01*
X144850081Y-144630228D01*
X144850079Y-144630228D01*
X144844911Y-144630165D01*
X144624091Y-144663955D01*
X144411756Y-144733357D01*
X144213607Y-144836507D01*
X144209474Y-144839610D01*
X144209471Y-144839612D01*
X144039100Y-144967530D01*
X144034965Y-144970635D01*
X144031393Y-144974373D01*
X143923858Y-145086902D01*
X143880629Y-145132138D01*
X143773201Y-145289621D01*
X143718293Y-145334621D01*
X143647768Y-145342792D01*
X143584021Y-145311538D01*
X143563324Y-145287054D01*
X143482822Y-145162617D01*
X143482820Y-145162614D01*
X143480014Y-145158277D01*
X143329670Y-144993051D01*
X143325619Y-144989852D01*
X143325615Y-144989848D01*
X143158414Y-144857800D01*
X143158410Y-144857798D01*
X143154359Y-144854598D01*
X142958789Y-144746638D01*
X142953920Y-144744914D01*
X142953916Y-144744912D01*
X142753087Y-144673795D01*
X142753083Y-144673794D01*
X142748212Y-144672069D01*
X142743119Y-144671162D01*
X142743116Y-144671161D01*
X142533373Y-144633800D01*
X142533367Y-144633799D01*
X142528284Y-144632894D01*
X142454452Y-144631992D01*
X142310081Y-144630228D01*
X142310079Y-144630228D01*
X142304911Y-144630165D01*
X142084091Y-144663955D01*
X141871756Y-144733357D01*
X141673607Y-144836507D01*
X141669474Y-144839610D01*
X141669471Y-144839612D01*
X141499100Y-144967530D01*
X141494965Y-144970635D01*
X141491393Y-144974373D01*
X141383858Y-145086902D01*
X141340629Y-145132138D01*
X141233201Y-145289621D01*
X141178293Y-145334621D01*
X141107768Y-145342792D01*
X141044021Y-145311538D01*
X141023324Y-145287054D01*
X140942822Y-145162617D01*
X140942820Y-145162614D01*
X140940014Y-145158277D01*
X140789670Y-144993051D01*
X140785619Y-144989852D01*
X140785615Y-144989848D01*
X140618414Y-144857800D01*
X140618410Y-144857798D01*
X140614359Y-144854598D01*
X140418789Y-144746638D01*
X140413920Y-144744914D01*
X140413916Y-144744912D01*
X140213087Y-144673795D01*
X140213083Y-144673794D01*
X140208212Y-144672069D01*
X140203119Y-144671162D01*
X140203116Y-144671161D01*
X139993373Y-144633800D01*
X139993367Y-144633799D01*
X139988284Y-144632894D01*
X139914452Y-144631992D01*
X139770081Y-144630228D01*
X139770079Y-144630228D01*
X139764911Y-144630165D01*
X139544091Y-144663955D01*
X139331756Y-144733357D01*
X139133607Y-144836507D01*
X139129474Y-144839610D01*
X139129471Y-144839612D01*
X138959100Y-144967530D01*
X138954965Y-144970635D01*
X138951393Y-144974373D01*
X138873898Y-145055466D01*
X138812374Y-145090895D01*
X138741462Y-145087438D01*
X138683676Y-145046192D01*
X138664823Y-145012644D01*
X138623324Y-144901946D01*
X138614786Y-144886351D01*
X138538285Y-144784276D01*
X138525724Y-144771715D01*
X138423649Y-144695214D01*
X138408054Y-144686676D01*
X138287606Y-144641522D01*
X138272351Y-144637895D01*
X138221486Y-144632369D01*
X138214672Y-144632000D01*
X137592115Y-144632000D01*
X137576876Y-144636475D01*
X137575671Y-144637865D01*
X137574000Y-144645548D01*
X137574000Y-147329884D01*
X137066000Y-147329884D01*
X137066000Y-146262115D01*
X137061525Y-146246876D01*
X137060135Y-146245671D01*
X137052452Y-146244000D01*
X135980116Y-146244000D01*
X135964877Y-146248475D01*
X135963672Y-146249865D01*
X135962001Y-146257548D01*
X135962001Y-146884669D01*
X134698500Y-146884669D01*
X134698500Y-146580345D01*
X134704398Y-146542246D01*
X134709372Y-146526567D01*
X134711235Y-146520694D01*
X134711829Y-146515398D01*
X134713387Y-146510302D01*
X134722790Y-146417743D01*
X134722911Y-146416607D01*
X134728500Y-146366773D01*
X134728500Y-146363246D01*
X134728555Y-146362261D01*
X134729002Y-146356581D01*
X134733374Y-146313538D01*
X134729059Y-146267891D01*
X134728500Y-146256033D01*
X134728500Y-145717885D01*
X135962000Y-145717885D01*
X135966475Y-145733124D01*
X135967865Y-145734329D01*
X135975548Y-145736000D01*
X137047885Y-145736000D01*
X137063124Y-145731525D01*
X137064329Y-145730135D01*
X137066000Y-145722452D01*
X137066000Y-144650116D01*
X137061525Y-144634877D01*
X137060135Y-144633672D01*
X137052452Y-144632001D01*
X136425331Y-144632001D01*
X136418510Y-144632371D01*
X136367648Y-144637895D01*
X136352396Y-144641521D01*
X136231946Y-144686676D01*
X136216351Y-144695214D01*
X136114276Y-144771715D01*
X136101715Y-144784276D01*
X136025214Y-144886351D01*
X136016676Y-144901946D01*
X135971522Y-145022394D01*
X135967895Y-145037649D01*
X135962369Y-145088514D01*
X135962000Y-145095328D01*
X135962000Y-145717885D01*
X134728500Y-145717885D01*
X134728500Y-144959926D01*
X134748502Y-144891805D01*
X134765404Y-144870831D01*
X135450829Y-144185405D01*
X135513142Y-144151380D01*
X135539925Y-144148500D01*
X172070300Y-144148500D01*
X172138421Y-144168502D01*
G37*
G04 #@! TD.AperFunction*
G04 #@! TA.AperFunction,Conductor*
G36*
X164202210Y-124528002D02*
G01*
X164248703Y-124581658D01*
X164258807Y-124651932D01*
X164225563Y-124720652D01*
X164206873Y-124740382D01*
X164204494Y-124742825D01*
X163141089Y-125806230D01*
X163126677Y-125818616D01*
X163115082Y-125827149D01*
X163115077Y-125827154D01*
X163109182Y-125831492D01*
X163104443Y-125837070D01*
X163104440Y-125837073D01*
X163074965Y-125871768D01*
X163068035Y-125879284D01*
X163062340Y-125884979D01*
X163060060Y-125887861D01*
X163044719Y-125907251D01*
X163041928Y-125910655D01*
X162999409Y-125960703D01*
X162994667Y-125966285D01*
X162991339Y-125972801D01*
X162987972Y-125977850D01*
X162984805Y-125982979D01*
X162980266Y-125988716D01*
X162949345Y-126054875D01*
X162947442Y-126058769D01*
X162914231Y-126123808D01*
X162912492Y-126130916D01*
X162910393Y-126136559D01*
X162908476Y-126142322D01*
X162905378Y-126148950D01*
X162903888Y-126156112D01*
X162903888Y-126156113D01*
X162890514Y-126220412D01*
X162889544Y-126224696D01*
X162872192Y-126295610D01*
X162871500Y-126306764D01*
X162871464Y-126306762D01*
X162871225Y-126310755D01*
X162870851Y-126314947D01*
X162869360Y-126322115D01*
X162869558Y-126329432D01*
X162871454Y-126399521D01*
X162871500Y-126402928D01*
X162871500Y-128772930D01*
X162870067Y-128791880D01*
X162866801Y-128813349D01*
X162867394Y-128820641D01*
X162867394Y-128820644D01*
X162871085Y-128866018D01*
X162871500Y-128876233D01*
X162871500Y-128884293D01*
X162871925Y-128887937D01*
X162874789Y-128912507D01*
X162875222Y-128916882D01*
X162879616Y-128970896D01*
X162881140Y-128989637D01*
X162883396Y-128996601D01*
X162884587Y-129002560D01*
X162885971Y-129008415D01*
X162886818Y-129015681D01*
X162911735Y-129084327D01*
X162913152Y-129088455D01*
X162915347Y-129095229D01*
X162935649Y-129157899D01*
X162939445Y-129164154D01*
X162941951Y-129169628D01*
X162944670Y-129175058D01*
X162947167Y-129181937D01*
X162951180Y-129188057D01*
X162951180Y-129188058D01*
X162987186Y-129242976D01*
X162989523Y-129246680D01*
X163027405Y-129309107D01*
X163031121Y-129313315D01*
X163031122Y-129313316D01*
X163034803Y-129317484D01*
X163034776Y-129317508D01*
X163037429Y-129320500D01*
X163040132Y-129323733D01*
X163044144Y-129329852D01*
X163083608Y-129367237D01*
X163100383Y-129383128D01*
X163102825Y-129385506D01*
X165026230Y-131308911D01*
X165038616Y-131323323D01*
X165047149Y-131334918D01*
X165047154Y-131334923D01*
X165051492Y-131340818D01*
X165057070Y-131345557D01*
X165057073Y-131345560D01*
X165091768Y-131375035D01*
X165099284Y-131381965D01*
X165104979Y-131387660D01*
X165107861Y-131389940D01*
X165127251Y-131405281D01*
X165130655Y-131408072D01*
X165180703Y-131450591D01*
X165186285Y-131455333D01*
X165192801Y-131458661D01*
X165197850Y-131462028D01*
X165202979Y-131465195D01*
X165208716Y-131469734D01*
X165274875Y-131500655D01*
X165278769Y-131502558D01*
X165343808Y-131535769D01*
X165350917Y-131537508D01*
X165356551Y-131539604D01*
X165362321Y-131541523D01*
X165368950Y-131544622D01*
X165376113Y-131546112D01*
X165376116Y-131546113D01*
X165426830Y-131556661D01*
X165440435Y-131559491D01*
X165444701Y-131560457D01*
X165515610Y-131577808D01*
X165521212Y-131578156D01*
X165521215Y-131578156D01*
X165526764Y-131578500D01*
X165526762Y-131578535D01*
X165530734Y-131578775D01*
X165534955Y-131579152D01*
X165542115Y-131580641D01*
X165619542Y-131578546D01*
X165622950Y-131578500D01*
X167257565Y-131578500D01*
X167325686Y-131598502D01*
X167372179Y-131652158D01*
X167382571Y-131720292D01*
X167376463Y-131768640D01*
X167394163Y-131949160D01*
X167451418Y-132121273D01*
X167455065Y-132127295D01*
X167455066Y-132127297D01*
X167520802Y-132235840D01*
X167545380Y-132276424D01*
X167671382Y-132406902D01*
X167823159Y-132506222D01*
X167829763Y-132508678D01*
X167829765Y-132508679D01*
X167986558Y-132566990D01*
X167986560Y-132566990D01*
X167993168Y-132569448D01*
X168076995Y-132580633D01*
X168165980Y-132592507D01*
X168165984Y-132592507D01*
X168172961Y-132593438D01*
X168179972Y-132592800D01*
X168179976Y-132592800D01*
X168322459Y-132579832D01*
X168353600Y-132576998D01*
X168360302Y-132574820D01*
X168360304Y-132574820D01*
X168519409Y-132523124D01*
X168519412Y-132523123D01*
X168526108Y-132520947D01*
X168681912Y-132428069D01*
X168813266Y-132302982D01*
X168913643Y-132151902D01*
X168978055Y-131982338D01*
X168979035Y-131975366D01*
X169002748Y-131806639D01*
X169002748Y-131806636D01*
X169003299Y-131802717D01*
X169003616Y-131780000D01*
X168995857Y-131710830D01*
X169008141Y-131640906D01*
X169056279Y-131588722D01*
X169110857Y-131571201D01*
X169132339Y-131569454D01*
X169132342Y-131569453D01*
X169139637Y-131568860D01*
X169146601Y-131566604D01*
X169152560Y-131565413D01*
X169158415Y-131564029D01*
X169165681Y-131563182D01*
X169234327Y-131538265D01*
X169238455Y-131536848D01*
X169300936Y-131516607D01*
X169300938Y-131516606D01*
X169307899Y-131514351D01*
X169314154Y-131510555D01*
X169319628Y-131508049D01*
X169325058Y-131505330D01*
X169331937Y-131502833D01*
X169353376Y-131488777D01*
X169392976Y-131462814D01*
X169396680Y-131460477D01*
X169459107Y-131422595D01*
X169467484Y-131415197D01*
X169467508Y-131415224D01*
X169470500Y-131412571D01*
X169473733Y-131409868D01*
X169479852Y-131405856D01*
X169533128Y-131349617D01*
X169535506Y-131347175D01*
X169986405Y-130896276D01*
X170048717Y-130862250D01*
X170119532Y-130867315D01*
X170176368Y-130909862D01*
X170201179Y-130976382D01*
X170201500Y-130985371D01*
X170201500Y-140135500D01*
X170181498Y-140203621D01*
X170127842Y-140250114D01*
X170075500Y-140261500D01*
X136721741Y-140261500D01*
X136653620Y-140241498D01*
X136607127Y-140187842D01*
X136597023Y-140117568D01*
X136609675Y-140077904D01*
X136609742Y-140077773D01*
X136613643Y-140071902D01*
X136678055Y-139902338D01*
X136680866Y-139882338D01*
X136702748Y-139726639D01*
X136702748Y-139726636D01*
X136703299Y-139722717D01*
X136703452Y-139711738D01*
X136703561Y-139703962D01*
X136703561Y-139703957D01*
X136703616Y-139700000D01*
X136683397Y-139519745D01*
X136680267Y-139510757D01*
X136626064Y-139355106D01*
X136626062Y-139355103D01*
X136623745Y-139348448D01*
X136527626Y-139194624D01*
X136487647Y-139154365D01*
X136404778Y-139070915D01*
X136404774Y-139070912D01*
X136399815Y-139065918D01*
X136388697Y-139058862D01*
X136287506Y-138994645D01*
X136246666Y-138968727D01*
X136201112Y-138952506D01*
X136082425Y-138910243D01*
X136082420Y-138910242D01*
X136075790Y-138907881D01*
X136068802Y-138907048D01*
X136068799Y-138907047D01*
X135940462Y-138891744D01*
X135895680Y-138886404D01*
X135888677Y-138887140D01*
X135888676Y-138887140D01*
X135722288Y-138904628D01*
X135722286Y-138904629D01*
X135715288Y-138905364D01*
X135543579Y-138963818D01*
X135522453Y-138976815D01*
X135395095Y-139055166D01*
X135395092Y-139055168D01*
X135389088Y-139058862D01*
X135384053Y-139063793D01*
X135384050Y-139063795D01*
X135275872Y-139169731D01*
X135259493Y-139185771D01*
X135161235Y-139338238D01*
X135158826Y-139344858D01*
X135158824Y-139344861D01*
X135106476Y-139488685D01*
X135099197Y-139508685D01*
X135076463Y-139688640D01*
X135094163Y-139869160D01*
X135151418Y-140041273D01*
X135161411Y-140057773D01*
X135168955Y-140070230D01*
X135187133Y-140138859D01*
X135165322Y-140206423D01*
X135110446Y-140251468D01*
X135061178Y-140261500D01*
X133951842Y-140261500D01*
X133938235Y-140260763D01*
X133906737Y-140257341D01*
X133906732Y-140257341D01*
X133900611Y-140256676D01*
X133882611Y-140258251D01*
X133850609Y-140261050D01*
X133845784Y-140261379D01*
X133843313Y-140261500D01*
X133840231Y-140261500D01*
X133817763Y-140263703D01*
X133797489Y-140265691D01*
X133796174Y-140265813D01*
X133763913Y-140268636D01*
X133703587Y-140273913D01*
X133698468Y-140275400D01*
X133693167Y-140275920D01*
X133604166Y-140302791D01*
X133603033Y-140303126D01*
X133519586Y-140327370D01*
X133519582Y-140327372D01*
X133513664Y-140329091D01*
X133508932Y-140331544D01*
X133503831Y-140333084D01*
X133498388Y-140335978D01*
X133421740Y-140376731D01*
X133420574Y-140377343D01*
X133364862Y-140406222D01*
X133338074Y-140420108D01*
X133333911Y-140423431D01*
X133329204Y-140425934D01*
X133257082Y-140484755D01*
X133256226Y-140485446D01*
X133217027Y-140516738D01*
X133214523Y-140519242D01*
X133213805Y-140519884D01*
X133209472Y-140523585D01*
X133175938Y-140550935D01*
X133172011Y-140555682D01*
X133172009Y-140555684D01*
X133146713Y-140586262D01*
X133138723Y-140595042D01*
X132262278Y-141471488D01*
X131567264Y-142166502D01*
X131504952Y-142200527D01*
X131434137Y-142195463D01*
X131377301Y-142152916D01*
X131352954Y-142091454D01*
X131350182Y-142066743D01*
X131349397Y-142059745D01*
X131346109Y-142050302D01*
X131292064Y-141895106D01*
X131292062Y-141895103D01*
X131289745Y-141888448D01*
X131193626Y-141734624D01*
X131065815Y-141605918D01*
X131059870Y-141602145D01*
X131059866Y-141602142D01*
X131058487Y-141601267D01*
X131057793Y-141600476D01*
X131054376Y-141597728D01*
X131054859Y-141597128D01*
X131011688Y-141547878D01*
X131000000Y-141494881D01*
X131000000Y-140546968D01*
X131020002Y-140478847D01*
X131073658Y-140432354D01*
X131087063Y-140427135D01*
X131090760Y-140425934D01*
X131106108Y-140420947D01*
X131237080Y-140342872D01*
X131255860Y-140331677D01*
X131255862Y-140331676D01*
X131261912Y-140328069D01*
X131393266Y-140202982D01*
X131493643Y-140051902D01*
X131535423Y-139941917D01*
X131555555Y-139888920D01*
X131555556Y-139888918D01*
X131558055Y-139882338D01*
X131583299Y-139702717D01*
X131583452Y-139691738D01*
X131583561Y-139683962D01*
X131583561Y-139683957D01*
X131583616Y-139680000D01*
X131563397Y-139499745D01*
X131561080Y-139493091D01*
X131506064Y-139335106D01*
X131506062Y-139335103D01*
X131503745Y-139328448D01*
X131407626Y-139174624D01*
X131387508Y-139154365D01*
X131284778Y-139050915D01*
X131284774Y-139050912D01*
X131279815Y-139045918D01*
X131268697Y-139038862D01*
X131199021Y-138994645D01*
X131126666Y-138948727D01*
X131083732Y-138933439D01*
X131026269Y-138891744D01*
X131000469Y-138825601D01*
X131000000Y-138814740D01*
X131000000Y-137990000D01*
X140256496Y-137990000D01*
X140276458Y-138179928D01*
X140335473Y-138361556D01*
X140338776Y-138367278D01*
X140338777Y-138367279D01*
X140368431Y-138418640D01*
X140430960Y-138526944D01*
X140435378Y-138531851D01*
X140435379Y-138531852D01*
X140538599Y-138646489D01*
X140558747Y-138668866D01*
X140611150Y-138706939D01*
X140699698Y-138771273D01*
X140713248Y-138781118D01*
X140719276Y-138783802D01*
X140719278Y-138783803D01*
X140836376Y-138835938D01*
X140887712Y-138858794D01*
X140981113Y-138878647D01*
X141068056Y-138897128D01*
X141068061Y-138897128D01*
X141074513Y-138898500D01*
X141265487Y-138898500D01*
X141271939Y-138897128D01*
X141271944Y-138897128D01*
X141358887Y-138878647D01*
X141452288Y-138858794D01*
X141503624Y-138835938D01*
X141620722Y-138783803D01*
X141620724Y-138783802D01*
X141626752Y-138781118D01*
X141640303Y-138771273D01*
X141728850Y-138706939D01*
X141781253Y-138668866D01*
X141782349Y-138667649D01*
X141844692Y-138637727D01*
X141915146Y-138646489D01*
X141947073Y-138667007D01*
X141948747Y-138668866D01*
X142001150Y-138706939D01*
X142089698Y-138771273D01*
X142103248Y-138781118D01*
X142109276Y-138783802D01*
X142109278Y-138783803D01*
X142226376Y-138835938D01*
X142277712Y-138858794D01*
X142371113Y-138878647D01*
X142458056Y-138897128D01*
X142458061Y-138897128D01*
X142464513Y-138898500D01*
X142655487Y-138898500D01*
X142661939Y-138897128D01*
X142661944Y-138897128D01*
X142748887Y-138878647D01*
X142842288Y-138858794D01*
X142893624Y-138835938D01*
X143010722Y-138783803D01*
X143010724Y-138783802D01*
X143016752Y-138781118D01*
X143030303Y-138771273D01*
X143118850Y-138706939D01*
X143171253Y-138668866D01*
X143191401Y-138646489D01*
X143294621Y-138531852D01*
X143294622Y-138531851D01*
X143299040Y-138526944D01*
X143361569Y-138418640D01*
X143391223Y-138367279D01*
X143391224Y-138367278D01*
X143394527Y-138361556D01*
X143453542Y-138179928D01*
X143473504Y-137990000D01*
X143470035Y-137956998D01*
X143454232Y-137806635D01*
X143454232Y-137806633D01*
X143453542Y-137800072D01*
X143420218Y-137697512D01*
X143410704Y-137668230D01*
X143408677Y-137597262D01*
X143445339Y-137536465D01*
X143502857Y-137507066D01*
X143503600Y-137506998D01*
X143510302Y-137504820D01*
X143510304Y-137504820D01*
X143669409Y-137453124D01*
X143669412Y-137453123D01*
X143676108Y-137450947D01*
X143772513Y-137393478D01*
X143825860Y-137361677D01*
X143825862Y-137361676D01*
X143831912Y-137358069D01*
X143963266Y-137232982D01*
X144019303Y-137148640D01*
X161746463Y-137148640D01*
X161764163Y-137329160D01*
X161821418Y-137501273D01*
X161825065Y-137507295D01*
X161825066Y-137507297D01*
X161905581Y-137640243D01*
X161915380Y-137656424D01*
X161920269Y-137661487D01*
X161920270Y-137661488D01*
X161924826Y-137666206D01*
X162041382Y-137786902D01*
X162047278Y-137790760D01*
X162151245Y-137858794D01*
X162193159Y-137886222D01*
X162199763Y-137888678D01*
X162199765Y-137888679D01*
X162356558Y-137946990D01*
X162356560Y-137946990D01*
X162363168Y-137949448D01*
X162446995Y-137960633D01*
X162535980Y-137972507D01*
X162535984Y-137972507D01*
X162542961Y-137973438D01*
X162549972Y-137972800D01*
X162549976Y-137972800D01*
X162692459Y-137959832D01*
X162723600Y-137956998D01*
X162730302Y-137954820D01*
X162730304Y-137954820D01*
X162889409Y-137903124D01*
X162889412Y-137903123D01*
X162896108Y-137900947D01*
X163051912Y-137808069D01*
X163183266Y-137682982D01*
X163283643Y-137531902D01*
X163348055Y-137362338D01*
X163349338Y-137353211D01*
X163372748Y-137186639D01*
X163372748Y-137186636D01*
X163373299Y-137182717D01*
X163373616Y-137160000D01*
X163353397Y-136979745D01*
X163351080Y-136973091D01*
X163296064Y-136815106D01*
X163296062Y-136815103D01*
X163293745Y-136808448D01*
X163248079Y-136735366D01*
X163201359Y-136660598D01*
X163197626Y-136654624D01*
X163157979Y-136614699D01*
X163124172Y-136552268D01*
X163129484Y-136481470D01*
X163160492Y-136434670D01*
X163169872Y-136425737D01*
X163183266Y-136412982D01*
X163283643Y-136261902D01*
X163348055Y-136092338D01*
X163349035Y-136085366D01*
X163372748Y-135916639D01*
X163372748Y-135916636D01*
X163373299Y-135912717D01*
X163373515Y-135897238D01*
X163373561Y-135893962D01*
X163373561Y-135893957D01*
X163373616Y-135890000D01*
X163353397Y-135709745D01*
X163349711Y-135699160D01*
X163296064Y-135545106D01*
X163296062Y-135545103D01*
X163293745Y-135538448D01*
X163228366Y-135433818D01*
X163201359Y-135390598D01*
X163197626Y-135384624D01*
X163188835Y-135375771D01*
X163157979Y-135344699D01*
X163124172Y-135282268D01*
X163129484Y-135211470D01*
X163160492Y-135164670D01*
X163169872Y-135155737D01*
X163183266Y-135142982D01*
X163283643Y-134991902D01*
X163348055Y-134822338D01*
X163351706Y-134796362D01*
X163372748Y-134646639D01*
X163372748Y-134646636D01*
X163373299Y-134642717D01*
X163373616Y-134620000D01*
X163353397Y-134439745D01*
X163351080Y-134433091D01*
X163296064Y-134275106D01*
X163296062Y-134275103D01*
X163293745Y-134268448D01*
X163290009Y-134262469D01*
X163201359Y-134120598D01*
X163197626Y-134114624D01*
X163177907Y-134094767D01*
X163074778Y-133990915D01*
X163074774Y-133990912D01*
X163069815Y-133985918D01*
X163058697Y-133978862D01*
X162967793Y-133921173D01*
X162916666Y-133888727D01*
X162840378Y-133861562D01*
X162752425Y-133830243D01*
X162752420Y-133830242D01*
X162745790Y-133827881D01*
X162738802Y-133827048D01*
X162738799Y-133827047D01*
X162615698Y-133812368D01*
X162565680Y-133806404D01*
X162558677Y-133807140D01*
X162558676Y-133807140D01*
X162392288Y-133824628D01*
X162392286Y-133824629D01*
X162385288Y-133825364D01*
X162213579Y-133883818D01*
X162205600Y-133888727D01*
X162065095Y-133975166D01*
X162065092Y-133975168D01*
X162059088Y-133978862D01*
X162054053Y-133983793D01*
X162054050Y-133983795D01*
X161934525Y-134100843D01*
X161929493Y-134105771D01*
X161831235Y-134258238D01*
X161828826Y-134264858D01*
X161828824Y-134264861D01*
X161796924Y-134352506D01*
X161769197Y-134428685D01*
X161746463Y-134608640D01*
X161764163Y-134789160D01*
X161821418Y-134961273D01*
X161825065Y-134967295D01*
X161825066Y-134967297D01*
X161908633Y-135105283D01*
X161915380Y-135116424D01*
X161941027Y-135142982D01*
X161964042Y-135166815D01*
X161996974Y-135229712D01*
X161990674Y-135300428D01*
X161961565Y-135344364D01*
X161929493Y-135375771D01*
X161831235Y-135528238D01*
X161828826Y-135534858D01*
X161828824Y-135534861D01*
X161783413Y-135659627D01*
X161769197Y-135698685D01*
X161746463Y-135878640D01*
X161764163Y-136059160D01*
X161821418Y-136231273D01*
X161825065Y-136237295D01*
X161825066Y-136237297D01*
X161899223Y-136359745D01*
X161915380Y-136386424D01*
X161941027Y-136412982D01*
X161964042Y-136436815D01*
X161996974Y-136499712D01*
X161990674Y-136570428D01*
X161961565Y-136614364D01*
X161929493Y-136645771D01*
X161831235Y-136798238D01*
X161828826Y-136804858D01*
X161828824Y-136804861D01*
X161787424Y-136918606D01*
X161769197Y-136968685D01*
X161746463Y-137148640D01*
X144019303Y-137148640D01*
X144063643Y-137081902D01*
X144120185Y-136933056D01*
X144125555Y-136918920D01*
X144125556Y-136918918D01*
X144128055Y-136912338D01*
X144130320Y-136896222D01*
X144152748Y-136736639D01*
X144152748Y-136736636D01*
X144153299Y-136732717D01*
X144153452Y-136721738D01*
X144153561Y-136713962D01*
X144153561Y-136713957D01*
X144153616Y-136710000D01*
X144133397Y-136529745D01*
X144130577Y-136521646D01*
X144076064Y-136365106D01*
X144076062Y-136365103D01*
X144073745Y-136358448D01*
X144070009Y-136352469D01*
X143981359Y-136210598D01*
X143977626Y-136204624D01*
X143963941Y-136190843D01*
X143854778Y-136080915D01*
X143854774Y-136080912D01*
X143849815Y-136075918D01*
X143838697Y-136068862D01*
X143725056Y-135996744D01*
X143696666Y-135978727D01*
X143667463Y-135968328D01*
X143532425Y-135920243D01*
X143532420Y-135920242D01*
X143525790Y-135917881D01*
X143518802Y-135917048D01*
X143518799Y-135917047D01*
X143391787Y-135901902D01*
X143345680Y-135896404D01*
X143338677Y-135897140D01*
X143338676Y-135897140D01*
X143172288Y-135914628D01*
X143172286Y-135914629D01*
X143165288Y-135915364D01*
X142993579Y-135973818D01*
X142987575Y-135977512D01*
X142845095Y-136065166D01*
X142845092Y-136065168D01*
X142839088Y-136068862D01*
X142834053Y-136073793D01*
X142834050Y-136073795D01*
X142720634Y-136184861D01*
X142709493Y-136195771D01*
X142611235Y-136348238D01*
X142608826Y-136354858D01*
X142608824Y-136354861D01*
X142554327Y-136504590D01*
X142549197Y-136518685D01*
X142526463Y-136698640D01*
X142544163Y-136879160D01*
X142549338Y-136894717D01*
X142557285Y-136918606D01*
X142559808Y-136989558D01*
X142523571Y-137050610D01*
X142463924Y-137081625D01*
X142412121Y-137092636D01*
X142277712Y-137121206D01*
X142271682Y-137123891D01*
X142271681Y-137123891D01*
X142109278Y-137196197D01*
X142109276Y-137196198D01*
X142103248Y-137198882D01*
X141948747Y-137311134D01*
X141947651Y-137312351D01*
X141885308Y-137342273D01*
X141814854Y-137333511D01*
X141782927Y-137312993D01*
X141781253Y-137311134D01*
X141626752Y-137198882D01*
X141620724Y-137196198D01*
X141620722Y-137196197D01*
X141458319Y-137123891D01*
X141458318Y-137123891D01*
X141452288Y-137121206D01*
X141337021Y-137096705D01*
X141271944Y-137082872D01*
X141271939Y-137082872D01*
X141265487Y-137081500D01*
X141074513Y-137081500D01*
X141068061Y-137082872D01*
X141068056Y-137082872D01*
X141002979Y-137096705D01*
X140887712Y-137121206D01*
X140881682Y-137123891D01*
X140881681Y-137123891D01*
X140719278Y-137196197D01*
X140719276Y-137196198D01*
X140713248Y-137198882D01*
X140558747Y-137311134D01*
X140554326Y-137316044D01*
X140554325Y-137316045D01*
X140464368Y-137415953D01*
X140430960Y-137453056D01*
X140335473Y-137618444D01*
X140276458Y-137800072D01*
X140275768Y-137806633D01*
X140275768Y-137806635D01*
X140259965Y-137956998D01*
X140256496Y-137990000D01*
X131000000Y-137990000D01*
X131000000Y-137484074D01*
X131020002Y-137415953D01*
X131073658Y-137369460D01*
X131118136Y-137358516D01*
X131118134Y-137358500D01*
X131118257Y-137358487D01*
X131118260Y-137358486D01*
X131122102Y-137358069D01*
X131124440Y-137357815D01*
X131180316Y-137351745D01*
X131316705Y-137300615D01*
X131433261Y-137213261D01*
X131520615Y-137096705D01*
X131560617Y-136990000D01*
X132086496Y-136990000D01*
X132087186Y-136996565D01*
X132104364Y-137160000D01*
X132106458Y-137179928D01*
X132165473Y-137361556D01*
X132168776Y-137367278D01*
X132168777Y-137367279D01*
X132170036Y-137369460D01*
X132260960Y-137526944D01*
X132265378Y-137531851D01*
X132265379Y-137531852D01*
X132338194Y-137612721D01*
X132388747Y-137668866D01*
X132543248Y-137781118D01*
X132549276Y-137783802D01*
X132549278Y-137783803D01*
X132711681Y-137856109D01*
X132717712Y-137858794D01*
X132811113Y-137878647D01*
X132898056Y-137897128D01*
X132898061Y-137897128D01*
X132904513Y-137898500D01*
X133095487Y-137898500D01*
X133101939Y-137897128D01*
X133101944Y-137897128D01*
X133188887Y-137878647D01*
X133282288Y-137858794D01*
X133288319Y-137856109D01*
X133450722Y-137783803D01*
X133450724Y-137783802D01*
X133456752Y-137781118D01*
X133611253Y-137668866D01*
X133661806Y-137612721D01*
X133734621Y-137531852D01*
X133734622Y-137531851D01*
X133739040Y-137526944D01*
X133829964Y-137369460D01*
X133831223Y-137367279D01*
X133831224Y-137367278D01*
X133834527Y-137361556D01*
X133893542Y-137179928D01*
X133895637Y-137160000D01*
X133912814Y-136996565D01*
X133913504Y-136990000D01*
X133905424Y-136913124D01*
X133894232Y-136806635D01*
X133894232Y-136806633D01*
X133893542Y-136800072D01*
X133834527Y-136618444D01*
X133817420Y-136588813D01*
X133786532Y-136535314D01*
X133739040Y-136453056D01*
X133661325Y-136366744D01*
X133615675Y-136316045D01*
X133615674Y-136316044D01*
X133611253Y-136311134D01*
X133512157Y-136239136D01*
X133462094Y-136202763D01*
X133462093Y-136202762D01*
X133456752Y-136198882D01*
X133450724Y-136196198D01*
X133450722Y-136196197D01*
X133366367Y-136158640D01*
X135026463Y-136158640D01*
X135044163Y-136339160D01*
X135101418Y-136511273D01*
X135105065Y-136517295D01*
X135105066Y-136517297D01*
X135188234Y-136654624D01*
X135195380Y-136666424D01*
X135200269Y-136671487D01*
X135200270Y-136671488D01*
X135215357Y-136687111D01*
X135321382Y-136796902D01*
X135333545Y-136804861D01*
X135450315Y-136881273D01*
X135473159Y-136896222D01*
X135479763Y-136898678D01*
X135479765Y-136898679D01*
X135636558Y-136956990D01*
X135636560Y-136956990D01*
X135643168Y-136959448D01*
X135712395Y-136968685D01*
X135815980Y-136982507D01*
X135815984Y-136982507D01*
X135822961Y-136983438D01*
X135829972Y-136982800D01*
X135829976Y-136982800D01*
X135972459Y-136969832D01*
X136003600Y-136966998D01*
X136010302Y-136964820D01*
X136010304Y-136964820D01*
X136169409Y-136913124D01*
X136169412Y-136913123D01*
X136176108Y-136910947D01*
X136331912Y-136818069D01*
X136463266Y-136692982D01*
X136563643Y-136541902D01*
X136605423Y-136431917D01*
X136625555Y-136378920D01*
X136625556Y-136378918D01*
X136628055Y-136372338D01*
X136629035Y-136365366D01*
X136652748Y-136196639D01*
X136652748Y-136196636D01*
X136653299Y-136192717D01*
X136653501Y-136178238D01*
X136653561Y-136173962D01*
X136653561Y-136173957D01*
X136653616Y-136170000D01*
X136633397Y-135989745D01*
X136629560Y-135978727D01*
X136576064Y-135825106D01*
X136576062Y-135825103D01*
X136573745Y-135818448D01*
X136550429Y-135781134D01*
X136481359Y-135670598D01*
X136477626Y-135664624D01*
X136416413Y-135602982D01*
X136354778Y-135540915D01*
X136354774Y-135540912D01*
X136349815Y-135535918D01*
X136338697Y-135528862D01*
X136290538Y-135498300D01*
X136196666Y-135438727D01*
X136164567Y-135427297D01*
X136032425Y-135380243D01*
X136032420Y-135380242D01*
X136025790Y-135377881D01*
X136018802Y-135377048D01*
X136018799Y-135377047D01*
X135895698Y-135362368D01*
X135845680Y-135356404D01*
X135838677Y-135357140D01*
X135838676Y-135357140D01*
X135672288Y-135374628D01*
X135672286Y-135374629D01*
X135665288Y-135375364D01*
X135493579Y-135433818D01*
X135487575Y-135437512D01*
X135345095Y-135525166D01*
X135345092Y-135525168D01*
X135339088Y-135528862D01*
X135334053Y-135533793D01*
X135334050Y-135533795D01*
X135263399Y-135602982D01*
X135209493Y-135655771D01*
X135111235Y-135808238D01*
X135108826Y-135814858D01*
X135108824Y-135814861D01*
X135071418Y-135917633D01*
X135049197Y-135978685D01*
X135026463Y-136158640D01*
X133366367Y-136158640D01*
X133288319Y-136123891D01*
X133288318Y-136123891D01*
X133282288Y-136121206D01*
X133177441Y-136098920D01*
X133101944Y-136082872D01*
X133101939Y-136082872D01*
X133095487Y-136081500D01*
X132904513Y-136081500D01*
X132898061Y-136082872D01*
X132898056Y-136082872D01*
X132822559Y-136098920D01*
X132717712Y-136121206D01*
X132711682Y-136123891D01*
X132711681Y-136123891D01*
X132549278Y-136196197D01*
X132549276Y-136196198D01*
X132543248Y-136198882D01*
X132537907Y-136202762D01*
X132537906Y-136202763D01*
X132487843Y-136239136D01*
X132388747Y-136311134D01*
X132384326Y-136316044D01*
X132384325Y-136316045D01*
X132338676Y-136366744D01*
X132260960Y-136453056D01*
X132213468Y-136535314D01*
X132182581Y-136588813D01*
X132165473Y-136618444D01*
X132106458Y-136800072D01*
X132105768Y-136806633D01*
X132105768Y-136806635D01*
X132094576Y-136913124D01*
X132086496Y-136990000D01*
X131560617Y-136990000D01*
X131571745Y-136960316D01*
X131578500Y-136898134D01*
X131578500Y-135101866D01*
X131574891Y-135068640D01*
X138266463Y-135068640D01*
X138284163Y-135249160D01*
X138341418Y-135421273D01*
X138345065Y-135427295D01*
X138345066Y-135427297D01*
X138425926Y-135560813D01*
X138435380Y-135576424D01*
X138561382Y-135706902D01*
X138610311Y-135738920D01*
X138668887Y-135777251D01*
X138713159Y-135806222D01*
X138719763Y-135808678D01*
X138719765Y-135808679D01*
X138876558Y-135866990D01*
X138876560Y-135866990D01*
X138883168Y-135869448D01*
X138988955Y-135883563D01*
X139061205Y-135893204D01*
X139126082Y-135922040D01*
X139165070Y-135981373D01*
X139165790Y-136052366D01*
X139150454Y-136086348D01*
X139091235Y-136178238D01*
X139088826Y-136184858D01*
X139088824Y-136184861D01*
X139041077Y-136316045D01*
X139029197Y-136348685D01*
X139006463Y-136528640D01*
X139024163Y-136709160D01*
X139081418Y-136881273D01*
X139085065Y-136887295D01*
X139085066Y-136887297D01*
X139151241Y-136996565D01*
X139175380Y-137036424D01*
X139180269Y-137041487D01*
X139180270Y-137041488D01*
X139229746Y-137092721D01*
X139301382Y-137166902D01*
X139453159Y-137266222D01*
X139459763Y-137268678D01*
X139459765Y-137268679D01*
X139616558Y-137326990D01*
X139616560Y-137326990D01*
X139623168Y-137329448D01*
X139706995Y-137340633D01*
X139795980Y-137352507D01*
X139795984Y-137352507D01*
X139802961Y-137353438D01*
X139809972Y-137352800D01*
X139809976Y-137352800D01*
X139952459Y-137339832D01*
X139983600Y-137336998D01*
X139990302Y-137334820D01*
X139990304Y-137334820D01*
X140149409Y-137283124D01*
X140149412Y-137283123D01*
X140156108Y-137280947D01*
X140293773Y-137198882D01*
X140305860Y-137191677D01*
X140305862Y-137191676D01*
X140311912Y-137188069D01*
X140443266Y-137062982D01*
X140543643Y-136911902D01*
X140587653Y-136796045D01*
X140605555Y-136748920D01*
X140605556Y-136748918D01*
X140608055Y-136742338D01*
X140609964Y-136728757D01*
X140632748Y-136566639D01*
X140632748Y-136566636D01*
X140633299Y-136562717D01*
X140633616Y-136540000D01*
X140613397Y-136359745D01*
X140610863Y-136352469D01*
X140556064Y-136195106D01*
X140556062Y-136195103D01*
X140553745Y-136188448D01*
X140472958Y-136059160D01*
X140461359Y-136040598D01*
X140457626Y-136034624D01*
X140443502Y-136020401D01*
X140334778Y-135910915D01*
X140334774Y-135910912D01*
X140329815Y-135905918D01*
X140318697Y-135898862D01*
X140202475Y-135825106D01*
X140176666Y-135808727D01*
X140147463Y-135798328D01*
X140012425Y-135750243D01*
X140012420Y-135750242D01*
X140005790Y-135747881D01*
X139998804Y-135747048D01*
X139998800Y-135747047D01*
X139907011Y-135736102D01*
X139839639Y-135728069D01*
X139774367Y-135700142D01*
X139734554Y-135641359D01*
X139732842Y-135570383D01*
X139749610Y-135533228D01*
X139759302Y-135518640D01*
X146096463Y-135518640D01*
X146114163Y-135699160D01*
X146171418Y-135871273D01*
X146175065Y-135877295D01*
X146175066Y-135877297D01*
X146243167Y-135989745D01*
X146265380Y-136026424D01*
X146270269Y-136031487D01*
X146270270Y-136031488D01*
X146322300Y-136085366D01*
X146391382Y-136156902D01*
X146440062Y-136188757D01*
X146514239Y-136237297D01*
X146543159Y-136256222D01*
X146549763Y-136258678D01*
X146549765Y-136258679D01*
X146706558Y-136316990D01*
X146706560Y-136316990D01*
X146713168Y-136319448D01*
X146796995Y-136330633D01*
X146885980Y-136342507D01*
X146885984Y-136342507D01*
X146892961Y-136343438D01*
X146899972Y-136342800D01*
X146899976Y-136342800D01*
X147042459Y-136329832D01*
X147073600Y-136326998D01*
X147080302Y-136324820D01*
X147080304Y-136324820D01*
X147239409Y-136273124D01*
X147239412Y-136273123D01*
X147246108Y-136270947D01*
X147360488Y-136202763D01*
X147395860Y-136181677D01*
X147395862Y-136181676D01*
X147401912Y-136178069D01*
X147533266Y-136052982D01*
X147633643Y-135901902D01*
X147680994Y-135777251D01*
X147695555Y-135738920D01*
X147695556Y-135738918D01*
X147698055Y-135732338D01*
X147701630Y-135706902D01*
X147722748Y-135556639D01*
X147722748Y-135556636D01*
X147723299Y-135552717D01*
X147723531Y-135536109D01*
X147723561Y-135533962D01*
X147723561Y-135533957D01*
X147723616Y-135530000D01*
X147703397Y-135349745D01*
X147701080Y-135343091D01*
X147646064Y-135185106D01*
X147646062Y-135185103D01*
X147643745Y-135178448D01*
X147608153Y-135121488D01*
X147551359Y-135030598D01*
X147547626Y-135024624D01*
X147542664Y-135019627D01*
X147424778Y-134900915D01*
X147424774Y-134900912D01*
X147419815Y-134895918D01*
X147413133Y-134891677D01*
X147352762Y-134853365D01*
X147266666Y-134798727D01*
X147179928Y-134767841D01*
X147102425Y-134740243D01*
X147102420Y-134740242D01*
X147095790Y-134737881D01*
X147088802Y-134737048D01*
X147088799Y-134737047D01*
X146965698Y-134722368D01*
X146915680Y-134716404D01*
X146908677Y-134717140D01*
X146908676Y-134717140D01*
X146742288Y-134734628D01*
X146742286Y-134734629D01*
X146735288Y-134735364D01*
X146563579Y-134793818D01*
X146517221Y-134822338D01*
X146415095Y-134885166D01*
X146415092Y-134885168D01*
X146409088Y-134888862D01*
X146404053Y-134893793D01*
X146404050Y-134893795D01*
X146303867Y-134991902D01*
X146279493Y-135015771D01*
X146181235Y-135168238D01*
X146178826Y-135174858D01*
X146178824Y-135174861D01*
X146150108Y-135253757D01*
X146119197Y-135338685D01*
X146096463Y-135518640D01*
X139759302Y-135518640D01*
X139803643Y-135451902D01*
X139868055Y-135282338D01*
X139871768Y-135255918D01*
X139892748Y-135106639D01*
X139892748Y-135106636D01*
X139893299Y-135102717D01*
X139893616Y-135080000D01*
X139873397Y-134899745D01*
X139870750Y-134892143D01*
X139816064Y-134735106D01*
X139816062Y-134735103D01*
X139813745Y-134728448D01*
X139717626Y-134574624D01*
X139662409Y-134519020D01*
X139594778Y-134450915D01*
X139594774Y-134450912D01*
X139589815Y-134445918D01*
X139578697Y-134438862D01*
X139520313Y-134401811D01*
X139436666Y-134348727D01*
X139407463Y-134338328D01*
X139272425Y-134290243D01*
X139272420Y-134290242D01*
X139265790Y-134287881D01*
X139258802Y-134287048D01*
X139258799Y-134287047D01*
X139102821Y-134268448D01*
X139085680Y-134266404D01*
X139078677Y-134267140D01*
X139078676Y-134267140D01*
X138912288Y-134284628D01*
X138912286Y-134284629D01*
X138905288Y-134285364D01*
X138733579Y-134343818D01*
X138727575Y-134347512D01*
X138585095Y-134435166D01*
X138585092Y-134435168D01*
X138579088Y-134438862D01*
X138574053Y-134443793D01*
X138574050Y-134443795D01*
X138500393Y-134515926D01*
X138449493Y-134565771D01*
X138399905Y-134642717D01*
X138356491Y-134710083D01*
X138351235Y-134718238D01*
X138348826Y-134724858D01*
X138348824Y-134724861D01*
X138293363Y-134877240D01*
X138289197Y-134888685D01*
X138266463Y-135068640D01*
X131574891Y-135068640D01*
X131571745Y-135039684D01*
X131520615Y-134903295D01*
X131433261Y-134786739D01*
X131316705Y-134699385D01*
X131180316Y-134648255D01*
X131118134Y-134641500D01*
X131118148Y-134641375D01*
X131052246Y-134618085D01*
X131008723Y-134561993D01*
X131000000Y-134515926D01*
X131000000Y-134205603D01*
X131020002Y-134137482D01*
X131073658Y-134090989D01*
X131143932Y-134080885D01*
X131189570Y-134096815D01*
X131211000Y-134109338D01*
X131215825Y-134111180D01*
X131215826Y-134111181D01*
X131240487Y-134120598D01*
X131419692Y-134189030D01*
X131424760Y-134190061D01*
X131424763Y-134190062D01*
X131501150Y-134205603D01*
X131638597Y-134233567D01*
X131643772Y-134233757D01*
X131643774Y-134233757D01*
X131856673Y-134241564D01*
X131856677Y-134241564D01*
X131861837Y-134241753D01*
X131866957Y-134241097D01*
X131866959Y-134241097D01*
X132078288Y-134214025D01*
X132078289Y-134214025D01*
X132083416Y-134213368D01*
X132109298Y-134205603D01*
X132292429Y-134150661D01*
X132292434Y-134150659D01*
X132297384Y-134149174D01*
X132497994Y-134050896D01*
X132679860Y-133921173D01*
X132708628Y-133892506D01*
X132773727Y-133827633D01*
X132838096Y-133763489D01*
X132858838Y-133734624D01*
X132968453Y-133582077D01*
X132969776Y-133583028D01*
X133016645Y-133539857D01*
X133086580Y-133527625D01*
X133152026Y-133555144D01*
X133179875Y-133586994D01*
X133239987Y-133685088D01*
X133386250Y-133853938D01*
X133441732Y-133900000D01*
X133546827Y-133987251D01*
X133558126Y-133996632D01*
X133751000Y-134109338D01*
X133755825Y-134111180D01*
X133755826Y-134111181D01*
X133780487Y-134120598D01*
X133959692Y-134189030D01*
X133964760Y-134190061D01*
X133964763Y-134190062D01*
X134041150Y-134205603D01*
X134178597Y-134233567D01*
X134183772Y-134233757D01*
X134183774Y-134233757D01*
X134396673Y-134241564D01*
X134396677Y-134241564D01*
X134401837Y-134241753D01*
X134406957Y-134241097D01*
X134406959Y-134241097D01*
X134618288Y-134214025D01*
X134618289Y-134214025D01*
X134623416Y-134213368D01*
X134649298Y-134205603D01*
X134832429Y-134150661D01*
X134832434Y-134150659D01*
X134837384Y-134149174D01*
X135037994Y-134050896D01*
X135219860Y-133921173D01*
X135248628Y-133892506D01*
X135313727Y-133827633D01*
X135378096Y-133763489D01*
X135398838Y-133734624D01*
X135505435Y-133586277D01*
X135508453Y-133582077D01*
X135512656Y-133573574D01*
X135605136Y-133386453D01*
X135605137Y-133386451D01*
X135607430Y-133381811D01*
X135672370Y-133168069D01*
X135701529Y-132946590D01*
X135701611Y-132943240D01*
X135703074Y-132883365D01*
X135703074Y-132883361D01*
X135703156Y-132880000D01*
X135684852Y-132657361D01*
X135630431Y-132440702D01*
X135541354Y-132235840D01*
X135420014Y-132048277D01*
X135269670Y-131883051D01*
X135265619Y-131879852D01*
X135265615Y-131879848D01*
X135098414Y-131747800D01*
X135098410Y-131747798D01*
X135094359Y-131744598D01*
X135053053Y-131721796D01*
X135003084Y-131671364D01*
X134988312Y-131601921D01*
X135013428Y-131535516D01*
X135040780Y-131508909D01*
X135107353Y-131461423D01*
X135219860Y-131381173D01*
X135226020Y-131375035D01*
X135374435Y-131227137D01*
X135378096Y-131223489D01*
X135394094Y-131201226D01*
X135505435Y-131046277D01*
X135508453Y-131042077D01*
X135529320Y-130999857D01*
X135554633Y-130948640D01*
X140706463Y-130948640D01*
X140724163Y-131129160D01*
X140781418Y-131301273D01*
X140785065Y-131307295D01*
X140785066Y-131307297D01*
X140854893Y-131422595D01*
X140875380Y-131456424D01*
X140880269Y-131461487D01*
X140880270Y-131461488D01*
X140941592Y-131524988D01*
X141001382Y-131586902D01*
X141049010Y-131618069D01*
X141130454Y-131671364D01*
X141153159Y-131686222D01*
X141159763Y-131688678D01*
X141159765Y-131688679D01*
X141316558Y-131746990D01*
X141316560Y-131746990D01*
X141323168Y-131749448D01*
X141398113Y-131759448D01*
X141495980Y-131772507D01*
X141495984Y-131772507D01*
X141502961Y-131773438D01*
X141509972Y-131772800D01*
X141509976Y-131772800D01*
X141656680Y-131759448D01*
X141683600Y-131756998D01*
X141690302Y-131754820D01*
X141690304Y-131754820D01*
X141849409Y-131703124D01*
X141849412Y-131703123D01*
X141856108Y-131700947D01*
X141989569Y-131621388D01*
X142058321Y-131603689D01*
X142123076Y-131624186D01*
X142233159Y-131696222D01*
X142239763Y-131698678D01*
X142239765Y-131698679D01*
X142396558Y-131756990D01*
X142396560Y-131756990D01*
X142403168Y-131759448D01*
X142478113Y-131769448D01*
X142575980Y-131782507D01*
X142575984Y-131782507D01*
X142582961Y-131783438D01*
X142589972Y-131782800D01*
X142589976Y-131782800D01*
X142745558Y-131768640D01*
X142763600Y-131766998D01*
X142770302Y-131764820D01*
X142770304Y-131764820D01*
X142929409Y-131713124D01*
X142929412Y-131713123D01*
X142936108Y-131710947D01*
X143053603Y-131640906D01*
X143085860Y-131621677D01*
X143085862Y-131621676D01*
X143091912Y-131618069D01*
X143223266Y-131492982D01*
X143238712Y-131469734D01*
X143308076Y-131365333D01*
X143362434Y-131319662D01*
X143432853Y-131310630D01*
X143496977Y-131341103D01*
X143520800Y-131369789D01*
X143577737Y-131463803D01*
X143585380Y-131476424D01*
X143590269Y-131481487D01*
X143590270Y-131481488D01*
X143643731Y-131536848D01*
X143711382Y-131606902D01*
X143787270Y-131656562D01*
X143841982Y-131692364D01*
X143863159Y-131706222D01*
X143869763Y-131708678D01*
X143869765Y-131708679D01*
X144026558Y-131766990D01*
X144026560Y-131766990D01*
X144033168Y-131769448D01*
X144112250Y-131780000D01*
X144205980Y-131792507D01*
X144205984Y-131792507D01*
X144212961Y-131793438D01*
X144219972Y-131792800D01*
X144219976Y-131792800D01*
X144362459Y-131779832D01*
X144393600Y-131776998D01*
X144400302Y-131774820D01*
X144400304Y-131774820D01*
X144559409Y-131723124D01*
X144559412Y-131723123D01*
X144566108Y-131720947D01*
X144662513Y-131663478D01*
X144715860Y-131631677D01*
X144715862Y-131631676D01*
X144721912Y-131628069D01*
X144822332Y-131532440D01*
X144834063Y-131521269D01*
X144897188Y-131488777D01*
X144967859Y-131495570D01*
X145011592Y-131524988D01*
X145071382Y-131586902D01*
X145119010Y-131618069D01*
X145200454Y-131671364D01*
X145223159Y-131686222D01*
X145229763Y-131688678D01*
X145229765Y-131688679D01*
X145386558Y-131746990D01*
X145386560Y-131746990D01*
X145393168Y-131749448D01*
X145468113Y-131759448D01*
X145565980Y-131772507D01*
X145565984Y-131772507D01*
X145572961Y-131773438D01*
X145579972Y-131772800D01*
X145579976Y-131772800D01*
X145726680Y-131759448D01*
X145753600Y-131756998D01*
X145760302Y-131754820D01*
X145760304Y-131754820D01*
X145919409Y-131703124D01*
X145919412Y-131703123D01*
X145926108Y-131700947D01*
X146056511Y-131623211D01*
X146075860Y-131611677D01*
X146075862Y-131611676D01*
X146081912Y-131608069D01*
X146213266Y-131482982D01*
X146313643Y-131331902D01*
X146363283Y-131201226D01*
X146375555Y-131168920D01*
X146375556Y-131168918D01*
X146378055Y-131162338D01*
X146381098Y-131140688D01*
X146402748Y-130986639D01*
X146402748Y-130986636D01*
X146403299Y-130982717D01*
X146403452Y-130971738D01*
X146403561Y-130963962D01*
X146403561Y-130963957D01*
X146403616Y-130960000D01*
X146383397Y-130779745D01*
X146381080Y-130773091D01*
X146326064Y-130615106D01*
X146326062Y-130615103D01*
X146323745Y-130608448D01*
X146227626Y-130454624D01*
X146213941Y-130440843D01*
X146104778Y-130330915D01*
X146104774Y-130330912D01*
X146099815Y-130325918D01*
X146088697Y-130318862D01*
X146029894Y-130281545D01*
X145946666Y-130228727D01*
X145867036Y-130200372D01*
X145782425Y-130170243D01*
X145782420Y-130170242D01*
X145775790Y-130167881D01*
X145768802Y-130167048D01*
X145768799Y-130167047D01*
X145645698Y-130152368D01*
X145595680Y-130146404D01*
X145588677Y-130147140D01*
X145588676Y-130147140D01*
X145422288Y-130164628D01*
X145422286Y-130164629D01*
X145415288Y-130165364D01*
X145243579Y-130223818D01*
X145205065Y-130247512D01*
X145095095Y-130315166D01*
X145095092Y-130315168D01*
X145089088Y-130318862D01*
X145084053Y-130323793D01*
X145084050Y-130323795D01*
X145045238Y-130361803D01*
X144987789Y-130418062D01*
X144925125Y-130451432D01*
X144854366Y-130445626D01*
X144810226Y-130416822D01*
X144744778Y-130350915D01*
X144744774Y-130350912D01*
X144739815Y-130345918D01*
X144728697Y-130338862D01*
X144665008Y-130298444D01*
X144586666Y-130248727D01*
X144538419Y-130231547D01*
X144422425Y-130190243D01*
X144422420Y-130190242D01*
X144415790Y-130187881D01*
X144408802Y-130187048D01*
X144408799Y-130187047D01*
X144285698Y-130172368D01*
X144235680Y-130166404D01*
X144228677Y-130167140D01*
X144228676Y-130167140D01*
X144062288Y-130184628D01*
X144062286Y-130184629D01*
X144055288Y-130185364D01*
X143883579Y-130243818D01*
X143877575Y-130247512D01*
X143735095Y-130335166D01*
X143735092Y-130335168D01*
X143729088Y-130338862D01*
X143724053Y-130343793D01*
X143724050Y-130343795D01*
X143607979Y-130457461D01*
X143599493Y-130465771D01*
X143523683Y-130583406D01*
X143469970Y-130629829D01*
X143399683Y-130639844D01*
X143335140Y-130610269D01*
X143310919Y-130581919D01*
X143237626Y-130464624D01*
X143227696Y-130454624D01*
X143114778Y-130340915D01*
X143114774Y-130340912D01*
X143109815Y-130335918D01*
X143098697Y-130328862D01*
X143030693Y-130285706D01*
X142956666Y-130238727D01*
X142901446Y-130219064D01*
X142792425Y-130180243D01*
X142792420Y-130180242D01*
X142785790Y-130177881D01*
X142778802Y-130177048D01*
X142778799Y-130177047D01*
X142655698Y-130162368D01*
X142605680Y-130156404D01*
X142598677Y-130157140D01*
X142598676Y-130157140D01*
X142432288Y-130174628D01*
X142432286Y-130174629D01*
X142425288Y-130175364D01*
X142253579Y-130233818D01*
X142133326Y-130307799D01*
X142064827Y-130326456D01*
X141999792Y-130306865D01*
X141986523Y-130298444D01*
X141876666Y-130228727D01*
X141797036Y-130200372D01*
X141712425Y-130170243D01*
X141712420Y-130170242D01*
X141705790Y-130167881D01*
X141698802Y-130167048D01*
X141698799Y-130167047D01*
X141575698Y-130152368D01*
X141525680Y-130146404D01*
X141518677Y-130147140D01*
X141518676Y-130147140D01*
X141352288Y-130164628D01*
X141352286Y-130164629D01*
X141345288Y-130165364D01*
X141173579Y-130223818D01*
X141135065Y-130247512D01*
X141025095Y-130315166D01*
X141025092Y-130315168D01*
X141019088Y-130318862D01*
X141014053Y-130323793D01*
X141014050Y-130323795D01*
X140894525Y-130440843D01*
X140889493Y-130445771D01*
X140791235Y-130598238D01*
X140788826Y-130604858D01*
X140788824Y-130604861D01*
X140762726Y-130676565D01*
X140729197Y-130768685D01*
X140706463Y-130948640D01*
X135554633Y-130948640D01*
X135605136Y-130846453D01*
X135605137Y-130846451D01*
X135607430Y-130841811D01*
X135661625Y-130663435D01*
X135670865Y-130633023D01*
X135670865Y-130633021D01*
X135672370Y-130628069D01*
X135701529Y-130406590D01*
X135701611Y-130403240D01*
X135703074Y-130343365D01*
X135703074Y-130343361D01*
X135703156Y-130340000D01*
X135684852Y-130117361D01*
X135630431Y-129900702D01*
X135541354Y-129695840D01*
X135456315Y-129564390D01*
X135422822Y-129512617D01*
X135422820Y-129512614D01*
X135420014Y-129508277D01*
X135269670Y-129343051D01*
X135265619Y-129339852D01*
X135265615Y-129339848D01*
X135098414Y-129207800D01*
X135098410Y-129207798D01*
X135094359Y-129204598D01*
X135053053Y-129181796D01*
X135003084Y-129131364D01*
X134988312Y-129061921D01*
X135013428Y-128995516D01*
X135040780Y-128968909D01*
X135100168Y-128926548D01*
X135219860Y-128841173D01*
X135247782Y-128813349D01*
X135331308Y-128730114D01*
X135378096Y-128683489D01*
X135434155Y-128605475D01*
X135452460Y-128580000D01*
X136516496Y-128580000D01*
X136517186Y-128586565D01*
X136533430Y-128741115D01*
X136536458Y-128769928D01*
X136595473Y-128951556D01*
X136598776Y-128957278D01*
X136598777Y-128957279D01*
X136613246Y-128982339D01*
X136690960Y-129116944D01*
X136695378Y-129121851D01*
X136695379Y-129121852D01*
X136806093Y-129244812D01*
X136818747Y-129258866D01*
X136973248Y-129371118D01*
X136979276Y-129373802D01*
X136979278Y-129373803D01*
X137135518Y-129443365D01*
X137147712Y-129448794D01*
X137241112Y-129468647D01*
X137328056Y-129487128D01*
X137328061Y-129487128D01*
X137334513Y-129488500D01*
X137525487Y-129488500D01*
X137531939Y-129487128D01*
X137531944Y-129487128D01*
X137618888Y-129468647D01*
X137712288Y-129448794D01*
X137724482Y-129443365D01*
X137880722Y-129373803D01*
X137880724Y-129373802D01*
X137886752Y-129371118D01*
X138041253Y-129258866D01*
X138053907Y-129244812D01*
X138164621Y-129121852D01*
X138164622Y-129121851D01*
X138169040Y-129116944D01*
X138246754Y-128982339D01*
X138261223Y-128957279D01*
X138261224Y-128957278D01*
X138264527Y-128951556D01*
X138323542Y-128769928D01*
X138326571Y-128741115D01*
X138342814Y-128586565D01*
X138343504Y-128580000D01*
X138337809Y-128525819D01*
X138324232Y-128396635D01*
X138324232Y-128396633D01*
X138323542Y-128390072D01*
X138264527Y-128208444D01*
X138244203Y-128173241D01*
X138200321Y-128097237D01*
X138169040Y-128043056D01*
X138123744Y-127992749D01*
X138045675Y-127906045D01*
X138045674Y-127906044D01*
X138041253Y-127901134D01*
X137919269Y-127812507D01*
X137892094Y-127792763D01*
X137892093Y-127792762D01*
X137886752Y-127788882D01*
X137880724Y-127786198D01*
X137880722Y-127786197D01*
X137718319Y-127713891D01*
X137718318Y-127713891D01*
X137712288Y-127711206D01*
X137599721Y-127687279D01*
X137531944Y-127672872D01*
X137531939Y-127672872D01*
X137525487Y-127671500D01*
X137334513Y-127671500D01*
X137328061Y-127672872D01*
X137328056Y-127672872D01*
X137260279Y-127687279D01*
X137147712Y-127711206D01*
X137141682Y-127713891D01*
X137141681Y-127713891D01*
X136979278Y-127786197D01*
X136979276Y-127786198D01*
X136973248Y-127788882D01*
X136967907Y-127792762D01*
X136967906Y-127792763D01*
X136940731Y-127812507D01*
X136818747Y-127901134D01*
X136814326Y-127906044D01*
X136814325Y-127906045D01*
X136736257Y-127992749D01*
X136690960Y-128043056D01*
X136659679Y-128097237D01*
X136615798Y-128173241D01*
X136595473Y-128208444D01*
X136536458Y-128390072D01*
X136535768Y-128396633D01*
X136535768Y-128396635D01*
X136522191Y-128525819D01*
X136516496Y-128580000D01*
X135452460Y-128580000D01*
X135505435Y-128506277D01*
X135508453Y-128502077D01*
X135560566Y-128396635D01*
X135605136Y-128306453D01*
X135605137Y-128306451D01*
X135607430Y-128301811D01*
X135667590Y-128103803D01*
X135670865Y-128093023D01*
X135670865Y-128093021D01*
X135672370Y-128088069D01*
X135701529Y-127866590D01*
X135702843Y-127812800D01*
X135703074Y-127803365D01*
X135703074Y-127803361D01*
X135703156Y-127800000D01*
X135684852Y-127577361D01*
X135630431Y-127360702D01*
X135608385Y-127310000D01*
X143506496Y-127310000D01*
X143507186Y-127316565D01*
X143525457Y-127490401D01*
X143526458Y-127499928D01*
X143585473Y-127681556D01*
X143588776Y-127687278D01*
X143588777Y-127687279D01*
X143614425Y-127731703D01*
X143680960Y-127846944D01*
X143685378Y-127851851D01*
X143685379Y-127851852D01*
X143729753Y-127901134D01*
X143808747Y-127988866D01*
X143876578Y-128038148D01*
X143945288Y-128088069D01*
X143963248Y-128101118D01*
X143969276Y-128103802D01*
X143969278Y-128103803D01*
X144131681Y-128176109D01*
X144137712Y-128178794D01*
X144231113Y-128198647D01*
X144318056Y-128217128D01*
X144318061Y-128217128D01*
X144324513Y-128218500D01*
X144515487Y-128218500D01*
X144521939Y-128217128D01*
X144521944Y-128217128D01*
X144608887Y-128198647D01*
X144702288Y-128178794D01*
X144708319Y-128176109D01*
X144870722Y-128103803D01*
X144870724Y-128103802D01*
X144876752Y-128101118D01*
X144894713Y-128088069D01*
X144963422Y-128038148D01*
X145031253Y-127988866D01*
X145110247Y-127901134D01*
X145154621Y-127851852D01*
X145154622Y-127851851D01*
X145159040Y-127846944D01*
X145225575Y-127731703D01*
X145251223Y-127687279D01*
X145251224Y-127687278D01*
X145254527Y-127681556D01*
X145313542Y-127499928D01*
X145314544Y-127490401D01*
X145332814Y-127316565D01*
X145333504Y-127310000D01*
X145331481Y-127290755D01*
X145314232Y-127126635D01*
X145314232Y-127126633D01*
X145313542Y-127120072D01*
X145270837Y-126988640D01*
X150316463Y-126988640D01*
X150334163Y-127169160D01*
X150391418Y-127341273D01*
X150395065Y-127347295D01*
X150395066Y-127347297D01*
X150471689Y-127473817D01*
X150485380Y-127496424D01*
X150490269Y-127501487D01*
X150490270Y-127501488D01*
X150529333Y-127541938D01*
X150611382Y-127626902D01*
X150660760Y-127659214D01*
X150747705Y-127716109D01*
X150763159Y-127726222D01*
X150769763Y-127728678D01*
X150769765Y-127728679D01*
X150926558Y-127786990D01*
X150926560Y-127786990D01*
X150933168Y-127789448D01*
X151012250Y-127800000D01*
X151105980Y-127812507D01*
X151105984Y-127812507D01*
X151112961Y-127813438D01*
X151119972Y-127812800D01*
X151119976Y-127812800D01*
X151267691Y-127799356D01*
X151293600Y-127796998D01*
X151300302Y-127794820D01*
X151300304Y-127794820D01*
X151459409Y-127743124D01*
X151459412Y-127743123D01*
X151466108Y-127740947D01*
X151603216Y-127659214D01*
X151615860Y-127651677D01*
X151615862Y-127651676D01*
X151621912Y-127648069D01*
X151677118Y-127595497D01*
X151740243Y-127563005D01*
X151810914Y-127569798D01*
X151854643Y-127599214D01*
X151881382Y-127626902D01*
X151930760Y-127659214D01*
X152017705Y-127716109D01*
X152033159Y-127726222D01*
X152039763Y-127728678D01*
X152039765Y-127728679D01*
X152196558Y-127786990D01*
X152196560Y-127786990D01*
X152203168Y-127789448D01*
X152282250Y-127800000D01*
X152375980Y-127812507D01*
X152375984Y-127812507D01*
X152382961Y-127813438D01*
X152389972Y-127812800D01*
X152389976Y-127812800D01*
X152537691Y-127799356D01*
X152563600Y-127796998D01*
X152570302Y-127794820D01*
X152570304Y-127794820D01*
X152729409Y-127743124D01*
X152729412Y-127743123D01*
X152736108Y-127740947D01*
X152873216Y-127659214D01*
X152885860Y-127651677D01*
X152885862Y-127651676D01*
X152891912Y-127648069D01*
X153023266Y-127522982D01*
X153123643Y-127371902D01*
X153188055Y-127202338D01*
X153189035Y-127195366D01*
X153212748Y-127026639D01*
X153212748Y-127026636D01*
X153213299Y-127022717D01*
X153213616Y-127000000D01*
X153193397Y-126819745D01*
X153190523Y-126811492D01*
X153136064Y-126655106D01*
X153136062Y-126655103D01*
X153133745Y-126648448D01*
X153069571Y-126545747D01*
X153041359Y-126500598D01*
X153037626Y-126494624D01*
X153028835Y-126485771D01*
X152997979Y-126454699D01*
X152964172Y-126392268D01*
X152969484Y-126321470D01*
X153000492Y-126274670D01*
X153009872Y-126265737D01*
X153023266Y-126252982D01*
X153123643Y-126101902D01*
X153170629Y-125978211D01*
X153185555Y-125938920D01*
X153185556Y-125938918D01*
X153188055Y-125932338D01*
X153191102Y-125910655D01*
X153212748Y-125756639D01*
X153212748Y-125756636D01*
X153213299Y-125752717D01*
X153213616Y-125730000D01*
X153193397Y-125549745D01*
X153191080Y-125543091D01*
X153136064Y-125385106D01*
X153136062Y-125385103D01*
X153133745Y-125378448D01*
X153037626Y-125224624D01*
X153023941Y-125210843D01*
X152914778Y-125100915D01*
X152914774Y-125100912D01*
X152909815Y-125095918D01*
X152898697Y-125088862D01*
X152850538Y-125058300D01*
X152756666Y-124998727D01*
X152727463Y-124988328D01*
X152592425Y-124940243D01*
X152592420Y-124940242D01*
X152585790Y-124937881D01*
X152578802Y-124937048D01*
X152578799Y-124937047D01*
X152455698Y-124922368D01*
X152405680Y-124916404D01*
X152398677Y-124917140D01*
X152398676Y-124917140D01*
X152232288Y-124934628D01*
X152232286Y-124934629D01*
X152225288Y-124935364D01*
X152053579Y-124993818D01*
X152047575Y-124997512D01*
X151905095Y-125085166D01*
X151905092Y-125085168D01*
X151899088Y-125088862D01*
X151894053Y-125093793D01*
X151894050Y-125093795D01*
X151853487Y-125133518D01*
X151790822Y-125166889D01*
X151720063Y-125161083D01*
X151675923Y-125132279D01*
X151644777Y-125100915D01*
X151639815Y-125095918D01*
X151628697Y-125088862D01*
X151580538Y-125058300D01*
X151486666Y-124998727D01*
X151457463Y-124988328D01*
X151322425Y-124940243D01*
X151322420Y-124940242D01*
X151315790Y-124937881D01*
X151308802Y-124937048D01*
X151308799Y-124937047D01*
X151185698Y-124922368D01*
X151135680Y-124916404D01*
X151128677Y-124917140D01*
X151128676Y-124917140D01*
X150962288Y-124934628D01*
X150962286Y-124934629D01*
X150955288Y-124935364D01*
X150783579Y-124993818D01*
X150777575Y-124997512D01*
X150635095Y-125085166D01*
X150635092Y-125085168D01*
X150629088Y-125088862D01*
X150624053Y-125093793D01*
X150624050Y-125093795D01*
X150504525Y-125210843D01*
X150499493Y-125215771D01*
X150401235Y-125368238D01*
X150398826Y-125374858D01*
X150398824Y-125374861D01*
X150341606Y-125532066D01*
X150339197Y-125538685D01*
X150316463Y-125718640D01*
X150334163Y-125899160D01*
X150391418Y-126071273D01*
X150395065Y-126077295D01*
X150395066Y-126077297D01*
X150452682Y-126172432D01*
X150485380Y-126226424D01*
X150511027Y-126252982D01*
X150534042Y-126276815D01*
X150566974Y-126339712D01*
X150560674Y-126410428D01*
X150531565Y-126454364D01*
X150499493Y-126485771D01*
X150401235Y-126638238D01*
X150398826Y-126644858D01*
X150398824Y-126644861D01*
X150350084Y-126778774D01*
X150339197Y-126808685D01*
X150316463Y-126988640D01*
X145270837Y-126988640D01*
X145254527Y-126938444D01*
X145159040Y-126773056D01*
X145082681Y-126688250D01*
X145035675Y-126636045D01*
X145035674Y-126636044D01*
X145031253Y-126631134D01*
X144876752Y-126518882D01*
X144870724Y-126516198D01*
X144870722Y-126516197D01*
X144708319Y-126443891D01*
X144708318Y-126443891D01*
X144702288Y-126441206D01*
X144608887Y-126421353D01*
X144521944Y-126402872D01*
X144521939Y-126402872D01*
X144515487Y-126401500D01*
X144324513Y-126401500D01*
X144318061Y-126402872D01*
X144318056Y-126402872D01*
X144231113Y-126421353D01*
X144137712Y-126441206D01*
X144131682Y-126443891D01*
X144131681Y-126443891D01*
X143969278Y-126516197D01*
X143969276Y-126516198D01*
X143963248Y-126518882D01*
X143808747Y-126631134D01*
X143804326Y-126636044D01*
X143804325Y-126636045D01*
X143757320Y-126688250D01*
X143680960Y-126773056D01*
X143585473Y-126938444D01*
X143526458Y-127120072D01*
X143525768Y-127126633D01*
X143525768Y-127126635D01*
X143508519Y-127290755D01*
X143506496Y-127310000D01*
X135608385Y-127310000D01*
X135541354Y-127155840D01*
X135437989Y-126996062D01*
X135422822Y-126972617D01*
X135422820Y-126972614D01*
X135420014Y-126968277D01*
X135269670Y-126803051D01*
X135265619Y-126799852D01*
X135265615Y-126799848D01*
X135098414Y-126667800D01*
X135098410Y-126667798D01*
X135094359Y-126664598D01*
X134898789Y-126556638D01*
X134893920Y-126554914D01*
X134893916Y-126554912D01*
X134693087Y-126483795D01*
X134693083Y-126483794D01*
X134688212Y-126482069D01*
X134683119Y-126481162D01*
X134683116Y-126481161D01*
X134473373Y-126443800D01*
X134473367Y-126443799D01*
X134468284Y-126442894D01*
X134394452Y-126441992D01*
X134250081Y-126440228D01*
X134250079Y-126440228D01*
X134244911Y-126440165D01*
X134024091Y-126473955D01*
X133811756Y-126543357D01*
X133781443Y-126559137D01*
X133629492Y-126638238D01*
X133613607Y-126646507D01*
X133609474Y-126649610D01*
X133609471Y-126649612D01*
X133451596Y-126768148D01*
X133434965Y-126780635D01*
X133378537Y-126839684D01*
X133354283Y-126865064D01*
X133292759Y-126900494D01*
X133221846Y-126897037D01*
X133164060Y-126855791D01*
X133145207Y-126822243D01*
X133103767Y-126711703D01*
X133100615Y-126703295D01*
X133013261Y-126586739D01*
X132896705Y-126499385D01*
X132760316Y-126448255D01*
X132698134Y-126441500D01*
X131126000Y-126441500D01*
X131057879Y-126421498D01*
X131011386Y-126367842D01*
X131000000Y-126315500D01*
X131000000Y-124634000D01*
X131020002Y-124565879D01*
X131073658Y-124519386D01*
X131126000Y-124508000D01*
X164134089Y-124508000D01*
X164202210Y-124528002D01*
G37*
G04 #@! TD.AperFunction*
G04 #@! TA.AperFunction,Conductor*
G36*
X129942121Y-124528002D02*
G01*
X129988614Y-124581658D01*
X130000000Y-124634000D01*
X130000000Y-134515500D01*
X129979998Y-134583621D01*
X129926342Y-134630114D01*
X129874000Y-134641500D01*
X129321866Y-134641500D01*
X129259684Y-134648255D01*
X129123295Y-134699385D01*
X129006739Y-134786739D01*
X128919385Y-134903295D01*
X128916233Y-134911703D01*
X128874919Y-135021907D01*
X128832277Y-135078671D01*
X128765716Y-135103371D01*
X128696367Y-135088163D01*
X128663743Y-135062476D01*
X128613151Y-135006875D01*
X128613142Y-135006866D01*
X128609670Y-135003051D01*
X128605619Y-134999852D01*
X128605615Y-134999848D01*
X128438414Y-134867800D01*
X128438410Y-134867798D01*
X128434359Y-134864598D01*
X128398028Y-134844542D01*
X128382136Y-134835769D01*
X128238789Y-134756638D01*
X128233920Y-134754914D01*
X128233916Y-134754912D01*
X128033087Y-134683795D01*
X128033083Y-134683794D01*
X128028212Y-134682069D01*
X128023119Y-134681162D01*
X128023116Y-134681161D01*
X127813373Y-134643800D01*
X127813367Y-134643799D01*
X127808284Y-134642894D01*
X127734452Y-134641992D01*
X127590081Y-134640228D01*
X127590079Y-134640228D01*
X127584911Y-134640165D01*
X127364091Y-134673955D01*
X127151756Y-134743357D01*
X126953607Y-134846507D01*
X126949474Y-134849610D01*
X126949471Y-134849612D01*
X126779100Y-134977530D01*
X126774965Y-134980635D01*
X126749541Y-135007240D01*
X126681280Y-135078671D01*
X126620629Y-135142138D01*
X126617715Y-135146410D01*
X126617714Y-135146411D01*
X126512898Y-135300066D01*
X126457987Y-135345069D01*
X126387462Y-135353240D01*
X126323715Y-135321986D01*
X126303018Y-135297502D01*
X126222426Y-135172926D01*
X126216136Y-135164757D01*
X126072806Y-135007240D01*
X126065273Y-135000215D01*
X125898139Y-134868222D01*
X125889552Y-134862517D01*
X125703117Y-134759599D01*
X125693705Y-134755369D01*
X125492959Y-134684280D01*
X125482988Y-134681646D01*
X125411837Y-134668972D01*
X125398540Y-134670432D01*
X125394000Y-134684989D01*
X125394000Y-137318517D01*
X125398064Y-137332359D01*
X125411478Y-137334393D01*
X125418184Y-137333534D01*
X125428262Y-137331392D01*
X125632255Y-137270191D01*
X125641842Y-137266433D01*
X125833095Y-137172739D01*
X125841945Y-137167464D01*
X126015328Y-137043792D01*
X126023200Y-137037139D01*
X126174052Y-136886812D01*
X126180730Y-136878965D01*
X126308022Y-136701819D01*
X126309279Y-136702722D01*
X126356373Y-136659362D01*
X126426311Y-136647145D01*
X126491751Y-136674678D01*
X126519579Y-136706511D01*
X126579987Y-136805088D01*
X126726250Y-136973938D01*
X126898126Y-137116632D01*
X127091000Y-137229338D01*
X127299692Y-137309030D01*
X127304760Y-137310061D01*
X127304763Y-137310062D01*
X127399862Y-137329410D01*
X127518597Y-137353567D01*
X127523772Y-137353757D01*
X127523774Y-137353757D01*
X127736673Y-137361564D01*
X127736677Y-137361564D01*
X127741837Y-137361753D01*
X127746957Y-137361097D01*
X127746959Y-137361097D01*
X127958288Y-137334025D01*
X127958289Y-137334025D01*
X127963416Y-137333368D01*
X127968366Y-137331883D01*
X128172429Y-137270661D01*
X128172434Y-137270659D01*
X128177384Y-137269174D01*
X128377994Y-137170896D01*
X128559860Y-137041173D01*
X128668091Y-136933319D01*
X128730462Y-136899404D01*
X128801268Y-136904592D01*
X128858030Y-136947238D01*
X128875012Y-136978341D01*
X128919385Y-137096705D01*
X129006739Y-137213261D01*
X129123295Y-137300615D01*
X129259684Y-137351745D01*
X129321866Y-137358500D01*
X129874000Y-137358500D01*
X129942121Y-137378502D01*
X129988614Y-137432158D01*
X130000000Y-137484500D01*
X130000000Y-139409313D01*
X129992401Y-139452407D01*
X129979197Y-139488685D01*
X129956463Y-139668640D01*
X129974163Y-139849160D01*
X129981676Y-139871744D01*
X129993558Y-139907463D01*
X130000000Y-139947235D01*
X130000000Y-143681576D01*
X129979998Y-143749697D01*
X129963095Y-143770671D01*
X128999171Y-144734595D01*
X128936859Y-144768621D01*
X128910076Y-144771500D01*
X126589924Y-144771500D01*
X126521803Y-144751498D01*
X126500829Y-144734595D01*
X125197603Y-143431369D01*
X125163577Y-143369057D01*
X125168642Y-143298242D01*
X125199805Y-143251030D01*
X125313266Y-143142982D01*
X125413643Y-142991902D01*
X125478055Y-142822338D01*
X125479035Y-142815366D01*
X125502748Y-142646639D01*
X125502748Y-142646636D01*
X125503299Y-142642717D01*
X125503616Y-142620000D01*
X125483397Y-142439745D01*
X125478128Y-142424614D01*
X125426064Y-142275106D01*
X125426062Y-142275103D01*
X125423745Y-142268448D01*
X125415851Y-142255815D01*
X125331359Y-142120598D01*
X125327626Y-142114624D01*
X125313941Y-142100843D01*
X125204778Y-141990915D01*
X125204774Y-141990912D01*
X125199815Y-141985918D01*
X125188697Y-141978862D01*
X125139947Y-141947925D01*
X125046666Y-141888727D01*
X125017463Y-141878328D01*
X124882425Y-141830243D01*
X124882420Y-141830242D01*
X124875790Y-141827881D01*
X124868802Y-141827048D01*
X124868799Y-141827047D01*
X124745698Y-141812368D01*
X124695680Y-141806404D01*
X124688677Y-141807140D01*
X124688676Y-141807140D01*
X124522288Y-141824628D01*
X124522286Y-141824629D01*
X124515288Y-141825364D01*
X124343579Y-141883818D01*
X124337575Y-141887512D01*
X124195095Y-141975166D01*
X124195092Y-141975168D01*
X124189088Y-141978862D01*
X124184053Y-141983793D01*
X124184050Y-141983795D01*
X124064525Y-142100843D01*
X124059493Y-142105771D01*
X123961235Y-142258238D01*
X123955096Y-142275106D01*
X123954572Y-142276545D01*
X123912477Y-142333717D01*
X123846156Y-142359054D01*
X123823438Y-142358805D01*
X123709666Y-142347248D01*
X123709661Y-142347248D01*
X123703538Y-142346626D01*
X123579475Y-142358354D01*
X123512771Y-142364659D01*
X123512769Y-142364659D01*
X123506638Y-142365239D01*
X123411871Y-142393490D01*
X123323007Y-142419981D01*
X123323005Y-142419982D01*
X123317104Y-142421741D01*
X123142154Y-142513982D01*
X123137368Y-142517858D01*
X123137366Y-142517859D01*
X123016096Y-142616062D01*
X122988453Y-142638447D01*
X122861854Y-142790396D01*
X122767178Y-142964041D01*
X122758447Y-142991902D01*
X122711102Y-143142982D01*
X122708035Y-143152768D01*
X122707370Y-143158891D01*
X122707369Y-143158895D01*
X122692232Y-143298242D01*
X122686676Y-143349388D01*
X122703913Y-143546413D01*
X122705632Y-143552330D01*
X122705633Y-143552335D01*
X122730116Y-143636603D01*
X122759091Y-143736336D01*
X122850108Y-143911926D01*
X122877338Y-143946037D01*
X122944542Y-144030223D01*
X122944549Y-144030230D01*
X122946738Y-144032973D01*
X122949233Y-144035468D01*
X125363145Y-146449379D01*
X125372247Y-146459522D01*
X125395968Y-146489025D01*
X125400696Y-146492992D01*
X125434421Y-146521291D01*
X125438069Y-146524472D01*
X125439881Y-146526115D01*
X125442075Y-146528309D01*
X125475349Y-146555642D01*
X125476147Y-146556304D01*
X125547474Y-146616154D01*
X125552144Y-146618722D01*
X125556261Y-146622103D01*
X125638120Y-146665995D01*
X125639280Y-146666624D01*
X125715389Y-146708466D01*
X125715394Y-146708468D01*
X125720787Y-146711433D01*
X125725865Y-146713044D01*
X125730563Y-146715563D01*
X125819498Y-146742753D01*
X125820702Y-146743128D01*
X125909306Y-146771235D01*
X125914597Y-146771828D01*
X125919698Y-146773388D01*
X125925830Y-146774011D01*
X125925836Y-146774012D01*
X125986338Y-146780157D01*
X126012263Y-146782790D01*
X126013450Y-146782916D01*
X126042838Y-146786213D01*
X126059730Y-146788108D01*
X126059735Y-146788108D01*
X126063227Y-146788500D01*
X126066752Y-146788500D01*
X126067737Y-146788555D01*
X126073432Y-146789003D01*
X126085342Y-146790213D01*
X126110334Y-146792752D01*
X126110339Y-146792752D01*
X126116462Y-146793374D01*
X126162108Y-146789059D01*
X126173967Y-146788500D01*
X129318157Y-146788500D01*
X129331764Y-146789237D01*
X129363262Y-146792659D01*
X129363267Y-146792659D01*
X129369388Y-146793324D01*
X129395638Y-146791027D01*
X129419388Y-146788950D01*
X129424214Y-146788621D01*
X129426686Y-146788500D01*
X129429769Y-146788500D01*
X129441738Y-146787326D01*
X129472506Y-146784310D01*
X129473819Y-146784188D01*
X129518084Y-146780315D01*
X129566413Y-146776087D01*
X129571532Y-146774600D01*
X129576833Y-146774080D01*
X129665834Y-146747209D01*
X129666967Y-146746874D01*
X129750414Y-146722630D01*
X129750418Y-146722628D01*
X129756336Y-146720909D01*
X129761068Y-146718456D01*
X129766169Y-146716916D01*
X129771611Y-146714022D01*
X129771617Y-146714020D01*
X129814849Y-146691034D01*
X129884386Y-146676715D01*
X129950626Y-146702264D01*
X129992538Y-146759569D01*
X130000000Y-146802286D01*
X130000000Y-147622437D01*
X129979998Y-147690558D01*
X129926342Y-147737051D01*
X129856068Y-147747155D01*
X129791488Y-147717661D01*
X129784594Y-147711221D01*
X129714777Y-147640915D01*
X129709815Y-147635918D01*
X129698697Y-147628862D01*
X129650538Y-147598300D01*
X129556666Y-147538727D01*
X129527463Y-147528328D01*
X129392425Y-147480243D01*
X129392420Y-147480242D01*
X129385790Y-147477881D01*
X129378802Y-147477048D01*
X129378799Y-147477047D01*
X129255698Y-147462368D01*
X129205680Y-147456404D01*
X129198677Y-147457140D01*
X129198676Y-147457140D01*
X129032288Y-147474628D01*
X129032286Y-147474629D01*
X129025288Y-147475364D01*
X128853579Y-147533818D01*
X128847575Y-147537512D01*
X128705095Y-147625166D01*
X128705092Y-147625168D01*
X128699088Y-147628862D01*
X128694053Y-147633793D01*
X128694050Y-147633795D01*
X128588609Y-147737051D01*
X128569493Y-147755771D01*
X128471235Y-147908238D01*
X128468826Y-147914858D01*
X128468824Y-147914861D01*
X128411606Y-148072066D01*
X128409197Y-148078685D01*
X128386463Y-148258640D01*
X128404163Y-148439160D01*
X128461418Y-148611273D01*
X128555380Y-148766424D01*
X128681382Y-148896902D01*
X128833159Y-148996222D01*
X128839763Y-148998678D01*
X128839765Y-148998679D01*
X128996558Y-149056990D01*
X128996560Y-149056990D01*
X129003168Y-149059448D01*
X129086995Y-149070633D01*
X129175980Y-149082507D01*
X129175984Y-149082507D01*
X129182961Y-149083438D01*
X129189972Y-149082800D01*
X129189976Y-149082800D01*
X129332459Y-149069832D01*
X129363600Y-149066998D01*
X129370302Y-149064820D01*
X129370304Y-149064820D01*
X129529409Y-149013124D01*
X129529412Y-149013123D01*
X129536108Y-149010947D01*
X129691912Y-148918069D01*
X129787108Y-148827415D01*
X129850233Y-148794923D01*
X129920904Y-148801716D01*
X129976683Y-148845639D01*
X130000000Y-148918661D01*
X130000000Y-155366000D01*
X129979998Y-155434121D01*
X129926342Y-155480614D01*
X129874000Y-155492000D01*
X116134000Y-155492000D01*
X116065879Y-155471998D01*
X116019386Y-155418342D01*
X116008000Y-155366000D01*
X116008000Y-146375251D01*
X116028002Y-146307130D01*
X116081658Y-146260637D01*
X116151932Y-146250533D01*
X116216512Y-146280027D01*
X116241086Y-146308854D01*
X116323708Y-146442108D01*
X116331460Y-146452174D01*
X116456408Y-146584303D01*
X116466026Y-146592605D01*
X116614987Y-146696908D01*
X116626081Y-146703108D01*
X116792980Y-146775332D01*
X116805083Y-146779171D01*
X116984600Y-146816675D01*
X116994152Y-146817915D01*
X116997384Y-146818000D01*
X117217885Y-146818000D01*
X117233124Y-146813525D01*
X117234329Y-146812135D01*
X117236000Y-146804452D01*
X117236000Y-146799885D01*
X117744000Y-146799885D01*
X117748475Y-146815124D01*
X117749865Y-146816329D01*
X117757548Y-146818000D01*
X117935447Y-146818000D01*
X117941822Y-146817677D01*
X118077277Y-146803918D01*
X118089717Y-146801364D01*
X118263244Y-146746984D01*
X118274932Y-146741975D01*
X118433979Y-146653813D01*
X118444412Y-146646562D01*
X118582491Y-146528215D01*
X118591244Y-146519024D01*
X118702711Y-146375320D01*
X118709435Y-146364560D01*
X118789732Y-146201375D01*
X118794155Y-146189481D01*
X118809251Y-146131530D01*
X118809021Y-146124075D01*
X120186363Y-146124075D01*
X120242310Y-146276136D01*
X120247877Y-146287549D01*
X120343708Y-146442108D01*
X120351460Y-146452174D01*
X120476408Y-146584303D01*
X120486026Y-146592605D01*
X120634987Y-146696908D01*
X120646081Y-146703108D01*
X120812980Y-146775332D01*
X120825083Y-146779171D01*
X121004600Y-146816675D01*
X121014152Y-146817915D01*
X121017384Y-146818000D01*
X121387885Y-146818000D01*
X121403124Y-146813525D01*
X121404329Y-146812135D01*
X121406000Y-146804452D01*
X121406000Y-146799885D01*
X121914000Y-146799885D01*
X121918475Y-146815124D01*
X121919865Y-146816329D01*
X121927548Y-146818000D01*
X122255447Y-146818000D01*
X122261822Y-146817677D01*
X122397277Y-146803918D01*
X122409717Y-146801364D01*
X122583244Y-146746984D01*
X122594932Y-146741975D01*
X122753979Y-146653813D01*
X122764412Y-146646562D01*
X122902491Y-146528215D01*
X122911244Y-146519024D01*
X123022711Y-146375320D01*
X123029435Y-146364560D01*
X123109732Y-146201375D01*
X123114155Y-146189481D01*
X123129251Y-146131530D01*
X123128817Y-146117436D01*
X123120636Y-146114000D01*
X121932115Y-146114000D01*
X121916876Y-146118475D01*
X121915671Y-146119865D01*
X121914000Y-146127548D01*
X121914000Y-146799885D01*
X121406000Y-146799885D01*
X121406000Y-146132115D01*
X121401525Y-146116876D01*
X121400135Y-146115671D01*
X121392452Y-146114000D01*
X120200771Y-146114000D01*
X120187240Y-146117973D01*
X120186363Y-146124075D01*
X118809021Y-146124075D01*
X118808817Y-146117436D01*
X118800636Y-146114000D01*
X117762115Y-146114000D01*
X117746876Y-146118475D01*
X117745671Y-146119865D01*
X117744000Y-146127548D01*
X117744000Y-146799885D01*
X117236000Y-146799885D01*
X117236000Y-145587885D01*
X117744000Y-145587885D01*
X117748475Y-145603124D01*
X117749865Y-145604329D01*
X117757548Y-145606000D01*
X118799229Y-145606000D01*
X118812760Y-145602027D01*
X118813637Y-145595925D01*
X118810894Y-145588470D01*
X120190749Y-145588470D01*
X120191183Y-145602564D01*
X120199364Y-145606000D01*
X123119229Y-145606000D01*
X123132760Y-145602027D01*
X123133637Y-145595925D01*
X123077690Y-145443864D01*
X123072123Y-145432451D01*
X122976292Y-145277892D01*
X122968540Y-145267826D01*
X122843592Y-145135697D01*
X122833974Y-145127395D01*
X122685013Y-145023092D01*
X122673919Y-145016892D01*
X122507020Y-144944668D01*
X122494917Y-144940829D01*
X122315400Y-144903325D01*
X122305848Y-144902085D01*
X122302616Y-144902000D01*
X122048821Y-144902000D01*
X121980700Y-144881998D01*
X121934207Y-144828342D01*
X121924103Y-144758068D01*
X121930122Y-144733734D01*
X121969756Y-144622428D01*
X121969757Y-144622422D01*
X121972119Y-144615790D01*
X121975406Y-144588230D01*
X121992762Y-144442673D01*
X121993596Y-144435680D01*
X121981340Y-144319073D01*
X121975372Y-144262288D01*
X121975371Y-144262286D01*
X121974636Y-144255288D01*
X121916182Y-144083579D01*
X121856519Y-143986598D01*
X121824834Y-143935095D01*
X121824832Y-143935092D01*
X121821138Y-143929088D01*
X121816207Y-143924053D01*
X121816205Y-143924050D01*
X121699157Y-143804525D01*
X121699156Y-143804524D01*
X121694229Y-143799493D01*
X121541762Y-143701235D01*
X121535142Y-143698826D01*
X121535139Y-143698824D01*
X121377934Y-143641606D01*
X121377933Y-143641606D01*
X121371315Y-143639197D01*
X121231231Y-143621500D01*
X121134390Y-143621500D01*
X120999745Y-143636603D01*
X120993092Y-143638920D01*
X120993091Y-143638920D01*
X120835106Y-143693936D01*
X120835103Y-143693938D01*
X120828448Y-143696255D01*
X120822469Y-143699991D01*
X120814367Y-143705054D01*
X120674624Y-143792374D01*
X120669628Y-143797335D01*
X120669627Y-143797336D01*
X120550915Y-143915222D01*
X120550912Y-143915226D01*
X120545918Y-143920185D01*
X120542144Y-143926131D01*
X120542143Y-143926133D01*
X120529211Y-143946511D01*
X120448727Y-144073334D01*
X120446362Y-144079976D01*
X120390243Y-144237575D01*
X120390242Y-144237580D01*
X120387881Y-144244210D01*
X120387048Y-144251198D01*
X120387047Y-144251201D01*
X120379533Y-144314214D01*
X120366404Y-144424320D01*
X120367140Y-144431323D01*
X120367140Y-144431324D01*
X120383632Y-144588230D01*
X120385364Y-144604712D01*
X120443818Y-144776421D01*
X120447512Y-144782425D01*
X120535167Y-144924907D01*
X120535170Y-144924911D01*
X120538862Y-144930912D01*
X120539603Y-144931669D01*
X120564908Y-144995459D01*
X120551252Y-145065129D01*
X120521438Y-145102709D01*
X120417504Y-145191790D01*
X120408756Y-145200976D01*
X120297289Y-145344680D01*
X120290565Y-145355440D01*
X120210268Y-145518625D01*
X120205845Y-145530519D01*
X120190749Y-145588470D01*
X118810894Y-145588470D01*
X118757690Y-145443864D01*
X118752123Y-145432451D01*
X118656292Y-145277892D01*
X118648540Y-145267826D01*
X118523592Y-145135697D01*
X118513974Y-145127395D01*
X118365013Y-145023092D01*
X118353919Y-145016892D01*
X118187020Y-144944668D01*
X118174917Y-144940829D01*
X117995400Y-144903325D01*
X117985848Y-144902085D01*
X117982616Y-144902000D01*
X117762115Y-144902000D01*
X117746876Y-144906475D01*
X117745671Y-144907865D01*
X117744000Y-144915548D01*
X117744000Y-145587885D01*
X117236000Y-145587885D01*
X117236000Y-144920115D01*
X117231525Y-144904876D01*
X117230135Y-144903671D01*
X117222452Y-144902000D01*
X117044553Y-144902000D01*
X117038178Y-144902323D01*
X116902723Y-144916082D01*
X116890283Y-144918636D01*
X116716756Y-144973016D01*
X116705068Y-144978025D01*
X116546021Y-145066187D01*
X116535588Y-145073438D01*
X116397509Y-145191785D01*
X116388756Y-145200976D01*
X116277289Y-145344680D01*
X116270563Y-145355443D01*
X116247055Y-145403218D01*
X116199032Y-145455509D01*
X116130362Y-145473536D01*
X116062848Y-145451576D01*
X116017923Y-145396601D01*
X116008000Y-145347589D01*
X116008000Y-143037408D01*
X117215231Y-143037408D01*
X117232931Y-143217928D01*
X117290186Y-143390041D01*
X117384148Y-143545192D01*
X117389037Y-143550255D01*
X117389038Y-143550256D01*
X117447676Y-143610977D01*
X117510150Y-143675670D01*
X117661927Y-143774990D01*
X117668531Y-143777446D01*
X117668533Y-143777447D01*
X117825326Y-143835758D01*
X117825328Y-143835758D01*
X117831936Y-143838216D01*
X117859138Y-143841846D01*
X117866170Y-143842784D01*
X117931047Y-143871620D01*
X117970035Y-143930954D01*
X117973135Y-143946511D01*
X117973242Y-143946488D01*
X117974708Y-143953382D01*
X117975395Y-143960392D01*
X118032650Y-144132505D01*
X118036297Y-144138527D01*
X118036298Y-144138529D01*
X118111249Y-144262288D01*
X118126612Y-144287656D01*
X118252614Y-144418134D01*
X118404391Y-144517454D01*
X118410995Y-144519910D01*
X118410997Y-144519911D01*
X118567790Y-144578222D01*
X118567792Y-144578222D01*
X118574400Y-144580680D01*
X118658227Y-144591865D01*
X118747212Y-144603739D01*
X118747216Y-144603739D01*
X118754193Y-144604670D01*
X118761204Y-144604032D01*
X118761208Y-144604032D01*
X118903691Y-144591064D01*
X118934832Y-144588230D01*
X118941534Y-144586052D01*
X118941536Y-144586052D01*
X119100641Y-144534356D01*
X119100644Y-144534355D01*
X119107340Y-144532179D01*
X119263144Y-144439301D01*
X119394498Y-144314214D01*
X119494875Y-144163134D01*
X119559287Y-143993570D01*
X119560267Y-143986598D01*
X119583980Y-143817871D01*
X119583980Y-143817868D01*
X119584531Y-143813949D01*
X119584848Y-143791232D01*
X119564629Y-143610977D01*
X119543484Y-143550256D01*
X119507296Y-143446338D01*
X119507294Y-143446335D01*
X119504977Y-143439680D01*
X119473959Y-143390041D01*
X119412591Y-143291830D01*
X119408858Y-143285856D01*
X119391195Y-143268069D01*
X119286010Y-143162147D01*
X119286006Y-143162144D01*
X119281047Y-143157150D01*
X119274143Y-143152768D01*
X119221770Y-143119532D01*
X119127898Y-143059959D01*
X119084262Y-143044421D01*
X118963657Y-143001475D01*
X118963652Y-143001474D01*
X118957022Y-142999113D01*
X118950029Y-142998279D01*
X118950024Y-142998278D01*
X118934347Y-142996408D01*
X118869074Y-142968480D01*
X118829262Y-142909696D01*
X118824054Y-142885343D01*
X118822952Y-142875521D01*
X118822950Y-142875513D01*
X118822165Y-142868513D01*
X118762513Y-142697216D01*
X118666394Y-142543392D01*
X118637189Y-142513982D01*
X118543546Y-142419683D01*
X118543542Y-142419680D01*
X118538583Y-142414686D01*
X118527465Y-142407630D01*
X118459753Y-142364659D01*
X118385434Y-142317495D01*
X118356231Y-142307096D01*
X118221193Y-142259011D01*
X118221188Y-142259010D01*
X118214558Y-142256649D01*
X118207570Y-142255816D01*
X118207567Y-142255815D01*
X118084466Y-142241136D01*
X118034448Y-142235172D01*
X118027445Y-142235908D01*
X118027444Y-142235908D01*
X117861056Y-142253396D01*
X117861054Y-142253397D01*
X117854056Y-142254132D01*
X117682347Y-142312586D01*
X117676343Y-142316280D01*
X117533863Y-142403934D01*
X117533860Y-142403936D01*
X117527856Y-142407630D01*
X117522821Y-142412561D01*
X117522818Y-142412563D01*
X117501856Y-142433091D01*
X117398261Y-142534539D01*
X117300003Y-142687006D01*
X117297594Y-142693626D01*
X117297592Y-142693629D01*
X117250746Y-142822338D01*
X117237965Y-142857453D01*
X117215231Y-143037408D01*
X116008000Y-143037408D01*
X116008000Y-140546140D01*
X117363963Y-140546140D01*
X117381663Y-140726660D01*
X117438918Y-140898773D01*
X117442565Y-140904795D01*
X117442566Y-140904797D01*
X117465038Y-140941902D01*
X117532880Y-141053924D01*
X117537769Y-141058987D01*
X117537770Y-141058988D01*
X117570598Y-141092982D01*
X117658882Y-141184402D01*
X117810659Y-141283722D01*
X117817263Y-141286178D01*
X117817265Y-141286179D01*
X117974058Y-141344490D01*
X117974060Y-141344490D01*
X117980668Y-141346948D01*
X118055928Y-141356990D01*
X118153480Y-141370007D01*
X118153484Y-141370007D01*
X118160461Y-141370938D01*
X118167472Y-141370300D01*
X118167476Y-141370300D01*
X118313718Y-141356990D01*
X118341100Y-141354498D01*
X118347802Y-141352320D01*
X118347804Y-141352320D01*
X118506909Y-141300624D01*
X118506912Y-141300623D01*
X118513608Y-141298447D01*
X118519659Y-141294840D01*
X118622828Y-141233339D01*
X118691583Y-141215639D01*
X118756338Y-141236136D01*
X118832812Y-141286179D01*
X118848159Y-141296222D01*
X118854763Y-141298678D01*
X118854765Y-141298679D01*
X119011558Y-141356990D01*
X119011560Y-141356990D01*
X119018168Y-141359448D01*
X119099498Y-141370300D01*
X119190980Y-141382507D01*
X119190984Y-141382507D01*
X119197961Y-141383438D01*
X119204972Y-141382800D01*
X119204976Y-141382800D01*
X119347459Y-141369832D01*
X119378600Y-141366998D01*
X119385302Y-141364820D01*
X119385304Y-141364820D01*
X119544409Y-141313124D01*
X119544412Y-141313123D01*
X119551108Y-141310947D01*
X119647513Y-141253478D01*
X119700860Y-141221677D01*
X119700862Y-141221676D01*
X119706912Y-141218069D01*
X119838266Y-141092982D01*
X119938643Y-140941902D01*
X119980423Y-140831917D01*
X120000555Y-140778920D01*
X120000556Y-140778918D01*
X120003055Y-140772338D01*
X120011513Y-140712154D01*
X120027748Y-140596639D01*
X120027748Y-140596636D01*
X120028299Y-140592717D01*
X120028616Y-140570000D01*
X120008397Y-140389745D01*
X119979548Y-140306902D01*
X119951064Y-140225106D01*
X119951062Y-140225103D01*
X119948745Y-140218448D01*
X119852626Y-140064624D01*
X119847664Y-140059627D01*
X119729778Y-139940915D01*
X119729774Y-139940912D01*
X119724815Y-139935918D01*
X119713697Y-139928862D01*
X119640386Y-139882338D01*
X119571666Y-139838727D01*
X119516398Y-139819047D01*
X119407425Y-139780243D01*
X119407420Y-139780242D01*
X119400790Y-139777881D01*
X119393802Y-139777048D01*
X119393799Y-139777047D01*
X119268682Y-139762128D01*
X119220680Y-139756404D01*
X119213677Y-139757140D01*
X119213676Y-139757140D01*
X119047288Y-139774628D01*
X119047286Y-139774629D01*
X119040288Y-139775364D01*
X118911969Y-139819047D01*
X118879789Y-139830002D01*
X118868579Y-139833818D01*
X118794052Y-139879668D01*
X118771909Y-139893290D01*
X118703408Y-139911949D01*
X118638374Y-139892359D01*
X118534166Y-139826227D01*
X118504963Y-139815828D01*
X118369925Y-139767743D01*
X118369920Y-139767742D01*
X118363290Y-139765381D01*
X118356302Y-139764548D01*
X118356299Y-139764547D01*
X118233198Y-139749868D01*
X118183180Y-139743904D01*
X118176177Y-139744640D01*
X118176176Y-139744640D01*
X118009788Y-139762128D01*
X118009786Y-139762129D01*
X118002788Y-139762864D01*
X117831079Y-139821318D01*
X117771306Y-139858091D01*
X117682595Y-139912666D01*
X117682592Y-139912668D01*
X117676588Y-139916362D01*
X117671553Y-139921293D01*
X117671550Y-139921295D01*
X117563970Y-140026646D01*
X117546993Y-140043271D01*
X117448735Y-140195738D01*
X117446326Y-140202358D01*
X117446324Y-140202361D01*
X117429954Y-140247338D01*
X117386697Y-140366185D01*
X117363963Y-140546140D01*
X116008000Y-140546140D01*
X116008000Y-137735251D01*
X116028002Y-137667130D01*
X116081658Y-137620637D01*
X116151932Y-137610533D01*
X116216512Y-137640027D01*
X116241086Y-137668854D01*
X116323708Y-137802108D01*
X116331460Y-137812174D01*
X116456408Y-137944303D01*
X116466026Y-137952605D01*
X116614987Y-138056908D01*
X116626081Y-138063108D01*
X116792980Y-138135332D01*
X116805083Y-138139171D01*
X116984600Y-138176675D01*
X116994152Y-138177915D01*
X116997384Y-138178000D01*
X117217885Y-138178000D01*
X117233124Y-138173525D01*
X117234329Y-138172135D01*
X117236000Y-138164452D01*
X117236000Y-138159885D01*
X117744000Y-138159885D01*
X117748475Y-138175124D01*
X117749865Y-138176329D01*
X117757548Y-138178000D01*
X117935447Y-138178000D01*
X117941822Y-138177677D01*
X118077277Y-138163918D01*
X118089717Y-138161364D01*
X118263244Y-138106984D01*
X118274932Y-138101975D01*
X118433979Y-138013813D01*
X118444412Y-138006562D01*
X118582491Y-137888215D01*
X118591244Y-137879024D01*
X118702711Y-137735320D01*
X118709435Y-137724560D01*
X118789732Y-137561375D01*
X118794155Y-137549481D01*
X118809251Y-137491530D01*
X118809021Y-137484075D01*
X120186363Y-137484075D01*
X120242310Y-137636136D01*
X120247877Y-137647549D01*
X120343708Y-137802108D01*
X120351460Y-137812174D01*
X120476406Y-137944301D01*
X120486028Y-137952607D01*
X120511279Y-137970288D01*
X120555607Y-138025745D01*
X120562915Y-138096365D01*
X120545392Y-138141014D01*
X120448727Y-138293334D01*
X120446362Y-138299976D01*
X120390243Y-138457575D01*
X120390242Y-138457580D01*
X120387881Y-138464210D01*
X120387048Y-138471198D01*
X120387047Y-138471201D01*
X120376799Y-138557143D01*
X120366404Y-138644320D01*
X120367140Y-138651323D01*
X120367140Y-138651324D01*
X120371794Y-138695598D01*
X120385364Y-138824712D01*
X120443818Y-138996421D01*
X120538862Y-139150912D01*
X120543793Y-139155947D01*
X120543795Y-139155950D01*
X120582036Y-139195000D01*
X120665771Y-139280507D01*
X120818238Y-139378765D01*
X120824858Y-139381174D01*
X120824861Y-139381176D01*
X120887350Y-139403920D01*
X120988685Y-139440803D01*
X121128769Y-139458500D01*
X121225610Y-139458500D01*
X121360255Y-139443397D01*
X121374622Y-139438394D01*
X121524894Y-139386064D01*
X121524897Y-139386062D01*
X121531552Y-139383745D01*
X121539522Y-139378765D01*
X121679402Y-139291359D01*
X121685376Y-139287626D01*
X121697612Y-139275475D01*
X121809085Y-139164778D01*
X121809088Y-139164774D01*
X121814082Y-139159815D01*
X121911273Y-139006666D01*
X121933652Y-138943818D01*
X121969757Y-138842425D01*
X121969758Y-138842420D01*
X121972119Y-138835790D01*
X121993596Y-138655680D01*
X121990823Y-138629296D01*
X121975372Y-138482288D01*
X121975371Y-138482286D01*
X121974636Y-138475288D01*
X121930148Y-138344604D01*
X121927130Y-138273673D01*
X121962940Y-138212369D01*
X122026209Y-138180157D01*
X122049426Y-138178000D01*
X122255447Y-138178000D01*
X122261822Y-138177677D01*
X122397277Y-138163918D01*
X122409717Y-138161364D01*
X122583244Y-138106984D01*
X122594932Y-138101975D01*
X122674046Y-138058121D01*
X122743323Y-138042589D01*
X122809999Y-138066977D01*
X122844251Y-138105324D01*
X122850960Y-138116944D01*
X122855378Y-138121851D01*
X122855379Y-138121852D01*
X122893736Y-138164452D01*
X122978747Y-138258866D01*
X123133248Y-138371118D01*
X123139276Y-138373802D01*
X123139278Y-138373803D01*
X123301681Y-138446109D01*
X123307712Y-138448794D01*
X123314173Y-138450167D01*
X123314178Y-138450169D01*
X123372559Y-138462579D01*
X123435033Y-138496307D01*
X123469354Y-138558457D01*
X123464626Y-138629296D01*
X123438374Y-138669889D01*
X123438979Y-138670382D01*
X123434526Y-138675842D01*
X123429493Y-138680771D01*
X123331235Y-138833238D01*
X123328826Y-138839858D01*
X123328824Y-138839861D01*
X123311346Y-138887881D01*
X123269197Y-139003685D01*
X123246463Y-139183640D01*
X123264163Y-139364160D01*
X123321418Y-139536273D01*
X123325065Y-139542295D01*
X123325066Y-139542297D01*
X123331504Y-139552927D01*
X123349683Y-139621556D01*
X123336587Y-139674224D01*
X123335054Y-139677313D01*
X123331235Y-139683238D01*
X123328826Y-139689858D01*
X123328824Y-139689861D01*
X123274641Y-139838727D01*
X123269197Y-139853685D01*
X123246463Y-140033640D01*
X123264163Y-140214160D01*
X123321418Y-140386273D01*
X123325065Y-140392295D01*
X123325066Y-140392297D01*
X123400430Y-140516738D01*
X123415380Y-140541424D01*
X123420269Y-140546487D01*
X123420270Y-140546488D01*
X123431825Y-140558453D01*
X123541382Y-140671902D01*
X123693159Y-140771222D01*
X123699763Y-140773678D01*
X123699765Y-140773679D01*
X123856558Y-140831990D01*
X123856560Y-140831990D01*
X123863168Y-140834448D01*
X123946995Y-140845633D01*
X124035980Y-140857507D01*
X124035984Y-140857507D01*
X124042961Y-140858438D01*
X124049972Y-140857800D01*
X124049976Y-140857800D01*
X124192459Y-140844832D01*
X124223600Y-140841998D01*
X124230302Y-140839820D01*
X124230304Y-140839820D01*
X124389409Y-140788124D01*
X124389412Y-140788123D01*
X124396108Y-140785947D01*
X124551912Y-140693069D01*
X124683266Y-140567982D01*
X124783643Y-140416902D01*
X124848055Y-140247338D01*
X124849035Y-140240366D01*
X124872748Y-140071639D01*
X124872748Y-140071636D01*
X124873299Y-140067717D01*
X124873520Y-140051902D01*
X124873561Y-140048962D01*
X124873561Y-140048957D01*
X124873616Y-140045000D01*
X124872342Y-140033640D01*
X127376463Y-140033640D01*
X127394163Y-140214160D01*
X127451418Y-140386273D01*
X127455065Y-140392295D01*
X127455066Y-140392297D01*
X127530430Y-140516738D01*
X127545380Y-140541424D01*
X127550269Y-140546487D01*
X127550270Y-140546488D01*
X127561825Y-140558453D01*
X127671382Y-140671902D01*
X127823159Y-140771222D01*
X127829763Y-140773678D01*
X127829765Y-140773679D01*
X127986558Y-140831990D01*
X127986560Y-140831990D01*
X127993168Y-140834448D01*
X128076995Y-140845633D01*
X128165980Y-140857507D01*
X128165984Y-140857507D01*
X128172961Y-140858438D01*
X128179972Y-140857800D01*
X128179976Y-140857800D01*
X128322459Y-140844832D01*
X128353600Y-140841998D01*
X128360302Y-140839820D01*
X128360304Y-140839820D01*
X128519409Y-140788124D01*
X128519412Y-140788123D01*
X128526108Y-140785947D01*
X128681912Y-140693069D01*
X128813266Y-140567982D01*
X128913643Y-140416902D01*
X128978055Y-140247338D01*
X128979035Y-140240366D01*
X129002748Y-140071639D01*
X129002748Y-140071636D01*
X129003299Y-140067717D01*
X129003520Y-140051902D01*
X129003561Y-140048962D01*
X129003561Y-140048957D01*
X129003616Y-140045000D01*
X128983397Y-139864745D01*
X128979546Y-139853685D01*
X128926063Y-139700105D01*
X128923745Y-139693448D01*
X128920013Y-139687476D01*
X128920009Y-139687467D01*
X128919958Y-139687386D01*
X128919941Y-139687326D01*
X128916967Y-139681118D01*
X128918058Y-139680595D01*
X128900827Y-139619016D01*
X128913775Y-139566952D01*
X128913643Y-139566902D01*
X128914060Y-139565804D01*
X128945870Y-139482066D01*
X128975555Y-139403920D01*
X128975556Y-139403918D01*
X128978055Y-139397338D01*
X128979035Y-139390366D01*
X129002748Y-139221639D01*
X129002748Y-139221636D01*
X129003299Y-139217717D01*
X129003616Y-139195000D01*
X128983397Y-139014745D01*
X128980584Y-139006666D01*
X128926064Y-138850106D01*
X128926062Y-138850103D01*
X128923745Y-138843448D01*
X128827626Y-138689624D01*
X128808518Y-138670382D01*
X128704778Y-138565915D01*
X128704774Y-138565912D01*
X128699815Y-138560918D01*
X128688697Y-138553862D01*
X128585702Y-138488500D01*
X128546666Y-138463727D01*
X128497189Y-138446109D01*
X128382425Y-138405243D01*
X128382420Y-138405242D01*
X128375790Y-138402881D01*
X128368802Y-138402048D01*
X128368799Y-138402047D01*
X128244177Y-138387187D01*
X128195680Y-138381404D01*
X128188677Y-138382140D01*
X128188676Y-138382140D01*
X128022288Y-138399628D01*
X128022286Y-138399629D01*
X128015288Y-138400364D01*
X127843579Y-138458818D01*
X127829457Y-138467506D01*
X127695095Y-138550166D01*
X127695092Y-138550168D01*
X127689088Y-138553862D01*
X127684053Y-138558793D01*
X127684050Y-138558795D01*
X127612057Y-138629296D01*
X127559493Y-138680771D01*
X127461235Y-138833238D01*
X127458826Y-138839858D01*
X127458824Y-138839861D01*
X127441346Y-138887881D01*
X127399197Y-139003685D01*
X127376463Y-139183640D01*
X127394163Y-139364160D01*
X127451418Y-139536273D01*
X127455065Y-139542295D01*
X127455066Y-139542297D01*
X127461504Y-139552927D01*
X127479683Y-139621556D01*
X127466587Y-139674224D01*
X127465054Y-139677313D01*
X127461235Y-139683238D01*
X127458826Y-139689858D01*
X127458824Y-139689861D01*
X127404641Y-139838727D01*
X127399197Y-139853685D01*
X127376463Y-140033640D01*
X124872342Y-140033640D01*
X124853397Y-139864745D01*
X124849546Y-139853685D01*
X124796063Y-139700105D01*
X124793745Y-139693448D01*
X124790013Y-139687476D01*
X124790009Y-139687467D01*
X124789958Y-139687386D01*
X124789941Y-139687326D01*
X124786967Y-139681118D01*
X124788058Y-139680595D01*
X124770827Y-139619016D01*
X124783775Y-139566952D01*
X124783643Y-139566902D01*
X124784060Y-139565804D01*
X124815870Y-139482066D01*
X124845555Y-139403920D01*
X124845556Y-139403918D01*
X124848055Y-139397338D01*
X124849035Y-139390366D01*
X124872748Y-139221639D01*
X124872748Y-139221636D01*
X124873299Y-139217717D01*
X124873616Y-139195000D01*
X124853397Y-139014745D01*
X124850584Y-139006666D01*
X124796064Y-138850106D01*
X124796062Y-138850103D01*
X124793745Y-138843448D01*
X124697626Y-138689624D01*
X124678518Y-138670382D01*
X124574778Y-138565915D01*
X124574774Y-138565912D01*
X124569815Y-138560918D01*
X124558697Y-138553862D01*
X124455702Y-138488500D01*
X124416666Y-138463727D01*
X124291185Y-138419045D01*
X124233722Y-138377352D01*
X124207922Y-138311209D01*
X124221977Y-138241618D01*
X124239816Y-138216037D01*
X124243119Y-138212369D01*
X124329040Y-138116944D01*
X124424527Y-137951556D01*
X124483542Y-137769928D01*
X124487180Y-137735320D01*
X124502814Y-137586565D01*
X124503504Y-137580000D01*
X124484513Y-137399310D01*
X124497285Y-137329472D01*
X124545787Y-137277625D01*
X124614620Y-137260231D01*
X124654771Y-137268430D01*
X124754996Y-137306702D01*
X124764899Y-137309579D01*
X124868250Y-137330606D01*
X124882299Y-137329410D01*
X124886000Y-137319065D01*
X124886000Y-136272115D01*
X124881525Y-136256876D01*
X124880135Y-136255671D01*
X124872452Y-136254000D01*
X123823225Y-136254000D01*
X123809694Y-136257973D01*
X123808257Y-136267966D01*
X123838565Y-136402446D01*
X123841645Y-136412275D01*
X123882256Y-136512291D01*
X123889352Y-136582933D01*
X123857130Y-136646196D01*
X123795820Y-136681996D01*
X123739315Y-136682941D01*
X123691951Y-136672873D01*
X123691942Y-136672872D01*
X123685487Y-136671500D01*
X123494513Y-136671500D01*
X123488061Y-136672872D01*
X123488056Y-136672872D01*
X123401112Y-136691353D01*
X123307712Y-136711206D01*
X123301685Y-136713889D01*
X123301677Y-136713892D01*
X123184025Y-136766274D01*
X123113658Y-136775708D01*
X123049361Y-136745601D01*
X123025691Y-136717563D01*
X122976295Y-136637896D01*
X122968540Y-136627826D01*
X122843592Y-136495697D01*
X122833974Y-136487395D01*
X122685013Y-136383092D01*
X122673919Y-136376892D01*
X122507020Y-136304668D01*
X122494917Y-136300829D01*
X122315400Y-136263325D01*
X122305848Y-136262085D01*
X122302616Y-136262000D01*
X121932115Y-136262000D01*
X121916876Y-136266475D01*
X121915671Y-136267865D01*
X121914000Y-136275548D01*
X121914000Y-137348000D01*
X121893998Y-137416121D01*
X121840342Y-137462614D01*
X121788000Y-137474000D01*
X120200771Y-137474000D01*
X120187240Y-137477973D01*
X120186363Y-137484075D01*
X118809021Y-137484075D01*
X118808817Y-137477436D01*
X118800636Y-137474000D01*
X117762115Y-137474000D01*
X117746876Y-137478475D01*
X117745671Y-137479865D01*
X117744000Y-137487548D01*
X117744000Y-138159885D01*
X117236000Y-138159885D01*
X117236000Y-136947885D01*
X117744000Y-136947885D01*
X117748475Y-136963124D01*
X117749865Y-136964329D01*
X117757548Y-136966000D01*
X118799229Y-136966000D01*
X118812760Y-136962027D01*
X118813637Y-136955925D01*
X118810894Y-136948470D01*
X120190749Y-136948470D01*
X120191183Y-136962564D01*
X120199364Y-136966000D01*
X121387885Y-136966000D01*
X121403124Y-136961525D01*
X121404329Y-136960135D01*
X121406000Y-136952452D01*
X121406000Y-136280115D01*
X121401525Y-136264876D01*
X121400135Y-136263671D01*
X121392452Y-136262000D01*
X121064553Y-136262000D01*
X121058178Y-136262323D01*
X120922723Y-136276082D01*
X120910283Y-136278636D01*
X120736756Y-136333016D01*
X120725068Y-136338025D01*
X120566021Y-136426187D01*
X120555588Y-136433438D01*
X120417509Y-136551785D01*
X120408756Y-136560976D01*
X120297289Y-136704680D01*
X120290565Y-136715440D01*
X120210268Y-136878625D01*
X120205845Y-136890519D01*
X120190749Y-136948470D01*
X118810894Y-136948470D01*
X118757690Y-136803864D01*
X118752123Y-136792451D01*
X118656292Y-136637892D01*
X118648540Y-136627826D01*
X118523592Y-136495697D01*
X118513974Y-136487395D01*
X118365013Y-136383092D01*
X118353919Y-136376892D01*
X118187020Y-136304668D01*
X118174917Y-136300829D01*
X117995400Y-136263325D01*
X117985848Y-136262085D01*
X117982616Y-136262000D01*
X117762115Y-136262000D01*
X117746876Y-136266475D01*
X117745671Y-136267865D01*
X117744000Y-136275548D01*
X117744000Y-136947885D01*
X117236000Y-136947885D01*
X117236000Y-136280115D01*
X117231525Y-136264876D01*
X117230135Y-136263671D01*
X117222452Y-136262000D01*
X117044553Y-136262000D01*
X117038178Y-136262323D01*
X116902723Y-136276082D01*
X116890283Y-136278636D01*
X116716756Y-136333016D01*
X116705068Y-136338025D01*
X116546021Y-136426187D01*
X116535588Y-136433438D01*
X116397509Y-136551785D01*
X116388756Y-136560976D01*
X116277289Y-136704680D01*
X116270563Y-136715443D01*
X116247055Y-136763218D01*
X116199032Y-136815509D01*
X116130362Y-136833536D01*
X116062848Y-136811576D01*
X116017923Y-136756601D01*
X116008000Y-136707589D01*
X116008000Y-135734183D01*
X123804389Y-135734183D01*
X123805912Y-135742607D01*
X123818292Y-135746000D01*
X124867885Y-135746000D01*
X124883124Y-135741525D01*
X124884329Y-135740135D01*
X124886000Y-135732452D01*
X124886000Y-134683102D01*
X124882082Y-134669758D01*
X124867806Y-134667771D01*
X124829324Y-134673660D01*
X124819288Y-134676051D01*
X124616868Y-134742212D01*
X124607359Y-134746209D01*
X124418463Y-134844542D01*
X124409738Y-134850036D01*
X124239433Y-134977905D01*
X124231726Y-134984748D01*
X124084590Y-135138717D01*
X124078104Y-135146727D01*
X123958098Y-135322649D01*
X123953000Y-135331623D01*
X123863338Y-135524783D01*
X123859775Y-135534470D01*
X123804389Y-135734183D01*
X116008000Y-135734183D01*
X116008000Y-124634000D01*
X116028002Y-124565879D01*
X116081658Y-124519386D01*
X116134000Y-124508000D01*
X129874000Y-124508000D01*
X129942121Y-124528002D01*
G37*
G04 #@! TD.AperFunction*
M02*
