G04 #@! TF.GenerationSoftware,KiCad,Pcbnew,(6.0.0)*
G04 #@! TF.CreationDate,2023-01-21T18:13:16+03:00*
G04 #@! TF.ProjectId,im_converter,696d5f63-6f6e-4766-9572-7465722e6b69,rev?*
G04 #@! TF.SameCoordinates,Original*
G04 #@! TF.FileFunction,Soldermask,Top*
G04 #@! TF.FilePolarity,Negative*
%FSLAX46Y46*%
G04 Gerber Fmt 4.6, Leading zero omitted, Abs format (unit mm)*
G04 Created by KiCad (PCBNEW (6.0.0)) date 2023-01-21 18:13:16*
%MOMM*%
%LPD*%
G01*
G04 APERTURE LIST*
%ADD10O,1.802000X1.802000*%
%ADD11C,0.702000*%
%ADD12O,1.802000X1.002000*%
%ADD13O,2.102000X1.002000*%
%ADD14C,1.542000*%
G04 APERTURE END LIST*
G36*
G01*
X129370000Y-135099000D02*
X131070000Y-135099000D01*
G75*
G02*
X131121000Y-135150000I0J-51000D01*
G01*
X131121000Y-136850000D01*
G75*
G02*
X131070000Y-136901000I-51000J0D01*
G01*
X129370000Y-136901000D01*
G75*
G02*
X129319000Y-136850000I0J51000D01*
G01*
X129319000Y-135150000D01*
G75*
G02*
X129370000Y-135099000I51000J0D01*
G01*
G37*
D10*
X127680000Y-136000000D03*
X125140000Y-136000000D03*
G36*
G01*
X159460000Y-137604000D02*
X160760000Y-137604000D01*
G75*
G02*
X161061000Y-137905000I0J-301000D01*
G01*
X161061000Y-138730000D01*
G75*
G02*
X160760000Y-139031000I-301000J0D01*
G01*
X159460000Y-139031000D01*
G75*
G02*
X159159000Y-138730000I0J301000D01*
G01*
X159159000Y-137905000D01*
G75*
G02*
X159460000Y-137604000I301000J0D01*
G01*
G37*
G36*
G01*
X159460000Y-140729000D02*
X160760000Y-140729000D01*
G75*
G02*
X161061000Y-141030000I0J-301000D01*
G01*
X161061000Y-141855000D01*
G75*
G02*
X160760000Y-142156000I-301000J0D01*
G01*
X159460000Y-142156000D01*
G75*
G02*
X159159000Y-141855000I0J301000D01*
G01*
X159159000Y-141030000D01*
G75*
G02*
X159460000Y-140729000I301000J0D01*
G01*
G37*
G36*
G01*
X119650000Y-150334000D02*
X120950000Y-150334000D01*
G75*
G02*
X121251000Y-150635000I0J-301000D01*
G01*
X121251000Y-151460000D01*
G75*
G02*
X120950000Y-151761000I-301000J0D01*
G01*
X119650000Y-151761000D01*
G75*
G02*
X119349000Y-151460000I0J301000D01*
G01*
X119349000Y-150635000D01*
G75*
G02*
X119650000Y-150334000I301000J0D01*
G01*
G37*
G36*
G01*
X119650000Y-153459000D02*
X120950000Y-153459000D01*
G75*
G02*
X121251000Y-153760000I0J-301000D01*
G01*
X121251000Y-154585000D01*
G75*
G02*
X120950000Y-154886000I-301000J0D01*
G01*
X119650000Y-154886000D01*
G75*
G02*
X119349000Y-154585000I0J301000D01*
G01*
X119349000Y-153760000D01*
G75*
G02*
X119650000Y-153459000I301000J0D01*
G01*
G37*
G36*
G01*
X170484000Y-143170000D02*
X170484000Y-141870000D01*
G75*
G02*
X170785000Y-141569000I301000J0D01*
G01*
X171610000Y-141569000D01*
G75*
G02*
X171911000Y-141870000I0J-301000D01*
G01*
X171911000Y-143170000D01*
G75*
G02*
X171610000Y-143471000I-301000J0D01*
G01*
X170785000Y-143471000D01*
G75*
G02*
X170484000Y-143170000I0J301000D01*
G01*
G37*
G36*
G01*
X173609000Y-143170000D02*
X173609000Y-141870000D01*
G75*
G02*
X173910000Y-141569000I301000J0D01*
G01*
X174735000Y-141569000D01*
G75*
G02*
X175036000Y-141870000I0J-301000D01*
G01*
X175036000Y-143170000D01*
G75*
G02*
X174735000Y-143471000I-301000J0D01*
G01*
X173910000Y-143471000D01*
G75*
G02*
X173609000Y-143170000I0J301000D01*
G01*
G37*
G36*
G01*
X132220000Y-150204000D02*
X133520000Y-150204000D01*
G75*
G02*
X133821000Y-150505000I0J-301000D01*
G01*
X133821000Y-151330000D01*
G75*
G02*
X133520000Y-151631000I-301000J0D01*
G01*
X132220000Y-151631000D01*
G75*
G02*
X131919000Y-151330000I0J301000D01*
G01*
X131919000Y-150505000D01*
G75*
G02*
X132220000Y-150204000I301000J0D01*
G01*
G37*
G36*
G01*
X132220000Y-153329000D02*
X133520000Y-153329000D01*
G75*
G02*
X133821000Y-153630000I0J-301000D01*
G01*
X133821000Y-154455000D01*
G75*
G02*
X133520000Y-154756000I-301000J0D01*
G01*
X132220000Y-154756000D01*
G75*
G02*
X131919000Y-154455000I0J301000D01*
G01*
X131919000Y-153630000D01*
G75*
G02*
X132220000Y-153329000I301000J0D01*
G01*
G37*
G36*
G01*
X170381500Y-134570000D02*
X170381500Y-133270000D01*
G75*
G02*
X170682500Y-132969000I301000J0D01*
G01*
X171507500Y-132969000D01*
G75*
G02*
X171808500Y-133270000I0J-301000D01*
G01*
X171808500Y-134570000D01*
G75*
G02*
X171507500Y-134871000I-301000J0D01*
G01*
X170682500Y-134871000D01*
G75*
G02*
X170381500Y-134570000I0J301000D01*
G01*
G37*
G36*
G01*
X173506500Y-134570000D02*
X173506500Y-133270000D01*
G75*
G02*
X173807500Y-132969000I301000J0D01*
G01*
X174632500Y-132969000D01*
G75*
G02*
X174933500Y-133270000I0J-301000D01*
G01*
X174933500Y-134570000D01*
G75*
G02*
X174632500Y-134871000I-301000J0D01*
G01*
X173807500Y-134871000D01*
G75*
G02*
X173506500Y-134570000I0J301000D01*
G01*
G37*
G36*
G01*
X160740000Y-134706000D02*
X159440000Y-134706000D01*
G75*
G02*
X159139000Y-134405000I0J301000D01*
G01*
X159139000Y-133580000D01*
G75*
G02*
X159440000Y-133279000I301000J0D01*
G01*
X160740000Y-133279000D01*
G75*
G02*
X161041000Y-133580000I0J-301000D01*
G01*
X161041000Y-134405000D01*
G75*
G02*
X160740000Y-134706000I-301000J0D01*
G01*
G37*
G36*
G01*
X160740000Y-131581000D02*
X159440000Y-131581000D01*
G75*
G02*
X159139000Y-131280000I0J301000D01*
G01*
X159139000Y-130455000D01*
G75*
G02*
X159440000Y-130154000I301000J0D01*
G01*
X160740000Y-130154000D01*
G75*
G02*
X161041000Y-130455000I0J-301000D01*
G01*
X161041000Y-131280000D01*
G75*
G02*
X160740000Y-131581000I-301000J0D01*
G01*
G37*
G36*
G01*
X117700000Y-128634000D02*
X119000000Y-128634000D01*
G75*
G02*
X119301000Y-128935000I0J-301000D01*
G01*
X119301000Y-129760000D01*
G75*
G02*
X119000000Y-130061000I-301000J0D01*
G01*
X117700000Y-130061000D01*
G75*
G02*
X117399000Y-129760000I0J301000D01*
G01*
X117399000Y-128935000D01*
G75*
G02*
X117700000Y-128634000I301000J0D01*
G01*
G37*
G36*
G01*
X117700000Y-131759000D02*
X119000000Y-131759000D01*
G75*
G02*
X119301000Y-132060000I0J-301000D01*
G01*
X119301000Y-132885000D01*
G75*
G02*
X119000000Y-133186000I-301000J0D01*
G01*
X117700000Y-133186000D01*
G75*
G02*
X117399000Y-132885000I0J301000D01*
G01*
X117399000Y-132060000D01*
G75*
G02*
X117700000Y-131759000I301000J0D01*
G01*
G37*
G36*
G01*
X123716500Y-148830000D02*
X123716500Y-147530000D01*
G75*
G02*
X124017500Y-147229000I301000J0D01*
G01*
X124842500Y-147229000D01*
G75*
G02*
X125143500Y-147530000I0J-301000D01*
G01*
X125143500Y-148830000D01*
G75*
G02*
X124842500Y-149131000I-301000J0D01*
G01*
X124017500Y-149131000D01*
G75*
G02*
X123716500Y-148830000I0J301000D01*
G01*
G37*
G36*
G01*
X126841500Y-148830000D02*
X126841500Y-147530000D01*
G75*
G02*
X127142500Y-147229000I301000J0D01*
G01*
X127967500Y-147229000D01*
G75*
G02*
X128268500Y-147530000I0J-301000D01*
G01*
X128268500Y-148830000D01*
G75*
G02*
X127967500Y-149131000I-301000J0D01*
G01*
X127142500Y-149131000D01*
G75*
G02*
X126841500Y-148830000I0J301000D01*
G01*
G37*
G36*
G01*
X123676500Y-146210000D02*
X123676500Y-144910000D01*
G75*
G02*
X123977500Y-144609000I301000J0D01*
G01*
X124802500Y-144609000D01*
G75*
G02*
X125103500Y-144910000I0J-301000D01*
G01*
X125103500Y-146210000D01*
G75*
G02*
X124802500Y-146511000I-301000J0D01*
G01*
X123977500Y-146511000D01*
G75*
G02*
X123676500Y-146210000I0J301000D01*
G01*
G37*
G36*
G01*
X126801500Y-146210000D02*
X126801500Y-144910000D01*
G75*
G02*
X127102500Y-144609000I301000J0D01*
G01*
X127927500Y-144609000D01*
G75*
G02*
X128228500Y-144910000I0J-301000D01*
G01*
X128228500Y-146210000D01*
G75*
G02*
X127927500Y-146511000I-301000J0D01*
G01*
X127102500Y-146511000D01*
G75*
G02*
X126801500Y-146210000I0J301000D01*
G01*
G37*
G36*
G01*
X168858500Y-144040000D02*
X168858500Y-145340000D01*
G75*
G02*
X168557500Y-145641000I-301000J0D01*
G01*
X167732500Y-145641000D01*
G75*
G02*
X167431500Y-145340000I0J301000D01*
G01*
X167431500Y-144040000D01*
G75*
G02*
X167732500Y-143739000I301000J0D01*
G01*
X168557500Y-143739000D01*
G75*
G02*
X168858500Y-144040000I0J-301000D01*
G01*
G37*
G36*
G01*
X165733500Y-144040000D02*
X165733500Y-145340000D01*
G75*
G02*
X165432500Y-145641000I-301000J0D01*
G01*
X164607500Y-145641000D01*
G75*
G02*
X164306500Y-145340000I0J301000D01*
G01*
X164306500Y-144040000D01*
G75*
G02*
X164607500Y-143739000I301000J0D01*
G01*
X165432500Y-143739000D01*
G75*
G02*
X165733500Y-144040000I0J-301000D01*
G01*
G37*
G36*
G01*
X173520000Y-144446500D02*
X174820000Y-144446500D01*
G75*
G02*
X175121000Y-144747500I0J-301000D01*
G01*
X175121000Y-145572500D01*
G75*
G02*
X174820000Y-145873500I-301000J0D01*
G01*
X173520000Y-145873500D01*
G75*
G02*
X173219000Y-145572500I0J301000D01*
G01*
X173219000Y-144747500D01*
G75*
G02*
X173520000Y-144446500I301000J0D01*
G01*
G37*
G36*
G01*
X173520000Y-147571500D02*
X174820000Y-147571500D01*
G75*
G02*
X175121000Y-147872500I0J-301000D01*
G01*
X175121000Y-148697500D01*
G75*
G02*
X174820000Y-148998500I-301000J0D01*
G01*
X173520000Y-148998500D01*
G75*
G02*
X173219000Y-148697500I0J301000D01*
G01*
X173219000Y-147872500D01*
G75*
G02*
X173520000Y-147571500I301000J0D01*
G01*
G37*
G36*
G01*
X125100000Y-141866000D02*
X124800000Y-141866000D01*
G75*
G02*
X124599000Y-141665000I0J201000D01*
G01*
X124599000Y-140490000D01*
G75*
G02*
X124800000Y-140289000I201000J0D01*
G01*
X125100000Y-140289000D01*
G75*
G02*
X125301000Y-140490000I0J-201000D01*
G01*
X125301000Y-141665000D01*
G75*
G02*
X125100000Y-141866000I-201000J0D01*
G01*
G37*
G36*
G01*
X127000000Y-141866000D02*
X126700000Y-141866000D01*
G75*
G02*
X126499000Y-141665000I0J201000D01*
G01*
X126499000Y-140490000D01*
G75*
G02*
X126700000Y-140289000I201000J0D01*
G01*
X127000000Y-140289000D01*
G75*
G02*
X127201000Y-140490000I0J-201000D01*
G01*
X127201000Y-141665000D01*
G75*
G02*
X127000000Y-141866000I-201000J0D01*
G01*
G37*
G36*
G01*
X126050000Y-139991000D02*
X125750000Y-139991000D01*
G75*
G02*
X125549000Y-139790000I0J201000D01*
G01*
X125549000Y-138615000D01*
G75*
G02*
X125750000Y-138414000I201000J0D01*
G01*
X126050000Y-138414000D01*
G75*
G02*
X126251000Y-138615000I0J-201000D01*
G01*
X126251000Y-139790000D01*
G75*
G02*
X126050000Y-139991000I-201000J0D01*
G01*
G37*
G36*
G01*
X154921000Y-148020000D02*
X154921000Y-149720000D01*
G75*
G02*
X154870000Y-149771000I-51000J0D01*
G01*
X153170000Y-149771000D01*
G75*
G02*
X153119000Y-149720000I0J51000D01*
G01*
X153119000Y-148020000D01*
G75*
G02*
X153170000Y-147969000I51000J0D01*
G01*
X154870000Y-147969000D01*
G75*
G02*
X154921000Y-148020000I0J-51000D01*
G01*
G37*
X154020000Y-146330000D03*
G36*
G01*
X157509000Y-147200000D02*
X157509000Y-145500000D01*
G75*
G02*
X157560000Y-145449000I51000J0D01*
G01*
X159260000Y-145449000D01*
G75*
G02*
X159311000Y-145500000I0J-51000D01*
G01*
X159311000Y-147200000D01*
G75*
G02*
X159260000Y-147251000I-51000J0D01*
G01*
X157560000Y-147251000D01*
G75*
G02*
X157509000Y-147200000I0J51000D01*
G01*
G37*
X158410000Y-148890000D03*
G36*
G01*
X185719000Y-129670000D02*
X185719000Y-127970000D01*
G75*
G02*
X185770000Y-127919000I51000J0D01*
G01*
X187470000Y-127919000D01*
G75*
G02*
X187521000Y-127970000I0J-51000D01*
G01*
X187521000Y-129670000D01*
G75*
G02*
X187470000Y-129721000I-51000J0D01*
G01*
X185770000Y-129721000D01*
G75*
G02*
X185719000Y-129670000I0J51000D01*
G01*
G37*
X186620000Y-133900000D03*
G36*
G01*
X187571000Y-152020000D02*
X187571000Y-153720000D01*
G75*
G02*
X187520000Y-153771000I-51000J0D01*
G01*
X185820000Y-153771000D01*
G75*
G02*
X185769000Y-153720000I0J51000D01*
G01*
X185769000Y-152020000D01*
G75*
G02*
X185820000Y-151969000I51000J0D01*
G01*
X187520000Y-151969000D01*
G75*
G02*
X187571000Y-152020000I0J-51000D01*
G01*
G37*
X186670000Y-147790000D03*
G36*
G01*
X137099000Y-151090000D02*
X137099000Y-149390000D01*
G75*
G02*
X137150000Y-149339000I51000J0D01*
G01*
X138850000Y-149339000D01*
G75*
G02*
X138901000Y-149390000I0J-51000D01*
G01*
X138901000Y-151090000D01*
G75*
G02*
X138850000Y-151141000I-51000J0D01*
G01*
X137150000Y-151141000D01*
G75*
G02*
X137099000Y-151090000I0J51000D01*
G01*
G37*
X140540000Y-150240000D03*
X138000000Y-152780000D03*
X140540000Y-152780000D03*
G36*
G01*
X145209000Y-151040000D02*
X145209000Y-149340000D01*
G75*
G02*
X145260000Y-149289000I51000J0D01*
G01*
X146960000Y-149289000D01*
G75*
G02*
X147011000Y-149340000I0J-51000D01*
G01*
X147011000Y-151040000D01*
G75*
G02*
X146960000Y-151091000I-51000J0D01*
G01*
X145260000Y-151091000D01*
G75*
G02*
X145209000Y-151040000I0J51000D01*
G01*
G37*
X148650000Y-150190000D03*
X146110000Y-152730000D03*
X148650000Y-152730000D03*
G36*
G01*
X130899000Y-128650000D02*
X130899000Y-126950000D01*
G75*
G02*
X130950000Y-126899000I51000J0D01*
G01*
X132650000Y-126899000D01*
G75*
G02*
X132701000Y-126950000I0J-51000D01*
G01*
X132701000Y-128650000D01*
G75*
G02*
X132650000Y-128701000I-51000J0D01*
G01*
X130950000Y-128701000D01*
G75*
G02*
X130899000Y-128650000I0J51000D01*
G01*
G37*
X134340000Y-127800000D03*
X131800000Y-130340000D03*
X134340000Y-130340000D03*
X131800000Y-132880000D03*
X134340000Y-132880000D03*
G36*
G01*
X138170000Y-146891000D02*
X136470000Y-146891000D01*
G75*
G02*
X136419000Y-146840000I0J51000D01*
G01*
X136419000Y-145140000D01*
G75*
G02*
X136470000Y-145089000I51000J0D01*
G01*
X138170000Y-145089000D01*
G75*
G02*
X138221000Y-145140000I0J-51000D01*
G01*
X138221000Y-146840000D01*
G75*
G02*
X138170000Y-146891000I-51000J0D01*
G01*
G37*
X139860000Y-145990000D03*
X142400000Y-145990000D03*
X144940000Y-145990000D03*
D11*
X121180000Y-138650000D03*
X121180000Y-144430000D03*
G36*
G01*
X121660000Y-137989000D02*
X122820000Y-137989000D01*
G75*
G02*
X122871000Y-138040000I0J-51000D01*
G01*
X122871000Y-138640000D01*
G75*
G02*
X122820000Y-138691000I-51000J0D01*
G01*
X121660000Y-138691000D01*
G75*
G02*
X121609000Y-138640000I0J51000D01*
G01*
X121609000Y-138040000D01*
G75*
G02*
X121660000Y-137989000I51000J0D01*
G01*
G37*
G36*
G01*
X121660000Y-138789000D02*
X122820000Y-138789000D01*
G75*
G02*
X122871000Y-138840000I0J-51000D01*
G01*
X122871000Y-139440000D01*
G75*
G02*
X122820000Y-139491000I-51000J0D01*
G01*
X121660000Y-139491000D01*
G75*
G02*
X121609000Y-139440000I0J51000D01*
G01*
X121609000Y-138840000D01*
G75*
G02*
X121660000Y-138789000I51000J0D01*
G01*
G37*
G36*
G01*
X122820000Y-140491000D02*
X121660000Y-140491000D01*
G75*
G02*
X121609000Y-140440000I0J51000D01*
G01*
X121609000Y-140140000D01*
G75*
G02*
X121660000Y-140089000I51000J0D01*
G01*
X122820000Y-140089000D01*
G75*
G02*
X122871000Y-140140000I0J-51000D01*
G01*
X122871000Y-140440000D01*
G75*
G02*
X122820000Y-140491000I-51000J0D01*
G01*
G37*
G36*
G01*
X122820000Y-141491000D02*
X121660000Y-141491000D01*
G75*
G02*
X121609000Y-141440000I0J51000D01*
G01*
X121609000Y-141140000D01*
G75*
G02*
X121660000Y-141089000I51000J0D01*
G01*
X122820000Y-141089000D01*
G75*
G02*
X122871000Y-141140000I0J-51000D01*
G01*
X122871000Y-141440000D01*
G75*
G02*
X122820000Y-141491000I-51000J0D01*
G01*
G37*
G36*
G01*
X122820000Y-141991000D02*
X121660000Y-141991000D01*
G75*
G02*
X121609000Y-141940000I0J51000D01*
G01*
X121609000Y-141640000D01*
G75*
G02*
X121660000Y-141589000I51000J0D01*
G01*
X122820000Y-141589000D01*
G75*
G02*
X122871000Y-141640000I0J-51000D01*
G01*
X122871000Y-141940000D01*
G75*
G02*
X122820000Y-141991000I-51000J0D01*
G01*
G37*
G36*
G01*
X122820000Y-142991000D02*
X121660000Y-142991000D01*
G75*
G02*
X121609000Y-142940000I0J51000D01*
G01*
X121609000Y-142640000D01*
G75*
G02*
X121660000Y-142589000I51000J0D01*
G01*
X122820000Y-142589000D01*
G75*
G02*
X122871000Y-142640000I0J-51000D01*
G01*
X122871000Y-142940000D01*
G75*
G02*
X122820000Y-142991000I-51000J0D01*
G01*
G37*
G36*
G01*
X121660000Y-143589000D02*
X122820000Y-143589000D01*
G75*
G02*
X122871000Y-143640000I0J-51000D01*
G01*
X122871000Y-144240000D01*
G75*
G02*
X122820000Y-144291000I-51000J0D01*
G01*
X121660000Y-144291000D01*
G75*
G02*
X121609000Y-144240000I0J51000D01*
G01*
X121609000Y-143640000D01*
G75*
G02*
X121660000Y-143589000I51000J0D01*
G01*
G37*
G36*
G01*
X121660000Y-144389000D02*
X122820000Y-144389000D01*
G75*
G02*
X122871000Y-144440000I0J-51000D01*
G01*
X122871000Y-145040000D01*
G75*
G02*
X122820000Y-145091000I-51000J0D01*
G01*
X121660000Y-145091000D01*
G75*
G02*
X121609000Y-145040000I0J51000D01*
G01*
X121609000Y-144440000D01*
G75*
G02*
X121660000Y-144389000I51000J0D01*
G01*
G37*
G36*
G01*
X121660000Y-144389000D02*
X122820000Y-144389000D01*
G75*
G02*
X122871000Y-144440000I0J-51000D01*
G01*
X122871000Y-145040000D01*
G75*
G02*
X122820000Y-145091000I-51000J0D01*
G01*
X121660000Y-145091000D01*
G75*
G02*
X121609000Y-145040000I0J51000D01*
G01*
X121609000Y-144440000D01*
G75*
G02*
X121660000Y-144389000I51000J0D01*
G01*
G37*
G36*
G01*
X121660000Y-143589000D02*
X122820000Y-143589000D01*
G75*
G02*
X122871000Y-143640000I0J-51000D01*
G01*
X122871000Y-144240000D01*
G75*
G02*
X122820000Y-144291000I-51000J0D01*
G01*
X121660000Y-144291000D01*
G75*
G02*
X121609000Y-144240000I0J51000D01*
G01*
X121609000Y-143640000D01*
G75*
G02*
X121660000Y-143589000I51000J0D01*
G01*
G37*
G36*
G01*
X122820000Y-143491000D02*
X121660000Y-143491000D01*
G75*
G02*
X121609000Y-143440000I0J51000D01*
G01*
X121609000Y-143140000D01*
G75*
G02*
X121660000Y-143089000I51000J0D01*
G01*
X122820000Y-143089000D01*
G75*
G02*
X122871000Y-143140000I0J-51000D01*
G01*
X122871000Y-143440000D01*
G75*
G02*
X122820000Y-143491000I-51000J0D01*
G01*
G37*
G36*
G01*
X122820000Y-142491000D02*
X121660000Y-142491000D01*
G75*
G02*
X121609000Y-142440000I0J51000D01*
G01*
X121609000Y-142140000D01*
G75*
G02*
X121660000Y-142089000I51000J0D01*
G01*
X122820000Y-142089000D01*
G75*
G02*
X122871000Y-142140000I0J-51000D01*
G01*
X122871000Y-142440000D01*
G75*
G02*
X122820000Y-142491000I-51000J0D01*
G01*
G37*
G36*
G01*
X122820000Y-140991000D02*
X121660000Y-140991000D01*
G75*
G02*
X121609000Y-140940000I0J51000D01*
G01*
X121609000Y-140640000D01*
G75*
G02*
X121660000Y-140589000I51000J0D01*
G01*
X122820000Y-140589000D01*
G75*
G02*
X122871000Y-140640000I0J-51000D01*
G01*
X122871000Y-140940000D01*
G75*
G02*
X122820000Y-140991000I-51000J0D01*
G01*
G37*
G36*
G01*
X122820000Y-139991000D02*
X121660000Y-139991000D01*
G75*
G02*
X121609000Y-139940000I0J51000D01*
G01*
X121609000Y-139640000D01*
G75*
G02*
X121660000Y-139589000I51000J0D01*
G01*
X122820000Y-139589000D01*
G75*
G02*
X122871000Y-139640000I0J-51000D01*
G01*
X122871000Y-139940000D01*
G75*
G02*
X122820000Y-139991000I-51000J0D01*
G01*
G37*
G36*
G01*
X121660000Y-138789000D02*
X122820000Y-138789000D01*
G75*
G02*
X122871000Y-138840000I0J-51000D01*
G01*
X122871000Y-139440000D01*
G75*
G02*
X122820000Y-139491000I-51000J0D01*
G01*
X121660000Y-139491000D01*
G75*
G02*
X121609000Y-139440000I0J51000D01*
G01*
X121609000Y-138840000D01*
G75*
G02*
X121660000Y-138789000I51000J0D01*
G01*
G37*
G36*
G01*
X121660000Y-137989000D02*
X122820000Y-137989000D01*
G75*
G02*
X122871000Y-138040000I0J-51000D01*
G01*
X122871000Y-138640000D01*
G75*
G02*
X122820000Y-138691000I-51000J0D01*
G01*
X121660000Y-138691000D01*
G75*
G02*
X121609000Y-138640000I0J51000D01*
G01*
X121609000Y-138040000D01*
G75*
G02*
X121660000Y-137989000I51000J0D01*
G01*
G37*
D12*
X117490000Y-145860000D03*
D13*
X121660000Y-145860000D03*
D12*
X117490000Y-137220000D03*
D13*
X121660000Y-137220000D03*
G36*
G01*
X167485000Y-138216500D02*
X168735000Y-138216500D01*
G75*
G02*
X169036000Y-138517500I0J-301000D01*
G01*
X169036000Y-139317500D01*
G75*
G02*
X168735000Y-139618500I-301000J0D01*
G01*
X167485000Y-139618500D01*
G75*
G02*
X167184000Y-139317500I0J301000D01*
G01*
X167184000Y-138517500D01*
G75*
G02*
X167485000Y-138216500I301000J0D01*
G01*
G37*
G36*
G01*
X167485000Y-141316500D02*
X168735000Y-141316500D01*
G75*
G02*
X169036000Y-141617500I0J-301000D01*
G01*
X169036000Y-142417500D01*
G75*
G02*
X168735000Y-142718500I-301000J0D01*
G01*
X167485000Y-142718500D01*
G75*
G02*
X167184000Y-142417500I0J301000D01*
G01*
X167184000Y-141617500D01*
G75*
G02*
X167485000Y-141316500I301000J0D01*
G01*
G37*
G36*
G01*
X180491000Y-141815000D02*
X180491000Y-143065000D01*
G75*
G02*
X180190000Y-143366000I-301000J0D01*
G01*
X179390000Y-143366000D01*
G75*
G02*
X179089000Y-143065000I0J301000D01*
G01*
X179089000Y-141815000D01*
G75*
G02*
X179390000Y-141514000I301000J0D01*
G01*
X180190000Y-141514000D01*
G75*
G02*
X180491000Y-141815000I0J-301000D01*
G01*
G37*
G36*
G01*
X177391000Y-141815000D02*
X177391000Y-143065000D01*
G75*
G02*
X177090000Y-143366000I-301000J0D01*
G01*
X176290000Y-143366000D01*
G75*
G02*
X175989000Y-143065000I0J301000D01*
G01*
X175989000Y-141815000D01*
G75*
G02*
X176290000Y-141514000I301000J0D01*
G01*
X177090000Y-141514000D01*
G75*
G02*
X177391000Y-141815000I0J-301000D01*
G01*
G37*
G36*
G01*
X165815000Y-142718500D02*
X164565000Y-142718500D01*
G75*
G02*
X164264000Y-142417500I0J301000D01*
G01*
X164264000Y-141617500D01*
G75*
G02*
X164565000Y-141316500I301000J0D01*
G01*
X165815000Y-141316500D01*
G75*
G02*
X166116000Y-141617500I0J-301000D01*
G01*
X166116000Y-142417500D01*
G75*
G02*
X165815000Y-142718500I-301000J0D01*
G01*
G37*
G36*
G01*
X165815000Y-139618500D02*
X164565000Y-139618500D01*
G75*
G02*
X164264000Y-139317500I0J301000D01*
G01*
X164264000Y-138517500D01*
G75*
G02*
X164565000Y-138216500I301000J0D01*
G01*
X165815000Y-138216500D01*
G75*
G02*
X166116000Y-138517500I0J-301000D01*
G01*
X166116000Y-139317500D01*
G75*
G02*
X165815000Y-139618500I-301000J0D01*
G01*
G37*
G36*
G01*
X176036500Y-145945000D02*
X176036500Y-144695000D01*
G75*
G02*
X176337500Y-144394000I301000J0D01*
G01*
X177137500Y-144394000D01*
G75*
G02*
X177438500Y-144695000I0J-301000D01*
G01*
X177438500Y-145945000D01*
G75*
G02*
X177137500Y-146246000I-301000J0D01*
G01*
X176337500Y-146246000D01*
G75*
G02*
X176036500Y-145945000I0J301000D01*
G01*
G37*
G36*
G01*
X179136500Y-145945000D02*
X179136500Y-144695000D01*
G75*
G02*
X179437500Y-144394000I301000J0D01*
G01*
X180237500Y-144394000D01*
G75*
G02*
X180538500Y-144695000I0J-301000D01*
G01*
X180538500Y-145945000D01*
G75*
G02*
X180237500Y-146246000I-301000J0D01*
G01*
X179437500Y-146246000D01*
G75*
G02*
X179136500Y-145945000I0J301000D01*
G01*
G37*
G36*
G01*
X168745000Y-137221000D02*
X167495000Y-137221000D01*
G75*
G02*
X167194000Y-136920000I0J301000D01*
G01*
X167194000Y-136120000D01*
G75*
G02*
X167495000Y-135819000I301000J0D01*
G01*
X168745000Y-135819000D01*
G75*
G02*
X169046000Y-136120000I0J-301000D01*
G01*
X169046000Y-136920000D01*
G75*
G02*
X168745000Y-137221000I-301000J0D01*
G01*
G37*
G36*
G01*
X168745000Y-134121000D02*
X167495000Y-134121000D01*
G75*
G02*
X167194000Y-133820000I0J301000D01*
G01*
X167194000Y-133020000D01*
G75*
G02*
X167495000Y-132719000I301000J0D01*
G01*
X168745000Y-132719000D01*
G75*
G02*
X169046000Y-133020000I0J-301000D01*
G01*
X169046000Y-133820000D01*
G75*
G02*
X168745000Y-134121000I-301000J0D01*
G01*
G37*
G36*
G01*
X180135000Y-139813500D02*
X178885000Y-139813500D01*
G75*
G02*
X178584000Y-139512500I0J301000D01*
G01*
X178584000Y-138712500D01*
G75*
G02*
X178885000Y-138411500I301000J0D01*
G01*
X180135000Y-138411500D01*
G75*
G02*
X180436000Y-138712500I0J-301000D01*
G01*
X180436000Y-139512500D01*
G75*
G02*
X180135000Y-139813500I-301000J0D01*
G01*
G37*
G36*
G01*
X180135000Y-136713500D02*
X178885000Y-136713500D01*
G75*
G02*
X178584000Y-136412500I0J301000D01*
G01*
X178584000Y-135612500D01*
G75*
G02*
X178885000Y-135311500I301000J0D01*
G01*
X180135000Y-135311500D01*
G75*
G02*
X180436000Y-135612500I0J-301000D01*
G01*
X180436000Y-136412500D01*
G75*
G02*
X180135000Y-136713500I-301000J0D01*
G01*
G37*
G36*
G01*
X164605000Y-132641500D02*
X165855000Y-132641500D01*
G75*
G02*
X166156000Y-132942500I0J-301000D01*
G01*
X166156000Y-133742500D01*
G75*
G02*
X165855000Y-134043500I-301000J0D01*
G01*
X164605000Y-134043500D01*
G75*
G02*
X164304000Y-133742500I0J301000D01*
G01*
X164304000Y-132942500D01*
G75*
G02*
X164605000Y-132641500I301000J0D01*
G01*
G37*
G36*
G01*
X164605000Y-135741500D02*
X165855000Y-135741500D01*
G75*
G02*
X166156000Y-136042500I0J-301000D01*
G01*
X166156000Y-136842500D01*
G75*
G02*
X165855000Y-137143500I-301000J0D01*
G01*
X164605000Y-137143500D01*
G75*
G02*
X164304000Y-136842500I0J301000D01*
G01*
X164304000Y-136042500D01*
G75*
G02*
X164605000Y-135741500I301000J0D01*
G01*
G37*
G36*
G01*
X181755000Y-135309000D02*
X183005000Y-135309000D01*
G75*
G02*
X183306000Y-135610000I0J-301000D01*
G01*
X183306000Y-136410000D01*
G75*
G02*
X183005000Y-136711000I-301000J0D01*
G01*
X181755000Y-136711000D01*
G75*
G02*
X181454000Y-136410000I0J301000D01*
G01*
X181454000Y-135610000D01*
G75*
G02*
X181755000Y-135309000I301000J0D01*
G01*
G37*
G36*
G01*
X181755000Y-138409000D02*
X183005000Y-138409000D01*
G75*
G02*
X183306000Y-138710000I0J-301000D01*
G01*
X183306000Y-139510000D01*
G75*
G02*
X183005000Y-139811000I-301000J0D01*
G01*
X181755000Y-139811000D01*
G75*
G02*
X181454000Y-139510000I0J301000D01*
G01*
X181454000Y-138710000D01*
G75*
G02*
X181755000Y-138409000I301000J0D01*
G01*
G37*
G36*
G01*
X147271500Y-147415000D02*
X147271500Y-146165000D01*
G75*
G02*
X147572500Y-145864000I301000J0D01*
G01*
X148372500Y-145864000D01*
G75*
G02*
X148673500Y-146165000I0J-301000D01*
G01*
X148673500Y-147415000D01*
G75*
G02*
X148372500Y-147716000I-301000J0D01*
G01*
X147572500Y-147716000D01*
G75*
G02*
X147271500Y-147415000I0J301000D01*
G01*
G37*
G36*
G01*
X150371500Y-147415000D02*
X150371500Y-146165000D01*
G75*
G02*
X150672500Y-145864000I301000J0D01*
G01*
X151472500Y-145864000D01*
G75*
G02*
X151773500Y-146165000I0J-301000D01*
G01*
X151773500Y-147415000D01*
G75*
G02*
X151472500Y-147716000I-301000J0D01*
G01*
X150672500Y-147716000D01*
G75*
G02*
X150371500Y-147415000I0J301000D01*
G01*
G37*
G36*
G01*
X161205000Y-145529000D02*
X162455000Y-145529000D01*
G75*
G02*
X162756000Y-145830000I0J-301000D01*
G01*
X162756000Y-146630000D01*
G75*
G02*
X162455000Y-146931000I-301000J0D01*
G01*
X161205000Y-146931000D01*
G75*
G02*
X160904000Y-146630000I0J301000D01*
G01*
X160904000Y-145830000D01*
G75*
G02*
X161205000Y-145529000I301000J0D01*
G01*
G37*
G36*
G01*
X161205000Y-148629000D02*
X162455000Y-148629000D01*
G75*
G02*
X162756000Y-148930000I0J-301000D01*
G01*
X162756000Y-149730000D01*
G75*
G02*
X162455000Y-150031000I-301000J0D01*
G01*
X161205000Y-150031000D01*
G75*
G02*
X160904000Y-149730000I0J301000D01*
G01*
X160904000Y-148930000D01*
G75*
G02*
X161205000Y-148629000I301000J0D01*
G01*
G37*
G36*
G01*
X168833500Y-146725000D02*
X168833500Y-147975000D01*
G75*
G02*
X168532500Y-148276000I-301000J0D01*
G01*
X167732500Y-148276000D01*
G75*
G02*
X167431500Y-147975000I0J301000D01*
G01*
X167431500Y-146725000D01*
G75*
G02*
X167732500Y-146424000I301000J0D01*
G01*
X168532500Y-146424000D01*
G75*
G02*
X168833500Y-146725000I0J-301000D01*
G01*
G37*
G36*
G01*
X165733500Y-146725000D02*
X165733500Y-147975000D01*
G75*
G02*
X165432500Y-148276000I-301000J0D01*
G01*
X164632500Y-148276000D01*
G75*
G02*
X164331500Y-147975000I0J301000D01*
G01*
X164331500Y-146725000D01*
G75*
G02*
X164632500Y-146424000I301000J0D01*
G01*
X165432500Y-146424000D01*
G75*
G02*
X165733500Y-146725000I0J-301000D01*
G01*
G37*
G36*
G01*
X170685000Y-144336500D02*
X171935000Y-144336500D01*
G75*
G02*
X172236000Y-144637500I0J-301000D01*
G01*
X172236000Y-145437500D01*
G75*
G02*
X171935000Y-145738500I-301000J0D01*
G01*
X170685000Y-145738500D01*
G75*
G02*
X170384000Y-145437500I0J301000D01*
G01*
X170384000Y-144637500D01*
G75*
G02*
X170685000Y-144336500I301000J0D01*
G01*
G37*
G36*
G01*
X170685000Y-147436500D02*
X171935000Y-147436500D01*
G75*
G02*
X172236000Y-147737500I0J-301000D01*
G01*
X172236000Y-148537500D01*
G75*
G02*
X171935000Y-148838500I-301000J0D01*
G01*
X170685000Y-148838500D01*
G75*
G02*
X170384000Y-148537500I0J301000D01*
G01*
X170384000Y-147737500D01*
G75*
G02*
X170685000Y-147436500I301000J0D01*
G01*
G37*
D14*
X171210000Y-128600000D03*
X168670000Y-128600000D03*
X166130000Y-128600000D03*
G36*
G01*
X122814000Y-150610000D02*
X122814000Y-150310000D01*
G75*
G02*
X123015000Y-150109000I201000J0D01*
G01*
X124665000Y-150109000D01*
G75*
G02*
X124866000Y-150310000I0J-201000D01*
G01*
X124866000Y-150610000D01*
G75*
G02*
X124665000Y-150811000I-201000J0D01*
G01*
X123015000Y-150811000D01*
G75*
G02*
X122814000Y-150610000I0J201000D01*
G01*
G37*
G36*
G01*
X122814000Y-151880000D02*
X122814000Y-151580000D01*
G75*
G02*
X123015000Y-151379000I201000J0D01*
G01*
X124665000Y-151379000D01*
G75*
G02*
X124866000Y-151580000I0J-201000D01*
G01*
X124866000Y-151880000D01*
G75*
G02*
X124665000Y-152081000I-201000J0D01*
G01*
X123015000Y-152081000D01*
G75*
G02*
X122814000Y-151880000I0J201000D01*
G01*
G37*
G36*
G01*
X122814000Y-153150000D02*
X122814000Y-152850000D01*
G75*
G02*
X123015000Y-152649000I201000J0D01*
G01*
X124665000Y-152649000D01*
G75*
G02*
X124866000Y-152850000I0J-201000D01*
G01*
X124866000Y-153150000D01*
G75*
G02*
X124665000Y-153351000I-201000J0D01*
G01*
X123015000Y-153351000D01*
G75*
G02*
X122814000Y-153150000I0J201000D01*
G01*
G37*
G36*
G01*
X122814000Y-154420000D02*
X122814000Y-154120000D01*
G75*
G02*
X123015000Y-153919000I201000J0D01*
G01*
X124665000Y-153919000D01*
G75*
G02*
X124866000Y-154120000I0J-201000D01*
G01*
X124866000Y-154420000D01*
G75*
G02*
X124665000Y-154621000I-201000J0D01*
G01*
X123015000Y-154621000D01*
G75*
G02*
X122814000Y-154420000I0J201000D01*
G01*
G37*
G36*
G01*
X127764000Y-154420000D02*
X127764000Y-154120000D01*
G75*
G02*
X127965000Y-153919000I201000J0D01*
G01*
X129615000Y-153919000D01*
G75*
G02*
X129816000Y-154120000I0J-201000D01*
G01*
X129816000Y-154420000D01*
G75*
G02*
X129615000Y-154621000I-201000J0D01*
G01*
X127965000Y-154621000D01*
G75*
G02*
X127764000Y-154420000I0J201000D01*
G01*
G37*
G36*
G01*
X127764000Y-153150000D02*
X127764000Y-152850000D01*
G75*
G02*
X127965000Y-152649000I201000J0D01*
G01*
X129615000Y-152649000D01*
G75*
G02*
X129816000Y-152850000I0J-201000D01*
G01*
X129816000Y-153150000D01*
G75*
G02*
X129615000Y-153351000I-201000J0D01*
G01*
X127965000Y-153351000D01*
G75*
G02*
X127764000Y-153150000I0J201000D01*
G01*
G37*
G36*
G01*
X127764000Y-151880000D02*
X127764000Y-151580000D01*
G75*
G02*
X127965000Y-151379000I201000J0D01*
G01*
X129615000Y-151379000D01*
G75*
G02*
X129816000Y-151580000I0J-201000D01*
G01*
X129816000Y-151880000D01*
G75*
G02*
X129615000Y-152081000I-201000J0D01*
G01*
X127965000Y-152081000D01*
G75*
G02*
X127764000Y-151880000I0J201000D01*
G01*
G37*
G36*
G01*
X127764000Y-150610000D02*
X127764000Y-150310000D01*
G75*
G02*
X127965000Y-150109000I201000J0D01*
G01*
X129615000Y-150109000D01*
G75*
G02*
X129816000Y-150310000I0J-201000D01*
G01*
X129816000Y-150610000D01*
G75*
G02*
X129615000Y-150811000I-201000J0D01*
G01*
X127965000Y-150811000D01*
G75*
G02*
X127764000Y-150610000I0J201000D01*
G01*
G37*
G36*
G01*
X170439000Y-136595000D02*
X170439000Y-136295000D01*
G75*
G02*
X170640000Y-136094000I201000J0D01*
G01*
X172290000Y-136094000D01*
G75*
G02*
X172491000Y-136295000I0J-201000D01*
G01*
X172491000Y-136595000D01*
G75*
G02*
X172290000Y-136796000I-201000J0D01*
G01*
X170640000Y-136796000D01*
G75*
G02*
X170439000Y-136595000I0J201000D01*
G01*
G37*
G36*
G01*
X170439000Y-137865000D02*
X170439000Y-137565000D01*
G75*
G02*
X170640000Y-137364000I201000J0D01*
G01*
X172290000Y-137364000D01*
G75*
G02*
X172491000Y-137565000I0J-201000D01*
G01*
X172491000Y-137865000D01*
G75*
G02*
X172290000Y-138066000I-201000J0D01*
G01*
X170640000Y-138066000D01*
G75*
G02*
X170439000Y-137865000I0J201000D01*
G01*
G37*
G36*
G01*
X170439000Y-139135000D02*
X170439000Y-138835000D01*
G75*
G02*
X170640000Y-138634000I201000J0D01*
G01*
X172290000Y-138634000D01*
G75*
G02*
X172491000Y-138835000I0J-201000D01*
G01*
X172491000Y-139135000D01*
G75*
G02*
X172290000Y-139336000I-201000J0D01*
G01*
X170640000Y-139336000D01*
G75*
G02*
X170439000Y-139135000I0J201000D01*
G01*
G37*
G36*
G01*
X170439000Y-140405000D02*
X170439000Y-140105000D01*
G75*
G02*
X170640000Y-139904000I201000J0D01*
G01*
X172290000Y-139904000D01*
G75*
G02*
X172491000Y-140105000I0J-201000D01*
G01*
X172491000Y-140405000D01*
G75*
G02*
X172290000Y-140606000I-201000J0D01*
G01*
X170640000Y-140606000D01*
G75*
G02*
X170439000Y-140405000I0J201000D01*
G01*
G37*
G36*
G01*
X175389000Y-140405000D02*
X175389000Y-140105000D01*
G75*
G02*
X175590000Y-139904000I201000J0D01*
G01*
X177240000Y-139904000D01*
G75*
G02*
X177441000Y-140105000I0J-201000D01*
G01*
X177441000Y-140405000D01*
G75*
G02*
X177240000Y-140606000I-201000J0D01*
G01*
X175590000Y-140606000D01*
G75*
G02*
X175389000Y-140405000I0J201000D01*
G01*
G37*
G36*
G01*
X175389000Y-139135000D02*
X175389000Y-138835000D01*
G75*
G02*
X175590000Y-138634000I201000J0D01*
G01*
X177240000Y-138634000D01*
G75*
G02*
X177441000Y-138835000I0J-201000D01*
G01*
X177441000Y-139135000D01*
G75*
G02*
X177240000Y-139336000I-201000J0D01*
G01*
X175590000Y-139336000D01*
G75*
G02*
X175389000Y-139135000I0J201000D01*
G01*
G37*
G36*
G01*
X175389000Y-137865000D02*
X175389000Y-137565000D01*
G75*
G02*
X175590000Y-137364000I201000J0D01*
G01*
X177240000Y-137364000D01*
G75*
G02*
X177441000Y-137565000I0J-201000D01*
G01*
X177441000Y-137865000D01*
G75*
G02*
X177240000Y-138066000I-201000J0D01*
G01*
X175590000Y-138066000D01*
G75*
G02*
X175389000Y-137865000I0J201000D01*
G01*
G37*
G36*
G01*
X175389000Y-136595000D02*
X175389000Y-136295000D01*
G75*
G02*
X175590000Y-136094000I201000J0D01*
G01*
X177240000Y-136094000D01*
G75*
G02*
X177441000Y-136295000I0J-201000D01*
G01*
X177441000Y-136595000D01*
G75*
G02*
X177240000Y-136796000I-201000J0D01*
G01*
X175590000Y-136796000D01*
G75*
G02*
X175389000Y-136595000I0J201000D01*
G01*
G37*
G36*
G01*
X121009000Y-129490000D02*
X121009000Y-127990000D01*
G75*
G02*
X121060000Y-127939000I51000J0D01*
G01*
X123060000Y-127939000D01*
G75*
G02*
X123111000Y-127990000I0J-51000D01*
G01*
X123111000Y-129490000D01*
G75*
G02*
X123060000Y-129541000I-51000J0D01*
G01*
X121060000Y-129541000D01*
G75*
G02*
X121009000Y-129490000I0J51000D01*
G01*
G37*
G36*
G01*
X127309000Y-132940000D02*
X127309000Y-129140000D01*
G75*
G02*
X127360000Y-129089000I51000J0D01*
G01*
X129360000Y-129089000D01*
G75*
G02*
X129411000Y-129140000I0J-51000D01*
G01*
X129411000Y-132940000D01*
G75*
G02*
X129360000Y-132991000I-51000J0D01*
G01*
X127360000Y-132991000D01*
G75*
G02*
X127309000Y-132940000I0J51000D01*
G01*
G37*
G36*
G01*
X121009000Y-131790000D02*
X121009000Y-130290000D01*
G75*
G02*
X121060000Y-130239000I51000J0D01*
G01*
X123060000Y-130239000D01*
G75*
G02*
X123111000Y-130290000I0J-51000D01*
G01*
X123111000Y-131790000D01*
G75*
G02*
X123060000Y-131841000I-51000J0D01*
G01*
X121060000Y-131841000D01*
G75*
G02*
X121009000Y-131790000I0J51000D01*
G01*
G37*
G36*
G01*
X121009000Y-134090000D02*
X121009000Y-132590000D01*
G75*
G02*
X121060000Y-132539000I51000J0D01*
G01*
X123060000Y-132539000D01*
G75*
G02*
X123111000Y-132590000I0J-51000D01*
G01*
X123111000Y-134090000D01*
G75*
G02*
X123060000Y-134141000I-51000J0D01*
G01*
X121060000Y-134141000D01*
G75*
G02*
X121009000Y-134090000I0J51000D01*
G01*
G37*
G36*
G01*
X149481000Y-138495000D02*
X149481000Y-138645000D01*
G75*
G02*
X149355000Y-138771000I-126000J0D01*
G01*
X147955000Y-138771000D01*
G75*
G02*
X147829000Y-138645000I0J126000D01*
G01*
X147829000Y-138495000D01*
G75*
G02*
X147955000Y-138369000I126000J0D01*
G01*
X149355000Y-138369000D01*
G75*
G02*
X149481000Y-138495000I0J-126000D01*
G01*
G37*
G36*
G01*
X149481000Y-137995000D02*
X149481000Y-138145000D01*
G75*
G02*
X149355000Y-138271000I-126000J0D01*
G01*
X147955000Y-138271000D01*
G75*
G02*
X147829000Y-138145000I0J126000D01*
G01*
X147829000Y-137995000D01*
G75*
G02*
X147955000Y-137869000I126000J0D01*
G01*
X149355000Y-137869000D01*
G75*
G02*
X149481000Y-137995000I0J-126000D01*
G01*
G37*
G36*
G01*
X149481000Y-137495000D02*
X149481000Y-137645000D01*
G75*
G02*
X149355000Y-137771000I-126000J0D01*
G01*
X147955000Y-137771000D01*
G75*
G02*
X147829000Y-137645000I0J126000D01*
G01*
X147829000Y-137495000D01*
G75*
G02*
X147955000Y-137369000I126000J0D01*
G01*
X149355000Y-137369000D01*
G75*
G02*
X149481000Y-137495000I0J-126000D01*
G01*
G37*
G36*
G01*
X149481000Y-136995000D02*
X149481000Y-137145000D01*
G75*
G02*
X149355000Y-137271000I-126000J0D01*
G01*
X147955000Y-137271000D01*
G75*
G02*
X147829000Y-137145000I0J126000D01*
G01*
X147829000Y-136995000D01*
G75*
G02*
X147955000Y-136869000I126000J0D01*
G01*
X149355000Y-136869000D01*
G75*
G02*
X149481000Y-136995000I0J-126000D01*
G01*
G37*
G36*
G01*
X149481000Y-136495000D02*
X149481000Y-136645000D01*
G75*
G02*
X149355000Y-136771000I-126000J0D01*
G01*
X147955000Y-136771000D01*
G75*
G02*
X147829000Y-136645000I0J126000D01*
G01*
X147829000Y-136495000D01*
G75*
G02*
X147955000Y-136369000I126000J0D01*
G01*
X149355000Y-136369000D01*
G75*
G02*
X149481000Y-136495000I0J-126000D01*
G01*
G37*
G36*
G01*
X149481000Y-135995000D02*
X149481000Y-136145000D01*
G75*
G02*
X149355000Y-136271000I-126000J0D01*
G01*
X147955000Y-136271000D01*
G75*
G02*
X147829000Y-136145000I0J126000D01*
G01*
X147829000Y-135995000D01*
G75*
G02*
X147955000Y-135869000I126000J0D01*
G01*
X149355000Y-135869000D01*
G75*
G02*
X149481000Y-135995000I0J-126000D01*
G01*
G37*
G36*
G01*
X149481000Y-135495000D02*
X149481000Y-135645000D01*
G75*
G02*
X149355000Y-135771000I-126000J0D01*
G01*
X147955000Y-135771000D01*
G75*
G02*
X147829000Y-135645000I0J126000D01*
G01*
X147829000Y-135495000D01*
G75*
G02*
X147955000Y-135369000I126000J0D01*
G01*
X149355000Y-135369000D01*
G75*
G02*
X149481000Y-135495000I0J-126000D01*
G01*
G37*
G36*
G01*
X149481000Y-134995000D02*
X149481000Y-135145000D01*
G75*
G02*
X149355000Y-135271000I-126000J0D01*
G01*
X147955000Y-135271000D01*
G75*
G02*
X147829000Y-135145000I0J126000D01*
G01*
X147829000Y-134995000D01*
G75*
G02*
X147955000Y-134869000I126000J0D01*
G01*
X149355000Y-134869000D01*
G75*
G02*
X149481000Y-134995000I0J-126000D01*
G01*
G37*
G36*
G01*
X149481000Y-134495000D02*
X149481000Y-134645000D01*
G75*
G02*
X149355000Y-134771000I-126000J0D01*
G01*
X147955000Y-134771000D01*
G75*
G02*
X147829000Y-134645000I0J126000D01*
G01*
X147829000Y-134495000D01*
G75*
G02*
X147955000Y-134369000I126000J0D01*
G01*
X149355000Y-134369000D01*
G75*
G02*
X149481000Y-134495000I0J-126000D01*
G01*
G37*
G36*
G01*
X149481000Y-133995000D02*
X149481000Y-134145000D01*
G75*
G02*
X149355000Y-134271000I-126000J0D01*
G01*
X147955000Y-134271000D01*
G75*
G02*
X147829000Y-134145000I0J126000D01*
G01*
X147829000Y-133995000D01*
G75*
G02*
X147955000Y-133869000I126000J0D01*
G01*
X149355000Y-133869000D01*
G75*
G02*
X149481000Y-133995000I0J-126000D01*
G01*
G37*
G36*
G01*
X149481000Y-133495000D02*
X149481000Y-133645000D01*
G75*
G02*
X149355000Y-133771000I-126000J0D01*
G01*
X147955000Y-133771000D01*
G75*
G02*
X147829000Y-133645000I0J126000D01*
G01*
X147829000Y-133495000D01*
G75*
G02*
X147955000Y-133369000I126000J0D01*
G01*
X149355000Y-133369000D01*
G75*
G02*
X149481000Y-133495000I0J-126000D01*
G01*
G37*
G36*
G01*
X149481000Y-132995000D02*
X149481000Y-133145000D01*
G75*
G02*
X149355000Y-133271000I-126000J0D01*
G01*
X147955000Y-133271000D01*
G75*
G02*
X147829000Y-133145000I0J126000D01*
G01*
X147829000Y-132995000D01*
G75*
G02*
X147955000Y-132869000I126000J0D01*
G01*
X149355000Y-132869000D01*
G75*
G02*
X149481000Y-132995000I0J-126000D01*
G01*
G37*
G36*
G01*
X149481000Y-132495000D02*
X149481000Y-132645000D01*
G75*
G02*
X149355000Y-132771000I-126000J0D01*
G01*
X147955000Y-132771000D01*
G75*
G02*
X147829000Y-132645000I0J126000D01*
G01*
X147829000Y-132495000D01*
G75*
G02*
X147955000Y-132369000I126000J0D01*
G01*
X149355000Y-132369000D01*
G75*
G02*
X149481000Y-132495000I0J-126000D01*
G01*
G37*
G36*
G01*
X149481000Y-131995000D02*
X149481000Y-132145000D01*
G75*
G02*
X149355000Y-132271000I-126000J0D01*
G01*
X147955000Y-132271000D01*
G75*
G02*
X147829000Y-132145000I0J126000D01*
G01*
X147829000Y-131995000D01*
G75*
G02*
X147955000Y-131869000I126000J0D01*
G01*
X149355000Y-131869000D01*
G75*
G02*
X149481000Y-131995000I0J-126000D01*
G01*
G37*
G36*
G01*
X149481000Y-131495000D02*
X149481000Y-131645000D01*
G75*
G02*
X149355000Y-131771000I-126000J0D01*
G01*
X147955000Y-131771000D01*
G75*
G02*
X147829000Y-131645000I0J126000D01*
G01*
X147829000Y-131495000D01*
G75*
G02*
X147955000Y-131369000I126000J0D01*
G01*
X149355000Y-131369000D01*
G75*
G02*
X149481000Y-131495000I0J-126000D01*
G01*
G37*
G36*
G01*
X149481000Y-130995000D02*
X149481000Y-131145000D01*
G75*
G02*
X149355000Y-131271000I-126000J0D01*
G01*
X147955000Y-131271000D01*
G75*
G02*
X147829000Y-131145000I0J126000D01*
G01*
X147829000Y-130995000D01*
G75*
G02*
X147955000Y-130869000I126000J0D01*
G01*
X149355000Y-130869000D01*
G75*
G02*
X149481000Y-130995000I0J-126000D01*
G01*
G37*
G36*
G01*
X146931000Y-128445000D02*
X146931000Y-129845000D01*
G75*
G02*
X146805000Y-129971000I-126000J0D01*
G01*
X146655000Y-129971000D01*
G75*
G02*
X146529000Y-129845000I0J126000D01*
G01*
X146529000Y-128445000D01*
G75*
G02*
X146655000Y-128319000I126000J0D01*
G01*
X146805000Y-128319000D01*
G75*
G02*
X146931000Y-128445000I0J-126000D01*
G01*
G37*
G36*
G01*
X146431000Y-128445000D02*
X146431000Y-129845000D01*
G75*
G02*
X146305000Y-129971000I-126000J0D01*
G01*
X146155000Y-129971000D01*
G75*
G02*
X146029000Y-129845000I0J126000D01*
G01*
X146029000Y-128445000D01*
G75*
G02*
X146155000Y-128319000I126000J0D01*
G01*
X146305000Y-128319000D01*
G75*
G02*
X146431000Y-128445000I0J-126000D01*
G01*
G37*
G36*
G01*
X145931000Y-128445000D02*
X145931000Y-129845000D01*
G75*
G02*
X145805000Y-129971000I-126000J0D01*
G01*
X145655000Y-129971000D01*
G75*
G02*
X145529000Y-129845000I0J126000D01*
G01*
X145529000Y-128445000D01*
G75*
G02*
X145655000Y-128319000I126000J0D01*
G01*
X145805000Y-128319000D01*
G75*
G02*
X145931000Y-128445000I0J-126000D01*
G01*
G37*
G36*
G01*
X145431000Y-128445000D02*
X145431000Y-129845000D01*
G75*
G02*
X145305000Y-129971000I-126000J0D01*
G01*
X145155000Y-129971000D01*
G75*
G02*
X145029000Y-129845000I0J126000D01*
G01*
X145029000Y-128445000D01*
G75*
G02*
X145155000Y-128319000I126000J0D01*
G01*
X145305000Y-128319000D01*
G75*
G02*
X145431000Y-128445000I0J-126000D01*
G01*
G37*
G36*
G01*
X144931000Y-128445000D02*
X144931000Y-129845000D01*
G75*
G02*
X144805000Y-129971000I-126000J0D01*
G01*
X144655000Y-129971000D01*
G75*
G02*
X144529000Y-129845000I0J126000D01*
G01*
X144529000Y-128445000D01*
G75*
G02*
X144655000Y-128319000I126000J0D01*
G01*
X144805000Y-128319000D01*
G75*
G02*
X144931000Y-128445000I0J-126000D01*
G01*
G37*
G36*
G01*
X144431000Y-128445000D02*
X144431000Y-129845000D01*
G75*
G02*
X144305000Y-129971000I-126000J0D01*
G01*
X144155000Y-129971000D01*
G75*
G02*
X144029000Y-129845000I0J126000D01*
G01*
X144029000Y-128445000D01*
G75*
G02*
X144155000Y-128319000I126000J0D01*
G01*
X144305000Y-128319000D01*
G75*
G02*
X144431000Y-128445000I0J-126000D01*
G01*
G37*
G36*
G01*
X143931000Y-128445000D02*
X143931000Y-129845000D01*
G75*
G02*
X143805000Y-129971000I-126000J0D01*
G01*
X143655000Y-129971000D01*
G75*
G02*
X143529000Y-129845000I0J126000D01*
G01*
X143529000Y-128445000D01*
G75*
G02*
X143655000Y-128319000I126000J0D01*
G01*
X143805000Y-128319000D01*
G75*
G02*
X143931000Y-128445000I0J-126000D01*
G01*
G37*
G36*
G01*
X143431000Y-128445000D02*
X143431000Y-129845000D01*
G75*
G02*
X143305000Y-129971000I-126000J0D01*
G01*
X143155000Y-129971000D01*
G75*
G02*
X143029000Y-129845000I0J126000D01*
G01*
X143029000Y-128445000D01*
G75*
G02*
X143155000Y-128319000I126000J0D01*
G01*
X143305000Y-128319000D01*
G75*
G02*
X143431000Y-128445000I0J-126000D01*
G01*
G37*
G36*
G01*
X142931000Y-128445000D02*
X142931000Y-129845000D01*
G75*
G02*
X142805000Y-129971000I-126000J0D01*
G01*
X142655000Y-129971000D01*
G75*
G02*
X142529000Y-129845000I0J126000D01*
G01*
X142529000Y-128445000D01*
G75*
G02*
X142655000Y-128319000I126000J0D01*
G01*
X142805000Y-128319000D01*
G75*
G02*
X142931000Y-128445000I0J-126000D01*
G01*
G37*
G36*
G01*
X142431000Y-128445000D02*
X142431000Y-129845000D01*
G75*
G02*
X142305000Y-129971000I-126000J0D01*
G01*
X142155000Y-129971000D01*
G75*
G02*
X142029000Y-129845000I0J126000D01*
G01*
X142029000Y-128445000D01*
G75*
G02*
X142155000Y-128319000I126000J0D01*
G01*
X142305000Y-128319000D01*
G75*
G02*
X142431000Y-128445000I0J-126000D01*
G01*
G37*
G36*
G01*
X141931000Y-128445000D02*
X141931000Y-129845000D01*
G75*
G02*
X141805000Y-129971000I-126000J0D01*
G01*
X141655000Y-129971000D01*
G75*
G02*
X141529000Y-129845000I0J126000D01*
G01*
X141529000Y-128445000D01*
G75*
G02*
X141655000Y-128319000I126000J0D01*
G01*
X141805000Y-128319000D01*
G75*
G02*
X141931000Y-128445000I0J-126000D01*
G01*
G37*
G36*
G01*
X141431000Y-128445000D02*
X141431000Y-129845000D01*
G75*
G02*
X141305000Y-129971000I-126000J0D01*
G01*
X141155000Y-129971000D01*
G75*
G02*
X141029000Y-129845000I0J126000D01*
G01*
X141029000Y-128445000D01*
G75*
G02*
X141155000Y-128319000I126000J0D01*
G01*
X141305000Y-128319000D01*
G75*
G02*
X141431000Y-128445000I0J-126000D01*
G01*
G37*
G36*
G01*
X140931000Y-128445000D02*
X140931000Y-129845000D01*
G75*
G02*
X140805000Y-129971000I-126000J0D01*
G01*
X140655000Y-129971000D01*
G75*
G02*
X140529000Y-129845000I0J126000D01*
G01*
X140529000Y-128445000D01*
G75*
G02*
X140655000Y-128319000I126000J0D01*
G01*
X140805000Y-128319000D01*
G75*
G02*
X140931000Y-128445000I0J-126000D01*
G01*
G37*
G36*
G01*
X140431000Y-128445000D02*
X140431000Y-129845000D01*
G75*
G02*
X140305000Y-129971000I-126000J0D01*
G01*
X140155000Y-129971000D01*
G75*
G02*
X140029000Y-129845000I0J126000D01*
G01*
X140029000Y-128445000D01*
G75*
G02*
X140155000Y-128319000I126000J0D01*
G01*
X140305000Y-128319000D01*
G75*
G02*
X140431000Y-128445000I0J-126000D01*
G01*
G37*
G36*
G01*
X139931000Y-128445000D02*
X139931000Y-129845000D01*
G75*
G02*
X139805000Y-129971000I-126000J0D01*
G01*
X139655000Y-129971000D01*
G75*
G02*
X139529000Y-129845000I0J126000D01*
G01*
X139529000Y-128445000D01*
G75*
G02*
X139655000Y-128319000I126000J0D01*
G01*
X139805000Y-128319000D01*
G75*
G02*
X139931000Y-128445000I0J-126000D01*
G01*
G37*
G36*
G01*
X139431000Y-128445000D02*
X139431000Y-129845000D01*
G75*
G02*
X139305000Y-129971000I-126000J0D01*
G01*
X139155000Y-129971000D01*
G75*
G02*
X139029000Y-129845000I0J126000D01*
G01*
X139029000Y-128445000D01*
G75*
G02*
X139155000Y-128319000I126000J0D01*
G01*
X139305000Y-128319000D01*
G75*
G02*
X139431000Y-128445000I0J-126000D01*
G01*
G37*
G36*
G01*
X138131000Y-130995000D02*
X138131000Y-131145000D01*
G75*
G02*
X138005000Y-131271000I-126000J0D01*
G01*
X136605000Y-131271000D01*
G75*
G02*
X136479000Y-131145000I0J126000D01*
G01*
X136479000Y-130995000D01*
G75*
G02*
X136605000Y-130869000I126000J0D01*
G01*
X138005000Y-130869000D01*
G75*
G02*
X138131000Y-130995000I0J-126000D01*
G01*
G37*
G36*
G01*
X138131000Y-131495000D02*
X138131000Y-131645000D01*
G75*
G02*
X138005000Y-131771000I-126000J0D01*
G01*
X136605000Y-131771000D01*
G75*
G02*
X136479000Y-131645000I0J126000D01*
G01*
X136479000Y-131495000D01*
G75*
G02*
X136605000Y-131369000I126000J0D01*
G01*
X138005000Y-131369000D01*
G75*
G02*
X138131000Y-131495000I0J-126000D01*
G01*
G37*
G36*
G01*
X138131000Y-131995000D02*
X138131000Y-132145000D01*
G75*
G02*
X138005000Y-132271000I-126000J0D01*
G01*
X136605000Y-132271000D01*
G75*
G02*
X136479000Y-132145000I0J126000D01*
G01*
X136479000Y-131995000D01*
G75*
G02*
X136605000Y-131869000I126000J0D01*
G01*
X138005000Y-131869000D01*
G75*
G02*
X138131000Y-131995000I0J-126000D01*
G01*
G37*
G36*
G01*
X138131000Y-132495000D02*
X138131000Y-132645000D01*
G75*
G02*
X138005000Y-132771000I-126000J0D01*
G01*
X136605000Y-132771000D01*
G75*
G02*
X136479000Y-132645000I0J126000D01*
G01*
X136479000Y-132495000D01*
G75*
G02*
X136605000Y-132369000I126000J0D01*
G01*
X138005000Y-132369000D01*
G75*
G02*
X138131000Y-132495000I0J-126000D01*
G01*
G37*
G36*
G01*
X138131000Y-132995000D02*
X138131000Y-133145000D01*
G75*
G02*
X138005000Y-133271000I-126000J0D01*
G01*
X136605000Y-133271000D01*
G75*
G02*
X136479000Y-133145000I0J126000D01*
G01*
X136479000Y-132995000D01*
G75*
G02*
X136605000Y-132869000I126000J0D01*
G01*
X138005000Y-132869000D01*
G75*
G02*
X138131000Y-132995000I0J-126000D01*
G01*
G37*
G36*
G01*
X138131000Y-133495000D02*
X138131000Y-133645000D01*
G75*
G02*
X138005000Y-133771000I-126000J0D01*
G01*
X136605000Y-133771000D01*
G75*
G02*
X136479000Y-133645000I0J126000D01*
G01*
X136479000Y-133495000D01*
G75*
G02*
X136605000Y-133369000I126000J0D01*
G01*
X138005000Y-133369000D01*
G75*
G02*
X138131000Y-133495000I0J-126000D01*
G01*
G37*
G36*
G01*
X138131000Y-133995000D02*
X138131000Y-134145000D01*
G75*
G02*
X138005000Y-134271000I-126000J0D01*
G01*
X136605000Y-134271000D01*
G75*
G02*
X136479000Y-134145000I0J126000D01*
G01*
X136479000Y-133995000D01*
G75*
G02*
X136605000Y-133869000I126000J0D01*
G01*
X138005000Y-133869000D01*
G75*
G02*
X138131000Y-133995000I0J-126000D01*
G01*
G37*
G36*
G01*
X138131000Y-134495000D02*
X138131000Y-134645000D01*
G75*
G02*
X138005000Y-134771000I-126000J0D01*
G01*
X136605000Y-134771000D01*
G75*
G02*
X136479000Y-134645000I0J126000D01*
G01*
X136479000Y-134495000D01*
G75*
G02*
X136605000Y-134369000I126000J0D01*
G01*
X138005000Y-134369000D01*
G75*
G02*
X138131000Y-134495000I0J-126000D01*
G01*
G37*
G36*
G01*
X138131000Y-134995000D02*
X138131000Y-135145000D01*
G75*
G02*
X138005000Y-135271000I-126000J0D01*
G01*
X136605000Y-135271000D01*
G75*
G02*
X136479000Y-135145000I0J126000D01*
G01*
X136479000Y-134995000D01*
G75*
G02*
X136605000Y-134869000I126000J0D01*
G01*
X138005000Y-134869000D01*
G75*
G02*
X138131000Y-134995000I0J-126000D01*
G01*
G37*
G36*
G01*
X138131000Y-135495000D02*
X138131000Y-135645000D01*
G75*
G02*
X138005000Y-135771000I-126000J0D01*
G01*
X136605000Y-135771000D01*
G75*
G02*
X136479000Y-135645000I0J126000D01*
G01*
X136479000Y-135495000D01*
G75*
G02*
X136605000Y-135369000I126000J0D01*
G01*
X138005000Y-135369000D01*
G75*
G02*
X138131000Y-135495000I0J-126000D01*
G01*
G37*
G36*
G01*
X138131000Y-135995000D02*
X138131000Y-136145000D01*
G75*
G02*
X138005000Y-136271000I-126000J0D01*
G01*
X136605000Y-136271000D01*
G75*
G02*
X136479000Y-136145000I0J126000D01*
G01*
X136479000Y-135995000D01*
G75*
G02*
X136605000Y-135869000I126000J0D01*
G01*
X138005000Y-135869000D01*
G75*
G02*
X138131000Y-135995000I0J-126000D01*
G01*
G37*
G36*
G01*
X138131000Y-136495000D02*
X138131000Y-136645000D01*
G75*
G02*
X138005000Y-136771000I-126000J0D01*
G01*
X136605000Y-136771000D01*
G75*
G02*
X136479000Y-136645000I0J126000D01*
G01*
X136479000Y-136495000D01*
G75*
G02*
X136605000Y-136369000I126000J0D01*
G01*
X138005000Y-136369000D01*
G75*
G02*
X138131000Y-136495000I0J-126000D01*
G01*
G37*
G36*
G01*
X138131000Y-136995000D02*
X138131000Y-137145000D01*
G75*
G02*
X138005000Y-137271000I-126000J0D01*
G01*
X136605000Y-137271000D01*
G75*
G02*
X136479000Y-137145000I0J126000D01*
G01*
X136479000Y-136995000D01*
G75*
G02*
X136605000Y-136869000I126000J0D01*
G01*
X138005000Y-136869000D01*
G75*
G02*
X138131000Y-136995000I0J-126000D01*
G01*
G37*
G36*
G01*
X138131000Y-137495000D02*
X138131000Y-137645000D01*
G75*
G02*
X138005000Y-137771000I-126000J0D01*
G01*
X136605000Y-137771000D01*
G75*
G02*
X136479000Y-137645000I0J126000D01*
G01*
X136479000Y-137495000D01*
G75*
G02*
X136605000Y-137369000I126000J0D01*
G01*
X138005000Y-137369000D01*
G75*
G02*
X138131000Y-137495000I0J-126000D01*
G01*
G37*
G36*
G01*
X138131000Y-137995000D02*
X138131000Y-138145000D01*
G75*
G02*
X138005000Y-138271000I-126000J0D01*
G01*
X136605000Y-138271000D01*
G75*
G02*
X136479000Y-138145000I0J126000D01*
G01*
X136479000Y-137995000D01*
G75*
G02*
X136605000Y-137869000I126000J0D01*
G01*
X138005000Y-137869000D01*
G75*
G02*
X138131000Y-137995000I0J-126000D01*
G01*
G37*
G36*
G01*
X138131000Y-138495000D02*
X138131000Y-138645000D01*
G75*
G02*
X138005000Y-138771000I-126000J0D01*
G01*
X136605000Y-138771000D01*
G75*
G02*
X136479000Y-138645000I0J126000D01*
G01*
X136479000Y-138495000D01*
G75*
G02*
X136605000Y-138369000I126000J0D01*
G01*
X138005000Y-138369000D01*
G75*
G02*
X138131000Y-138495000I0J-126000D01*
G01*
G37*
G36*
G01*
X139431000Y-139795000D02*
X139431000Y-141195000D01*
G75*
G02*
X139305000Y-141321000I-126000J0D01*
G01*
X139155000Y-141321000D01*
G75*
G02*
X139029000Y-141195000I0J126000D01*
G01*
X139029000Y-139795000D01*
G75*
G02*
X139155000Y-139669000I126000J0D01*
G01*
X139305000Y-139669000D01*
G75*
G02*
X139431000Y-139795000I0J-126000D01*
G01*
G37*
G36*
G01*
X139931000Y-139795000D02*
X139931000Y-141195000D01*
G75*
G02*
X139805000Y-141321000I-126000J0D01*
G01*
X139655000Y-141321000D01*
G75*
G02*
X139529000Y-141195000I0J126000D01*
G01*
X139529000Y-139795000D01*
G75*
G02*
X139655000Y-139669000I126000J0D01*
G01*
X139805000Y-139669000D01*
G75*
G02*
X139931000Y-139795000I0J-126000D01*
G01*
G37*
G36*
G01*
X140431000Y-139795000D02*
X140431000Y-141195000D01*
G75*
G02*
X140305000Y-141321000I-126000J0D01*
G01*
X140155000Y-141321000D01*
G75*
G02*
X140029000Y-141195000I0J126000D01*
G01*
X140029000Y-139795000D01*
G75*
G02*
X140155000Y-139669000I126000J0D01*
G01*
X140305000Y-139669000D01*
G75*
G02*
X140431000Y-139795000I0J-126000D01*
G01*
G37*
G36*
G01*
X140931000Y-139795000D02*
X140931000Y-141195000D01*
G75*
G02*
X140805000Y-141321000I-126000J0D01*
G01*
X140655000Y-141321000D01*
G75*
G02*
X140529000Y-141195000I0J126000D01*
G01*
X140529000Y-139795000D01*
G75*
G02*
X140655000Y-139669000I126000J0D01*
G01*
X140805000Y-139669000D01*
G75*
G02*
X140931000Y-139795000I0J-126000D01*
G01*
G37*
G36*
G01*
X141431000Y-139795000D02*
X141431000Y-141195000D01*
G75*
G02*
X141305000Y-141321000I-126000J0D01*
G01*
X141155000Y-141321000D01*
G75*
G02*
X141029000Y-141195000I0J126000D01*
G01*
X141029000Y-139795000D01*
G75*
G02*
X141155000Y-139669000I126000J0D01*
G01*
X141305000Y-139669000D01*
G75*
G02*
X141431000Y-139795000I0J-126000D01*
G01*
G37*
G36*
G01*
X141931000Y-139795000D02*
X141931000Y-141195000D01*
G75*
G02*
X141805000Y-141321000I-126000J0D01*
G01*
X141655000Y-141321000D01*
G75*
G02*
X141529000Y-141195000I0J126000D01*
G01*
X141529000Y-139795000D01*
G75*
G02*
X141655000Y-139669000I126000J0D01*
G01*
X141805000Y-139669000D01*
G75*
G02*
X141931000Y-139795000I0J-126000D01*
G01*
G37*
G36*
G01*
X142431000Y-139795000D02*
X142431000Y-141195000D01*
G75*
G02*
X142305000Y-141321000I-126000J0D01*
G01*
X142155000Y-141321000D01*
G75*
G02*
X142029000Y-141195000I0J126000D01*
G01*
X142029000Y-139795000D01*
G75*
G02*
X142155000Y-139669000I126000J0D01*
G01*
X142305000Y-139669000D01*
G75*
G02*
X142431000Y-139795000I0J-126000D01*
G01*
G37*
G36*
G01*
X142931000Y-139795000D02*
X142931000Y-141195000D01*
G75*
G02*
X142805000Y-141321000I-126000J0D01*
G01*
X142655000Y-141321000D01*
G75*
G02*
X142529000Y-141195000I0J126000D01*
G01*
X142529000Y-139795000D01*
G75*
G02*
X142655000Y-139669000I126000J0D01*
G01*
X142805000Y-139669000D01*
G75*
G02*
X142931000Y-139795000I0J-126000D01*
G01*
G37*
G36*
G01*
X143431000Y-139795000D02*
X143431000Y-141195000D01*
G75*
G02*
X143305000Y-141321000I-126000J0D01*
G01*
X143155000Y-141321000D01*
G75*
G02*
X143029000Y-141195000I0J126000D01*
G01*
X143029000Y-139795000D01*
G75*
G02*
X143155000Y-139669000I126000J0D01*
G01*
X143305000Y-139669000D01*
G75*
G02*
X143431000Y-139795000I0J-126000D01*
G01*
G37*
G36*
G01*
X143931000Y-139795000D02*
X143931000Y-141195000D01*
G75*
G02*
X143805000Y-141321000I-126000J0D01*
G01*
X143655000Y-141321000D01*
G75*
G02*
X143529000Y-141195000I0J126000D01*
G01*
X143529000Y-139795000D01*
G75*
G02*
X143655000Y-139669000I126000J0D01*
G01*
X143805000Y-139669000D01*
G75*
G02*
X143931000Y-139795000I0J-126000D01*
G01*
G37*
G36*
G01*
X144431000Y-139795000D02*
X144431000Y-141195000D01*
G75*
G02*
X144305000Y-141321000I-126000J0D01*
G01*
X144155000Y-141321000D01*
G75*
G02*
X144029000Y-141195000I0J126000D01*
G01*
X144029000Y-139795000D01*
G75*
G02*
X144155000Y-139669000I126000J0D01*
G01*
X144305000Y-139669000D01*
G75*
G02*
X144431000Y-139795000I0J-126000D01*
G01*
G37*
G36*
G01*
X144931000Y-139795000D02*
X144931000Y-141195000D01*
G75*
G02*
X144805000Y-141321000I-126000J0D01*
G01*
X144655000Y-141321000D01*
G75*
G02*
X144529000Y-141195000I0J126000D01*
G01*
X144529000Y-139795000D01*
G75*
G02*
X144655000Y-139669000I126000J0D01*
G01*
X144805000Y-139669000D01*
G75*
G02*
X144931000Y-139795000I0J-126000D01*
G01*
G37*
G36*
G01*
X145431000Y-139795000D02*
X145431000Y-141195000D01*
G75*
G02*
X145305000Y-141321000I-126000J0D01*
G01*
X145155000Y-141321000D01*
G75*
G02*
X145029000Y-141195000I0J126000D01*
G01*
X145029000Y-139795000D01*
G75*
G02*
X145155000Y-139669000I126000J0D01*
G01*
X145305000Y-139669000D01*
G75*
G02*
X145431000Y-139795000I0J-126000D01*
G01*
G37*
G36*
G01*
X145931000Y-139795000D02*
X145931000Y-141195000D01*
G75*
G02*
X145805000Y-141321000I-126000J0D01*
G01*
X145655000Y-141321000D01*
G75*
G02*
X145529000Y-141195000I0J126000D01*
G01*
X145529000Y-139795000D01*
G75*
G02*
X145655000Y-139669000I126000J0D01*
G01*
X145805000Y-139669000D01*
G75*
G02*
X145931000Y-139795000I0J-126000D01*
G01*
G37*
G36*
G01*
X146431000Y-139795000D02*
X146431000Y-141195000D01*
G75*
G02*
X146305000Y-141321000I-126000J0D01*
G01*
X146155000Y-141321000D01*
G75*
G02*
X146029000Y-141195000I0J126000D01*
G01*
X146029000Y-139795000D01*
G75*
G02*
X146155000Y-139669000I126000J0D01*
G01*
X146305000Y-139669000D01*
G75*
G02*
X146431000Y-139795000I0J-126000D01*
G01*
G37*
G36*
G01*
X146931000Y-139795000D02*
X146931000Y-141195000D01*
G75*
G02*
X146805000Y-141321000I-126000J0D01*
G01*
X146655000Y-141321000D01*
G75*
G02*
X146529000Y-141195000I0J126000D01*
G01*
X146529000Y-139795000D01*
G75*
G02*
X146655000Y-139669000I126000J0D01*
G01*
X146805000Y-139669000D01*
G75*
G02*
X146931000Y-139795000I0J-126000D01*
G01*
G37*
G36*
G01*
X128799000Y-141872500D02*
X128799000Y-141747500D01*
G75*
G02*
X128912500Y-141634000I113500J0D01*
G01*
X129587500Y-141634000D01*
G75*
G02*
X129701000Y-141747500I0J-113500D01*
G01*
X129701000Y-141872500D01*
G75*
G02*
X129587500Y-141986000I-113500J0D01*
G01*
X128912500Y-141986000D01*
G75*
G02*
X128799000Y-141872500I0J113500D01*
G01*
G37*
G36*
G01*
X128799000Y-142372500D02*
X128799000Y-142247500D01*
G75*
G02*
X128912500Y-142134000I113500J0D01*
G01*
X129587500Y-142134000D01*
G75*
G02*
X129701000Y-142247500I0J-113500D01*
G01*
X129701000Y-142372500D01*
G75*
G02*
X129587500Y-142486000I-113500J0D01*
G01*
X128912500Y-142486000D01*
G75*
G02*
X128799000Y-142372500I0J113500D01*
G01*
G37*
G36*
G01*
X128799000Y-142872500D02*
X128799000Y-142747500D01*
G75*
G02*
X128912500Y-142634000I113500J0D01*
G01*
X129587500Y-142634000D01*
G75*
G02*
X129701000Y-142747500I0J-113500D01*
G01*
X129701000Y-142872500D01*
G75*
G02*
X129587500Y-142986000I-113500J0D01*
G01*
X128912500Y-142986000D01*
G75*
G02*
X128799000Y-142872500I0J113500D01*
G01*
G37*
G36*
G01*
X128799000Y-143372500D02*
X128799000Y-143247500D01*
G75*
G02*
X128912500Y-143134000I113500J0D01*
G01*
X129587500Y-143134000D01*
G75*
G02*
X129701000Y-143247500I0J-113500D01*
G01*
X129701000Y-143372500D01*
G75*
G02*
X129587500Y-143486000I-113500J0D01*
G01*
X128912500Y-143486000D01*
G75*
G02*
X128799000Y-143372500I0J113500D01*
G01*
G37*
G36*
G01*
X128799000Y-143872500D02*
X128799000Y-143747500D01*
G75*
G02*
X128912500Y-143634000I113500J0D01*
G01*
X129587500Y-143634000D01*
G75*
G02*
X129701000Y-143747500I0J-113500D01*
G01*
X129701000Y-143872500D01*
G75*
G02*
X129587500Y-143986000I-113500J0D01*
G01*
X128912500Y-143986000D01*
G75*
G02*
X128799000Y-143872500I0J113500D01*
G01*
G37*
G36*
G01*
X128799000Y-144372500D02*
X128799000Y-144247500D01*
G75*
G02*
X128912500Y-144134000I113500J0D01*
G01*
X129587500Y-144134000D01*
G75*
G02*
X129701000Y-144247500I0J-113500D01*
G01*
X129701000Y-144372500D01*
G75*
G02*
X129587500Y-144486000I-113500J0D01*
G01*
X128912500Y-144486000D01*
G75*
G02*
X128799000Y-144372500I0J113500D01*
G01*
G37*
G36*
G01*
X128799000Y-144872500D02*
X128799000Y-144747500D01*
G75*
G02*
X128912500Y-144634000I113500J0D01*
G01*
X129587500Y-144634000D01*
G75*
G02*
X129701000Y-144747500I0J-113500D01*
G01*
X129701000Y-144872500D01*
G75*
G02*
X129587500Y-144986000I-113500J0D01*
G01*
X128912500Y-144986000D01*
G75*
G02*
X128799000Y-144872500I0J113500D01*
G01*
G37*
G36*
G01*
X130024000Y-146097500D02*
X130024000Y-145422500D01*
G75*
G02*
X130137500Y-145309000I113500J0D01*
G01*
X130262500Y-145309000D01*
G75*
G02*
X130376000Y-145422500I0J-113500D01*
G01*
X130376000Y-146097500D01*
G75*
G02*
X130262500Y-146211000I-113500J0D01*
G01*
X130137500Y-146211000D01*
G75*
G02*
X130024000Y-146097500I0J113500D01*
G01*
G37*
G36*
G01*
X130524000Y-146097500D02*
X130524000Y-145422500D01*
G75*
G02*
X130637500Y-145309000I113500J0D01*
G01*
X130762500Y-145309000D01*
G75*
G02*
X130876000Y-145422500I0J-113500D01*
G01*
X130876000Y-146097500D01*
G75*
G02*
X130762500Y-146211000I-113500J0D01*
G01*
X130637500Y-146211000D01*
G75*
G02*
X130524000Y-146097500I0J113500D01*
G01*
G37*
G36*
G01*
X131024000Y-146097500D02*
X131024000Y-145422500D01*
G75*
G02*
X131137500Y-145309000I113500J0D01*
G01*
X131262500Y-145309000D01*
G75*
G02*
X131376000Y-145422500I0J-113500D01*
G01*
X131376000Y-146097500D01*
G75*
G02*
X131262500Y-146211000I-113500J0D01*
G01*
X131137500Y-146211000D01*
G75*
G02*
X131024000Y-146097500I0J113500D01*
G01*
G37*
G36*
G01*
X131524000Y-146097500D02*
X131524000Y-145422500D01*
G75*
G02*
X131637500Y-145309000I113500J0D01*
G01*
X131762500Y-145309000D01*
G75*
G02*
X131876000Y-145422500I0J-113500D01*
G01*
X131876000Y-146097500D01*
G75*
G02*
X131762500Y-146211000I-113500J0D01*
G01*
X131637500Y-146211000D01*
G75*
G02*
X131524000Y-146097500I0J113500D01*
G01*
G37*
G36*
G01*
X132024000Y-146097500D02*
X132024000Y-145422500D01*
G75*
G02*
X132137500Y-145309000I113500J0D01*
G01*
X132262500Y-145309000D01*
G75*
G02*
X132376000Y-145422500I0J-113500D01*
G01*
X132376000Y-146097500D01*
G75*
G02*
X132262500Y-146211000I-113500J0D01*
G01*
X132137500Y-146211000D01*
G75*
G02*
X132024000Y-146097500I0J113500D01*
G01*
G37*
G36*
G01*
X132524000Y-146097500D02*
X132524000Y-145422500D01*
G75*
G02*
X132637500Y-145309000I113500J0D01*
G01*
X132762500Y-145309000D01*
G75*
G02*
X132876000Y-145422500I0J-113500D01*
G01*
X132876000Y-146097500D01*
G75*
G02*
X132762500Y-146211000I-113500J0D01*
G01*
X132637500Y-146211000D01*
G75*
G02*
X132524000Y-146097500I0J113500D01*
G01*
G37*
G36*
G01*
X133024000Y-146097500D02*
X133024000Y-145422500D01*
G75*
G02*
X133137500Y-145309000I113500J0D01*
G01*
X133262500Y-145309000D01*
G75*
G02*
X133376000Y-145422500I0J-113500D01*
G01*
X133376000Y-146097500D01*
G75*
G02*
X133262500Y-146211000I-113500J0D01*
G01*
X133137500Y-146211000D01*
G75*
G02*
X133024000Y-146097500I0J113500D01*
G01*
G37*
G36*
G01*
X133699000Y-144872500D02*
X133699000Y-144747500D01*
G75*
G02*
X133812500Y-144634000I113500J0D01*
G01*
X134487500Y-144634000D01*
G75*
G02*
X134601000Y-144747500I0J-113500D01*
G01*
X134601000Y-144872500D01*
G75*
G02*
X134487500Y-144986000I-113500J0D01*
G01*
X133812500Y-144986000D01*
G75*
G02*
X133699000Y-144872500I0J113500D01*
G01*
G37*
G36*
G01*
X133699000Y-144372500D02*
X133699000Y-144247500D01*
G75*
G02*
X133812500Y-144134000I113500J0D01*
G01*
X134487500Y-144134000D01*
G75*
G02*
X134601000Y-144247500I0J-113500D01*
G01*
X134601000Y-144372500D01*
G75*
G02*
X134487500Y-144486000I-113500J0D01*
G01*
X133812500Y-144486000D01*
G75*
G02*
X133699000Y-144372500I0J113500D01*
G01*
G37*
G36*
G01*
X133699000Y-143872500D02*
X133699000Y-143747500D01*
G75*
G02*
X133812500Y-143634000I113500J0D01*
G01*
X134487500Y-143634000D01*
G75*
G02*
X134601000Y-143747500I0J-113500D01*
G01*
X134601000Y-143872500D01*
G75*
G02*
X134487500Y-143986000I-113500J0D01*
G01*
X133812500Y-143986000D01*
G75*
G02*
X133699000Y-143872500I0J113500D01*
G01*
G37*
G36*
G01*
X133699000Y-143372500D02*
X133699000Y-143247500D01*
G75*
G02*
X133812500Y-143134000I113500J0D01*
G01*
X134487500Y-143134000D01*
G75*
G02*
X134601000Y-143247500I0J-113500D01*
G01*
X134601000Y-143372500D01*
G75*
G02*
X134487500Y-143486000I-113500J0D01*
G01*
X133812500Y-143486000D01*
G75*
G02*
X133699000Y-143372500I0J113500D01*
G01*
G37*
G36*
G01*
X133699000Y-142872500D02*
X133699000Y-142747500D01*
G75*
G02*
X133812500Y-142634000I113500J0D01*
G01*
X134487500Y-142634000D01*
G75*
G02*
X134601000Y-142747500I0J-113500D01*
G01*
X134601000Y-142872500D01*
G75*
G02*
X134487500Y-142986000I-113500J0D01*
G01*
X133812500Y-142986000D01*
G75*
G02*
X133699000Y-142872500I0J113500D01*
G01*
G37*
G36*
G01*
X133699000Y-142372500D02*
X133699000Y-142247500D01*
G75*
G02*
X133812500Y-142134000I113500J0D01*
G01*
X134487500Y-142134000D01*
G75*
G02*
X134601000Y-142247500I0J-113500D01*
G01*
X134601000Y-142372500D01*
G75*
G02*
X134487500Y-142486000I-113500J0D01*
G01*
X133812500Y-142486000D01*
G75*
G02*
X133699000Y-142372500I0J113500D01*
G01*
G37*
G36*
G01*
X133699000Y-141872500D02*
X133699000Y-141747500D01*
G75*
G02*
X133812500Y-141634000I113500J0D01*
G01*
X134487500Y-141634000D01*
G75*
G02*
X134601000Y-141747500I0J-113500D01*
G01*
X134601000Y-141872500D01*
G75*
G02*
X134487500Y-141986000I-113500J0D01*
G01*
X133812500Y-141986000D01*
G75*
G02*
X133699000Y-141872500I0J113500D01*
G01*
G37*
G36*
G01*
X133024000Y-141197500D02*
X133024000Y-140522500D01*
G75*
G02*
X133137500Y-140409000I113500J0D01*
G01*
X133262500Y-140409000D01*
G75*
G02*
X133376000Y-140522500I0J-113500D01*
G01*
X133376000Y-141197500D01*
G75*
G02*
X133262500Y-141311000I-113500J0D01*
G01*
X133137500Y-141311000D01*
G75*
G02*
X133024000Y-141197500I0J113500D01*
G01*
G37*
G36*
G01*
X132524000Y-141197500D02*
X132524000Y-140522500D01*
G75*
G02*
X132637500Y-140409000I113500J0D01*
G01*
X132762500Y-140409000D01*
G75*
G02*
X132876000Y-140522500I0J-113500D01*
G01*
X132876000Y-141197500D01*
G75*
G02*
X132762500Y-141311000I-113500J0D01*
G01*
X132637500Y-141311000D01*
G75*
G02*
X132524000Y-141197500I0J113500D01*
G01*
G37*
G36*
G01*
X132024000Y-141197500D02*
X132024000Y-140522500D01*
G75*
G02*
X132137500Y-140409000I113500J0D01*
G01*
X132262500Y-140409000D01*
G75*
G02*
X132376000Y-140522500I0J-113500D01*
G01*
X132376000Y-141197500D01*
G75*
G02*
X132262500Y-141311000I-113500J0D01*
G01*
X132137500Y-141311000D01*
G75*
G02*
X132024000Y-141197500I0J113500D01*
G01*
G37*
G36*
G01*
X131524000Y-141197500D02*
X131524000Y-140522500D01*
G75*
G02*
X131637500Y-140409000I113500J0D01*
G01*
X131762500Y-140409000D01*
G75*
G02*
X131876000Y-140522500I0J-113500D01*
G01*
X131876000Y-141197500D01*
G75*
G02*
X131762500Y-141311000I-113500J0D01*
G01*
X131637500Y-141311000D01*
G75*
G02*
X131524000Y-141197500I0J113500D01*
G01*
G37*
G36*
G01*
X131024000Y-141197500D02*
X131024000Y-140522500D01*
G75*
G02*
X131137500Y-140409000I113500J0D01*
G01*
X131262500Y-140409000D01*
G75*
G02*
X131376000Y-140522500I0J-113500D01*
G01*
X131376000Y-141197500D01*
G75*
G02*
X131262500Y-141311000I-113500J0D01*
G01*
X131137500Y-141311000D01*
G75*
G02*
X131024000Y-141197500I0J113500D01*
G01*
G37*
G36*
G01*
X130524000Y-141197500D02*
X130524000Y-140522500D01*
G75*
G02*
X130637500Y-140409000I113500J0D01*
G01*
X130762500Y-140409000D01*
G75*
G02*
X130876000Y-140522500I0J-113500D01*
G01*
X130876000Y-141197500D01*
G75*
G02*
X130762500Y-141311000I-113500J0D01*
G01*
X130637500Y-141311000D01*
G75*
G02*
X130524000Y-141197500I0J113500D01*
G01*
G37*
G36*
G01*
X130024000Y-141197500D02*
X130024000Y-140522500D01*
G75*
G02*
X130137500Y-140409000I113500J0D01*
G01*
X130262500Y-140409000D01*
G75*
G02*
X130376000Y-140522500I0J-113500D01*
G01*
X130376000Y-141197500D01*
G75*
G02*
X130262500Y-141311000I-113500J0D01*
G01*
X130137500Y-141311000D01*
G75*
G02*
X130024000Y-141197500I0J113500D01*
G01*
G37*
G36*
G01*
X129974000Y-144985000D02*
X129974000Y-141635000D01*
G75*
G02*
X130025000Y-141584000I51000J0D01*
G01*
X133375000Y-141584000D01*
G75*
G02*
X133426000Y-141635000I0J-51000D01*
G01*
X133426000Y-144985000D01*
G75*
G02*
X133375000Y-145036000I-51000J0D01*
G01*
X130025000Y-145036000D01*
G75*
G02*
X129974000Y-144985000I0J51000D01*
G01*
G37*
G36*
G01*
X156920000Y-142801000D02*
X154920000Y-142801000D01*
G75*
G02*
X154869000Y-142750000I0J51000D01*
G01*
X154869000Y-138250000D01*
G75*
G02*
X154920000Y-138199000I51000J0D01*
G01*
X156920000Y-138199000D01*
G75*
G02*
X156971000Y-138250000I0J-51000D01*
G01*
X156971000Y-142750000D01*
G75*
G02*
X156920000Y-142801000I-51000J0D01*
G01*
G37*
G36*
G01*
X156920000Y-134301000D02*
X154920000Y-134301000D01*
G75*
G02*
X154869000Y-134250000I0J51000D01*
G01*
X154869000Y-129750000D01*
G75*
G02*
X154920000Y-129699000I51000J0D01*
G01*
X156920000Y-129699000D01*
G75*
G02*
X156971000Y-129750000I0J-51000D01*
G01*
X156971000Y-134250000D01*
G75*
G02*
X156920000Y-134301000I-51000J0D01*
G01*
G37*
G36*
G01*
X148011000Y-126202500D02*
X148011000Y-126677500D01*
G75*
G02*
X147722500Y-126966000I-288500J0D01*
G01*
X147122500Y-126966000D01*
G75*
G02*
X146834000Y-126677500I0J288500D01*
G01*
X146834000Y-126202500D01*
G75*
G02*
X147122500Y-125914000I288500J0D01*
G01*
X147722500Y-125914000D01*
G75*
G02*
X148011000Y-126202500I0J-288500D01*
G01*
G37*
G36*
G01*
X146286000Y-126202500D02*
X146286000Y-126677500D01*
G75*
G02*
X145997500Y-126966000I-288500J0D01*
G01*
X145397500Y-126966000D01*
G75*
G02*
X145109000Y-126677500I0J288500D01*
G01*
X145109000Y-126202500D01*
G75*
G02*
X145397500Y-125914000I288500J0D01*
G01*
X145997500Y-125914000D01*
G75*
G02*
X146286000Y-126202500I0J-288500D01*
G01*
G37*
G36*
G01*
X134412500Y-136239000D02*
X134887500Y-136239000D01*
G75*
G02*
X135176000Y-136527500I0J-288500D01*
G01*
X135176000Y-137127500D01*
G75*
G02*
X134887500Y-137416000I-288500J0D01*
G01*
X134412500Y-137416000D01*
G75*
G02*
X134124000Y-137127500I0J288500D01*
G01*
X134124000Y-136527500D01*
G75*
G02*
X134412500Y-136239000I288500J0D01*
G01*
G37*
G36*
G01*
X134412500Y-137964000D02*
X134887500Y-137964000D01*
G75*
G02*
X135176000Y-138252500I0J-288500D01*
G01*
X135176000Y-138852500D01*
G75*
G02*
X134887500Y-139141000I-288500J0D01*
G01*
X134412500Y-139141000D01*
G75*
G02*
X134124000Y-138852500I0J288500D01*
G01*
X134124000Y-138252500D01*
G75*
G02*
X134412500Y-137964000I288500J0D01*
G01*
G37*
G36*
G01*
X136929000Y-127047500D02*
X136929000Y-126572500D01*
G75*
G02*
X137217500Y-126284000I288500J0D01*
G01*
X137817500Y-126284000D01*
G75*
G02*
X138106000Y-126572500I0J-288500D01*
G01*
X138106000Y-127047500D01*
G75*
G02*
X137817500Y-127336000I-288500J0D01*
G01*
X137217500Y-127336000D01*
G75*
G02*
X136929000Y-127047500I0J288500D01*
G01*
G37*
G36*
G01*
X138654000Y-127047500D02*
X138654000Y-126572500D01*
G75*
G02*
X138942500Y-126284000I288500J0D01*
G01*
X139542500Y-126284000D01*
G75*
G02*
X139831000Y-126572500I0J-288500D01*
G01*
X139831000Y-127047500D01*
G75*
G02*
X139542500Y-127336000I-288500J0D01*
G01*
X138942500Y-127336000D01*
G75*
G02*
X138654000Y-127047500I0J288500D01*
G01*
G37*
G36*
G01*
X145104000Y-143407500D02*
X145104000Y-142932500D01*
G75*
G02*
X145392500Y-142644000I288500J0D01*
G01*
X145992500Y-142644000D01*
G75*
G02*
X146281000Y-142932500I0J-288500D01*
G01*
X146281000Y-143407500D01*
G75*
G02*
X145992500Y-143696000I-288500J0D01*
G01*
X145392500Y-143696000D01*
G75*
G02*
X145104000Y-143407500I0J288500D01*
G01*
G37*
G36*
G01*
X146829000Y-143407500D02*
X146829000Y-142932500D01*
G75*
G02*
X147117500Y-142644000I288500J0D01*
G01*
X147717500Y-142644000D01*
G75*
G02*
X148006000Y-142932500I0J-288500D01*
G01*
X148006000Y-143407500D01*
G75*
G02*
X147717500Y-143696000I-288500J0D01*
G01*
X147117500Y-143696000D01*
G75*
G02*
X146829000Y-143407500I0J288500D01*
G01*
G37*
G36*
G01*
X151847500Y-140976000D02*
X151372500Y-140976000D01*
G75*
G02*
X151084000Y-140687500I0J288500D01*
G01*
X151084000Y-140087500D01*
G75*
G02*
X151372500Y-139799000I288500J0D01*
G01*
X151847500Y-139799000D01*
G75*
G02*
X152136000Y-140087500I0J-288500D01*
G01*
X152136000Y-140687500D01*
G75*
G02*
X151847500Y-140976000I-288500J0D01*
G01*
G37*
G36*
G01*
X151847500Y-139251000D02*
X151372500Y-139251000D01*
G75*
G02*
X151084000Y-138962500I0J288500D01*
G01*
X151084000Y-138362500D01*
G75*
G02*
X151372500Y-138074000I288500J0D01*
G01*
X151847500Y-138074000D01*
G75*
G02*
X152136000Y-138362500I0J-288500D01*
G01*
X152136000Y-138962500D01*
G75*
G02*
X151847500Y-139251000I-288500J0D01*
G01*
G37*
G36*
G01*
X151797500Y-134051000D02*
X151322500Y-134051000D01*
G75*
G02*
X151034000Y-133762500I0J288500D01*
G01*
X151034000Y-133162500D01*
G75*
G02*
X151322500Y-132874000I288500J0D01*
G01*
X151797500Y-132874000D01*
G75*
G02*
X152086000Y-133162500I0J-288500D01*
G01*
X152086000Y-133762500D01*
G75*
G02*
X151797500Y-134051000I-288500J0D01*
G01*
G37*
G36*
G01*
X151797500Y-132326000D02*
X151322500Y-132326000D01*
G75*
G02*
X151034000Y-132037500I0J288500D01*
G01*
X151034000Y-131437500D01*
G75*
G02*
X151322500Y-131149000I288500J0D01*
G01*
X151797500Y-131149000D01*
G75*
G02*
X152086000Y-131437500I0J-288500D01*
G01*
X152086000Y-132037500D01*
G75*
G02*
X151797500Y-132326000I-288500J0D01*
G01*
G37*
G36*
G01*
X140564000Y-127047500D02*
X140564000Y-126572500D01*
G75*
G02*
X140852500Y-126284000I288500J0D01*
G01*
X141452500Y-126284000D01*
G75*
G02*
X141741000Y-126572500I0J-288500D01*
G01*
X141741000Y-127047500D01*
G75*
G02*
X141452500Y-127336000I-288500J0D01*
G01*
X140852500Y-127336000D01*
G75*
G02*
X140564000Y-127047500I0J288500D01*
G01*
G37*
G36*
G01*
X142289000Y-127047500D02*
X142289000Y-126572500D01*
G75*
G02*
X142577500Y-126284000I288500J0D01*
G01*
X143177500Y-126284000D01*
G75*
G02*
X143466000Y-126572500I0J-288500D01*
G01*
X143466000Y-127047500D01*
G75*
G02*
X143177500Y-127336000I-288500J0D01*
G01*
X142577500Y-127336000D01*
G75*
G02*
X142289000Y-127047500I0J288500D01*
G01*
G37*
G36*
G01*
X136572500Y-140179000D02*
X137047500Y-140179000D01*
G75*
G02*
X137336000Y-140467500I0J-288500D01*
G01*
X137336000Y-141067500D01*
G75*
G02*
X137047500Y-141356000I-288500J0D01*
G01*
X136572500Y-141356000D01*
G75*
G02*
X136284000Y-141067500I0J288500D01*
G01*
X136284000Y-140467500D01*
G75*
G02*
X136572500Y-140179000I288500J0D01*
G01*
G37*
G36*
G01*
X136572500Y-141904000D02*
X137047500Y-141904000D01*
G75*
G02*
X137336000Y-142192500I0J-288500D01*
G01*
X137336000Y-142792500D01*
G75*
G02*
X137047500Y-143081000I-288500J0D01*
G01*
X136572500Y-143081000D01*
G75*
G02*
X136284000Y-142792500I0J288500D01*
G01*
X136284000Y-142192500D01*
G75*
G02*
X136572500Y-141904000I288500J0D01*
G01*
G37*
G36*
G01*
X132801000Y-148012500D02*
X132801000Y-148487500D01*
G75*
G02*
X132512500Y-148776000I-288500J0D01*
G01*
X132012500Y-148776000D01*
G75*
G02*
X131724000Y-148487500I0J288500D01*
G01*
X131724000Y-148012500D01*
G75*
G02*
X132012500Y-147724000I288500J0D01*
G01*
X132512500Y-147724000D01*
G75*
G02*
X132801000Y-148012500I0J-288500D01*
G01*
G37*
G36*
G01*
X130976000Y-148012500D02*
X130976000Y-148487500D01*
G75*
G02*
X130687500Y-148776000I-288500J0D01*
G01*
X130187500Y-148776000D01*
G75*
G02*
X129899000Y-148487500I0J288500D01*
G01*
X129899000Y-148012500D01*
G75*
G02*
X130187500Y-147724000I288500J0D01*
G01*
X130687500Y-147724000D01*
G75*
G02*
X130976000Y-148012500I0J-288500D01*
G01*
G37*
G36*
G01*
X119446000Y-134742500D02*
X119446000Y-135217500D01*
G75*
G02*
X119157500Y-135506000I-288500J0D01*
G01*
X118657500Y-135506000D01*
G75*
G02*
X118369000Y-135217500I0J288500D01*
G01*
X118369000Y-134742500D01*
G75*
G02*
X118657500Y-134454000I288500J0D01*
G01*
X119157500Y-134454000D01*
G75*
G02*
X119446000Y-134742500I0J-288500D01*
G01*
G37*
G36*
G01*
X117621000Y-134742500D02*
X117621000Y-135217500D01*
G75*
G02*
X117332500Y-135506000I-288500J0D01*
G01*
X116832500Y-135506000D01*
G75*
G02*
X116544000Y-135217500I0J288500D01*
G01*
X116544000Y-134742500D01*
G75*
G02*
X116832500Y-134454000I288500J0D01*
G01*
X117332500Y-134454000D01*
G75*
G02*
X117621000Y-134742500I0J-288500D01*
G01*
G37*
G36*
G01*
X119946000Y-147992500D02*
X119946000Y-148467500D01*
G75*
G02*
X119657500Y-148756000I-288500J0D01*
G01*
X119157500Y-148756000D01*
G75*
G02*
X118869000Y-148467500I0J288500D01*
G01*
X118869000Y-147992500D01*
G75*
G02*
X119157500Y-147704000I288500J0D01*
G01*
X119657500Y-147704000D01*
G75*
G02*
X119946000Y-147992500I0J-288500D01*
G01*
G37*
G36*
G01*
X118121000Y-147992500D02*
X118121000Y-148467500D01*
G75*
G02*
X117832500Y-148756000I-288500J0D01*
G01*
X117332500Y-148756000D01*
G75*
G02*
X117044000Y-148467500I0J288500D01*
G01*
X117044000Y-147992500D01*
G75*
G02*
X117332500Y-147704000I288500J0D01*
G01*
X117832500Y-147704000D01*
G75*
G02*
X118121000Y-147992500I0J-288500D01*
G01*
G37*
G36*
G01*
X175652500Y-124966500D02*
X176127500Y-124966500D01*
G75*
G02*
X176416000Y-125255000I0J-288500D01*
G01*
X176416000Y-125855000D01*
G75*
G02*
X176127500Y-126143500I-288500J0D01*
G01*
X175652500Y-126143500D01*
G75*
G02*
X175364000Y-125855000I0J288500D01*
G01*
X175364000Y-125255000D01*
G75*
G02*
X175652500Y-124966500I288500J0D01*
G01*
G37*
G36*
G01*
X175652500Y-126691500D02*
X176127500Y-126691500D01*
G75*
G02*
X176416000Y-126980000I0J-288500D01*
G01*
X176416000Y-127580000D01*
G75*
G02*
X176127500Y-127868500I-288500J0D01*
G01*
X175652500Y-127868500D01*
G75*
G02*
X175364000Y-127580000I0J288500D01*
G01*
X175364000Y-126980000D01*
G75*
G02*
X175652500Y-126691500I288500J0D01*
G01*
G37*
G36*
G01*
X180851000Y-154542500D02*
X180851000Y-155017500D01*
G75*
G02*
X180562500Y-155306000I-288500J0D01*
G01*
X179962500Y-155306000D01*
G75*
G02*
X179674000Y-155017500I0J288500D01*
G01*
X179674000Y-154542500D01*
G75*
G02*
X179962500Y-154254000I288500J0D01*
G01*
X180562500Y-154254000D01*
G75*
G02*
X180851000Y-154542500I0J-288500D01*
G01*
G37*
G36*
G01*
X179126000Y-154542500D02*
X179126000Y-155017500D01*
G75*
G02*
X178837500Y-155306000I-288500J0D01*
G01*
X178237500Y-155306000D01*
G75*
G02*
X177949000Y-155017500I0J288500D01*
G01*
X177949000Y-154542500D01*
G75*
G02*
X178237500Y-154254000I288500J0D01*
G01*
X178837500Y-154254000D01*
G75*
G02*
X179126000Y-154542500I0J-288500D01*
G01*
G37*
G36*
G01*
X177949000Y-148057500D02*
X177949000Y-147582500D01*
G75*
G02*
X178237500Y-147294000I288500J0D01*
G01*
X178837500Y-147294000D01*
G75*
G02*
X179126000Y-147582500I0J-288500D01*
G01*
X179126000Y-148057500D01*
G75*
G02*
X178837500Y-148346000I-288500J0D01*
G01*
X178237500Y-148346000D01*
G75*
G02*
X177949000Y-148057500I0J288500D01*
G01*
G37*
G36*
G01*
X179674000Y-148057500D02*
X179674000Y-147582500D01*
G75*
G02*
X179962500Y-147294000I288500J0D01*
G01*
X180562500Y-147294000D01*
G75*
G02*
X180851000Y-147582500I0J-288500D01*
G01*
X180851000Y-148057500D01*
G75*
G02*
X180562500Y-148346000I-288500J0D01*
G01*
X179962500Y-148346000D01*
G75*
G02*
X179674000Y-148057500I0J288500D01*
G01*
G37*
G36*
G01*
X175884000Y-149540000D02*
X175884000Y-149240000D01*
G75*
G02*
X176085000Y-149039000I201000J0D01*
G01*
X177735000Y-149039000D01*
G75*
G02*
X177936000Y-149240000I0J-201000D01*
G01*
X177936000Y-149540000D01*
G75*
G02*
X177735000Y-149741000I-201000J0D01*
G01*
X176085000Y-149741000D01*
G75*
G02*
X175884000Y-149540000I0J201000D01*
G01*
G37*
G36*
G01*
X175884000Y-150810000D02*
X175884000Y-150510000D01*
G75*
G02*
X176085000Y-150309000I201000J0D01*
G01*
X177735000Y-150309000D01*
G75*
G02*
X177936000Y-150510000I0J-201000D01*
G01*
X177936000Y-150810000D01*
G75*
G02*
X177735000Y-151011000I-201000J0D01*
G01*
X176085000Y-151011000D01*
G75*
G02*
X175884000Y-150810000I0J201000D01*
G01*
G37*
G36*
G01*
X175884000Y-152080000D02*
X175884000Y-151780000D01*
G75*
G02*
X176085000Y-151579000I201000J0D01*
G01*
X177735000Y-151579000D01*
G75*
G02*
X177936000Y-151780000I0J-201000D01*
G01*
X177936000Y-152080000D01*
G75*
G02*
X177735000Y-152281000I-201000J0D01*
G01*
X176085000Y-152281000D01*
G75*
G02*
X175884000Y-152080000I0J201000D01*
G01*
G37*
G36*
G01*
X175884000Y-153350000D02*
X175884000Y-153050000D01*
G75*
G02*
X176085000Y-152849000I201000J0D01*
G01*
X177735000Y-152849000D01*
G75*
G02*
X177936000Y-153050000I0J-201000D01*
G01*
X177936000Y-153350000D01*
G75*
G02*
X177735000Y-153551000I-201000J0D01*
G01*
X176085000Y-153551000D01*
G75*
G02*
X175884000Y-153350000I0J201000D01*
G01*
G37*
G36*
G01*
X180834000Y-153350000D02*
X180834000Y-153050000D01*
G75*
G02*
X181035000Y-152849000I201000J0D01*
G01*
X182685000Y-152849000D01*
G75*
G02*
X182886000Y-153050000I0J-201000D01*
G01*
X182886000Y-153350000D01*
G75*
G02*
X182685000Y-153551000I-201000J0D01*
G01*
X181035000Y-153551000D01*
G75*
G02*
X180834000Y-153350000I0J201000D01*
G01*
G37*
G36*
G01*
X180834000Y-152080000D02*
X180834000Y-151780000D01*
G75*
G02*
X181035000Y-151579000I201000J0D01*
G01*
X182685000Y-151579000D01*
G75*
G02*
X182886000Y-151780000I0J-201000D01*
G01*
X182886000Y-152080000D01*
G75*
G02*
X182685000Y-152281000I-201000J0D01*
G01*
X181035000Y-152281000D01*
G75*
G02*
X180834000Y-152080000I0J201000D01*
G01*
G37*
G36*
G01*
X180834000Y-150810000D02*
X180834000Y-150510000D01*
G75*
G02*
X181035000Y-150309000I201000J0D01*
G01*
X182685000Y-150309000D01*
G75*
G02*
X182886000Y-150510000I0J-201000D01*
G01*
X182886000Y-150810000D01*
G75*
G02*
X182685000Y-151011000I-201000J0D01*
G01*
X181035000Y-151011000D01*
G75*
G02*
X180834000Y-150810000I0J201000D01*
G01*
G37*
G36*
G01*
X180834000Y-149540000D02*
X180834000Y-149240000D01*
G75*
G02*
X181035000Y-149039000I201000J0D01*
G01*
X182685000Y-149039000D01*
G75*
G02*
X182886000Y-149240000I0J-201000D01*
G01*
X182886000Y-149540000D01*
G75*
G02*
X182685000Y-149741000I-201000J0D01*
G01*
X181035000Y-149741000D01*
G75*
G02*
X180834000Y-149540000I0J201000D01*
G01*
G37*
G36*
X132853894Y-145355456D02*
G01*
X132900945Y-145394777D01*
X132969661Y-145403408D01*
X133032291Y-145373444D01*
X133039798Y-145364781D01*
X133041688Y-145364127D01*
X133043199Y-145365437D01*
X133042972Y-145367202D01*
X133034525Y-145379844D01*
X133026000Y-145422699D01*
X133026000Y-146097301D01*
X133034525Y-146140156D01*
X133049052Y-146161898D01*
X133049183Y-146163894D01*
X133047520Y-146165005D01*
X133046106Y-146164544D01*
X132999055Y-146125223D01*
X132930339Y-146116592D01*
X132867709Y-146146556D01*
X132860202Y-146155219D01*
X132858312Y-146155873D01*
X132856801Y-146154563D01*
X132857028Y-146152798D01*
X132865475Y-146140156D01*
X132874000Y-146097301D01*
X132874000Y-145422699D01*
X132865475Y-145379844D01*
X132850948Y-145358102D01*
X132850817Y-145356106D01*
X132852480Y-145354995D01*
X132853894Y-145355456D01*
G37*
G36*
X131853894Y-145355456D02*
G01*
X131900945Y-145394777D01*
X131969661Y-145403408D01*
X132032291Y-145373444D01*
X132039798Y-145364781D01*
X132041688Y-145364127D01*
X132043199Y-145365437D01*
X132042972Y-145367202D01*
X132034525Y-145379844D01*
X132026000Y-145422699D01*
X132026000Y-146097301D01*
X132034525Y-146140156D01*
X132049052Y-146161898D01*
X132049183Y-146163894D01*
X132047520Y-146165005D01*
X132046106Y-146164544D01*
X131999055Y-146125223D01*
X131930339Y-146116592D01*
X131867709Y-146146556D01*
X131860202Y-146155219D01*
X131858312Y-146155873D01*
X131856801Y-146154563D01*
X131857028Y-146152798D01*
X131865475Y-146140156D01*
X131874000Y-146097301D01*
X131874000Y-145422699D01*
X131865475Y-145379844D01*
X131850948Y-145358102D01*
X131850817Y-145356106D01*
X131852480Y-145354995D01*
X131853894Y-145355456D01*
G37*
G36*
X130353894Y-145355456D02*
G01*
X130400945Y-145394777D01*
X130469661Y-145403408D01*
X130532291Y-145373444D01*
X130539798Y-145364781D01*
X130541688Y-145364127D01*
X130543199Y-145365437D01*
X130542972Y-145367202D01*
X130534525Y-145379844D01*
X130526000Y-145422699D01*
X130526000Y-146097301D01*
X130534525Y-146140156D01*
X130549052Y-146161898D01*
X130549183Y-146163894D01*
X130547520Y-146165005D01*
X130546106Y-146164544D01*
X130499055Y-146125223D01*
X130430339Y-146116592D01*
X130367709Y-146146556D01*
X130360202Y-146155219D01*
X130358312Y-146155873D01*
X130356801Y-146154563D01*
X130357028Y-146152798D01*
X130365475Y-146140156D01*
X130374000Y-146097301D01*
X130374000Y-145422699D01*
X130365475Y-145379844D01*
X130350948Y-145358102D01*
X130350817Y-145356106D01*
X130352480Y-145354995D01*
X130353894Y-145355456D01*
G37*
G36*
X132353894Y-145355456D02*
G01*
X132400945Y-145394777D01*
X132469661Y-145403408D01*
X132532291Y-145373444D01*
X132539798Y-145364781D01*
X132541688Y-145364127D01*
X132543199Y-145365437D01*
X132542972Y-145367202D01*
X132534525Y-145379844D01*
X132526000Y-145422699D01*
X132526000Y-146097301D01*
X132534525Y-146140156D01*
X132549052Y-146161898D01*
X132549183Y-146163894D01*
X132547520Y-146165005D01*
X132546106Y-146164544D01*
X132499055Y-146125223D01*
X132430339Y-146116592D01*
X132367709Y-146146556D01*
X132360202Y-146155219D01*
X132358312Y-146155873D01*
X132356801Y-146154563D01*
X132357028Y-146152798D01*
X132365475Y-146140156D01*
X132374000Y-146097301D01*
X132374000Y-145422699D01*
X132365475Y-145379844D01*
X132350948Y-145358102D01*
X132350817Y-145356106D01*
X132352480Y-145354995D01*
X132353894Y-145355456D01*
G37*
G36*
X130853894Y-145355456D02*
G01*
X130900945Y-145394777D01*
X130969661Y-145403408D01*
X131032291Y-145373444D01*
X131039798Y-145364781D01*
X131041688Y-145364127D01*
X131043199Y-145365437D01*
X131042972Y-145367202D01*
X131034525Y-145379844D01*
X131026000Y-145422699D01*
X131026000Y-146097301D01*
X131034525Y-146140156D01*
X131049052Y-146161898D01*
X131049183Y-146163894D01*
X131047520Y-146165005D01*
X131046106Y-146164544D01*
X130999055Y-146125223D01*
X130930339Y-146116592D01*
X130867709Y-146146556D01*
X130860202Y-146155219D01*
X130858312Y-146155873D01*
X130856801Y-146154563D01*
X130857028Y-146152798D01*
X130865475Y-146140156D01*
X130874000Y-146097301D01*
X130874000Y-145422699D01*
X130865475Y-145379844D01*
X130850948Y-145358102D01*
X130850817Y-145356106D01*
X130852480Y-145354995D01*
X130853894Y-145355456D01*
G37*
G36*
X131353894Y-145355456D02*
G01*
X131400945Y-145394777D01*
X131469661Y-145403408D01*
X131532291Y-145373444D01*
X131539798Y-145364781D01*
X131541688Y-145364127D01*
X131543199Y-145365437D01*
X131542972Y-145367202D01*
X131534525Y-145379844D01*
X131526000Y-145422699D01*
X131526000Y-146097301D01*
X131534525Y-146140156D01*
X131549052Y-146161898D01*
X131549183Y-146163894D01*
X131547520Y-146165005D01*
X131546106Y-146164544D01*
X131499055Y-146125223D01*
X131430339Y-146116592D01*
X131367709Y-146146556D01*
X131360202Y-146155219D01*
X131358312Y-146155873D01*
X131356801Y-146154563D01*
X131357028Y-146152798D01*
X131365475Y-146140156D01*
X131374000Y-146097301D01*
X131374000Y-145422699D01*
X131365475Y-145379844D01*
X131350948Y-145358102D01*
X131350817Y-145356106D01*
X131352480Y-145354995D01*
X131353894Y-145355456D01*
G37*
G36*
X121610348Y-144064059D02*
G01*
X121611000Y-144065536D01*
X121611000Y-144239801D01*
X121614767Y-144258738D01*
X121625380Y-144274620D01*
X121641262Y-144285233D01*
X121660199Y-144289000D01*
X122819801Y-144289000D01*
X122838738Y-144285233D01*
X122853773Y-144275186D01*
X122855768Y-144275055D01*
X122856880Y-144276718D01*
X122856793Y-144277447D01*
X122837898Y-144337788D01*
X122856955Y-144402690D01*
X122856483Y-144404633D01*
X122854564Y-144405197D01*
X122853925Y-144404916D01*
X122838737Y-144394767D01*
X122819801Y-144391000D01*
X121660199Y-144391000D01*
X121641262Y-144394767D01*
X121625380Y-144405380D01*
X121614767Y-144421262D01*
X121611000Y-144440199D01*
X121611000Y-144796262D01*
X121610000Y-144797994D01*
X121608000Y-144797994D01*
X121607081Y-144796825D01*
X121587405Y-144729813D01*
X121535062Y-144684458D01*
X121466422Y-144674589D01*
X121419467Y-144691556D01*
X121398756Y-144704272D01*
X121396757Y-144704326D01*
X121395711Y-144702622D01*
X121396296Y-144701154D01*
X121462326Y-144635124D01*
X121511896Y-144537838D01*
X121528975Y-144430000D01*
X121511896Y-144322162D01*
X121462326Y-144224876D01*
X121399499Y-144162049D01*
X121398981Y-144160117D01*
X121400395Y-144158703D01*
X121402001Y-144158957D01*
X121416859Y-144168588D01*
X121483525Y-144188445D01*
X121550052Y-144169191D01*
X121595659Y-144116969D01*
X121607047Y-144065107D01*
X121608395Y-144063630D01*
X121610348Y-144064059D01*
G37*
G36*
X129655005Y-144462480D02*
G01*
X129654544Y-144463894D01*
X129615223Y-144510945D01*
X129606592Y-144579661D01*
X129636556Y-144642291D01*
X129645219Y-144649798D01*
X129645873Y-144651688D01*
X129644563Y-144653199D01*
X129642798Y-144652972D01*
X129630156Y-144644525D01*
X129587301Y-144636000D01*
X128912699Y-144636000D01*
X128869844Y-144644525D01*
X128848102Y-144659052D01*
X128846106Y-144659183D01*
X128844995Y-144657520D01*
X128845456Y-144656106D01*
X128884777Y-144609055D01*
X128893408Y-144540339D01*
X128863444Y-144477709D01*
X128854781Y-144470202D01*
X128854127Y-144468312D01*
X128855437Y-144466801D01*
X128857202Y-144467028D01*
X128869844Y-144475475D01*
X128912699Y-144484000D01*
X129587301Y-144484000D01*
X129630156Y-144475475D01*
X129651898Y-144460948D01*
X129653894Y-144460817D01*
X129655005Y-144462480D01*
G37*
G36*
X134555005Y-144462480D02*
G01*
X134554544Y-144463894D01*
X134515223Y-144510945D01*
X134506592Y-144579661D01*
X134536556Y-144642291D01*
X134545219Y-144649798D01*
X134545873Y-144651688D01*
X134544563Y-144653199D01*
X134542798Y-144652972D01*
X134530156Y-144644525D01*
X134487301Y-144636000D01*
X133812699Y-144636000D01*
X133769844Y-144644525D01*
X133748102Y-144659052D01*
X133746106Y-144659183D01*
X133744995Y-144657520D01*
X133745456Y-144656106D01*
X133784777Y-144609055D01*
X133793408Y-144540339D01*
X133763444Y-144477709D01*
X133754781Y-144470202D01*
X133754127Y-144468312D01*
X133755437Y-144466801D01*
X133757202Y-144467028D01*
X133769844Y-144475475D01*
X133812699Y-144484000D01*
X134487301Y-144484000D01*
X134530156Y-144475475D01*
X134551898Y-144460948D01*
X134553894Y-144460817D01*
X134555005Y-144462480D01*
G37*
G36*
X129655005Y-143962480D02*
G01*
X129654544Y-143963894D01*
X129615223Y-144010945D01*
X129606592Y-144079661D01*
X129636556Y-144142291D01*
X129645219Y-144149798D01*
X129645873Y-144151688D01*
X129644563Y-144153199D01*
X129642798Y-144152972D01*
X129630156Y-144144525D01*
X129587301Y-144136000D01*
X128912699Y-144136000D01*
X128869844Y-144144525D01*
X128848102Y-144159052D01*
X128846106Y-144159183D01*
X128844995Y-144157520D01*
X128845456Y-144156106D01*
X128884777Y-144109055D01*
X128893408Y-144040339D01*
X128863444Y-143977709D01*
X128854781Y-143970202D01*
X128854127Y-143968312D01*
X128855437Y-143966801D01*
X128857202Y-143967028D01*
X128869844Y-143975475D01*
X128912699Y-143984000D01*
X129587301Y-143984000D01*
X129630156Y-143975475D01*
X129651898Y-143960948D01*
X129653894Y-143960817D01*
X129655005Y-143962480D01*
G37*
G36*
X134555005Y-143962480D02*
G01*
X134554544Y-143963894D01*
X134515223Y-144010945D01*
X134506592Y-144079661D01*
X134536556Y-144142291D01*
X134545219Y-144149798D01*
X134545873Y-144151688D01*
X134544563Y-144153199D01*
X134542798Y-144152972D01*
X134530156Y-144144525D01*
X134487301Y-144136000D01*
X133812699Y-144136000D01*
X133769844Y-144144525D01*
X133748102Y-144159052D01*
X133746106Y-144159183D01*
X133744995Y-144157520D01*
X133745456Y-144156106D01*
X133784777Y-144109055D01*
X133793408Y-144040339D01*
X133763444Y-143977709D01*
X133754781Y-143970202D01*
X133754127Y-143968312D01*
X133755437Y-143966801D01*
X133757202Y-143967028D01*
X133769844Y-143975475D01*
X133812699Y-143984000D01*
X134487301Y-143984000D01*
X134530156Y-143975475D01*
X134551898Y-143960948D01*
X134553894Y-143960817D01*
X134555005Y-143962480D01*
G37*
G36*
X129655005Y-143462480D02*
G01*
X129654544Y-143463894D01*
X129615223Y-143510945D01*
X129606592Y-143579661D01*
X129636556Y-143642291D01*
X129645219Y-143649798D01*
X129645873Y-143651688D01*
X129644563Y-143653199D01*
X129642798Y-143652972D01*
X129630156Y-143644525D01*
X129587301Y-143636000D01*
X128912699Y-143636000D01*
X128869844Y-143644525D01*
X128848102Y-143659052D01*
X128846106Y-143659183D01*
X128844995Y-143657520D01*
X128845456Y-143656106D01*
X128884777Y-143609055D01*
X128893408Y-143540339D01*
X128863444Y-143477709D01*
X128854781Y-143470202D01*
X128854127Y-143468312D01*
X128855437Y-143466801D01*
X128857202Y-143467028D01*
X128869844Y-143475475D01*
X128912699Y-143484000D01*
X129587301Y-143484000D01*
X129630156Y-143475475D01*
X129651898Y-143460948D01*
X129653894Y-143460817D01*
X129655005Y-143462480D01*
G37*
G36*
X134555005Y-143462480D02*
G01*
X134554544Y-143463894D01*
X134515223Y-143510945D01*
X134506592Y-143579661D01*
X134536556Y-143642291D01*
X134545219Y-143649798D01*
X134545873Y-143651688D01*
X134544563Y-143653199D01*
X134542798Y-143652972D01*
X134530156Y-143644525D01*
X134487301Y-143636000D01*
X133812699Y-143636000D01*
X133769844Y-143644525D01*
X133748102Y-143659052D01*
X133746106Y-143659183D01*
X133744995Y-143657520D01*
X133745456Y-143656106D01*
X133784777Y-143609055D01*
X133793408Y-143540339D01*
X133763444Y-143477709D01*
X133754781Y-143470202D01*
X133754127Y-143468312D01*
X133755437Y-143466801D01*
X133757202Y-143467028D01*
X133769844Y-143475475D01*
X133812699Y-143484000D01*
X134487301Y-143484000D01*
X134530156Y-143475475D01*
X134551898Y-143460948D01*
X134553894Y-143460817D01*
X134555005Y-143462480D01*
G37*
G36*
X121626075Y-143475084D02*
G01*
X121641263Y-143485233D01*
X121660199Y-143489000D01*
X122819801Y-143489000D01*
X122838738Y-143485233D01*
X122853773Y-143475186D01*
X122855768Y-143475055D01*
X122856880Y-143476718D01*
X122856793Y-143477447D01*
X122837898Y-143537788D01*
X122856955Y-143602690D01*
X122856483Y-143604633D01*
X122854564Y-143605197D01*
X122853925Y-143604916D01*
X122838737Y-143594767D01*
X122819801Y-143591000D01*
X121660199Y-143591000D01*
X121641262Y-143594767D01*
X121626227Y-143604814D01*
X121624232Y-143604945D01*
X121623120Y-143603282D01*
X121623207Y-143602553D01*
X121642102Y-143542212D01*
X121623045Y-143477310D01*
X121623517Y-143475367D01*
X121625436Y-143474803D01*
X121626075Y-143475084D01*
G37*
G36*
X129655005Y-142962480D02*
G01*
X129654544Y-142963894D01*
X129615223Y-143010945D01*
X129606592Y-143079661D01*
X129636556Y-143142291D01*
X129645219Y-143149798D01*
X129645873Y-143151688D01*
X129644563Y-143153199D01*
X129642798Y-143152972D01*
X129630156Y-143144525D01*
X129587301Y-143136000D01*
X128912699Y-143136000D01*
X128869844Y-143144525D01*
X128848102Y-143159052D01*
X128846106Y-143159183D01*
X128844995Y-143157520D01*
X128845456Y-143156106D01*
X128884777Y-143109055D01*
X128893408Y-143040339D01*
X128863444Y-142977709D01*
X128854781Y-142970202D01*
X128854127Y-142968312D01*
X128855437Y-142966801D01*
X128857202Y-142967028D01*
X128869844Y-142975475D01*
X128912699Y-142984000D01*
X129587301Y-142984000D01*
X129630156Y-142975475D01*
X129651898Y-142960948D01*
X129653894Y-142960817D01*
X129655005Y-142962480D01*
G37*
G36*
X134555005Y-142962480D02*
G01*
X134554544Y-142963894D01*
X134515223Y-143010945D01*
X134506592Y-143079661D01*
X134536556Y-143142291D01*
X134545219Y-143149798D01*
X134545873Y-143151688D01*
X134544563Y-143153199D01*
X134542798Y-143152972D01*
X134530156Y-143144525D01*
X134487301Y-143136000D01*
X133812699Y-143136000D01*
X133769844Y-143144525D01*
X133748102Y-143159052D01*
X133746106Y-143159183D01*
X133744995Y-143157520D01*
X133745456Y-143156106D01*
X133784777Y-143109055D01*
X133793408Y-143040339D01*
X133763444Y-142977709D01*
X133754781Y-142970202D01*
X133754127Y-142968312D01*
X133755437Y-142966801D01*
X133757202Y-142967028D01*
X133769844Y-142975475D01*
X133812699Y-142984000D01*
X134487301Y-142984000D01*
X134530156Y-142975475D01*
X134551898Y-142960948D01*
X134553894Y-142960817D01*
X134555005Y-142962480D01*
G37*
G36*
X121626075Y-142975084D02*
G01*
X121641263Y-142985233D01*
X121660199Y-142989000D01*
X122819801Y-142989000D01*
X122838738Y-142985233D01*
X122853773Y-142975186D01*
X122855768Y-142975055D01*
X122856880Y-142976718D01*
X122856793Y-142977447D01*
X122837898Y-143037788D01*
X122856955Y-143102690D01*
X122856483Y-143104633D01*
X122854564Y-143105197D01*
X122853925Y-143104916D01*
X122838737Y-143094767D01*
X122819801Y-143091000D01*
X121660199Y-143091000D01*
X121641262Y-143094767D01*
X121626227Y-143104814D01*
X121624232Y-143104945D01*
X121623120Y-143103282D01*
X121623207Y-143102553D01*
X121642102Y-143042212D01*
X121623045Y-142977310D01*
X121623517Y-142975367D01*
X121625436Y-142974803D01*
X121626075Y-142975084D01*
G37*
G36*
X129655005Y-142462480D02*
G01*
X129654544Y-142463894D01*
X129615223Y-142510945D01*
X129606592Y-142579661D01*
X129636556Y-142642291D01*
X129645219Y-142649798D01*
X129645873Y-142651688D01*
X129644563Y-142653199D01*
X129642798Y-142652972D01*
X129630156Y-142644525D01*
X129587301Y-142636000D01*
X128912699Y-142636000D01*
X128869844Y-142644525D01*
X128848102Y-142659052D01*
X128846106Y-142659183D01*
X128844995Y-142657520D01*
X128845456Y-142656106D01*
X128884777Y-142609055D01*
X128893408Y-142540339D01*
X128863444Y-142477709D01*
X128854781Y-142470202D01*
X128854127Y-142468312D01*
X128855437Y-142466801D01*
X128857202Y-142467028D01*
X128869844Y-142475475D01*
X128912699Y-142484000D01*
X129587301Y-142484000D01*
X129630156Y-142475475D01*
X129651898Y-142460948D01*
X129653894Y-142460817D01*
X129655005Y-142462480D01*
G37*
G36*
X134555005Y-142462480D02*
G01*
X134554544Y-142463894D01*
X134515223Y-142510945D01*
X134506592Y-142579661D01*
X134536556Y-142642291D01*
X134545219Y-142649798D01*
X134545873Y-142651688D01*
X134544563Y-142653199D01*
X134542798Y-142652972D01*
X134530156Y-142644525D01*
X134487301Y-142636000D01*
X133812699Y-142636000D01*
X133769844Y-142644525D01*
X133748102Y-142659052D01*
X133746106Y-142659183D01*
X133744995Y-142657520D01*
X133745456Y-142656106D01*
X133784777Y-142609055D01*
X133793408Y-142540339D01*
X133763444Y-142477709D01*
X133754781Y-142470202D01*
X133754127Y-142468312D01*
X133755437Y-142466801D01*
X133757202Y-142467028D01*
X133769844Y-142475475D01*
X133812699Y-142484000D01*
X134487301Y-142484000D01*
X134530156Y-142475475D01*
X134551898Y-142460948D01*
X134553894Y-142460817D01*
X134555005Y-142462480D01*
G37*
G36*
X121626075Y-142475084D02*
G01*
X121641263Y-142485233D01*
X121660199Y-142489000D01*
X122819801Y-142489000D01*
X122838738Y-142485233D01*
X122853773Y-142475186D01*
X122855768Y-142475055D01*
X122856880Y-142476718D01*
X122856793Y-142477447D01*
X122837898Y-142537788D01*
X122856955Y-142602690D01*
X122856483Y-142604633D01*
X122854564Y-142605197D01*
X122853925Y-142604916D01*
X122838737Y-142594767D01*
X122819801Y-142591000D01*
X121660199Y-142591000D01*
X121641262Y-142594767D01*
X121626227Y-142604814D01*
X121624232Y-142604945D01*
X121623120Y-142603282D01*
X121623207Y-142602553D01*
X121642102Y-142542212D01*
X121623045Y-142477310D01*
X121623517Y-142475367D01*
X121625436Y-142474803D01*
X121626075Y-142475084D01*
G37*
G36*
X134555005Y-141962480D02*
G01*
X134554544Y-141963894D01*
X134515223Y-142010945D01*
X134506592Y-142079661D01*
X134536556Y-142142291D01*
X134545219Y-142149798D01*
X134545873Y-142151688D01*
X134544563Y-142153199D01*
X134542798Y-142152972D01*
X134530156Y-142144525D01*
X134487301Y-142136000D01*
X133812699Y-142136000D01*
X133769844Y-142144525D01*
X133748102Y-142159052D01*
X133746106Y-142159183D01*
X133744995Y-142157520D01*
X133745456Y-142156106D01*
X133784777Y-142109055D01*
X133793408Y-142040339D01*
X133763444Y-141977709D01*
X133754781Y-141970202D01*
X133754127Y-141968312D01*
X133755437Y-141966801D01*
X133757202Y-141967028D01*
X133769844Y-141975475D01*
X133812699Y-141984000D01*
X134487301Y-141984000D01*
X134530156Y-141975475D01*
X134551898Y-141960948D01*
X134553894Y-141960817D01*
X134555005Y-141962480D01*
G37*
G36*
X129655005Y-141962480D02*
G01*
X129654544Y-141963894D01*
X129615223Y-142010945D01*
X129606592Y-142079661D01*
X129636556Y-142142291D01*
X129645219Y-142149798D01*
X129645873Y-142151688D01*
X129644563Y-142153199D01*
X129642798Y-142152972D01*
X129630156Y-142144525D01*
X129587301Y-142136000D01*
X128912699Y-142136000D01*
X128869844Y-142144525D01*
X128848102Y-142159052D01*
X128846106Y-142159183D01*
X128844995Y-142157520D01*
X128845456Y-142156106D01*
X128884777Y-142109055D01*
X128893408Y-142040339D01*
X128863444Y-141977709D01*
X128854781Y-141970202D01*
X128854127Y-141968312D01*
X128855437Y-141966801D01*
X128857202Y-141967028D01*
X128869844Y-141975475D01*
X128912699Y-141984000D01*
X129587301Y-141984000D01*
X129630156Y-141975475D01*
X129651898Y-141960948D01*
X129653894Y-141960817D01*
X129655005Y-141962480D01*
G37*
G36*
X121626075Y-141975084D02*
G01*
X121641263Y-141985233D01*
X121660199Y-141989000D01*
X122819801Y-141989000D01*
X122838738Y-141985233D01*
X122853773Y-141975186D01*
X122855768Y-141975055D01*
X122856880Y-141976718D01*
X122856793Y-141977447D01*
X122837898Y-142037788D01*
X122856955Y-142102690D01*
X122856483Y-142104633D01*
X122854564Y-142105197D01*
X122853925Y-142104916D01*
X122838737Y-142094767D01*
X122819801Y-142091000D01*
X121660199Y-142091000D01*
X121641262Y-142094767D01*
X121626227Y-142104814D01*
X121624232Y-142104945D01*
X121623120Y-142103282D01*
X121623207Y-142102553D01*
X121642102Y-142042212D01*
X121623045Y-141977310D01*
X121623517Y-141975367D01*
X121625436Y-141974803D01*
X121626075Y-141975084D01*
G37*
G36*
X121626075Y-141475084D02*
G01*
X121641263Y-141485233D01*
X121660199Y-141489000D01*
X122819801Y-141489000D01*
X122838738Y-141485233D01*
X122853773Y-141475186D01*
X122855768Y-141475055D01*
X122856880Y-141476718D01*
X122856793Y-141477447D01*
X122837898Y-141537788D01*
X122856955Y-141602690D01*
X122856483Y-141604633D01*
X122854564Y-141605197D01*
X122853925Y-141604916D01*
X122838737Y-141594767D01*
X122819801Y-141591000D01*
X121660199Y-141591000D01*
X121641262Y-141594767D01*
X121626227Y-141604814D01*
X121624232Y-141604945D01*
X121623120Y-141603282D01*
X121623207Y-141602553D01*
X121642102Y-141542212D01*
X121623045Y-141477310D01*
X121623517Y-141475367D01*
X121625436Y-141474803D01*
X121626075Y-141475084D01*
G37*
G36*
X143398693Y-139709460D02*
G01*
X143411425Y-139717967D01*
X143477789Y-139738747D01*
X143548589Y-139717958D01*
X143561307Y-139709460D01*
X143563303Y-139709329D01*
X143564414Y-139710992D01*
X143564081Y-139712234D01*
X143540476Y-139747561D01*
X143531000Y-139795199D01*
X143531000Y-141194801D01*
X143540476Y-141242439D01*
X143564081Y-141277766D01*
X143564212Y-141279762D01*
X143562549Y-141280873D01*
X143561307Y-141280540D01*
X143548575Y-141272033D01*
X143482211Y-141251253D01*
X143411411Y-141272042D01*
X143398693Y-141280540D01*
X143396697Y-141280671D01*
X143395586Y-141279008D01*
X143395919Y-141277766D01*
X143419524Y-141242439D01*
X143429000Y-141194801D01*
X143429000Y-139795199D01*
X143419524Y-139747561D01*
X143395919Y-139712234D01*
X143395788Y-139710238D01*
X143397451Y-139709127D01*
X143398693Y-139709460D01*
G37*
G36*
X141398693Y-139709460D02*
G01*
X141411425Y-139717967D01*
X141477789Y-139738747D01*
X141548589Y-139717958D01*
X141561307Y-139709460D01*
X141563303Y-139709329D01*
X141564414Y-139710992D01*
X141564081Y-139712234D01*
X141540476Y-139747561D01*
X141531000Y-139795199D01*
X141531000Y-141194801D01*
X141540476Y-141242439D01*
X141564081Y-141277766D01*
X141564212Y-141279762D01*
X141562549Y-141280873D01*
X141561307Y-141280540D01*
X141548575Y-141272033D01*
X141482211Y-141251253D01*
X141411411Y-141272042D01*
X141398693Y-141280540D01*
X141396697Y-141280671D01*
X141395586Y-141279008D01*
X141395919Y-141277766D01*
X141419524Y-141242439D01*
X141429000Y-141194801D01*
X141429000Y-139795199D01*
X141419524Y-139747561D01*
X141395919Y-139712234D01*
X141395788Y-139710238D01*
X141397451Y-139709127D01*
X141398693Y-139709460D01*
G37*
G36*
X143898693Y-139709460D02*
G01*
X143911425Y-139717967D01*
X143977789Y-139738747D01*
X144048589Y-139717958D01*
X144061307Y-139709460D01*
X144063303Y-139709329D01*
X144064414Y-139710992D01*
X144064081Y-139712234D01*
X144040476Y-139747561D01*
X144031000Y-139795199D01*
X144031000Y-141194801D01*
X144040476Y-141242439D01*
X144064081Y-141277766D01*
X144064212Y-141279762D01*
X144062549Y-141280873D01*
X144061307Y-141280540D01*
X144048575Y-141272033D01*
X143982211Y-141251253D01*
X143911411Y-141272042D01*
X143898693Y-141280540D01*
X143896697Y-141280671D01*
X143895586Y-141279008D01*
X143895919Y-141277766D01*
X143919524Y-141242439D01*
X143929000Y-141194801D01*
X143929000Y-139795199D01*
X143919524Y-139747561D01*
X143895919Y-139712234D01*
X143895788Y-139710238D01*
X143897451Y-139709127D01*
X143898693Y-139709460D01*
G37*
G36*
X140898693Y-139709460D02*
G01*
X140911425Y-139717967D01*
X140977789Y-139738747D01*
X141048589Y-139717958D01*
X141061307Y-139709460D01*
X141063303Y-139709329D01*
X141064414Y-139710992D01*
X141064081Y-139712234D01*
X141040476Y-139747561D01*
X141031000Y-139795199D01*
X141031000Y-141194801D01*
X141040476Y-141242439D01*
X141064081Y-141277766D01*
X141064212Y-141279762D01*
X141062549Y-141280873D01*
X141061307Y-141280540D01*
X141048575Y-141272033D01*
X140982211Y-141251253D01*
X140911411Y-141272042D01*
X140898693Y-141280540D01*
X140896697Y-141280671D01*
X140895586Y-141279008D01*
X140895919Y-141277766D01*
X140919524Y-141242439D01*
X140929000Y-141194801D01*
X140929000Y-139795199D01*
X140919524Y-139747561D01*
X140895919Y-139712234D01*
X140895788Y-139710238D01*
X140897451Y-139709127D01*
X140898693Y-139709460D01*
G37*
G36*
X146398693Y-139709460D02*
G01*
X146411425Y-139717967D01*
X146477789Y-139738747D01*
X146548589Y-139717958D01*
X146561307Y-139709460D01*
X146563303Y-139709329D01*
X146564414Y-139710992D01*
X146564081Y-139712234D01*
X146540476Y-139747561D01*
X146531000Y-139795199D01*
X146531000Y-141194801D01*
X146540476Y-141242439D01*
X146564081Y-141277766D01*
X146564212Y-141279762D01*
X146562549Y-141280873D01*
X146561307Y-141280540D01*
X146548575Y-141272033D01*
X146482211Y-141251253D01*
X146411411Y-141272042D01*
X146398693Y-141280540D01*
X146396697Y-141280671D01*
X146395586Y-141279008D01*
X146395919Y-141277766D01*
X146419524Y-141242439D01*
X146429000Y-141194801D01*
X146429000Y-139795199D01*
X146419524Y-139747561D01*
X146395919Y-139712234D01*
X146395788Y-139710238D01*
X146397451Y-139709127D01*
X146398693Y-139709460D01*
G37*
G36*
X141898693Y-139709460D02*
G01*
X141911425Y-139717967D01*
X141977789Y-139738747D01*
X142048589Y-139717958D01*
X142061307Y-139709460D01*
X142063303Y-139709329D01*
X142064414Y-139710992D01*
X142064081Y-139712234D01*
X142040476Y-139747561D01*
X142031000Y-139795199D01*
X142031000Y-141194801D01*
X142040476Y-141242439D01*
X142064081Y-141277766D01*
X142064212Y-141279762D01*
X142062549Y-141280873D01*
X142061307Y-141280540D01*
X142048575Y-141272033D01*
X141982211Y-141251253D01*
X141911411Y-141272042D01*
X141898693Y-141280540D01*
X141896697Y-141280671D01*
X141895586Y-141279008D01*
X141895919Y-141277766D01*
X141919524Y-141242439D01*
X141929000Y-141194801D01*
X141929000Y-139795199D01*
X141919524Y-139747561D01*
X141895919Y-139712234D01*
X141895788Y-139710238D01*
X141897451Y-139709127D01*
X141898693Y-139709460D01*
G37*
G36*
X145898693Y-139709460D02*
G01*
X145911425Y-139717967D01*
X145977789Y-139738747D01*
X146048589Y-139717958D01*
X146061307Y-139709460D01*
X146063303Y-139709329D01*
X146064414Y-139710992D01*
X146064081Y-139712234D01*
X146040476Y-139747561D01*
X146031000Y-139795199D01*
X146031000Y-141194801D01*
X146040476Y-141242439D01*
X146064081Y-141277766D01*
X146064212Y-141279762D01*
X146062549Y-141280873D01*
X146061307Y-141280540D01*
X146048575Y-141272033D01*
X145982211Y-141251253D01*
X145911411Y-141272042D01*
X145898693Y-141280540D01*
X145896697Y-141280671D01*
X145895586Y-141279008D01*
X145895919Y-141277766D01*
X145919524Y-141242439D01*
X145929000Y-141194801D01*
X145929000Y-139795199D01*
X145919524Y-139747561D01*
X145895919Y-139712234D01*
X145895788Y-139710238D01*
X145897451Y-139709127D01*
X145898693Y-139709460D01*
G37*
G36*
X139398693Y-139709460D02*
G01*
X139411425Y-139717967D01*
X139477789Y-139738747D01*
X139548589Y-139717958D01*
X139561307Y-139709460D01*
X139563303Y-139709329D01*
X139564414Y-139710992D01*
X139564081Y-139712234D01*
X139540476Y-139747561D01*
X139531000Y-139795199D01*
X139531000Y-141194801D01*
X139540476Y-141242439D01*
X139564081Y-141277766D01*
X139564212Y-141279762D01*
X139562549Y-141280873D01*
X139561307Y-141280540D01*
X139548575Y-141272033D01*
X139482211Y-141251253D01*
X139411411Y-141272042D01*
X139398693Y-141280540D01*
X139396697Y-141280671D01*
X139395586Y-141279008D01*
X139395919Y-141277766D01*
X139419524Y-141242439D01*
X139429000Y-141194801D01*
X139429000Y-139795199D01*
X139419524Y-139747561D01*
X139395919Y-139712234D01*
X139395788Y-139710238D01*
X139397451Y-139709127D01*
X139398693Y-139709460D01*
G37*
G36*
X142398693Y-139709460D02*
G01*
X142411425Y-139717967D01*
X142477789Y-139738747D01*
X142548589Y-139717958D01*
X142561307Y-139709460D01*
X142563303Y-139709329D01*
X142564414Y-139710992D01*
X142564081Y-139712234D01*
X142540476Y-139747561D01*
X142531000Y-139795199D01*
X142531000Y-141194801D01*
X142540476Y-141242439D01*
X142564081Y-141277766D01*
X142564212Y-141279762D01*
X142562549Y-141280873D01*
X142561307Y-141280540D01*
X142548575Y-141272033D01*
X142482211Y-141251253D01*
X142411411Y-141272042D01*
X142398693Y-141280540D01*
X142396697Y-141280671D01*
X142395586Y-141279008D01*
X142395919Y-141277766D01*
X142419524Y-141242439D01*
X142429000Y-141194801D01*
X142429000Y-139795199D01*
X142419524Y-139747561D01*
X142395919Y-139712234D01*
X142395788Y-139710238D01*
X142397451Y-139709127D01*
X142398693Y-139709460D01*
G37*
G36*
X139898693Y-139709460D02*
G01*
X139911425Y-139717967D01*
X139977789Y-139738747D01*
X140048589Y-139717958D01*
X140061307Y-139709460D01*
X140063303Y-139709329D01*
X140064414Y-139710992D01*
X140064081Y-139712234D01*
X140040476Y-139747561D01*
X140031000Y-139795199D01*
X140031000Y-141194801D01*
X140040476Y-141242439D01*
X140064081Y-141277766D01*
X140064212Y-141279762D01*
X140062549Y-141280873D01*
X140061307Y-141280540D01*
X140048575Y-141272033D01*
X139982211Y-141251253D01*
X139911411Y-141272042D01*
X139898693Y-141280540D01*
X139896697Y-141280671D01*
X139895586Y-141279008D01*
X139895919Y-141277766D01*
X139919524Y-141242439D01*
X139929000Y-141194801D01*
X139929000Y-139795199D01*
X139919524Y-139747561D01*
X139895919Y-139712234D01*
X139895788Y-139710238D01*
X139897451Y-139709127D01*
X139898693Y-139709460D01*
G37*
G36*
X145398693Y-139709460D02*
G01*
X145411425Y-139717967D01*
X145477789Y-139738747D01*
X145548589Y-139717958D01*
X145561307Y-139709460D01*
X145563303Y-139709329D01*
X145564414Y-139710992D01*
X145564081Y-139712234D01*
X145540476Y-139747561D01*
X145531000Y-139795199D01*
X145531000Y-141194801D01*
X145540476Y-141242439D01*
X145564081Y-141277766D01*
X145564212Y-141279762D01*
X145562549Y-141280873D01*
X145561307Y-141280540D01*
X145548575Y-141272033D01*
X145482211Y-141251253D01*
X145411411Y-141272042D01*
X145398693Y-141280540D01*
X145396697Y-141280671D01*
X145395586Y-141279008D01*
X145395919Y-141277766D01*
X145419524Y-141242439D01*
X145429000Y-141194801D01*
X145429000Y-139795199D01*
X145419524Y-139747561D01*
X145395919Y-139712234D01*
X145395788Y-139710238D01*
X145397451Y-139709127D01*
X145398693Y-139709460D01*
G37*
G36*
X144898693Y-139709460D02*
G01*
X144911425Y-139717967D01*
X144977789Y-139738747D01*
X145048589Y-139717958D01*
X145061307Y-139709460D01*
X145063303Y-139709329D01*
X145064414Y-139710992D01*
X145064081Y-139712234D01*
X145040476Y-139747561D01*
X145031000Y-139795199D01*
X145031000Y-141194801D01*
X145040476Y-141242439D01*
X145064081Y-141277766D01*
X145064212Y-141279762D01*
X145062549Y-141280873D01*
X145061307Y-141280540D01*
X145048575Y-141272033D01*
X144982211Y-141251253D01*
X144911411Y-141272042D01*
X144898693Y-141280540D01*
X144896697Y-141280671D01*
X144895586Y-141279008D01*
X144895919Y-141277766D01*
X144919524Y-141242439D01*
X144929000Y-141194801D01*
X144929000Y-139795199D01*
X144919524Y-139747561D01*
X144895919Y-139712234D01*
X144895788Y-139710238D01*
X144897451Y-139709127D01*
X144898693Y-139709460D01*
G37*
G36*
X142898693Y-139709460D02*
G01*
X142911425Y-139717967D01*
X142977789Y-139738747D01*
X143048589Y-139717958D01*
X143061307Y-139709460D01*
X143063303Y-139709329D01*
X143064414Y-139710992D01*
X143064081Y-139712234D01*
X143040476Y-139747561D01*
X143031000Y-139795199D01*
X143031000Y-141194801D01*
X143040476Y-141242439D01*
X143064081Y-141277766D01*
X143064212Y-141279762D01*
X143062549Y-141280873D01*
X143061307Y-141280540D01*
X143048575Y-141272033D01*
X142982211Y-141251253D01*
X142911411Y-141272042D01*
X142898693Y-141280540D01*
X142896697Y-141280671D01*
X142895586Y-141279008D01*
X142895919Y-141277766D01*
X142919524Y-141242439D01*
X142929000Y-141194801D01*
X142929000Y-139795199D01*
X142919524Y-139747561D01*
X142895919Y-139712234D01*
X142895788Y-139710238D01*
X142897451Y-139709127D01*
X142898693Y-139709460D01*
G37*
G36*
X140398693Y-139709460D02*
G01*
X140411425Y-139717967D01*
X140477789Y-139738747D01*
X140548589Y-139717958D01*
X140561307Y-139709460D01*
X140563303Y-139709329D01*
X140564414Y-139710992D01*
X140564081Y-139712234D01*
X140540476Y-139747561D01*
X140531000Y-139795199D01*
X140531000Y-141194801D01*
X140540476Y-141242439D01*
X140564081Y-141277766D01*
X140564212Y-141279762D01*
X140562549Y-141280873D01*
X140561307Y-141280540D01*
X140548575Y-141272033D01*
X140482211Y-141251253D01*
X140411411Y-141272042D01*
X140398693Y-141280540D01*
X140396697Y-141280671D01*
X140395586Y-141279008D01*
X140395919Y-141277766D01*
X140419524Y-141242439D01*
X140429000Y-141194801D01*
X140429000Y-139795199D01*
X140419524Y-139747561D01*
X140395919Y-139712234D01*
X140395788Y-139710238D01*
X140397451Y-139709127D01*
X140398693Y-139709460D01*
G37*
G36*
X144398693Y-139709460D02*
G01*
X144411425Y-139717967D01*
X144477789Y-139738747D01*
X144548589Y-139717958D01*
X144561307Y-139709460D01*
X144563303Y-139709329D01*
X144564414Y-139710992D01*
X144564081Y-139712234D01*
X144540476Y-139747561D01*
X144531000Y-139795199D01*
X144531000Y-141194801D01*
X144540476Y-141242439D01*
X144564081Y-141277766D01*
X144564212Y-141279762D01*
X144562549Y-141280873D01*
X144561307Y-141280540D01*
X144548575Y-141272033D01*
X144482211Y-141251253D01*
X144411411Y-141272042D01*
X144398693Y-141280540D01*
X144396697Y-141280671D01*
X144395586Y-141279008D01*
X144395919Y-141277766D01*
X144419524Y-141242439D01*
X144429000Y-141194801D01*
X144429000Y-139795199D01*
X144419524Y-139747561D01*
X144395919Y-139712234D01*
X144395788Y-139710238D01*
X144397451Y-139709127D01*
X144398693Y-139709460D01*
G37*
G36*
X131353894Y-140455456D02*
G01*
X131400945Y-140494777D01*
X131469661Y-140503408D01*
X131532291Y-140473444D01*
X131539798Y-140464781D01*
X131541688Y-140464127D01*
X131543199Y-140465437D01*
X131542972Y-140467202D01*
X131534525Y-140479844D01*
X131526000Y-140522699D01*
X131526000Y-141197301D01*
X131534525Y-141240156D01*
X131549052Y-141261898D01*
X131549183Y-141263894D01*
X131547520Y-141265005D01*
X131546106Y-141264544D01*
X131499055Y-141225223D01*
X131430339Y-141216592D01*
X131367709Y-141246556D01*
X131360202Y-141255219D01*
X131358312Y-141255873D01*
X131356801Y-141254563D01*
X131357028Y-141252798D01*
X131365475Y-141240156D01*
X131374000Y-141197301D01*
X131374000Y-140522699D01*
X131365475Y-140479844D01*
X131350948Y-140458102D01*
X131350817Y-140456106D01*
X131352480Y-140454995D01*
X131353894Y-140455456D01*
G37*
G36*
X131853894Y-140455456D02*
G01*
X131900945Y-140494777D01*
X131969661Y-140503408D01*
X132032291Y-140473444D01*
X132039798Y-140464781D01*
X132041688Y-140464127D01*
X132043199Y-140465437D01*
X132042972Y-140467202D01*
X132034525Y-140479844D01*
X132026000Y-140522699D01*
X132026000Y-141197301D01*
X132034525Y-141240156D01*
X132049052Y-141261898D01*
X132049183Y-141263894D01*
X132047520Y-141265005D01*
X132046106Y-141264544D01*
X131999055Y-141225223D01*
X131930339Y-141216592D01*
X131867709Y-141246556D01*
X131860202Y-141255219D01*
X131858312Y-141255873D01*
X131856801Y-141254563D01*
X131857028Y-141252798D01*
X131865475Y-141240156D01*
X131874000Y-141197301D01*
X131874000Y-140522699D01*
X131865475Y-140479844D01*
X131850948Y-140458102D01*
X131850817Y-140456106D01*
X131852480Y-140454995D01*
X131853894Y-140455456D01*
G37*
G36*
X132853894Y-140455456D02*
G01*
X132900945Y-140494777D01*
X132969661Y-140503408D01*
X133032291Y-140473444D01*
X133039798Y-140464781D01*
X133041688Y-140464127D01*
X133043199Y-140465437D01*
X133042972Y-140467202D01*
X133034525Y-140479844D01*
X133026000Y-140522699D01*
X133026000Y-141197301D01*
X133034525Y-141240156D01*
X133049052Y-141261898D01*
X133049183Y-141263894D01*
X133047520Y-141265005D01*
X133046106Y-141264544D01*
X132999055Y-141225223D01*
X132930339Y-141216592D01*
X132867709Y-141246556D01*
X132860202Y-141255219D01*
X132858312Y-141255873D01*
X132856801Y-141254563D01*
X132857028Y-141252798D01*
X132865475Y-141240156D01*
X132874000Y-141197301D01*
X132874000Y-140522699D01*
X132865475Y-140479844D01*
X132850948Y-140458102D01*
X132850817Y-140456106D01*
X132852480Y-140454995D01*
X132853894Y-140455456D01*
G37*
G36*
X130853894Y-140455456D02*
G01*
X130900945Y-140494777D01*
X130969661Y-140503408D01*
X131032291Y-140473444D01*
X131039798Y-140464781D01*
X131041688Y-140464127D01*
X131043199Y-140465437D01*
X131042972Y-140467202D01*
X131034525Y-140479844D01*
X131026000Y-140522699D01*
X131026000Y-141197301D01*
X131034525Y-141240156D01*
X131049052Y-141261898D01*
X131049183Y-141263894D01*
X131047520Y-141265005D01*
X131046106Y-141264544D01*
X130999055Y-141225223D01*
X130930339Y-141216592D01*
X130867709Y-141246556D01*
X130860202Y-141255219D01*
X130858312Y-141255873D01*
X130856801Y-141254563D01*
X130857028Y-141252798D01*
X130865475Y-141240156D01*
X130874000Y-141197301D01*
X130874000Y-140522699D01*
X130865475Y-140479844D01*
X130850948Y-140458102D01*
X130850817Y-140456106D01*
X130852480Y-140454995D01*
X130853894Y-140455456D01*
G37*
G36*
X130353894Y-140455456D02*
G01*
X130400945Y-140494777D01*
X130469661Y-140503408D01*
X130532291Y-140473444D01*
X130539798Y-140464781D01*
X130541688Y-140464127D01*
X130543199Y-140465437D01*
X130542972Y-140467202D01*
X130534525Y-140479844D01*
X130526000Y-140522699D01*
X130526000Y-141197301D01*
X130534525Y-141240156D01*
X130549052Y-141261898D01*
X130549183Y-141263894D01*
X130547520Y-141265005D01*
X130546106Y-141264544D01*
X130499055Y-141225223D01*
X130430339Y-141216592D01*
X130367709Y-141246556D01*
X130360202Y-141255219D01*
X130358312Y-141255873D01*
X130356801Y-141254563D01*
X130357028Y-141252798D01*
X130365475Y-141240156D01*
X130374000Y-141197301D01*
X130374000Y-140522699D01*
X130365475Y-140479844D01*
X130350948Y-140458102D01*
X130350817Y-140456106D01*
X130352480Y-140454995D01*
X130353894Y-140455456D01*
G37*
G36*
X132353894Y-140455456D02*
G01*
X132400945Y-140494777D01*
X132469661Y-140503408D01*
X132532291Y-140473444D01*
X132539798Y-140464781D01*
X132541688Y-140464127D01*
X132543199Y-140465437D01*
X132542972Y-140467202D01*
X132534525Y-140479844D01*
X132526000Y-140522699D01*
X132526000Y-141197301D01*
X132534525Y-141240156D01*
X132549052Y-141261898D01*
X132549183Y-141263894D01*
X132547520Y-141265005D01*
X132546106Y-141264544D01*
X132499055Y-141225223D01*
X132430339Y-141216592D01*
X132367709Y-141246556D01*
X132360202Y-141255219D01*
X132358312Y-141255873D01*
X132356801Y-141254563D01*
X132357028Y-141252798D01*
X132365475Y-141240156D01*
X132374000Y-141197301D01*
X132374000Y-140522699D01*
X132365475Y-140479844D01*
X132350948Y-140458102D01*
X132350817Y-140456106D01*
X132352480Y-140454995D01*
X132353894Y-140455456D01*
G37*
G36*
X121626075Y-140975084D02*
G01*
X121641263Y-140985233D01*
X121660199Y-140989000D01*
X122819801Y-140989000D01*
X122838738Y-140985233D01*
X122853773Y-140975186D01*
X122855768Y-140975055D01*
X122856880Y-140976718D01*
X122856793Y-140977447D01*
X122837898Y-141037788D01*
X122856955Y-141102690D01*
X122856483Y-141104633D01*
X122854564Y-141105197D01*
X122853925Y-141104916D01*
X122838737Y-141094767D01*
X122819801Y-141091000D01*
X121660199Y-141091000D01*
X121641262Y-141094767D01*
X121626227Y-141104814D01*
X121624232Y-141104945D01*
X121623120Y-141103282D01*
X121623207Y-141102553D01*
X121642102Y-141042212D01*
X121623045Y-140977310D01*
X121623517Y-140975367D01*
X121625436Y-140974803D01*
X121626075Y-140975084D01*
G37*
G36*
X121626075Y-140475084D02*
G01*
X121641263Y-140485233D01*
X121660199Y-140489000D01*
X122819801Y-140489000D01*
X122838738Y-140485233D01*
X122853773Y-140475186D01*
X122855768Y-140475055D01*
X122856880Y-140476718D01*
X122856793Y-140477447D01*
X122837898Y-140537788D01*
X122856955Y-140602690D01*
X122856483Y-140604633D01*
X122854564Y-140605197D01*
X122853925Y-140604916D01*
X122838737Y-140594767D01*
X122819801Y-140591000D01*
X121660199Y-140591000D01*
X121641262Y-140594767D01*
X121626227Y-140604814D01*
X121624232Y-140604945D01*
X121623120Y-140603282D01*
X121623207Y-140602553D01*
X121642102Y-140542212D01*
X121623045Y-140477310D01*
X121623517Y-140475367D01*
X121625436Y-140474803D01*
X121626075Y-140475084D01*
G37*
G36*
X121626075Y-139975084D02*
G01*
X121641263Y-139985233D01*
X121660199Y-139989000D01*
X122819801Y-139989000D01*
X122838738Y-139985233D01*
X122853773Y-139975186D01*
X122855768Y-139975055D01*
X122856880Y-139976718D01*
X122856793Y-139977447D01*
X122837898Y-140037788D01*
X122856955Y-140102690D01*
X122856483Y-140104633D01*
X122854564Y-140105197D01*
X122853925Y-140104916D01*
X122838737Y-140094767D01*
X122819801Y-140091000D01*
X121660199Y-140091000D01*
X121641262Y-140094767D01*
X121626227Y-140104814D01*
X121624232Y-140104945D01*
X121623120Y-140103282D01*
X121623207Y-140102553D01*
X121642102Y-140042212D01*
X121623045Y-139977310D01*
X121623517Y-139975367D01*
X121625436Y-139974803D01*
X121626075Y-139975084D01*
G37*
G36*
X121626075Y-139475084D02*
G01*
X121641263Y-139485233D01*
X121660199Y-139489000D01*
X122819801Y-139489000D01*
X122838738Y-139485233D01*
X122853773Y-139475186D01*
X122855768Y-139475055D01*
X122856880Y-139476718D01*
X122856793Y-139477447D01*
X122837898Y-139537788D01*
X122856955Y-139602690D01*
X122856483Y-139604633D01*
X122854564Y-139605197D01*
X122853925Y-139604916D01*
X122838737Y-139594767D01*
X122819801Y-139591000D01*
X121660199Y-139591000D01*
X121641262Y-139594767D01*
X121626227Y-139604814D01*
X121624232Y-139604945D01*
X121623120Y-139603282D01*
X121623207Y-139602553D01*
X121642102Y-139542212D01*
X121623045Y-139477310D01*
X121623517Y-139475367D01*
X121625436Y-139474803D01*
X121626075Y-139475084D01*
G37*
G36*
X121610348Y-138284054D02*
G01*
X121611000Y-138285531D01*
X121611000Y-138639801D01*
X121614767Y-138658738D01*
X121625380Y-138674620D01*
X121641262Y-138685233D01*
X121660199Y-138689000D01*
X122819801Y-138689000D01*
X122838738Y-138685233D01*
X122853773Y-138675186D01*
X122855768Y-138675055D01*
X122856880Y-138676718D01*
X122856793Y-138677447D01*
X122837898Y-138737788D01*
X122856955Y-138802690D01*
X122856483Y-138804633D01*
X122854564Y-138805197D01*
X122853925Y-138804916D01*
X122838737Y-138794767D01*
X122819801Y-138791000D01*
X121660199Y-138791000D01*
X121641262Y-138794767D01*
X121625380Y-138805380D01*
X121614767Y-138821262D01*
X121611000Y-138840199D01*
X121611000Y-139016265D01*
X121610000Y-139017997D01*
X121608000Y-139017997D01*
X121607081Y-139016828D01*
X121587404Y-138949813D01*
X121535061Y-138904458D01*
X121466420Y-138894589D01*
X121419465Y-138911556D01*
X121398759Y-138924269D01*
X121396760Y-138924323D01*
X121395714Y-138922619D01*
X121396299Y-138921151D01*
X121462326Y-138855124D01*
X121511896Y-138757838D01*
X121528975Y-138650000D01*
X121511896Y-138542162D01*
X121462326Y-138444876D01*
X121399501Y-138382051D01*
X121398983Y-138380119D01*
X121400397Y-138378705D01*
X121402003Y-138378959D01*
X121416858Y-138388588D01*
X121483523Y-138408445D01*
X121550051Y-138389191D01*
X121595658Y-138336970D01*
X121607047Y-138285102D01*
X121608395Y-138283625D01*
X121610348Y-138284054D01*
G37*
G36*
X147872234Y-138235919D02*
G01*
X147907561Y-138259524D01*
X147955199Y-138269000D01*
X149354801Y-138269000D01*
X149402439Y-138259524D01*
X149437766Y-138235919D01*
X149439762Y-138235788D01*
X149440873Y-138237451D01*
X149440540Y-138238693D01*
X149432033Y-138251425D01*
X149411253Y-138317789D01*
X149432042Y-138388589D01*
X149440540Y-138401307D01*
X149440671Y-138403303D01*
X149439008Y-138404414D01*
X149437766Y-138404081D01*
X149402439Y-138380476D01*
X149354801Y-138371000D01*
X147955199Y-138371000D01*
X147907561Y-138380476D01*
X147872234Y-138404081D01*
X147870238Y-138404212D01*
X147869127Y-138402549D01*
X147869460Y-138401307D01*
X147877967Y-138388575D01*
X147898747Y-138322211D01*
X147877958Y-138251411D01*
X147869460Y-138238693D01*
X147869329Y-138236697D01*
X147870992Y-138235586D01*
X147872234Y-138235919D01*
G37*
G36*
X136522234Y-138235919D02*
G01*
X136557561Y-138259524D01*
X136605199Y-138269000D01*
X138004801Y-138269000D01*
X138052439Y-138259524D01*
X138087766Y-138235919D01*
X138089762Y-138235788D01*
X138090873Y-138237451D01*
X138090540Y-138238693D01*
X138082033Y-138251425D01*
X138061253Y-138317789D01*
X138082042Y-138388589D01*
X138090540Y-138401307D01*
X138090671Y-138403303D01*
X138089008Y-138404414D01*
X138087766Y-138404081D01*
X138052439Y-138380476D01*
X138004801Y-138371000D01*
X136605199Y-138371000D01*
X136557561Y-138380476D01*
X136522234Y-138404081D01*
X136520238Y-138404212D01*
X136519127Y-138402549D01*
X136519460Y-138401307D01*
X136527967Y-138388575D01*
X136548747Y-138322211D01*
X136527958Y-138251411D01*
X136519460Y-138238693D01*
X136519329Y-138236697D01*
X136520992Y-138235586D01*
X136522234Y-138235919D01*
G37*
G36*
X136522234Y-137735919D02*
G01*
X136557561Y-137759524D01*
X136605199Y-137769000D01*
X138004801Y-137769000D01*
X138052439Y-137759524D01*
X138087766Y-137735919D01*
X138089762Y-137735788D01*
X138090873Y-137737451D01*
X138090540Y-137738693D01*
X138082033Y-137751425D01*
X138061253Y-137817789D01*
X138082042Y-137888589D01*
X138090540Y-137901307D01*
X138090671Y-137903303D01*
X138089008Y-137904414D01*
X138087766Y-137904081D01*
X138052439Y-137880476D01*
X138004801Y-137871000D01*
X136605199Y-137871000D01*
X136557561Y-137880476D01*
X136522234Y-137904081D01*
X136520238Y-137904212D01*
X136519127Y-137902549D01*
X136519460Y-137901307D01*
X136527967Y-137888575D01*
X136548747Y-137822211D01*
X136527958Y-137751411D01*
X136519460Y-137738693D01*
X136519329Y-137736697D01*
X136520992Y-137735586D01*
X136522234Y-137735919D01*
G37*
G36*
X147872234Y-137735919D02*
G01*
X147907561Y-137759524D01*
X147955199Y-137769000D01*
X149354801Y-137769000D01*
X149402439Y-137759524D01*
X149437766Y-137735919D01*
X149439762Y-137735788D01*
X149440873Y-137737451D01*
X149440540Y-137738693D01*
X149432033Y-137751425D01*
X149411253Y-137817789D01*
X149432042Y-137888589D01*
X149440540Y-137901307D01*
X149440671Y-137903303D01*
X149439008Y-137904414D01*
X149437766Y-137904081D01*
X149402439Y-137880476D01*
X149354801Y-137871000D01*
X147955199Y-137871000D01*
X147907561Y-137880476D01*
X147872234Y-137904081D01*
X147870238Y-137904212D01*
X147869127Y-137902549D01*
X147869460Y-137901307D01*
X147877967Y-137888575D01*
X147898747Y-137822211D01*
X147877958Y-137751411D01*
X147869460Y-137738693D01*
X147869329Y-137736697D01*
X147870992Y-137735586D01*
X147872234Y-137735919D01*
G37*
G36*
X136522234Y-137235919D02*
G01*
X136557561Y-137259524D01*
X136605199Y-137269000D01*
X138004801Y-137269000D01*
X138052439Y-137259524D01*
X138087766Y-137235919D01*
X138089762Y-137235788D01*
X138090873Y-137237451D01*
X138090540Y-137238693D01*
X138082033Y-137251425D01*
X138061253Y-137317789D01*
X138082042Y-137388589D01*
X138090540Y-137401307D01*
X138090671Y-137403303D01*
X138089008Y-137404414D01*
X138087766Y-137404081D01*
X138052439Y-137380476D01*
X138004801Y-137371000D01*
X136605199Y-137371000D01*
X136557561Y-137380476D01*
X136522234Y-137404081D01*
X136520238Y-137404212D01*
X136519127Y-137402549D01*
X136519460Y-137401307D01*
X136527967Y-137388575D01*
X136548747Y-137322211D01*
X136527958Y-137251411D01*
X136519460Y-137238693D01*
X136519329Y-137236697D01*
X136520992Y-137235586D01*
X136522234Y-137235919D01*
G37*
G36*
X147872234Y-137235919D02*
G01*
X147907561Y-137259524D01*
X147955199Y-137269000D01*
X149354801Y-137269000D01*
X149402439Y-137259524D01*
X149437766Y-137235919D01*
X149439762Y-137235788D01*
X149440873Y-137237451D01*
X149440540Y-137238693D01*
X149432033Y-137251425D01*
X149411253Y-137317789D01*
X149432042Y-137388589D01*
X149440540Y-137401307D01*
X149440671Y-137403303D01*
X149439008Y-137404414D01*
X149437766Y-137404081D01*
X149402439Y-137380476D01*
X149354801Y-137371000D01*
X147955199Y-137371000D01*
X147907561Y-137380476D01*
X147872234Y-137404081D01*
X147870238Y-137404212D01*
X147869127Y-137402549D01*
X147869460Y-137401307D01*
X147877967Y-137388575D01*
X147898747Y-137322211D01*
X147877958Y-137251411D01*
X147869460Y-137238693D01*
X147869329Y-137236697D01*
X147870992Y-137235586D01*
X147872234Y-137235919D01*
G37*
G36*
X136522234Y-136735919D02*
G01*
X136557561Y-136759524D01*
X136605199Y-136769000D01*
X138004801Y-136769000D01*
X138052439Y-136759524D01*
X138087766Y-136735919D01*
X138089762Y-136735788D01*
X138090873Y-136737451D01*
X138090540Y-136738693D01*
X138082033Y-136751425D01*
X138061253Y-136817789D01*
X138082042Y-136888589D01*
X138090540Y-136901307D01*
X138090671Y-136903303D01*
X138089008Y-136904414D01*
X138087766Y-136904081D01*
X138052439Y-136880476D01*
X138004801Y-136871000D01*
X136605199Y-136871000D01*
X136557561Y-136880476D01*
X136522234Y-136904081D01*
X136520238Y-136904212D01*
X136519127Y-136902549D01*
X136519460Y-136901307D01*
X136527967Y-136888575D01*
X136548747Y-136822211D01*
X136527958Y-136751411D01*
X136519460Y-136738693D01*
X136519329Y-136736697D01*
X136520992Y-136735586D01*
X136522234Y-136735919D01*
G37*
G36*
X147872234Y-136735919D02*
G01*
X147907561Y-136759524D01*
X147955199Y-136769000D01*
X149354801Y-136769000D01*
X149402439Y-136759524D01*
X149437766Y-136735919D01*
X149439762Y-136735788D01*
X149440873Y-136737451D01*
X149440540Y-136738693D01*
X149432033Y-136751425D01*
X149411253Y-136817789D01*
X149432042Y-136888589D01*
X149440540Y-136901307D01*
X149440671Y-136903303D01*
X149439008Y-136904414D01*
X149437766Y-136904081D01*
X149402439Y-136880476D01*
X149354801Y-136871000D01*
X147955199Y-136871000D01*
X147907561Y-136880476D01*
X147872234Y-136904081D01*
X147870238Y-136904212D01*
X147869127Y-136902549D01*
X147869460Y-136901307D01*
X147877967Y-136888575D01*
X147898747Y-136822211D01*
X147877958Y-136751411D01*
X147869460Y-136738693D01*
X147869329Y-136736697D01*
X147870992Y-136735586D01*
X147872234Y-136735919D01*
G37*
G36*
X147872234Y-136235919D02*
G01*
X147907561Y-136259524D01*
X147955199Y-136269000D01*
X149354801Y-136269000D01*
X149402439Y-136259524D01*
X149437766Y-136235919D01*
X149439762Y-136235788D01*
X149440873Y-136237451D01*
X149440540Y-136238693D01*
X149432033Y-136251425D01*
X149411253Y-136317789D01*
X149432042Y-136388589D01*
X149440540Y-136401307D01*
X149440671Y-136403303D01*
X149439008Y-136404414D01*
X149437766Y-136404081D01*
X149402439Y-136380476D01*
X149354801Y-136371000D01*
X147955199Y-136371000D01*
X147907561Y-136380476D01*
X147872234Y-136404081D01*
X147870238Y-136404212D01*
X147869127Y-136402549D01*
X147869460Y-136401307D01*
X147877967Y-136388575D01*
X147898747Y-136322211D01*
X147877958Y-136251411D01*
X147869460Y-136238693D01*
X147869329Y-136236697D01*
X147870992Y-136235586D01*
X147872234Y-136235919D01*
G37*
G36*
X136522234Y-136235919D02*
G01*
X136557561Y-136259524D01*
X136605199Y-136269000D01*
X138004801Y-136269000D01*
X138052439Y-136259524D01*
X138087766Y-136235919D01*
X138089762Y-136235788D01*
X138090873Y-136237451D01*
X138090540Y-136238693D01*
X138082033Y-136251425D01*
X138061253Y-136317789D01*
X138082042Y-136388589D01*
X138090540Y-136401307D01*
X138090671Y-136403303D01*
X138089008Y-136404414D01*
X138087766Y-136404081D01*
X138052439Y-136380476D01*
X138004801Y-136371000D01*
X136605199Y-136371000D01*
X136557561Y-136380476D01*
X136522234Y-136404081D01*
X136520238Y-136404212D01*
X136519127Y-136402549D01*
X136519460Y-136401307D01*
X136527967Y-136388575D01*
X136548747Y-136322211D01*
X136527958Y-136251411D01*
X136519460Y-136238693D01*
X136519329Y-136236697D01*
X136520992Y-136235586D01*
X136522234Y-136235919D01*
G37*
G36*
X136522234Y-135735919D02*
G01*
X136557561Y-135759524D01*
X136605199Y-135769000D01*
X138004801Y-135769000D01*
X138052439Y-135759524D01*
X138087766Y-135735919D01*
X138089762Y-135735788D01*
X138090873Y-135737451D01*
X138090540Y-135738693D01*
X138082033Y-135751425D01*
X138061253Y-135817789D01*
X138082042Y-135888589D01*
X138090540Y-135901307D01*
X138090671Y-135903303D01*
X138089008Y-135904414D01*
X138087766Y-135904081D01*
X138052439Y-135880476D01*
X138004801Y-135871000D01*
X136605199Y-135871000D01*
X136557561Y-135880476D01*
X136522234Y-135904081D01*
X136520238Y-135904212D01*
X136519127Y-135902549D01*
X136519460Y-135901307D01*
X136527967Y-135888575D01*
X136548747Y-135822211D01*
X136527958Y-135751411D01*
X136519460Y-135738693D01*
X136519329Y-135736697D01*
X136520992Y-135735586D01*
X136522234Y-135735919D01*
G37*
G36*
X147872234Y-135735919D02*
G01*
X147907561Y-135759524D01*
X147955199Y-135769000D01*
X149354801Y-135769000D01*
X149402439Y-135759524D01*
X149437766Y-135735919D01*
X149439762Y-135735788D01*
X149440873Y-135737451D01*
X149440540Y-135738693D01*
X149432033Y-135751425D01*
X149411253Y-135817789D01*
X149432042Y-135888589D01*
X149440540Y-135901307D01*
X149440671Y-135903303D01*
X149439008Y-135904414D01*
X149437766Y-135904081D01*
X149402439Y-135880476D01*
X149354801Y-135871000D01*
X147955199Y-135871000D01*
X147907561Y-135880476D01*
X147872234Y-135904081D01*
X147870238Y-135904212D01*
X147869127Y-135902549D01*
X147869460Y-135901307D01*
X147877967Y-135888575D01*
X147898747Y-135822211D01*
X147877958Y-135751411D01*
X147869460Y-135738693D01*
X147869329Y-135736697D01*
X147870992Y-135735586D01*
X147872234Y-135735919D01*
G37*
G36*
X147872234Y-135235919D02*
G01*
X147907561Y-135259524D01*
X147955199Y-135269000D01*
X149354801Y-135269000D01*
X149402439Y-135259524D01*
X149437766Y-135235919D01*
X149439762Y-135235788D01*
X149440873Y-135237451D01*
X149440540Y-135238693D01*
X149432033Y-135251425D01*
X149411253Y-135317789D01*
X149432042Y-135388589D01*
X149440540Y-135401307D01*
X149440671Y-135403303D01*
X149439008Y-135404414D01*
X149437766Y-135404081D01*
X149402439Y-135380476D01*
X149354801Y-135371000D01*
X147955199Y-135371000D01*
X147907561Y-135380476D01*
X147872234Y-135404081D01*
X147870238Y-135404212D01*
X147869127Y-135402549D01*
X147869460Y-135401307D01*
X147877967Y-135388575D01*
X147898747Y-135322211D01*
X147877958Y-135251411D01*
X147869460Y-135238693D01*
X147869329Y-135236697D01*
X147870992Y-135235586D01*
X147872234Y-135235919D01*
G37*
G36*
X136522234Y-135235919D02*
G01*
X136557561Y-135259524D01*
X136605199Y-135269000D01*
X138004801Y-135269000D01*
X138052439Y-135259524D01*
X138087766Y-135235919D01*
X138089762Y-135235788D01*
X138090873Y-135237451D01*
X138090540Y-135238693D01*
X138082033Y-135251425D01*
X138061253Y-135317789D01*
X138082042Y-135388589D01*
X138090540Y-135401307D01*
X138090671Y-135403303D01*
X138089008Y-135404414D01*
X138087766Y-135404081D01*
X138052439Y-135380476D01*
X138004801Y-135371000D01*
X136605199Y-135371000D01*
X136557561Y-135380476D01*
X136522234Y-135404081D01*
X136520238Y-135404212D01*
X136519127Y-135402549D01*
X136519460Y-135401307D01*
X136527967Y-135388575D01*
X136548747Y-135322211D01*
X136527958Y-135251411D01*
X136519460Y-135238693D01*
X136519329Y-135236697D01*
X136520992Y-135235586D01*
X136522234Y-135235919D01*
G37*
G36*
X136522234Y-134735919D02*
G01*
X136557561Y-134759524D01*
X136605199Y-134769000D01*
X138004801Y-134769000D01*
X138052439Y-134759524D01*
X138087766Y-134735919D01*
X138089762Y-134735788D01*
X138090873Y-134737451D01*
X138090540Y-134738693D01*
X138082033Y-134751425D01*
X138061253Y-134817789D01*
X138082042Y-134888589D01*
X138090540Y-134901307D01*
X138090671Y-134903303D01*
X138089008Y-134904414D01*
X138087766Y-134904081D01*
X138052439Y-134880476D01*
X138004801Y-134871000D01*
X136605199Y-134871000D01*
X136557561Y-134880476D01*
X136522234Y-134904081D01*
X136520238Y-134904212D01*
X136519127Y-134902549D01*
X136519460Y-134901307D01*
X136527967Y-134888575D01*
X136548747Y-134822211D01*
X136527958Y-134751411D01*
X136519460Y-134738693D01*
X136519329Y-134736697D01*
X136520992Y-134735586D01*
X136522234Y-134735919D01*
G37*
G36*
X147872234Y-134735919D02*
G01*
X147907561Y-134759524D01*
X147955199Y-134769000D01*
X149354801Y-134769000D01*
X149402439Y-134759524D01*
X149437766Y-134735919D01*
X149439762Y-134735788D01*
X149440873Y-134737451D01*
X149440540Y-134738693D01*
X149432033Y-134751425D01*
X149411253Y-134817789D01*
X149432042Y-134888589D01*
X149440540Y-134901307D01*
X149440671Y-134903303D01*
X149439008Y-134904414D01*
X149437766Y-134904081D01*
X149402439Y-134880476D01*
X149354801Y-134871000D01*
X147955199Y-134871000D01*
X147907561Y-134880476D01*
X147872234Y-134904081D01*
X147870238Y-134904212D01*
X147869127Y-134902549D01*
X147869460Y-134901307D01*
X147877967Y-134888575D01*
X147898747Y-134822211D01*
X147877958Y-134751411D01*
X147869460Y-134738693D01*
X147869329Y-134736697D01*
X147870992Y-134735586D01*
X147872234Y-134735919D01*
G37*
G36*
X136522234Y-134235919D02*
G01*
X136557561Y-134259524D01*
X136605199Y-134269000D01*
X138004801Y-134269000D01*
X138052439Y-134259524D01*
X138087766Y-134235919D01*
X138089762Y-134235788D01*
X138090873Y-134237451D01*
X138090540Y-134238693D01*
X138082033Y-134251425D01*
X138061253Y-134317789D01*
X138082042Y-134388589D01*
X138090540Y-134401307D01*
X138090671Y-134403303D01*
X138089008Y-134404414D01*
X138087766Y-134404081D01*
X138052439Y-134380476D01*
X138004801Y-134371000D01*
X136605199Y-134371000D01*
X136557561Y-134380476D01*
X136522234Y-134404081D01*
X136520238Y-134404212D01*
X136519127Y-134402549D01*
X136519460Y-134401307D01*
X136527967Y-134388575D01*
X136548747Y-134322211D01*
X136527958Y-134251411D01*
X136519460Y-134238693D01*
X136519329Y-134236697D01*
X136520992Y-134235586D01*
X136522234Y-134235919D01*
G37*
G36*
X147872234Y-134235919D02*
G01*
X147907561Y-134259524D01*
X147955199Y-134269000D01*
X149354801Y-134269000D01*
X149402439Y-134259524D01*
X149437766Y-134235919D01*
X149439762Y-134235788D01*
X149440873Y-134237451D01*
X149440540Y-134238693D01*
X149432033Y-134251425D01*
X149411253Y-134317789D01*
X149432042Y-134388589D01*
X149440540Y-134401307D01*
X149440671Y-134403303D01*
X149439008Y-134404414D01*
X149437766Y-134404081D01*
X149402439Y-134380476D01*
X149354801Y-134371000D01*
X147955199Y-134371000D01*
X147907561Y-134380476D01*
X147872234Y-134404081D01*
X147870238Y-134404212D01*
X147869127Y-134402549D01*
X147869460Y-134401307D01*
X147877967Y-134388575D01*
X147898747Y-134322211D01*
X147877958Y-134251411D01*
X147869460Y-134238693D01*
X147869329Y-134236697D01*
X147870992Y-134235586D01*
X147872234Y-134235919D01*
G37*
G36*
X136522234Y-133735919D02*
G01*
X136557561Y-133759524D01*
X136605199Y-133769000D01*
X138004801Y-133769000D01*
X138052439Y-133759524D01*
X138087766Y-133735919D01*
X138089762Y-133735788D01*
X138090873Y-133737451D01*
X138090540Y-133738693D01*
X138082033Y-133751425D01*
X138061253Y-133817789D01*
X138082042Y-133888589D01*
X138090540Y-133901307D01*
X138090671Y-133903303D01*
X138089008Y-133904414D01*
X138087766Y-133904081D01*
X138052439Y-133880476D01*
X138004801Y-133871000D01*
X136605199Y-133871000D01*
X136557561Y-133880476D01*
X136522234Y-133904081D01*
X136520238Y-133904212D01*
X136519127Y-133902549D01*
X136519460Y-133901307D01*
X136527967Y-133888575D01*
X136548747Y-133822211D01*
X136527958Y-133751411D01*
X136519460Y-133738693D01*
X136519329Y-133736697D01*
X136520992Y-133735586D01*
X136522234Y-133735919D01*
G37*
G36*
X147872234Y-133735919D02*
G01*
X147907561Y-133759524D01*
X147955199Y-133769000D01*
X149354801Y-133769000D01*
X149402439Y-133759524D01*
X149437766Y-133735919D01*
X149439762Y-133735788D01*
X149440873Y-133737451D01*
X149440540Y-133738693D01*
X149432033Y-133751425D01*
X149411253Y-133817789D01*
X149432042Y-133888589D01*
X149440540Y-133901307D01*
X149440671Y-133903303D01*
X149439008Y-133904414D01*
X149437766Y-133904081D01*
X149402439Y-133880476D01*
X149354801Y-133871000D01*
X147955199Y-133871000D01*
X147907561Y-133880476D01*
X147872234Y-133904081D01*
X147870238Y-133904212D01*
X147869127Y-133902549D01*
X147869460Y-133901307D01*
X147877967Y-133888575D01*
X147898747Y-133822211D01*
X147877958Y-133751411D01*
X147869460Y-133738693D01*
X147869329Y-133736697D01*
X147870992Y-133735586D01*
X147872234Y-133735919D01*
G37*
G36*
X136522234Y-133235919D02*
G01*
X136557561Y-133259524D01*
X136605199Y-133269000D01*
X138004801Y-133269000D01*
X138052439Y-133259524D01*
X138087766Y-133235919D01*
X138089762Y-133235788D01*
X138090873Y-133237451D01*
X138090540Y-133238693D01*
X138082033Y-133251425D01*
X138061253Y-133317789D01*
X138082042Y-133388589D01*
X138090540Y-133401307D01*
X138090671Y-133403303D01*
X138089008Y-133404414D01*
X138087766Y-133404081D01*
X138052439Y-133380476D01*
X138004801Y-133371000D01*
X136605199Y-133371000D01*
X136557561Y-133380476D01*
X136522234Y-133404081D01*
X136520238Y-133404212D01*
X136519127Y-133402549D01*
X136519460Y-133401307D01*
X136527967Y-133388575D01*
X136548747Y-133322211D01*
X136527958Y-133251411D01*
X136519460Y-133238693D01*
X136519329Y-133236697D01*
X136520992Y-133235586D01*
X136522234Y-133235919D01*
G37*
G36*
X147872234Y-133235919D02*
G01*
X147907561Y-133259524D01*
X147955199Y-133269000D01*
X149354801Y-133269000D01*
X149402439Y-133259524D01*
X149437766Y-133235919D01*
X149439762Y-133235788D01*
X149440873Y-133237451D01*
X149440540Y-133238693D01*
X149432033Y-133251425D01*
X149411253Y-133317789D01*
X149432042Y-133388589D01*
X149440540Y-133401307D01*
X149440671Y-133403303D01*
X149439008Y-133404414D01*
X149437766Y-133404081D01*
X149402439Y-133380476D01*
X149354801Y-133371000D01*
X147955199Y-133371000D01*
X147907561Y-133380476D01*
X147872234Y-133404081D01*
X147870238Y-133404212D01*
X147869127Y-133402549D01*
X147869460Y-133401307D01*
X147877967Y-133388575D01*
X147898747Y-133322211D01*
X147877958Y-133251411D01*
X147869460Y-133238693D01*
X147869329Y-133236697D01*
X147870992Y-133235586D01*
X147872234Y-133235919D01*
G37*
G36*
X147872234Y-132735919D02*
G01*
X147907561Y-132759524D01*
X147955199Y-132769000D01*
X149354801Y-132769000D01*
X149402439Y-132759524D01*
X149437766Y-132735919D01*
X149439762Y-132735788D01*
X149440873Y-132737451D01*
X149440540Y-132738693D01*
X149432033Y-132751425D01*
X149411253Y-132817789D01*
X149432042Y-132888589D01*
X149440540Y-132901307D01*
X149440671Y-132903303D01*
X149439008Y-132904414D01*
X149437766Y-132904081D01*
X149402439Y-132880476D01*
X149354801Y-132871000D01*
X147955199Y-132871000D01*
X147907561Y-132880476D01*
X147872234Y-132904081D01*
X147870238Y-132904212D01*
X147869127Y-132902549D01*
X147869460Y-132901307D01*
X147877967Y-132888575D01*
X147898747Y-132822211D01*
X147877958Y-132751411D01*
X147869460Y-132738693D01*
X147869329Y-132736697D01*
X147870992Y-132735586D01*
X147872234Y-132735919D01*
G37*
G36*
X136522234Y-132735919D02*
G01*
X136557561Y-132759524D01*
X136605199Y-132769000D01*
X138004801Y-132769000D01*
X138052439Y-132759524D01*
X138087766Y-132735919D01*
X138089762Y-132735788D01*
X138090873Y-132737451D01*
X138090540Y-132738693D01*
X138082033Y-132751425D01*
X138061253Y-132817789D01*
X138082042Y-132888589D01*
X138090540Y-132901307D01*
X138090671Y-132903303D01*
X138089008Y-132904414D01*
X138087766Y-132904081D01*
X138052439Y-132880476D01*
X138004801Y-132871000D01*
X136605199Y-132871000D01*
X136557561Y-132880476D01*
X136522234Y-132904081D01*
X136520238Y-132904212D01*
X136519127Y-132902549D01*
X136519460Y-132901307D01*
X136527967Y-132888575D01*
X136548747Y-132822211D01*
X136527958Y-132751411D01*
X136519460Y-132738693D01*
X136519329Y-132736697D01*
X136520992Y-132735586D01*
X136522234Y-132735919D01*
G37*
G36*
X147872234Y-132235919D02*
G01*
X147907561Y-132259524D01*
X147955199Y-132269000D01*
X149354801Y-132269000D01*
X149402439Y-132259524D01*
X149437766Y-132235919D01*
X149439762Y-132235788D01*
X149440873Y-132237451D01*
X149440540Y-132238693D01*
X149432033Y-132251425D01*
X149411253Y-132317789D01*
X149432042Y-132388589D01*
X149440540Y-132401307D01*
X149440671Y-132403303D01*
X149439008Y-132404414D01*
X149437766Y-132404081D01*
X149402439Y-132380476D01*
X149354801Y-132371000D01*
X147955199Y-132371000D01*
X147907561Y-132380476D01*
X147872234Y-132404081D01*
X147870238Y-132404212D01*
X147869127Y-132402549D01*
X147869460Y-132401307D01*
X147877967Y-132388575D01*
X147898747Y-132322211D01*
X147877958Y-132251411D01*
X147869460Y-132238693D01*
X147869329Y-132236697D01*
X147870992Y-132235586D01*
X147872234Y-132235919D01*
G37*
G36*
X136522234Y-132235919D02*
G01*
X136557561Y-132259524D01*
X136605199Y-132269000D01*
X138004801Y-132269000D01*
X138052439Y-132259524D01*
X138087766Y-132235919D01*
X138089762Y-132235788D01*
X138090873Y-132237451D01*
X138090540Y-132238693D01*
X138082033Y-132251425D01*
X138061253Y-132317789D01*
X138082042Y-132388589D01*
X138090540Y-132401307D01*
X138090671Y-132403303D01*
X138089008Y-132404414D01*
X138087766Y-132404081D01*
X138052439Y-132380476D01*
X138004801Y-132371000D01*
X136605199Y-132371000D01*
X136557561Y-132380476D01*
X136522234Y-132404081D01*
X136520238Y-132404212D01*
X136519127Y-132402549D01*
X136519460Y-132401307D01*
X136527967Y-132388575D01*
X136548747Y-132322211D01*
X136527958Y-132251411D01*
X136519460Y-132238693D01*
X136519329Y-132236697D01*
X136520992Y-132235586D01*
X136522234Y-132235919D01*
G37*
G36*
X136522234Y-131735919D02*
G01*
X136557561Y-131759524D01*
X136605199Y-131769000D01*
X138004801Y-131769000D01*
X138052439Y-131759524D01*
X138087766Y-131735919D01*
X138089762Y-131735788D01*
X138090873Y-131737451D01*
X138090540Y-131738693D01*
X138082033Y-131751425D01*
X138061253Y-131817789D01*
X138082042Y-131888589D01*
X138090540Y-131901307D01*
X138090671Y-131903303D01*
X138089008Y-131904414D01*
X138087766Y-131904081D01*
X138052439Y-131880476D01*
X138004801Y-131871000D01*
X136605199Y-131871000D01*
X136557561Y-131880476D01*
X136522234Y-131904081D01*
X136520238Y-131904212D01*
X136519127Y-131902549D01*
X136519460Y-131901307D01*
X136527967Y-131888575D01*
X136548747Y-131822211D01*
X136527958Y-131751411D01*
X136519460Y-131738693D01*
X136519329Y-131736697D01*
X136520992Y-131735586D01*
X136522234Y-131735919D01*
G37*
G36*
X147872234Y-131735919D02*
G01*
X147907561Y-131759524D01*
X147955199Y-131769000D01*
X149354801Y-131769000D01*
X149402439Y-131759524D01*
X149437766Y-131735919D01*
X149439762Y-131735788D01*
X149440873Y-131737451D01*
X149440540Y-131738693D01*
X149432033Y-131751425D01*
X149411253Y-131817789D01*
X149432042Y-131888589D01*
X149440540Y-131901307D01*
X149440671Y-131903303D01*
X149439008Y-131904414D01*
X149437766Y-131904081D01*
X149402439Y-131880476D01*
X149354801Y-131871000D01*
X147955199Y-131871000D01*
X147907561Y-131880476D01*
X147872234Y-131904081D01*
X147870238Y-131904212D01*
X147869127Y-131902549D01*
X147869460Y-131901307D01*
X147877967Y-131888575D01*
X147898747Y-131822211D01*
X147877958Y-131751411D01*
X147869460Y-131738693D01*
X147869329Y-131736697D01*
X147870992Y-131735586D01*
X147872234Y-131735919D01*
G37*
G36*
X136522234Y-131235919D02*
G01*
X136557561Y-131259524D01*
X136605199Y-131269000D01*
X138004801Y-131269000D01*
X138052439Y-131259524D01*
X138087766Y-131235919D01*
X138089762Y-131235788D01*
X138090873Y-131237451D01*
X138090540Y-131238693D01*
X138082033Y-131251425D01*
X138061253Y-131317789D01*
X138082042Y-131388589D01*
X138090540Y-131401307D01*
X138090671Y-131403303D01*
X138089008Y-131404414D01*
X138087766Y-131404081D01*
X138052439Y-131380476D01*
X138004801Y-131371000D01*
X136605199Y-131371000D01*
X136557561Y-131380476D01*
X136522234Y-131404081D01*
X136520238Y-131404212D01*
X136519127Y-131402549D01*
X136519460Y-131401307D01*
X136527967Y-131388575D01*
X136548747Y-131322211D01*
X136527958Y-131251411D01*
X136519460Y-131238693D01*
X136519329Y-131236697D01*
X136520992Y-131235586D01*
X136522234Y-131235919D01*
G37*
G36*
X147872234Y-131235919D02*
G01*
X147907561Y-131259524D01*
X147955199Y-131269000D01*
X149354801Y-131269000D01*
X149402439Y-131259524D01*
X149437766Y-131235919D01*
X149439762Y-131235788D01*
X149440873Y-131237451D01*
X149440540Y-131238693D01*
X149432033Y-131251425D01*
X149411253Y-131317789D01*
X149432042Y-131388589D01*
X149440540Y-131401307D01*
X149440671Y-131403303D01*
X149439008Y-131404414D01*
X149437766Y-131404081D01*
X149402439Y-131380476D01*
X149354801Y-131371000D01*
X147955199Y-131371000D01*
X147907561Y-131380476D01*
X147872234Y-131404081D01*
X147870238Y-131404212D01*
X147869127Y-131402549D01*
X147869460Y-131401307D01*
X147877967Y-131388575D01*
X147898747Y-131322211D01*
X147877958Y-131251411D01*
X147869460Y-131238693D01*
X147869329Y-131236697D01*
X147870992Y-131235586D01*
X147872234Y-131235919D01*
G37*
G36*
X145898693Y-128359460D02*
G01*
X145911425Y-128367967D01*
X145977789Y-128388747D01*
X146048589Y-128367958D01*
X146061307Y-128359460D01*
X146063303Y-128359329D01*
X146064414Y-128360992D01*
X146064081Y-128362234D01*
X146040476Y-128397561D01*
X146031000Y-128445199D01*
X146031000Y-129844801D01*
X146040476Y-129892439D01*
X146064081Y-129927766D01*
X146064212Y-129929762D01*
X146062549Y-129930873D01*
X146061307Y-129930540D01*
X146048575Y-129922033D01*
X145982211Y-129901253D01*
X145911411Y-129922042D01*
X145898693Y-129930540D01*
X145896697Y-129930671D01*
X145895586Y-129929008D01*
X145895919Y-129927766D01*
X145919524Y-129892439D01*
X145929000Y-129844801D01*
X145929000Y-128445199D01*
X145919524Y-128397561D01*
X145895919Y-128362234D01*
X145895788Y-128360238D01*
X145897451Y-128359127D01*
X145898693Y-128359460D01*
G37*
G36*
X144398693Y-128359460D02*
G01*
X144411425Y-128367967D01*
X144477789Y-128388747D01*
X144548589Y-128367958D01*
X144561307Y-128359460D01*
X144563303Y-128359329D01*
X144564414Y-128360992D01*
X144564081Y-128362234D01*
X144540476Y-128397561D01*
X144531000Y-128445199D01*
X144531000Y-129844801D01*
X144540476Y-129892439D01*
X144564081Y-129927766D01*
X144564212Y-129929762D01*
X144562549Y-129930873D01*
X144561307Y-129930540D01*
X144548575Y-129922033D01*
X144482211Y-129901253D01*
X144411411Y-129922042D01*
X144398693Y-129930540D01*
X144396697Y-129930671D01*
X144395586Y-129929008D01*
X144395919Y-129927766D01*
X144419524Y-129892439D01*
X144429000Y-129844801D01*
X144429000Y-128445199D01*
X144419524Y-128397561D01*
X144395919Y-128362234D01*
X144395788Y-128360238D01*
X144397451Y-128359127D01*
X144398693Y-128359460D01*
G37*
G36*
X140398693Y-128359460D02*
G01*
X140411425Y-128367967D01*
X140477789Y-128388747D01*
X140548589Y-128367958D01*
X140561307Y-128359460D01*
X140563303Y-128359329D01*
X140564414Y-128360992D01*
X140564081Y-128362234D01*
X140540476Y-128397561D01*
X140531000Y-128445199D01*
X140531000Y-129844801D01*
X140540476Y-129892439D01*
X140564081Y-129927766D01*
X140564212Y-129929762D01*
X140562549Y-129930873D01*
X140561307Y-129930540D01*
X140548575Y-129922033D01*
X140482211Y-129901253D01*
X140411411Y-129922042D01*
X140398693Y-129930540D01*
X140396697Y-129930671D01*
X140395586Y-129929008D01*
X140395919Y-129927766D01*
X140419524Y-129892439D01*
X140429000Y-129844801D01*
X140429000Y-128445199D01*
X140419524Y-128397561D01*
X140395919Y-128362234D01*
X140395788Y-128360238D01*
X140397451Y-128359127D01*
X140398693Y-128359460D01*
G37*
G36*
X139898693Y-128359460D02*
G01*
X139911425Y-128367967D01*
X139977789Y-128388747D01*
X140048589Y-128367958D01*
X140061307Y-128359460D01*
X140063303Y-128359329D01*
X140064414Y-128360992D01*
X140064081Y-128362234D01*
X140040476Y-128397561D01*
X140031000Y-128445199D01*
X140031000Y-129844801D01*
X140040476Y-129892439D01*
X140064081Y-129927766D01*
X140064212Y-129929762D01*
X140062549Y-129930873D01*
X140061307Y-129930540D01*
X140048575Y-129922033D01*
X139982211Y-129901253D01*
X139911411Y-129922042D01*
X139898693Y-129930540D01*
X139896697Y-129930671D01*
X139895586Y-129929008D01*
X139895919Y-129927766D01*
X139919524Y-129892439D01*
X139929000Y-129844801D01*
X139929000Y-128445199D01*
X139919524Y-128397561D01*
X139895919Y-128362234D01*
X139895788Y-128360238D01*
X139897451Y-128359127D01*
X139898693Y-128359460D01*
G37*
G36*
X142398693Y-128359460D02*
G01*
X142411425Y-128367967D01*
X142477789Y-128388747D01*
X142548589Y-128367958D01*
X142561307Y-128359460D01*
X142563303Y-128359329D01*
X142564414Y-128360992D01*
X142564081Y-128362234D01*
X142540476Y-128397561D01*
X142531000Y-128445199D01*
X142531000Y-129844801D01*
X142540476Y-129892439D01*
X142564081Y-129927766D01*
X142564212Y-129929762D01*
X142562549Y-129930873D01*
X142561307Y-129930540D01*
X142548575Y-129922033D01*
X142482211Y-129901253D01*
X142411411Y-129922042D01*
X142398693Y-129930540D01*
X142396697Y-129930671D01*
X142395586Y-129929008D01*
X142395919Y-129927766D01*
X142419524Y-129892439D01*
X142429000Y-129844801D01*
X142429000Y-128445199D01*
X142419524Y-128397561D01*
X142395919Y-128362234D01*
X142395788Y-128360238D01*
X142397451Y-128359127D01*
X142398693Y-128359460D01*
G37*
G36*
X146398693Y-128359460D02*
G01*
X146411425Y-128367967D01*
X146477789Y-128388747D01*
X146548589Y-128367958D01*
X146561307Y-128359460D01*
X146563303Y-128359329D01*
X146564414Y-128360992D01*
X146564081Y-128362234D01*
X146540476Y-128397561D01*
X146531000Y-128445199D01*
X146531000Y-129844801D01*
X146540476Y-129892439D01*
X146564081Y-129927766D01*
X146564212Y-129929762D01*
X146562549Y-129930873D01*
X146561307Y-129930540D01*
X146548575Y-129922033D01*
X146482211Y-129901253D01*
X146411411Y-129922042D01*
X146398693Y-129930540D01*
X146396697Y-129930671D01*
X146395586Y-129929008D01*
X146395919Y-129927766D01*
X146419524Y-129892439D01*
X146429000Y-129844801D01*
X146429000Y-128445199D01*
X146419524Y-128397561D01*
X146395919Y-128362234D01*
X146395788Y-128360238D01*
X146397451Y-128359127D01*
X146398693Y-128359460D01*
G37*
G36*
X141398693Y-128359460D02*
G01*
X141411425Y-128367967D01*
X141477789Y-128388747D01*
X141548589Y-128367958D01*
X141561307Y-128359460D01*
X141563303Y-128359329D01*
X141564414Y-128360992D01*
X141564081Y-128362234D01*
X141540476Y-128397561D01*
X141531000Y-128445199D01*
X141531000Y-129844801D01*
X141540476Y-129892439D01*
X141564081Y-129927766D01*
X141564212Y-129929762D01*
X141562549Y-129930873D01*
X141561307Y-129930540D01*
X141548575Y-129922033D01*
X141482211Y-129901253D01*
X141411411Y-129922042D01*
X141398693Y-129930540D01*
X141396697Y-129930671D01*
X141395586Y-129929008D01*
X141395919Y-129927766D01*
X141419524Y-129892439D01*
X141429000Y-129844801D01*
X141429000Y-128445199D01*
X141419524Y-128397561D01*
X141395919Y-128362234D01*
X141395788Y-128360238D01*
X141397451Y-128359127D01*
X141398693Y-128359460D01*
G37*
G36*
X141898693Y-128359460D02*
G01*
X141911425Y-128367967D01*
X141977789Y-128388747D01*
X142048589Y-128367958D01*
X142061307Y-128359460D01*
X142063303Y-128359329D01*
X142064414Y-128360992D01*
X142064081Y-128362234D01*
X142040476Y-128397561D01*
X142031000Y-128445199D01*
X142031000Y-129844801D01*
X142040476Y-129892439D01*
X142064081Y-129927766D01*
X142064212Y-129929762D01*
X142062549Y-129930873D01*
X142061307Y-129930540D01*
X142048575Y-129922033D01*
X141982211Y-129901253D01*
X141911411Y-129922042D01*
X141898693Y-129930540D01*
X141896697Y-129930671D01*
X141895586Y-129929008D01*
X141895919Y-129927766D01*
X141919524Y-129892439D01*
X141929000Y-129844801D01*
X141929000Y-128445199D01*
X141919524Y-128397561D01*
X141895919Y-128362234D01*
X141895788Y-128360238D01*
X141897451Y-128359127D01*
X141898693Y-128359460D01*
G37*
G36*
X139398693Y-128359460D02*
G01*
X139411425Y-128367967D01*
X139477789Y-128388747D01*
X139548589Y-128367958D01*
X139561307Y-128359460D01*
X139563303Y-128359329D01*
X139564414Y-128360992D01*
X139564081Y-128362234D01*
X139540476Y-128397561D01*
X139531000Y-128445199D01*
X139531000Y-129844801D01*
X139540476Y-129892439D01*
X139564081Y-129927766D01*
X139564212Y-129929762D01*
X139562549Y-129930873D01*
X139561307Y-129930540D01*
X139548575Y-129922033D01*
X139482211Y-129901253D01*
X139411411Y-129922042D01*
X139398693Y-129930540D01*
X139396697Y-129930671D01*
X139395586Y-129929008D01*
X139395919Y-129927766D01*
X139419524Y-129892439D01*
X139429000Y-129844801D01*
X139429000Y-128445199D01*
X139419524Y-128397561D01*
X139395919Y-128362234D01*
X139395788Y-128360238D01*
X139397451Y-128359127D01*
X139398693Y-128359460D01*
G37*
G36*
X143898693Y-128359460D02*
G01*
X143911425Y-128367967D01*
X143977789Y-128388747D01*
X144048589Y-128367958D01*
X144061307Y-128359460D01*
X144063303Y-128359329D01*
X144064414Y-128360992D01*
X144064081Y-128362234D01*
X144040476Y-128397561D01*
X144031000Y-128445199D01*
X144031000Y-129844801D01*
X144040476Y-129892439D01*
X144064081Y-129927766D01*
X144064212Y-129929762D01*
X144062549Y-129930873D01*
X144061307Y-129930540D01*
X144048575Y-129922033D01*
X143982211Y-129901253D01*
X143911411Y-129922042D01*
X143898693Y-129930540D01*
X143896697Y-129930671D01*
X143895586Y-129929008D01*
X143895919Y-129927766D01*
X143919524Y-129892439D01*
X143929000Y-129844801D01*
X143929000Y-128445199D01*
X143919524Y-128397561D01*
X143895919Y-128362234D01*
X143895788Y-128360238D01*
X143897451Y-128359127D01*
X143898693Y-128359460D01*
G37*
G36*
X144898693Y-128359460D02*
G01*
X144911425Y-128367967D01*
X144977789Y-128388747D01*
X145048589Y-128367958D01*
X145061307Y-128359460D01*
X145063303Y-128359329D01*
X145064414Y-128360992D01*
X145064081Y-128362234D01*
X145040476Y-128397561D01*
X145031000Y-128445199D01*
X145031000Y-129844801D01*
X145040476Y-129892439D01*
X145064081Y-129927766D01*
X145064212Y-129929762D01*
X145062549Y-129930873D01*
X145061307Y-129930540D01*
X145048575Y-129922033D01*
X144982211Y-129901253D01*
X144911411Y-129922042D01*
X144898693Y-129930540D01*
X144896697Y-129930671D01*
X144895586Y-129929008D01*
X144895919Y-129927766D01*
X144919524Y-129892439D01*
X144929000Y-129844801D01*
X144929000Y-128445199D01*
X144919524Y-128397561D01*
X144895919Y-128362234D01*
X144895788Y-128360238D01*
X144897451Y-128359127D01*
X144898693Y-128359460D01*
G37*
G36*
X143398693Y-128359460D02*
G01*
X143411425Y-128367967D01*
X143477789Y-128388747D01*
X143548589Y-128367958D01*
X143561307Y-128359460D01*
X143563303Y-128359329D01*
X143564414Y-128360992D01*
X143564081Y-128362234D01*
X143540476Y-128397561D01*
X143531000Y-128445199D01*
X143531000Y-129844801D01*
X143540476Y-129892439D01*
X143564081Y-129927766D01*
X143564212Y-129929762D01*
X143562549Y-129930873D01*
X143561307Y-129930540D01*
X143548575Y-129922033D01*
X143482211Y-129901253D01*
X143411411Y-129922042D01*
X143398693Y-129930540D01*
X143396697Y-129930671D01*
X143395586Y-129929008D01*
X143395919Y-129927766D01*
X143419524Y-129892439D01*
X143429000Y-129844801D01*
X143429000Y-128445199D01*
X143419524Y-128397561D01*
X143395919Y-128362234D01*
X143395788Y-128360238D01*
X143397451Y-128359127D01*
X143398693Y-128359460D01*
G37*
G36*
X142898693Y-128359460D02*
G01*
X142911425Y-128367967D01*
X142977789Y-128388747D01*
X143048589Y-128367958D01*
X143061307Y-128359460D01*
X143063303Y-128359329D01*
X143064414Y-128360992D01*
X143064081Y-128362234D01*
X143040476Y-128397561D01*
X143031000Y-128445199D01*
X143031000Y-129844801D01*
X143040476Y-129892439D01*
X143064081Y-129927766D01*
X143064212Y-129929762D01*
X143062549Y-129930873D01*
X143061307Y-129930540D01*
X143048575Y-129922033D01*
X142982211Y-129901253D01*
X142911411Y-129922042D01*
X142898693Y-129930540D01*
X142896697Y-129930671D01*
X142895586Y-129929008D01*
X142895919Y-129927766D01*
X142919524Y-129892439D01*
X142929000Y-129844801D01*
X142929000Y-128445199D01*
X142919524Y-128397561D01*
X142895919Y-128362234D01*
X142895788Y-128360238D01*
X142897451Y-128359127D01*
X142898693Y-128359460D01*
G37*
G36*
X145398693Y-128359460D02*
G01*
X145411425Y-128367967D01*
X145477789Y-128388747D01*
X145548589Y-128367958D01*
X145561307Y-128359460D01*
X145563303Y-128359329D01*
X145564414Y-128360992D01*
X145564081Y-128362234D01*
X145540476Y-128397561D01*
X145531000Y-128445199D01*
X145531000Y-129844801D01*
X145540476Y-129892439D01*
X145564081Y-129927766D01*
X145564212Y-129929762D01*
X145562549Y-129930873D01*
X145561307Y-129930540D01*
X145548575Y-129922033D01*
X145482211Y-129901253D01*
X145411411Y-129922042D01*
X145398693Y-129930540D01*
X145396697Y-129930671D01*
X145395586Y-129929008D01*
X145395919Y-129927766D01*
X145419524Y-129892439D01*
X145429000Y-129844801D01*
X145429000Y-128445199D01*
X145419524Y-128397561D01*
X145395919Y-128362234D01*
X145395788Y-128360238D01*
X145397451Y-128359127D01*
X145398693Y-128359460D01*
G37*
G36*
X140898693Y-128359460D02*
G01*
X140911425Y-128367967D01*
X140977789Y-128388747D01*
X141048589Y-128367958D01*
X141061307Y-128359460D01*
X141063303Y-128359329D01*
X141064414Y-128360992D01*
X141064081Y-128362234D01*
X141040476Y-128397561D01*
X141031000Y-128445199D01*
X141031000Y-129844801D01*
X141040476Y-129892439D01*
X141064081Y-129927766D01*
X141064212Y-129929762D01*
X141062549Y-129930873D01*
X141061307Y-129930540D01*
X141048575Y-129922033D01*
X140982211Y-129901253D01*
X140911411Y-129922042D01*
X140898693Y-129930540D01*
X140896697Y-129930671D01*
X140895586Y-129929008D01*
X140895919Y-129927766D01*
X140919524Y-129892439D01*
X140929000Y-129844801D01*
X140929000Y-128445199D01*
X140919524Y-128397561D01*
X140895919Y-128362234D01*
X140895788Y-128360238D01*
X140897451Y-128359127D01*
X140898693Y-128359460D01*
G37*
M02*
