G04 #@! TF.GenerationSoftware,KiCad,Pcbnew,(6.0.0)*
G04 #@! TF.CreationDate,2023-01-21T18:13:15+03:00*
G04 #@! TF.ProjectId,im_converter,696d5f63-6f6e-4766-9572-7465722e6b69,rev?*
G04 #@! TF.SameCoordinates,Original*
G04 #@! TF.FileFunction,Copper,L2,Inr*
G04 #@! TF.FilePolarity,Positive*
%FSLAX46Y46*%
G04 Gerber Fmt 4.6, Leading zero omitted, Abs format (unit mm)*
G04 Created by KiCad (PCBNEW (6.0.0)) date 2023-01-21 18:13:15*
%MOMM*%
%LPD*%
G01*
G04 APERTURE LIST*
G04 #@! TA.AperFunction,ComponentPad*
%ADD10R,1.700000X1.700000*%
G04 #@! TD*
G04 #@! TA.AperFunction,ComponentPad*
%ADD11O,1.700000X1.700000*%
G04 #@! TD*
G04 #@! TA.AperFunction,ComponentPad*
%ADD12O,1.700000X0.900000*%
G04 #@! TD*
G04 #@! TA.AperFunction,ComponentPad*
%ADD13O,2.000000X0.900000*%
G04 #@! TD*
G04 #@! TA.AperFunction,ComponentPad*
%ADD14C,1.440000*%
G04 #@! TD*
G04 #@! TA.AperFunction,ViaPad*
%ADD15C,0.600000*%
G04 #@! TD*
G04 #@! TA.AperFunction,ViaPad*
%ADD16C,0.800000*%
G04 #@! TD*
G04 #@! TA.AperFunction,Conductor*
%ADD17C,0.250000*%
G04 #@! TD*
G04 APERTURE END LIST*
D10*
X130220000Y-136000000D03*
D11*
X127680000Y-136000000D03*
X125140000Y-136000000D03*
D10*
X154020000Y-148870000D03*
D11*
X154020000Y-146330000D03*
D10*
X158410000Y-146350000D03*
D11*
X158410000Y-148890000D03*
D10*
X186620000Y-128820000D03*
D11*
X186620000Y-133900000D03*
D10*
X186670000Y-152870000D03*
D11*
X186670000Y-147790000D03*
D10*
X138000000Y-150240000D03*
D11*
X140540000Y-150240000D03*
X138000000Y-152780000D03*
X140540000Y-152780000D03*
D10*
X146110000Y-150190000D03*
D11*
X148650000Y-150190000D03*
X146110000Y-152730000D03*
X148650000Y-152730000D03*
D10*
X131800000Y-127800000D03*
D11*
X134340000Y-127800000D03*
X131800000Y-130340000D03*
X134340000Y-130340000D03*
X131800000Y-132880000D03*
X134340000Y-132880000D03*
D10*
X137320000Y-145990000D03*
D11*
X139860000Y-145990000D03*
X142400000Y-145990000D03*
X144940000Y-145990000D03*
D12*
X117490000Y-145860000D03*
D13*
X121660000Y-145860000D03*
D12*
X117490000Y-137220000D03*
D13*
X121660000Y-137220000D03*
D14*
X171210000Y-128600000D03*
X168670000Y-128600000D03*
X166130000Y-128600000D03*
D15*
X119380000Y-125730000D03*
D16*
X142560000Y-137990000D03*
X175510000Y-141250000D03*
D15*
X151130000Y-125730000D03*
D16*
X133000000Y-136990000D03*
D15*
X144300000Y-151500000D03*
X144300000Y-152700000D03*
X172720000Y-154940000D03*
X126365000Y-153035000D03*
X185420000Y-154940000D03*
D16*
X173900000Y-137470000D03*
D15*
X118110000Y-151130000D03*
X182880000Y-154940000D03*
X184150000Y-154940000D03*
X172720000Y-151130000D03*
D16*
X174740000Y-129260000D03*
X141170000Y-137990000D03*
D15*
X121920000Y-125730000D03*
X144300000Y-153840000D03*
X126365000Y-151765000D03*
X186690000Y-140970000D03*
X162560000Y-134620000D03*
X152400000Y-127000000D03*
X120650000Y-125730000D03*
X118110000Y-125730000D03*
D16*
X173440000Y-136460000D03*
D15*
X130556000Y-142240000D03*
X135890000Y-139700000D03*
X186690000Y-143510000D03*
X162560000Y-137160000D03*
X186690000Y-139700000D03*
X152400000Y-125730000D03*
X151130000Y-127000000D03*
X186690000Y-154940000D03*
X172720000Y-153670000D03*
X132540000Y-144460000D03*
D16*
X174770000Y-130670000D03*
D15*
X123190000Y-125730000D03*
D16*
X137430000Y-128580000D03*
D15*
X186690000Y-138430000D03*
X186690000Y-142240000D03*
X172720000Y-152400000D03*
X118110000Y-153670000D03*
D16*
X176300000Y-134670000D03*
X144420000Y-127310000D03*
D15*
X118110000Y-152400000D03*
X162560000Y-135890000D03*
D16*
X135200000Y-154300000D03*
X135200000Y-153090000D03*
X177050000Y-154720000D03*
X173970000Y-139550000D03*
X123700000Y-143360000D03*
X181630000Y-147790000D03*
X123590000Y-137580000D03*
D15*
X146910000Y-135530000D03*
X174290000Y-152990000D03*
D16*
X149490000Y-144720000D03*
X135010000Y-125340000D03*
X144410000Y-125580000D03*
X139260000Y-125580000D03*
X132750000Y-125340000D03*
X150420000Y-137620000D03*
X133900000Y-125340000D03*
X151580000Y-130200000D03*
X133100000Y-138790000D03*
D15*
X143340000Y-136710000D03*
X139080000Y-135080000D03*
X145590000Y-130960000D03*
X144230000Y-130980000D03*
X139820000Y-136540000D03*
X142600000Y-130970000D03*
X141520000Y-130960000D03*
X124690000Y-142620000D03*
X129200000Y-148270000D03*
X118177500Y-140557500D03*
X118028768Y-143048768D03*
X124060000Y-139195000D03*
X128190000Y-139195000D03*
X118771232Y-143791232D03*
X124060000Y-140045000D03*
X119215000Y-140570000D03*
X128190000Y-140045000D03*
X135840000Y-136170000D03*
X130770000Y-139680000D03*
X178590000Y-149000000D03*
X168190000Y-131780000D03*
X179980000Y-134240000D03*
X179550000Y-150910000D03*
D17*
X146845736Y-140640000D02*
X152460000Y-140640000D01*
X143340000Y-137134264D02*
X146845736Y-140640000D01*
X154020000Y-142200000D02*
X154020000Y-146330000D01*
X152460000Y-140640000D02*
X154020000Y-142200000D01*
X143340000Y-136710000D02*
X143340000Y-137134264D01*
G04 #@! TA.AperFunction,Conductor*
G36*
X132061751Y-124528002D02*
G01*
X132108244Y-124581658D01*
X132118348Y-124651932D01*
X132087267Y-124718308D01*
X132010960Y-124803056D01*
X131915473Y-124968444D01*
X131856458Y-125150072D01*
X131836496Y-125340000D01*
X131837186Y-125346565D01*
X131842449Y-125396635D01*
X131856458Y-125529928D01*
X131915473Y-125711556D01*
X132010960Y-125876944D01*
X132138747Y-126018866D01*
X132293248Y-126131118D01*
X132299276Y-126133802D01*
X132299278Y-126133803D01*
X132448843Y-126200393D01*
X132502939Y-126246373D01*
X132523588Y-126314300D01*
X132504236Y-126382608D01*
X132451025Y-126429610D01*
X132397594Y-126441500D01*
X130901866Y-126441500D01*
X130839684Y-126448255D01*
X130703295Y-126499385D01*
X130586739Y-126586739D01*
X130499385Y-126703295D01*
X130448255Y-126839684D01*
X130441500Y-126901866D01*
X130441500Y-128698134D01*
X130448255Y-128760316D01*
X130499385Y-128896705D01*
X130586739Y-129013261D01*
X130703295Y-129100615D01*
X130711704Y-129103767D01*
X130711705Y-129103768D01*
X130820960Y-129144726D01*
X130877725Y-129187367D01*
X130902425Y-129253929D01*
X130887218Y-129323278D01*
X130867825Y-129349759D01*
X130744590Y-129478717D01*
X130738104Y-129486727D01*
X130618098Y-129662649D01*
X130613000Y-129671623D01*
X130523338Y-129864783D01*
X130519775Y-129874470D01*
X130464389Y-130074183D01*
X130465912Y-130082607D01*
X130478292Y-130086000D01*
X131928000Y-130086000D01*
X131996121Y-130106002D01*
X132042614Y-130159658D01*
X132054000Y-130212000D01*
X132054000Y-130468000D01*
X132033998Y-130536121D01*
X131980342Y-130582614D01*
X131928000Y-130594000D01*
X130483225Y-130594000D01*
X130469694Y-130597973D01*
X130468257Y-130607966D01*
X130498565Y-130742446D01*
X130501645Y-130752275D01*
X130581770Y-130949603D01*
X130586413Y-130958794D01*
X130697694Y-131140388D01*
X130703777Y-131148699D01*
X130843213Y-131309667D01*
X130850580Y-131316883D01*
X131014434Y-131452916D01*
X131022881Y-131458831D01*
X131091969Y-131499203D01*
X131140693Y-131550842D01*
X131153764Y-131620625D01*
X131127033Y-131686396D01*
X131086584Y-131719752D01*
X131073607Y-131726507D01*
X131069474Y-131729610D01*
X131069471Y-131729612D01*
X130966881Y-131806639D01*
X130894965Y-131860635D01*
X130740629Y-132022138D01*
X130737720Y-132026403D01*
X130737714Y-132026411D01*
X130673004Y-132121273D01*
X130614743Y-132206680D01*
X130520688Y-132409305D01*
X130460989Y-132624570D01*
X130437251Y-132846695D01*
X130437548Y-132851848D01*
X130437548Y-132851851D01*
X130443011Y-132946590D01*
X130450110Y-133069715D01*
X130451247Y-133074761D01*
X130451248Y-133074767D01*
X130470890Y-133161924D01*
X130499222Y-133287639D01*
X130583266Y-133494616D01*
X130634019Y-133577438D01*
X130697291Y-133680688D01*
X130699987Y-133685088D01*
X130846250Y-133853938D01*
X131018126Y-133996632D01*
X131211000Y-134109338D01*
X131419692Y-134189030D01*
X131424760Y-134190061D01*
X131424763Y-134190062D01*
X131532017Y-134211883D01*
X131638597Y-134233567D01*
X131643772Y-134233757D01*
X131643774Y-134233757D01*
X131856673Y-134241564D01*
X131856677Y-134241564D01*
X131861837Y-134241753D01*
X131866957Y-134241097D01*
X131866959Y-134241097D01*
X132078288Y-134214025D01*
X132078289Y-134214025D01*
X132083416Y-134213368D01*
X132088366Y-134211883D01*
X132292429Y-134150661D01*
X132292434Y-134150659D01*
X132297384Y-134149174D01*
X132497994Y-134050896D01*
X132679860Y-133921173D01*
X132718700Y-133882469D01*
X132834435Y-133767137D01*
X132838096Y-133763489D01*
X132858838Y-133734624D01*
X132968453Y-133582077D01*
X132969776Y-133583028D01*
X133016645Y-133539857D01*
X133086580Y-133527625D01*
X133152026Y-133555144D01*
X133179875Y-133586994D01*
X133239987Y-133685088D01*
X133386250Y-133853938D01*
X133558126Y-133996632D01*
X133751000Y-134109338D01*
X133959692Y-134189030D01*
X133964760Y-134190061D01*
X133964763Y-134190062D01*
X134072017Y-134211883D01*
X134178597Y-134233567D01*
X134183772Y-134233757D01*
X134183774Y-134233757D01*
X134396673Y-134241564D01*
X134396677Y-134241564D01*
X134401837Y-134241753D01*
X134406957Y-134241097D01*
X134406959Y-134241097D01*
X134504201Y-134228640D01*
X179166463Y-134228640D01*
X179184163Y-134409160D01*
X179241418Y-134581273D01*
X179245065Y-134587295D01*
X179245066Y-134587297D01*
X179330550Y-134728448D01*
X179335380Y-134736424D01*
X179340269Y-134741487D01*
X179340270Y-134741488D01*
X179383969Y-134786739D01*
X179461382Y-134866902D01*
X179613159Y-134966222D01*
X179619763Y-134968678D01*
X179619765Y-134968679D01*
X179776558Y-135026990D01*
X179776560Y-135026990D01*
X179783168Y-135029448D01*
X179859882Y-135039684D01*
X179955980Y-135052507D01*
X179955984Y-135052507D01*
X179962961Y-135053438D01*
X179969972Y-135052800D01*
X179969976Y-135052800D01*
X180114087Y-135039684D01*
X180143600Y-135036998D01*
X180150302Y-135034820D01*
X180150304Y-135034820D01*
X180309409Y-134983124D01*
X180309412Y-134983123D01*
X180316108Y-134980947D01*
X180432266Y-134911703D01*
X180465860Y-134891677D01*
X180465862Y-134891676D01*
X180471912Y-134888069D01*
X180603266Y-134762982D01*
X180703643Y-134611902D01*
X180768055Y-134442338D01*
X180769063Y-134435166D01*
X180792748Y-134266639D01*
X180792748Y-134266636D01*
X180793299Y-134262717D01*
X180793616Y-134240000D01*
X180785536Y-134167966D01*
X185288257Y-134167966D01*
X185318565Y-134302446D01*
X185321645Y-134312275D01*
X185401770Y-134509603D01*
X185406413Y-134518794D01*
X185517694Y-134700388D01*
X185523777Y-134708699D01*
X185663213Y-134869667D01*
X185670580Y-134876883D01*
X185834434Y-135012916D01*
X185842881Y-135018831D01*
X186026756Y-135126279D01*
X186036042Y-135130729D01*
X186235001Y-135206703D01*
X186244899Y-135209579D01*
X186348250Y-135230606D01*
X186362299Y-135229410D01*
X186366000Y-135219065D01*
X186366000Y-134172115D01*
X186361525Y-134156876D01*
X186360135Y-134155671D01*
X186352452Y-134154000D01*
X185303225Y-134154000D01*
X185289694Y-134157973D01*
X185288257Y-134167966D01*
X180785536Y-134167966D01*
X180773397Y-134059745D01*
X180771080Y-134053091D01*
X180716064Y-133895106D01*
X180716062Y-133895103D01*
X180713745Y-133888448D01*
X180617626Y-133734624D01*
X180603941Y-133720843D01*
X180517884Y-133634183D01*
X185284389Y-133634183D01*
X185285912Y-133642607D01*
X185298292Y-133646000D01*
X186347885Y-133646000D01*
X186363124Y-133641525D01*
X186364329Y-133640135D01*
X186366000Y-133632452D01*
X186366000Y-132583102D01*
X186362082Y-132569758D01*
X186347806Y-132567771D01*
X186309324Y-132573660D01*
X186299288Y-132576051D01*
X186096868Y-132642212D01*
X186087359Y-132646209D01*
X185898463Y-132744542D01*
X185889738Y-132750036D01*
X185719433Y-132877905D01*
X185711726Y-132884748D01*
X185564590Y-133038717D01*
X185558104Y-133046727D01*
X185438098Y-133222649D01*
X185433000Y-133231623D01*
X185343338Y-133424783D01*
X185339775Y-133434470D01*
X185284389Y-133634183D01*
X180517884Y-133634183D01*
X180494778Y-133610915D01*
X180494774Y-133610912D01*
X180489815Y-133605918D01*
X180478697Y-133598862D01*
X180385719Y-133539857D01*
X180336666Y-133508727D01*
X180283594Y-133489829D01*
X180172425Y-133450243D01*
X180172420Y-133450242D01*
X180165790Y-133447881D01*
X180158802Y-133447048D01*
X180158799Y-133447047D01*
X180035698Y-133432368D01*
X179985680Y-133426404D01*
X179978677Y-133427140D01*
X179978676Y-133427140D01*
X179812288Y-133444628D01*
X179812286Y-133444629D01*
X179805288Y-133445364D01*
X179633579Y-133503818D01*
X179574999Y-133539857D01*
X179485095Y-133595166D01*
X179485092Y-133595168D01*
X179479088Y-133598862D01*
X179474053Y-133603793D01*
X179474050Y-133603795D01*
X179444787Y-133632452D01*
X179349493Y-133725771D01*
X179251235Y-133878238D01*
X179248826Y-133884858D01*
X179248824Y-133884861D01*
X179209346Y-133993327D01*
X179189197Y-134048685D01*
X179166463Y-134228640D01*
X134504201Y-134228640D01*
X134618288Y-134214025D01*
X134618289Y-134214025D01*
X134623416Y-134213368D01*
X134628366Y-134211883D01*
X134832429Y-134150661D01*
X134832434Y-134150659D01*
X134837384Y-134149174D01*
X135037994Y-134050896D01*
X135219860Y-133921173D01*
X135258700Y-133882469D01*
X135374435Y-133767137D01*
X135378096Y-133763489D01*
X135398838Y-133734624D01*
X135505435Y-133586277D01*
X135508453Y-133582077D01*
X135529320Y-133539857D01*
X135605136Y-133386453D01*
X135605137Y-133386451D01*
X135607430Y-133381811D01*
X135655787Y-133222649D01*
X135670865Y-133173023D01*
X135670865Y-133173021D01*
X135672370Y-133168069D01*
X135701529Y-132946590D01*
X135701611Y-132943240D01*
X135703074Y-132883365D01*
X135703074Y-132883361D01*
X135703156Y-132880000D01*
X135684852Y-132657361D01*
X135630431Y-132440702D01*
X135541354Y-132235840D01*
X135420014Y-132048277D01*
X135269670Y-131883051D01*
X135265619Y-131879852D01*
X135265615Y-131879848D01*
X135098414Y-131747800D01*
X135098410Y-131747798D01*
X135094359Y-131744598D01*
X135053053Y-131721796D01*
X135003084Y-131671364D01*
X134988312Y-131601921D01*
X135013428Y-131535516D01*
X135040780Y-131508909D01*
X135107262Y-131461488D01*
X135219860Y-131381173D01*
X135235756Y-131365333D01*
X135374435Y-131227137D01*
X135378096Y-131223489D01*
X135430246Y-131150915D01*
X135505435Y-131046277D01*
X135508453Y-131042077D01*
X135521995Y-131014678D01*
X135554633Y-130948640D01*
X140706463Y-130948640D01*
X140724163Y-131129160D01*
X140781418Y-131301273D01*
X140785065Y-131307295D01*
X140785066Y-131307297D01*
X140829807Y-131381173D01*
X140875380Y-131456424D01*
X140880269Y-131461487D01*
X140880270Y-131461488D01*
X140939570Y-131522894D01*
X141001382Y-131586902D01*
X141049010Y-131618069D01*
X141130454Y-131671364D01*
X141153159Y-131686222D01*
X141159763Y-131688678D01*
X141159765Y-131688679D01*
X141316558Y-131746990D01*
X141316560Y-131746990D01*
X141323168Y-131749448D01*
X141398113Y-131759448D01*
X141495980Y-131772507D01*
X141495984Y-131772507D01*
X141502961Y-131773438D01*
X141509972Y-131772800D01*
X141509976Y-131772800D01*
X141656680Y-131759448D01*
X141683600Y-131756998D01*
X141690302Y-131754820D01*
X141690304Y-131754820D01*
X141849409Y-131703124D01*
X141849412Y-131703123D01*
X141856108Y-131700947D01*
X141989569Y-131621388D01*
X142058321Y-131603689D01*
X142123076Y-131624186D01*
X142233159Y-131696222D01*
X142239763Y-131698678D01*
X142239765Y-131698679D01*
X142396558Y-131756990D01*
X142396560Y-131756990D01*
X142403168Y-131759448D01*
X142478113Y-131769448D01*
X142575980Y-131782507D01*
X142575984Y-131782507D01*
X142582961Y-131783438D01*
X142589972Y-131782800D01*
X142589976Y-131782800D01*
X142745558Y-131768640D01*
X142763600Y-131766998D01*
X142770302Y-131764820D01*
X142770304Y-131764820D01*
X142929409Y-131713124D01*
X142929412Y-131713123D01*
X142936108Y-131710947D01*
X143032513Y-131653478D01*
X143085860Y-131621677D01*
X143085862Y-131621676D01*
X143091912Y-131618069D01*
X143223266Y-131492982D01*
X143238269Y-131470401D01*
X143308076Y-131365333D01*
X143362434Y-131319662D01*
X143432853Y-131310630D01*
X143496977Y-131341103D01*
X143520800Y-131369789D01*
X143576335Y-131461488D01*
X143585380Y-131476424D01*
X143590269Y-131481487D01*
X143590270Y-131481488D01*
X143630256Y-131522894D01*
X143711382Y-131606902D01*
X143787270Y-131656562D01*
X143841982Y-131692364D01*
X143863159Y-131706222D01*
X143869763Y-131708678D01*
X143869765Y-131708679D01*
X144026558Y-131766990D01*
X144026560Y-131766990D01*
X144033168Y-131769448D01*
X144112250Y-131780000D01*
X144205980Y-131792507D01*
X144205984Y-131792507D01*
X144212961Y-131793438D01*
X144219972Y-131792800D01*
X144219976Y-131792800D01*
X144362459Y-131779832D01*
X144393600Y-131776998D01*
X144400302Y-131774820D01*
X144400304Y-131774820D01*
X144559409Y-131723124D01*
X144559412Y-131723123D01*
X144566108Y-131720947D01*
X144662513Y-131663478D01*
X144715860Y-131631677D01*
X144715862Y-131631676D01*
X144721912Y-131628069D01*
X144819102Y-131535516D01*
X144834063Y-131521269D01*
X144897188Y-131488777D01*
X144967859Y-131495570D01*
X145011592Y-131524988D01*
X145071382Y-131586902D01*
X145119010Y-131618069D01*
X145200454Y-131671364D01*
X145223159Y-131686222D01*
X145229763Y-131688678D01*
X145229765Y-131688679D01*
X145386558Y-131746990D01*
X145386560Y-131746990D01*
X145393168Y-131749448D01*
X145468113Y-131759448D01*
X145565980Y-131772507D01*
X145565984Y-131772507D01*
X145572961Y-131773438D01*
X145579972Y-131772800D01*
X145579976Y-131772800D01*
X145625684Y-131768640D01*
X167376463Y-131768640D01*
X167394163Y-131949160D01*
X167451418Y-132121273D01*
X167455065Y-132127295D01*
X167455066Y-132127297D01*
X167520802Y-132235840D01*
X167545380Y-132276424D01*
X167671382Y-132406902D01*
X167823159Y-132506222D01*
X167829763Y-132508678D01*
X167829765Y-132508679D01*
X167986558Y-132566990D01*
X167986560Y-132566990D01*
X167993168Y-132569448D01*
X168076995Y-132580633D01*
X168165980Y-132592507D01*
X168165984Y-132592507D01*
X168172961Y-132593438D01*
X168179972Y-132592800D01*
X168179976Y-132592800D01*
X168322459Y-132579832D01*
X168353600Y-132576998D01*
X168360302Y-132574820D01*
X168360304Y-132574820D01*
X168519409Y-132523124D01*
X168519412Y-132523123D01*
X168526108Y-132520947D01*
X168681912Y-132428069D01*
X168813266Y-132302982D01*
X168913643Y-132151902D01*
X168978055Y-131982338D01*
X168979035Y-131975366D01*
X169002748Y-131806639D01*
X169002748Y-131806636D01*
X169003299Y-131802717D01*
X169003616Y-131780000D01*
X168983397Y-131599745D01*
X168980268Y-131590760D01*
X168926064Y-131435106D01*
X168926062Y-131435103D01*
X168923745Y-131428448D01*
X168827626Y-131274624D01*
X168813941Y-131260843D01*
X168704778Y-131150915D01*
X168704774Y-131150912D01*
X168699815Y-131145918D01*
X168691102Y-131140388D01*
X168638692Y-131107128D01*
X168546666Y-131048727D01*
X168514963Y-131037438D01*
X168382425Y-130990243D01*
X168382420Y-130990242D01*
X168375790Y-130987881D01*
X168368802Y-130987048D01*
X168368799Y-130987047D01*
X168245698Y-130972368D01*
X168195680Y-130966404D01*
X168188677Y-130967140D01*
X168188676Y-130967140D01*
X168022288Y-130984628D01*
X168022286Y-130984629D01*
X168015288Y-130985364D01*
X167843579Y-131043818D01*
X167837575Y-131047512D01*
X167695095Y-131135166D01*
X167695092Y-131135168D01*
X167689088Y-131138862D01*
X167684053Y-131143793D01*
X167684050Y-131143795D01*
X167564525Y-131260843D01*
X167559493Y-131265771D01*
X167461235Y-131418238D01*
X167458826Y-131424858D01*
X167458824Y-131424861D01*
X167401606Y-131582066D01*
X167399197Y-131588685D01*
X167376463Y-131768640D01*
X145625684Y-131768640D01*
X145726680Y-131759448D01*
X145753600Y-131756998D01*
X145760302Y-131754820D01*
X145760304Y-131754820D01*
X145919409Y-131703124D01*
X145919412Y-131703123D01*
X145926108Y-131700947D01*
X146056511Y-131623211D01*
X146075860Y-131611677D01*
X146075862Y-131611676D01*
X146081912Y-131608069D01*
X146213266Y-131482982D01*
X146313643Y-131331902D01*
X146356544Y-131218965D01*
X146375555Y-131168920D01*
X146375556Y-131168918D01*
X146378055Y-131162338D01*
X146379035Y-131155366D01*
X146402748Y-130986639D01*
X146402748Y-130986636D01*
X146403299Y-130982717D01*
X146403452Y-130971738D01*
X146403561Y-130963962D01*
X146403561Y-130963957D01*
X146403616Y-130960000D01*
X146383397Y-130779745D01*
X146381080Y-130773091D01*
X146326064Y-130615106D01*
X146326062Y-130615103D01*
X146323745Y-130608448D01*
X146296765Y-130565271D01*
X146231359Y-130460598D01*
X146227626Y-130454624D01*
X146213941Y-130440843D01*
X146104778Y-130330915D01*
X146104774Y-130330912D01*
X146099815Y-130325918D01*
X146088697Y-130318862D01*
X146040538Y-130288300D01*
X145946666Y-130228727D01*
X145884428Y-130206565D01*
X145865992Y-130200000D01*
X150666496Y-130200000D01*
X150667186Y-130206565D01*
X150682358Y-130350915D01*
X150686458Y-130389928D01*
X150745473Y-130571556D01*
X150748776Y-130577278D01*
X150748777Y-130577279D01*
X150758431Y-130594000D01*
X150840960Y-130736944D01*
X150845378Y-130741851D01*
X150845379Y-130741852D01*
X150939562Y-130846453D01*
X150968747Y-130878866D01*
X151055156Y-130941646D01*
X151117780Y-130987145D01*
X151123248Y-130991118D01*
X151129276Y-130993802D01*
X151129278Y-130993803D01*
X151261128Y-131052506D01*
X151297712Y-131068794D01*
X151391112Y-131088647D01*
X151478056Y-131107128D01*
X151478061Y-131107128D01*
X151484513Y-131108500D01*
X151675487Y-131108500D01*
X151681939Y-131107128D01*
X151681944Y-131107128D01*
X151768888Y-131088647D01*
X151862288Y-131068794D01*
X151898872Y-131052506D01*
X152030722Y-130993803D01*
X152030724Y-130993802D01*
X152036752Y-130991118D01*
X152042221Y-130987145D01*
X152104844Y-130941646D01*
X152191253Y-130878866D01*
X152220438Y-130846453D01*
X152314621Y-130741852D01*
X152314622Y-130741851D01*
X152319040Y-130736944D01*
X152401569Y-130594000D01*
X152411223Y-130577279D01*
X152411224Y-130577278D01*
X152414527Y-130571556D01*
X152473542Y-130389928D01*
X152477643Y-130350915D01*
X152492814Y-130206565D01*
X152493504Y-130200000D01*
X152473542Y-130010072D01*
X152414527Y-129828444D01*
X152319040Y-129663056D01*
X152191253Y-129521134D01*
X152036752Y-129408882D01*
X152030724Y-129406198D01*
X152030722Y-129406197D01*
X151868319Y-129333891D01*
X151868318Y-129333891D01*
X151862288Y-129331206D01*
X151768888Y-129311353D01*
X151681944Y-129292872D01*
X151681939Y-129292872D01*
X151675487Y-129291500D01*
X151484513Y-129291500D01*
X151478061Y-129292872D01*
X151478056Y-129292872D01*
X151391112Y-129311353D01*
X151297712Y-129331206D01*
X151291682Y-129333891D01*
X151291681Y-129333891D01*
X151129278Y-129406197D01*
X151129276Y-129406198D01*
X151123248Y-129408882D01*
X150968747Y-129521134D01*
X150840960Y-129663056D01*
X150745473Y-129828444D01*
X150686458Y-130010072D01*
X150666496Y-130200000D01*
X145865992Y-130200000D01*
X145782425Y-130170243D01*
X145782420Y-130170242D01*
X145775790Y-130167881D01*
X145768802Y-130167048D01*
X145768799Y-130167047D01*
X145645698Y-130152368D01*
X145595680Y-130146404D01*
X145588677Y-130147140D01*
X145588676Y-130147140D01*
X145422288Y-130164628D01*
X145422286Y-130164629D01*
X145415288Y-130165364D01*
X145243579Y-130223818D01*
X145205065Y-130247512D01*
X145095095Y-130315166D01*
X145095092Y-130315168D01*
X145089088Y-130318862D01*
X145084053Y-130323793D01*
X145084050Y-130323795D01*
X145045238Y-130361803D01*
X144987789Y-130418062D01*
X144925125Y-130451432D01*
X144854366Y-130445626D01*
X144810226Y-130416822D01*
X144744778Y-130350915D01*
X144744774Y-130350912D01*
X144739815Y-130345918D01*
X144728697Y-130338862D01*
X144678009Y-130306695D01*
X144586666Y-130248727D01*
X144538419Y-130231547D01*
X144422425Y-130190243D01*
X144422420Y-130190242D01*
X144415790Y-130187881D01*
X144408802Y-130187048D01*
X144408799Y-130187047D01*
X144285698Y-130172368D01*
X144235680Y-130166404D01*
X144228677Y-130167140D01*
X144228676Y-130167140D01*
X144062288Y-130184628D01*
X144062286Y-130184629D01*
X144055288Y-130185364D01*
X143883579Y-130243818D01*
X143877575Y-130247512D01*
X143735095Y-130335166D01*
X143735092Y-130335168D01*
X143729088Y-130338862D01*
X143724053Y-130343793D01*
X143724050Y-130343795D01*
X143614135Y-130451432D01*
X143599493Y-130465771D01*
X143523683Y-130583406D01*
X143469970Y-130629829D01*
X143399683Y-130639844D01*
X143335140Y-130610269D01*
X143310919Y-130581919D01*
X143304444Y-130571556D01*
X143237626Y-130464624D01*
X143224526Y-130451432D01*
X143114778Y-130340915D01*
X143114774Y-130340912D01*
X143109815Y-130335918D01*
X143098697Y-130328862D01*
X142978378Y-130252506D01*
X142956666Y-130238727D01*
X142881608Y-130212000D01*
X142792425Y-130180243D01*
X142792420Y-130180242D01*
X142785790Y-130177881D01*
X142778802Y-130177048D01*
X142778799Y-130177047D01*
X142655698Y-130162368D01*
X142605680Y-130156404D01*
X142598677Y-130157140D01*
X142598676Y-130157140D01*
X142432288Y-130174628D01*
X142432286Y-130174629D01*
X142425288Y-130175364D01*
X142253579Y-130233818D01*
X142133326Y-130307799D01*
X142064827Y-130326456D01*
X141999792Y-130306865D01*
X141999524Y-130306695D01*
X141876666Y-130228727D01*
X141814428Y-130206565D01*
X141712425Y-130170243D01*
X141712420Y-130170242D01*
X141705790Y-130167881D01*
X141698802Y-130167048D01*
X141698799Y-130167047D01*
X141575698Y-130152368D01*
X141525680Y-130146404D01*
X141518677Y-130147140D01*
X141518676Y-130147140D01*
X141352288Y-130164628D01*
X141352286Y-130164629D01*
X141345288Y-130165364D01*
X141173579Y-130223818D01*
X141135065Y-130247512D01*
X141025095Y-130315166D01*
X141025092Y-130315168D01*
X141019088Y-130318862D01*
X141014053Y-130323793D01*
X141014050Y-130323795D01*
X140917789Y-130418061D01*
X140889493Y-130445771D01*
X140791235Y-130598238D01*
X140788826Y-130604858D01*
X140788824Y-130604861D01*
X140742831Y-130731226D01*
X140729197Y-130768685D01*
X140706463Y-130948640D01*
X135554633Y-130948640D01*
X135605136Y-130846453D01*
X135605137Y-130846451D01*
X135607430Y-130841811D01*
X135641028Y-130731226D01*
X135670865Y-130633023D01*
X135670865Y-130633021D01*
X135672370Y-130628069D01*
X135701529Y-130406590D01*
X135701936Y-130389928D01*
X135703074Y-130343365D01*
X135703074Y-130343361D01*
X135703156Y-130340000D01*
X135684852Y-130117361D01*
X135630431Y-129900702D01*
X135541354Y-129695840D01*
X135501906Y-129634862D01*
X135422822Y-129512617D01*
X135422820Y-129512614D01*
X135420014Y-129508277D01*
X135269670Y-129343051D01*
X135265619Y-129339852D01*
X135265615Y-129339848D01*
X135098414Y-129207800D01*
X135098410Y-129207798D01*
X135094359Y-129204598D01*
X135053053Y-129181796D01*
X135003084Y-129131364D01*
X134988312Y-129061921D01*
X135013428Y-128995516D01*
X135040780Y-128968909D01*
X135084603Y-128937650D01*
X135219860Y-128841173D01*
X135378096Y-128683489D01*
X135434155Y-128605475D01*
X135438089Y-128600000D01*
X164896807Y-128600000D01*
X164915542Y-128814142D01*
X164916966Y-128819455D01*
X164916966Y-128819457D01*
X164958924Y-128976043D01*
X164971178Y-129021777D01*
X164973500Y-129026757D01*
X164973501Y-129026759D01*
X165044972Y-129180027D01*
X165062024Y-129216596D01*
X165185319Y-129392681D01*
X165337319Y-129544681D01*
X165513403Y-129667976D01*
X165518381Y-129670297D01*
X165518384Y-129670299D01*
X165613639Y-129714717D01*
X165708223Y-129758822D01*
X165713531Y-129760244D01*
X165713533Y-129760245D01*
X165910543Y-129813034D01*
X165910545Y-129813034D01*
X165915858Y-129814458D01*
X166130000Y-129833193D01*
X166344142Y-129814458D01*
X166349455Y-129813034D01*
X166349457Y-129813034D01*
X166546467Y-129760245D01*
X166546469Y-129760244D01*
X166551777Y-129758822D01*
X166646361Y-129714717D01*
X166741616Y-129670299D01*
X166741619Y-129670297D01*
X166746597Y-129667976D01*
X166922681Y-129544681D01*
X167074681Y-129392681D01*
X167197976Y-129216596D01*
X167215029Y-129180027D01*
X167285805Y-129028247D01*
X167332723Y-128974962D01*
X167401000Y-128955501D01*
X167468960Y-128976043D01*
X167514195Y-129028247D01*
X167584972Y-129180027D01*
X167602024Y-129216596D01*
X167725319Y-129392681D01*
X167877319Y-129544681D01*
X168053403Y-129667976D01*
X168058381Y-129670297D01*
X168058384Y-129670299D01*
X168153639Y-129714717D01*
X168248223Y-129758822D01*
X168253531Y-129760244D01*
X168253533Y-129760245D01*
X168450543Y-129813034D01*
X168450545Y-129813034D01*
X168455858Y-129814458D01*
X168670000Y-129833193D01*
X168884142Y-129814458D01*
X168889455Y-129813034D01*
X168889457Y-129813034D01*
X169086467Y-129760245D01*
X169086469Y-129760244D01*
X169091777Y-129758822D01*
X169186361Y-129714717D01*
X169281616Y-129670299D01*
X169281619Y-129670297D01*
X169286597Y-129667976D01*
X169462681Y-129544681D01*
X169614681Y-129392681D01*
X169737976Y-129216596D01*
X169755029Y-129180027D01*
X169825805Y-129028247D01*
X169872723Y-128974962D01*
X169941000Y-128955501D01*
X170008960Y-128976043D01*
X170054195Y-129028247D01*
X170124972Y-129180027D01*
X170142024Y-129216596D01*
X170265319Y-129392681D01*
X170417319Y-129544681D01*
X170593403Y-129667976D01*
X170598381Y-129670297D01*
X170598384Y-129670299D01*
X170693639Y-129714717D01*
X170788223Y-129758822D01*
X170793531Y-129760244D01*
X170793533Y-129760245D01*
X170990543Y-129813034D01*
X170990545Y-129813034D01*
X170995858Y-129814458D01*
X171210000Y-129833193D01*
X171424142Y-129814458D01*
X171429455Y-129813034D01*
X171429457Y-129813034D01*
X171626467Y-129760245D01*
X171626469Y-129760244D01*
X171631777Y-129758822D01*
X171726361Y-129714717D01*
X171821616Y-129670299D01*
X171821619Y-129670297D01*
X171826597Y-129667976D01*
X172002681Y-129544681D01*
X172154681Y-129392681D01*
X172277976Y-129216596D01*
X172295029Y-129180027D01*
X172366499Y-129026759D01*
X172366500Y-129026757D01*
X172368822Y-129021777D01*
X172381077Y-128976043D01*
X172423034Y-128819457D01*
X172423034Y-128819455D01*
X172424458Y-128814142D01*
X172443193Y-128600000D01*
X172424458Y-128385858D01*
X172423034Y-128380543D01*
X172370245Y-128183533D01*
X172370244Y-128183531D01*
X172368822Y-128178223D01*
X172365805Y-128171753D01*
X172280299Y-127988385D01*
X172280297Y-127988382D01*
X172277976Y-127983404D01*
X172154681Y-127807319D01*
X172002681Y-127655319D01*
X171826597Y-127532024D01*
X171821619Y-127529703D01*
X171821616Y-127529701D01*
X171636759Y-127443501D01*
X171636758Y-127443500D01*
X171631777Y-127441178D01*
X171626469Y-127439756D01*
X171626467Y-127439755D01*
X171429457Y-127386966D01*
X171429455Y-127386966D01*
X171424142Y-127385542D01*
X171210000Y-127366807D01*
X170995858Y-127385542D01*
X170990545Y-127386966D01*
X170990543Y-127386966D01*
X170793533Y-127439755D01*
X170793531Y-127439756D01*
X170788223Y-127441178D01*
X170783243Y-127443500D01*
X170783241Y-127443501D01*
X170598385Y-127529701D01*
X170598382Y-127529703D01*
X170593404Y-127532024D01*
X170417319Y-127655319D01*
X170265319Y-127807319D01*
X170142024Y-127983404D01*
X170139703Y-127988382D01*
X170139701Y-127988385D01*
X170054195Y-128171753D01*
X170007277Y-128225038D01*
X169939000Y-128244499D01*
X169871040Y-128223957D01*
X169825805Y-128171753D01*
X169740299Y-127988385D01*
X169740297Y-127988382D01*
X169737976Y-127983404D01*
X169614681Y-127807319D01*
X169462681Y-127655319D01*
X169286597Y-127532024D01*
X169281619Y-127529703D01*
X169281616Y-127529701D01*
X169096759Y-127443501D01*
X169096758Y-127443500D01*
X169091777Y-127441178D01*
X169086469Y-127439756D01*
X169086467Y-127439755D01*
X168889457Y-127386966D01*
X168889455Y-127386966D01*
X168884142Y-127385542D01*
X168670000Y-127366807D01*
X168455858Y-127385542D01*
X168450545Y-127386966D01*
X168450543Y-127386966D01*
X168253533Y-127439755D01*
X168253531Y-127439756D01*
X168248223Y-127441178D01*
X168243243Y-127443500D01*
X168243241Y-127443501D01*
X168058385Y-127529701D01*
X168058382Y-127529703D01*
X168053404Y-127532024D01*
X167877319Y-127655319D01*
X167725319Y-127807319D01*
X167602024Y-127983404D01*
X167599703Y-127988382D01*
X167599701Y-127988385D01*
X167514195Y-128171753D01*
X167467277Y-128225038D01*
X167399000Y-128244499D01*
X167331040Y-128223957D01*
X167285805Y-128171753D01*
X167200299Y-127988385D01*
X167200297Y-127988382D01*
X167197976Y-127983404D01*
X167074681Y-127807319D01*
X166922681Y-127655319D01*
X166746597Y-127532024D01*
X166741619Y-127529703D01*
X166741616Y-127529701D01*
X166556759Y-127443501D01*
X166556758Y-127443500D01*
X166551777Y-127441178D01*
X166546469Y-127439756D01*
X166546467Y-127439755D01*
X166349457Y-127386966D01*
X166349455Y-127386966D01*
X166344142Y-127385542D01*
X166130000Y-127366807D01*
X165915858Y-127385542D01*
X165910545Y-127386966D01*
X165910543Y-127386966D01*
X165713533Y-127439755D01*
X165713531Y-127439756D01*
X165708223Y-127441178D01*
X165703243Y-127443500D01*
X165703241Y-127443501D01*
X165518385Y-127529701D01*
X165518382Y-127529703D01*
X165513404Y-127532024D01*
X165337319Y-127655319D01*
X165185319Y-127807319D01*
X165062024Y-127983404D01*
X165059703Y-127988382D01*
X165059701Y-127988385D01*
X164974195Y-128171753D01*
X164971178Y-128178223D01*
X164969756Y-128183531D01*
X164969755Y-128183533D01*
X164916966Y-128380543D01*
X164915542Y-128385858D01*
X164896807Y-128600000D01*
X135438089Y-128600000D01*
X135505435Y-128506277D01*
X135508453Y-128502077D01*
X135563184Y-128391338D01*
X135605136Y-128306453D01*
X135605137Y-128306451D01*
X135607430Y-128301811D01*
X135672370Y-128088069D01*
X135701529Y-127866590D01*
X135702977Y-127807319D01*
X135703074Y-127803365D01*
X135703074Y-127803361D01*
X135703156Y-127800000D01*
X135684852Y-127577361D01*
X135630431Y-127360702D01*
X135541354Y-127155840D01*
X135420014Y-126968277D01*
X135269670Y-126803051D01*
X135265619Y-126799852D01*
X135265615Y-126799848D01*
X135098414Y-126667800D01*
X135098410Y-126667798D01*
X135094359Y-126664598D01*
X134898789Y-126556638D01*
X134893920Y-126554914D01*
X134893916Y-126554912D01*
X134693087Y-126483795D01*
X134693083Y-126483794D01*
X134688212Y-126482069D01*
X134683119Y-126481162D01*
X134683116Y-126481161D01*
X134473373Y-126443800D01*
X134473367Y-126443799D01*
X134468284Y-126442894D01*
X134406259Y-126442136D01*
X134253607Y-126440271D01*
X134185735Y-126419438D01*
X134139901Y-126365218D01*
X134130657Y-126294826D01*
X134160937Y-126230610D01*
X134203897Y-126199173D01*
X134350722Y-126133803D01*
X134350724Y-126133802D01*
X134356752Y-126131118D01*
X134369506Y-126121852D01*
X134380939Y-126113545D01*
X134447806Y-126089687D01*
X134516958Y-126105767D01*
X134529061Y-126113545D01*
X134540495Y-126121852D01*
X134553248Y-126131118D01*
X134559276Y-126133802D01*
X134559278Y-126133803D01*
X134708843Y-126200393D01*
X134727712Y-126208794D01*
X134821113Y-126228647D01*
X134908056Y-126247128D01*
X134908061Y-126247128D01*
X134914513Y-126248500D01*
X135105487Y-126248500D01*
X135111939Y-126247128D01*
X135111944Y-126247128D01*
X135198887Y-126228647D01*
X135292288Y-126208794D01*
X135311157Y-126200393D01*
X135460722Y-126133803D01*
X135460724Y-126133802D01*
X135466752Y-126131118D01*
X135621253Y-126018866D01*
X135749040Y-125876944D01*
X135844527Y-125711556D01*
X135903542Y-125529928D01*
X135917552Y-125396635D01*
X135922814Y-125346565D01*
X135923504Y-125340000D01*
X135903542Y-125150072D01*
X135844527Y-124968444D01*
X135749040Y-124803056D01*
X135672732Y-124718308D01*
X135642017Y-124654303D01*
X135650780Y-124583850D01*
X135696243Y-124529318D01*
X135766370Y-124508000D01*
X138841336Y-124508000D01*
X138909457Y-124528002D01*
X138955950Y-124581658D01*
X138966054Y-124651932D01*
X138936560Y-124716512D01*
X138892584Y-124749107D01*
X138809281Y-124786195D01*
X138809274Y-124786199D01*
X138803248Y-124788882D01*
X138797907Y-124792762D01*
X138797906Y-124792763D01*
X138783739Y-124803056D01*
X138648747Y-124901134D01*
X138520960Y-125043056D01*
X138425473Y-125208444D01*
X138366458Y-125390072D01*
X138365768Y-125396633D01*
X138365768Y-125396635D01*
X138351759Y-125529928D01*
X138346496Y-125580000D01*
X138366458Y-125769928D01*
X138425473Y-125951556D01*
X138520960Y-126116944D01*
X138648747Y-126258866D01*
X138803248Y-126371118D01*
X138809276Y-126373802D01*
X138809278Y-126373803D01*
X138964460Y-126442894D01*
X138977712Y-126448794D01*
X139071112Y-126468647D01*
X139158056Y-126487128D01*
X139158061Y-126487128D01*
X139164513Y-126488500D01*
X139355487Y-126488500D01*
X139361939Y-126487128D01*
X139361944Y-126487128D01*
X139448888Y-126468647D01*
X139542288Y-126448794D01*
X139555540Y-126442894D01*
X139710722Y-126373803D01*
X139710724Y-126373802D01*
X139716752Y-126371118D01*
X139871253Y-126258866D01*
X139999040Y-126116944D01*
X140094527Y-125951556D01*
X140153542Y-125769928D01*
X140173504Y-125580000D01*
X140168241Y-125529928D01*
X140154232Y-125396635D01*
X140154232Y-125396633D01*
X140153542Y-125390072D01*
X140094527Y-125208444D01*
X139999040Y-125043056D01*
X139871253Y-124901134D01*
X139736261Y-124803056D01*
X139722094Y-124792763D01*
X139722093Y-124792762D01*
X139716752Y-124788882D01*
X139710726Y-124786199D01*
X139710719Y-124786195D01*
X139627416Y-124749107D01*
X139573320Y-124703127D01*
X139552670Y-124635200D01*
X139572022Y-124566892D01*
X139625233Y-124519890D01*
X139678664Y-124508000D01*
X143991336Y-124508000D01*
X144059457Y-124528002D01*
X144105950Y-124581658D01*
X144116054Y-124651932D01*
X144086560Y-124716512D01*
X144042584Y-124749107D01*
X143959281Y-124786195D01*
X143959274Y-124786199D01*
X143953248Y-124788882D01*
X143947907Y-124792762D01*
X143947906Y-124792763D01*
X143933739Y-124803056D01*
X143798747Y-124901134D01*
X143670960Y-125043056D01*
X143575473Y-125208444D01*
X143516458Y-125390072D01*
X143515768Y-125396633D01*
X143515768Y-125396635D01*
X143501759Y-125529928D01*
X143496496Y-125580000D01*
X143516458Y-125769928D01*
X143575473Y-125951556D01*
X143670960Y-126116944D01*
X143798747Y-126258866D01*
X143953248Y-126371118D01*
X143959276Y-126373802D01*
X143959278Y-126373803D01*
X144114460Y-126442894D01*
X144127712Y-126448794D01*
X144221112Y-126468647D01*
X144308056Y-126487128D01*
X144308061Y-126487128D01*
X144314513Y-126488500D01*
X144505487Y-126488500D01*
X144511939Y-126487128D01*
X144511944Y-126487128D01*
X144598888Y-126468647D01*
X144692288Y-126448794D01*
X144705540Y-126442894D01*
X144860722Y-126373803D01*
X144860724Y-126373802D01*
X144866752Y-126371118D01*
X145021253Y-126258866D01*
X145149040Y-126116944D01*
X145244527Y-125951556D01*
X145303542Y-125769928D01*
X145323504Y-125580000D01*
X145318241Y-125529928D01*
X145304232Y-125396635D01*
X145304232Y-125396633D01*
X145303542Y-125390072D01*
X145244527Y-125208444D01*
X145149040Y-125043056D01*
X145021253Y-124901134D01*
X144886261Y-124803056D01*
X144872094Y-124792763D01*
X144872093Y-124792762D01*
X144866752Y-124788882D01*
X144860726Y-124786199D01*
X144860719Y-124786195D01*
X144777416Y-124749107D01*
X144723320Y-124703127D01*
X144702670Y-124635200D01*
X144722022Y-124566892D01*
X144775233Y-124519890D01*
X144828664Y-124508000D01*
X187866000Y-124508000D01*
X187934121Y-124528002D01*
X187980614Y-124581658D01*
X187992000Y-124634000D01*
X187992000Y-127473817D01*
X187971998Y-127541938D01*
X187918342Y-127588431D01*
X187848068Y-127598535D01*
X187790435Y-127574643D01*
X187746797Y-127541938D01*
X187716705Y-127519385D01*
X187580316Y-127468255D01*
X187518134Y-127461500D01*
X185721866Y-127461500D01*
X185659684Y-127468255D01*
X185523295Y-127519385D01*
X185406739Y-127606739D01*
X185319385Y-127723295D01*
X185268255Y-127859684D01*
X185261500Y-127921866D01*
X185261500Y-129718134D01*
X185268255Y-129780316D01*
X185319385Y-129916705D01*
X185406739Y-130033261D01*
X185523295Y-130120615D01*
X185659684Y-130171745D01*
X185721866Y-130178500D01*
X187518134Y-130178500D01*
X187580316Y-130171745D01*
X187716705Y-130120615D01*
X187790436Y-130065357D01*
X187856941Y-130040509D01*
X187926323Y-130055562D01*
X187976554Y-130105736D01*
X187992000Y-130166183D01*
X187992000Y-133093803D01*
X187971998Y-133161924D01*
X187918342Y-133208417D01*
X187848068Y-133218521D01*
X187783488Y-133189027D01*
X187760208Y-133162243D01*
X187702426Y-133072926D01*
X187696136Y-133064757D01*
X187552806Y-132907240D01*
X187545273Y-132900215D01*
X187378139Y-132768222D01*
X187369552Y-132762517D01*
X187183117Y-132659599D01*
X187173705Y-132655369D01*
X186972959Y-132584280D01*
X186962988Y-132581646D01*
X186891837Y-132568972D01*
X186878540Y-132570432D01*
X186874000Y-132584989D01*
X186874000Y-135218517D01*
X186878064Y-135232359D01*
X186891478Y-135234393D01*
X186898184Y-135233534D01*
X186908262Y-135231392D01*
X187112255Y-135170191D01*
X187121842Y-135166433D01*
X187313095Y-135072739D01*
X187321945Y-135067464D01*
X187495328Y-134943792D01*
X187503200Y-134937139D01*
X187654052Y-134786812D01*
X187660723Y-134778972D01*
X187763677Y-134635697D01*
X187819672Y-134592049D01*
X187890375Y-134585603D01*
X187953340Y-134618406D01*
X187988574Y-134680042D01*
X187992000Y-134709223D01*
X187992000Y-146906514D01*
X187971998Y-146974635D01*
X187918342Y-147021128D01*
X187848068Y-147031232D01*
X187783488Y-147001738D01*
X187760208Y-146974955D01*
X187752423Y-146962921D01*
X187746136Y-146954757D01*
X187602806Y-146797240D01*
X187595273Y-146790215D01*
X187428139Y-146658222D01*
X187419552Y-146652517D01*
X187233117Y-146549599D01*
X187223705Y-146545369D01*
X187022959Y-146474280D01*
X187012988Y-146471646D01*
X186941837Y-146458972D01*
X186928540Y-146460432D01*
X186924000Y-146474989D01*
X186924000Y-149108517D01*
X186928064Y-149122359D01*
X186941478Y-149124393D01*
X186948184Y-149123534D01*
X186958262Y-149121392D01*
X187162255Y-149060191D01*
X187171842Y-149056433D01*
X187363095Y-148962739D01*
X187371945Y-148957464D01*
X187545328Y-148833792D01*
X187553200Y-148827139D01*
X187704052Y-148676812D01*
X187710725Y-148668970D01*
X187763678Y-148595279D01*
X187819672Y-148551632D01*
X187890376Y-148545186D01*
X187953340Y-148577989D01*
X187988574Y-148639626D01*
X187992000Y-148668806D01*
X187992000Y-151486344D01*
X187971998Y-151554465D01*
X187918342Y-151600958D01*
X187848068Y-151611062D01*
X187790434Y-151587169D01*
X187773892Y-151574771D01*
X187773890Y-151574770D01*
X187766705Y-151569385D01*
X187630316Y-151518255D01*
X187568134Y-151511500D01*
X185771866Y-151511500D01*
X185709684Y-151518255D01*
X185573295Y-151569385D01*
X185456739Y-151656739D01*
X185369385Y-151773295D01*
X185318255Y-151909684D01*
X185311500Y-151971866D01*
X185311500Y-153768134D01*
X185318255Y-153830316D01*
X185369385Y-153966705D01*
X185456739Y-154083261D01*
X185573295Y-154170615D01*
X185709684Y-154221745D01*
X185771866Y-154228500D01*
X187568134Y-154228500D01*
X187630316Y-154221745D01*
X187766705Y-154170615D01*
X187790434Y-154152831D01*
X187856940Y-154127982D01*
X187926323Y-154143034D01*
X187976553Y-154193208D01*
X187992000Y-154253656D01*
X187992000Y-155366000D01*
X187971998Y-155434121D01*
X187918342Y-155480614D01*
X187866000Y-155492000D01*
X177860395Y-155492000D01*
X177792274Y-155471998D01*
X177745781Y-155418342D01*
X177735677Y-155348068D01*
X177766757Y-155281691D01*
X177789040Y-155256944D01*
X177884527Y-155091556D01*
X177943542Y-154909928D01*
X177963504Y-154720000D01*
X177943542Y-154530072D01*
X177884527Y-154348444D01*
X177852768Y-154293435D01*
X177815064Y-154228131D01*
X177789040Y-154183056D01*
X177751681Y-154141564D01*
X177665675Y-154046045D01*
X177665674Y-154046044D01*
X177661253Y-154041134D01*
X177506752Y-153928882D01*
X177500724Y-153926198D01*
X177500722Y-153926197D01*
X177338319Y-153853891D01*
X177338318Y-153853891D01*
X177332288Y-153851206D01*
X177234009Y-153830316D01*
X177151944Y-153812872D01*
X177151939Y-153812872D01*
X177145487Y-153811500D01*
X176954513Y-153811500D01*
X176948061Y-153812872D01*
X176948056Y-153812872D01*
X176865991Y-153830316D01*
X176767712Y-153851206D01*
X176761682Y-153853891D01*
X176761681Y-153853891D01*
X176599278Y-153926197D01*
X176599276Y-153926198D01*
X176593248Y-153928882D01*
X176438747Y-154041134D01*
X176434326Y-154046044D01*
X176434325Y-154046045D01*
X176348320Y-154141564D01*
X176310960Y-154183056D01*
X176284936Y-154228131D01*
X176247233Y-154293435D01*
X176215473Y-154348444D01*
X176156458Y-154530072D01*
X176136496Y-154720000D01*
X176156458Y-154909928D01*
X176215473Y-155091556D01*
X176310960Y-155256944D01*
X176333243Y-155281691D01*
X176363959Y-155345698D01*
X176355194Y-155416152D01*
X176309731Y-155470682D01*
X176239605Y-155492000D01*
X116134000Y-155492000D01*
X116065879Y-155471998D01*
X116019386Y-155418342D01*
X116008000Y-155366000D01*
X116008000Y-154300000D01*
X134286496Y-154300000D01*
X134306458Y-154489928D01*
X134365473Y-154671556D01*
X134368776Y-154677278D01*
X134368777Y-154677279D01*
X134402686Y-154736010D01*
X134460960Y-154836944D01*
X134588747Y-154978866D01*
X134743248Y-155091118D01*
X134749276Y-155093802D01*
X134749278Y-155093803D01*
X134911681Y-155166109D01*
X134917712Y-155168794D01*
X135011112Y-155188647D01*
X135098056Y-155207128D01*
X135098061Y-155207128D01*
X135104513Y-155208500D01*
X135295487Y-155208500D01*
X135301939Y-155207128D01*
X135301944Y-155207128D01*
X135388888Y-155188647D01*
X135482288Y-155168794D01*
X135488319Y-155166109D01*
X135650722Y-155093803D01*
X135650724Y-155093802D01*
X135656752Y-155091118D01*
X135811253Y-154978866D01*
X135939040Y-154836944D01*
X135997314Y-154736010D01*
X136031223Y-154677279D01*
X136031224Y-154677278D01*
X136034527Y-154671556D01*
X136093542Y-154489928D01*
X136113504Y-154300000D01*
X136098036Y-154152831D01*
X136094232Y-154116635D01*
X136094232Y-154116633D01*
X136093542Y-154110072D01*
X136034527Y-153928444D01*
X135989142Y-153849834D01*
X135939040Y-153763056D01*
X135940172Y-153762402D01*
X135918691Y-153702187D01*
X135934775Y-153633036D01*
X135937817Y-153628302D01*
X135939040Y-153626944D01*
X136019840Y-153486994D01*
X136031223Y-153467279D01*
X136031224Y-153467278D01*
X136034527Y-153461556D01*
X136093542Y-153279928D01*
X136094830Y-153267680D01*
X136112814Y-153096565D01*
X136113504Y-153090000D01*
X136095607Y-152919715D01*
X136094232Y-152906635D01*
X136094232Y-152906633D01*
X136093542Y-152900072D01*
X136043706Y-152746695D01*
X136637251Y-152746695D01*
X136637548Y-152751848D01*
X136637548Y-152751851D01*
X136646094Y-152900072D01*
X136650110Y-152969715D01*
X136651247Y-152974761D01*
X136651248Y-152974767D01*
X136671119Y-153062939D01*
X136699222Y-153187639D01*
X136737461Y-153281811D01*
X136764752Y-153349020D01*
X136783266Y-153394616D01*
X136820435Y-153455271D01*
X136897291Y-153580688D01*
X136899987Y-153585088D01*
X137046250Y-153753938D01*
X137218126Y-153896632D01*
X137411000Y-154009338D01*
X137619692Y-154089030D01*
X137624760Y-154090061D01*
X137624763Y-154090062D01*
X137723116Y-154110072D01*
X137838597Y-154133567D01*
X137843772Y-154133757D01*
X137843774Y-154133757D01*
X138056673Y-154141564D01*
X138056677Y-154141564D01*
X138061837Y-154141753D01*
X138066957Y-154141097D01*
X138066959Y-154141097D01*
X138278288Y-154114025D01*
X138278289Y-154114025D01*
X138283416Y-154113368D01*
X138315328Y-154103794D01*
X138492429Y-154050661D01*
X138492434Y-154050659D01*
X138497384Y-154049174D01*
X138697994Y-153950896D01*
X138879860Y-153821173D01*
X138898298Y-153802800D01*
X138997505Y-153703938D01*
X139038096Y-153663489D01*
X139053770Y-153641677D01*
X139168453Y-153482077D01*
X139169776Y-153483028D01*
X139216645Y-153439857D01*
X139286580Y-153427625D01*
X139352026Y-153455144D01*
X139379875Y-153486994D01*
X139439987Y-153585088D01*
X139586250Y-153753938D01*
X139758126Y-153896632D01*
X139951000Y-154009338D01*
X140159692Y-154089030D01*
X140164760Y-154090061D01*
X140164763Y-154090062D01*
X140263116Y-154110072D01*
X140378597Y-154133567D01*
X140383772Y-154133757D01*
X140383774Y-154133757D01*
X140596673Y-154141564D01*
X140596677Y-154141564D01*
X140601837Y-154141753D01*
X140606957Y-154141097D01*
X140606959Y-154141097D01*
X140818288Y-154114025D01*
X140818289Y-154114025D01*
X140823416Y-154113368D01*
X140855328Y-154103794D01*
X141032429Y-154050661D01*
X141032434Y-154050659D01*
X141037384Y-154049174D01*
X141237994Y-153950896D01*
X141419860Y-153821173D01*
X141438298Y-153802800D01*
X141537505Y-153703938D01*
X141578096Y-153663489D01*
X141593770Y-153641677D01*
X141705435Y-153486277D01*
X141708453Y-153482077D01*
X141721702Y-153455271D01*
X141805136Y-153286453D01*
X141805137Y-153286451D01*
X141807430Y-153281811D01*
X141865707Y-153090000D01*
X141870865Y-153073023D01*
X141870865Y-153073021D01*
X141872370Y-153068069D01*
X141901529Y-152846590D01*
X141902670Y-152799908D01*
X141903074Y-152783365D01*
X141903074Y-152783361D01*
X141903156Y-152780000D01*
X141896307Y-152696695D01*
X144747251Y-152696695D01*
X144747548Y-152701848D01*
X144747548Y-152701851D01*
X144755894Y-152846590D01*
X144760110Y-152919715D01*
X144761247Y-152924761D01*
X144761248Y-152924767D01*
X144780177Y-153008757D01*
X144809222Y-153137639D01*
X144893266Y-153344616D01*
X144944019Y-153427438D01*
X145007291Y-153530688D01*
X145009987Y-153535088D01*
X145156250Y-153703938D01*
X145328126Y-153846632D01*
X145521000Y-153959338D01*
X145729692Y-154039030D01*
X145734760Y-154040061D01*
X145734763Y-154040062D01*
X145842017Y-154061883D01*
X145948597Y-154083567D01*
X145953772Y-154083757D01*
X145953774Y-154083757D01*
X146166673Y-154091564D01*
X146166677Y-154091564D01*
X146171837Y-154091753D01*
X146176957Y-154091097D01*
X146176959Y-154091097D01*
X146388288Y-154064025D01*
X146388289Y-154064025D01*
X146393416Y-154063368D01*
X146398366Y-154061883D01*
X146602429Y-154000661D01*
X146602434Y-154000659D01*
X146607384Y-153999174D01*
X146807994Y-153900896D01*
X146989860Y-153771173D01*
X146998006Y-153763056D01*
X147128305Y-153633211D01*
X147148096Y-153613489D01*
X147207594Y-153530689D01*
X147278453Y-153432077D01*
X147279776Y-153433028D01*
X147326645Y-153389857D01*
X147396580Y-153377625D01*
X147462026Y-153405144D01*
X147489875Y-153436994D01*
X147500997Y-153455144D01*
X147549987Y-153535088D01*
X147696250Y-153703938D01*
X147868126Y-153846632D01*
X148061000Y-153959338D01*
X148269692Y-154039030D01*
X148274760Y-154040061D01*
X148274763Y-154040062D01*
X148382017Y-154061883D01*
X148488597Y-154083567D01*
X148493772Y-154083757D01*
X148493774Y-154083757D01*
X148706673Y-154091564D01*
X148706677Y-154091564D01*
X148711837Y-154091753D01*
X148716957Y-154091097D01*
X148716959Y-154091097D01*
X148928288Y-154064025D01*
X148928289Y-154064025D01*
X148933416Y-154063368D01*
X148938366Y-154061883D01*
X149142429Y-154000661D01*
X149142434Y-154000659D01*
X149147384Y-153999174D01*
X149347994Y-153900896D01*
X149529860Y-153771173D01*
X149538006Y-153763056D01*
X149668305Y-153633211D01*
X149688096Y-153613489D01*
X149747594Y-153530689D01*
X149815435Y-153436277D01*
X149818453Y-153432077D01*
X149836968Y-153394616D01*
X149915136Y-153236453D01*
X149915137Y-153236451D01*
X149917430Y-153231811D01*
X149982370Y-153018069D01*
X149987561Y-152978640D01*
X173476463Y-152978640D01*
X173494163Y-153159160D01*
X173551418Y-153331273D01*
X173555065Y-153337295D01*
X173555066Y-153337297D01*
X173630320Y-153461556D01*
X173645380Y-153486424D01*
X173650269Y-153491487D01*
X173650270Y-153491488D01*
X173696143Y-153538990D01*
X173771382Y-153616902D01*
X173796305Y-153633211D01*
X173898417Y-153700031D01*
X173923159Y-153716222D01*
X173929763Y-153718678D01*
X173929765Y-153718679D01*
X174086558Y-153776990D01*
X174086560Y-153776990D01*
X174093168Y-153779448D01*
X174176995Y-153790633D01*
X174265980Y-153802507D01*
X174265984Y-153802507D01*
X174272961Y-153803438D01*
X174279972Y-153802800D01*
X174279976Y-153802800D01*
X174422459Y-153789832D01*
X174453600Y-153786998D01*
X174460302Y-153784820D01*
X174460304Y-153784820D01*
X174619409Y-153733124D01*
X174619412Y-153733123D01*
X174626108Y-153730947D01*
X174781912Y-153638069D01*
X174913266Y-153512982D01*
X175013643Y-153361902D01*
X175061297Y-153236453D01*
X175075555Y-153198920D01*
X175075556Y-153198918D01*
X175078055Y-153192338D01*
X175079424Y-153182596D01*
X175102748Y-153016639D01*
X175102748Y-153016636D01*
X175103299Y-153012717D01*
X175103616Y-152990000D01*
X175083397Y-152809745D01*
X175081080Y-152803091D01*
X175026064Y-152645106D01*
X175026062Y-152645103D01*
X175023745Y-152638448D01*
X174949474Y-152519588D01*
X174931359Y-152490598D01*
X174927626Y-152484624D01*
X174859524Y-152416045D01*
X174804778Y-152360915D01*
X174804774Y-152360912D01*
X174799815Y-152355918D01*
X174788697Y-152348862D01*
X174698160Y-152291406D01*
X174646666Y-152258727D01*
X174598023Y-152241406D01*
X174482425Y-152200243D01*
X174482420Y-152200242D01*
X174475790Y-152197881D01*
X174468802Y-152197048D01*
X174468799Y-152197047D01*
X174338416Y-152181500D01*
X174295680Y-152176404D01*
X174288677Y-152177140D01*
X174288676Y-152177140D01*
X174122288Y-152194628D01*
X174122286Y-152194629D01*
X174115288Y-152195364D01*
X173943579Y-152253818D01*
X173929457Y-152262506D01*
X173795095Y-152345166D01*
X173795092Y-152345168D01*
X173789088Y-152348862D01*
X173784053Y-152353793D01*
X173784050Y-152353795D01*
X173729463Y-152407251D01*
X173659493Y-152475771D01*
X173561235Y-152628238D01*
X173558826Y-152634858D01*
X173558824Y-152634861D01*
X173505998Y-152780000D01*
X173499197Y-152798685D01*
X173476463Y-152978640D01*
X149987561Y-152978640D01*
X150011529Y-152796590D01*
X150011852Y-152783365D01*
X150013074Y-152733365D01*
X150013074Y-152733361D01*
X150013156Y-152730000D01*
X149994852Y-152507361D01*
X149940431Y-152290702D01*
X149851354Y-152085840D01*
X149811906Y-152024862D01*
X149732822Y-151902617D01*
X149732820Y-151902614D01*
X149730014Y-151898277D01*
X149579670Y-151733051D01*
X149575619Y-151729852D01*
X149575615Y-151729848D01*
X149408414Y-151597800D01*
X149408410Y-151597798D01*
X149404359Y-151594598D01*
X149363053Y-151571796D01*
X149313084Y-151521364D01*
X149298312Y-151451921D01*
X149323428Y-151385516D01*
X149350780Y-151358909D01*
X149394603Y-151327650D01*
X149529860Y-151231173D01*
X149547156Y-151213938D01*
X149675698Y-151085844D01*
X149688096Y-151073489D01*
X149813737Y-150898640D01*
X178736463Y-150898640D01*
X178754163Y-151079160D01*
X178811418Y-151251273D01*
X178815065Y-151257295D01*
X178815066Y-151257297D01*
X178892718Y-151385516D01*
X178905380Y-151406424D01*
X178910269Y-151411487D01*
X178910270Y-151411488D01*
X178948537Y-151451114D01*
X179031382Y-151536902D01*
X179049106Y-151548500D01*
X179123795Y-151597375D01*
X179183159Y-151636222D01*
X179189763Y-151638678D01*
X179189765Y-151638679D01*
X179346558Y-151696990D01*
X179346560Y-151696990D01*
X179353168Y-151699448D01*
X179436995Y-151710633D01*
X179525980Y-151722507D01*
X179525984Y-151722507D01*
X179532961Y-151723438D01*
X179539972Y-151722800D01*
X179539976Y-151722800D01*
X179682459Y-151709832D01*
X179713600Y-151706998D01*
X179720302Y-151704820D01*
X179720304Y-151704820D01*
X179879409Y-151653124D01*
X179879412Y-151653123D01*
X179886108Y-151650947D01*
X179998906Y-151583706D01*
X180035860Y-151561677D01*
X180035862Y-151561676D01*
X180041912Y-151558069D01*
X180173266Y-151432982D01*
X180273643Y-151281902D01*
X180330922Y-151131115D01*
X180335555Y-151118920D01*
X180335556Y-151118918D01*
X180338055Y-151112338D01*
X180341487Y-151087918D01*
X180362748Y-150936639D01*
X180362748Y-150936636D01*
X180363299Y-150932717D01*
X180363616Y-150910000D01*
X180343397Y-150729745D01*
X180341080Y-150723091D01*
X180286064Y-150565106D01*
X180286062Y-150565103D01*
X180283745Y-150558448D01*
X180187626Y-150404624D01*
X180090274Y-150306590D01*
X180064778Y-150280915D01*
X180064774Y-150280912D01*
X180059815Y-150275918D01*
X180048697Y-150268862D01*
X179970772Y-150219410D01*
X179906666Y-150178727D01*
X179844057Y-150156433D01*
X179742425Y-150120243D01*
X179742420Y-150120242D01*
X179735790Y-150117881D01*
X179728802Y-150117048D01*
X179728799Y-150117047D01*
X179605698Y-150102368D01*
X179555680Y-150096404D01*
X179548677Y-150097140D01*
X179548676Y-150097140D01*
X179382288Y-150114628D01*
X179382286Y-150114629D01*
X179375288Y-150115364D01*
X179203579Y-150173818D01*
X179177276Y-150190000D01*
X179055095Y-150265166D01*
X179055092Y-150265168D01*
X179049088Y-150268862D01*
X179044053Y-150273793D01*
X179044050Y-150273795D01*
X179013982Y-150303240D01*
X178919493Y-150395771D01*
X178821235Y-150548238D01*
X178818826Y-150554858D01*
X178818824Y-150554861D01*
X178768978Y-150691811D01*
X178759197Y-150718685D01*
X178736463Y-150898640D01*
X149813737Y-150898640D01*
X149818453Y-150892077D01*
X149890425Y-150746453D01*
X149915136Y-150696453D01*
X149915137Y-150696451D01*
X149917430Y-150691811D01*
X149959039Y-150554861D01*
X149980865Y-150483023D01*
X149980865Y-150483021D01*
X149982370Y-150478069D01*
X150011529Y-150256590D01*
X150011852Y-150243365D01*
X150013074Y-150193365D01*
X150013074Y-150193361D01*
X150013156Y-150190000D01*
X149994852Y-149967361D01*
X149940431Y-149750702D01*
X149851354Y-149545840D01*
X149765168Y-149412617D01*
X149732822Y-149362617D01*
X149732820Y-149362614D01*
X149730014Y-149358277D01*
X149579670Y-149193051D01*
X149575619Y-149189852D01*
X149575615Y-149189848D01*
X149408414Y-149057800D01*
X149408410Y-149057798D01*
X149404359Y-149054598D01*
X149208789Y-148946638D01*
X149203920Y-148944914D01*
X149203916Y-148944912D01*
X149003087Y-148873795D01*
X149003083Y-148873794D01*
X148998212Y-148872069D01*
X148993119Y-148871162D01*
X148993116Y-148871161D01*
X148783373Y-148833800D01*
X148783367Y-148833799D01*
X148778284Y-148832894D01*
X148704452Y-148831992D01*
X148560081Y-148830228D01*
X148560079Y-148830228D01*
X148554911Y-148830165D01*
X148334091Y-148863955D01*
X148121756Y-148933357D01*
X148091443Y-148949137D01*
X147962465Y-149016279D01*
X147923607Y-149036507D01*
X147919474Y-149039610D01*
X147919471Y-149039612D01*
X147749100Y-149167530D01*
X147744965Y-149170635D01*
X147678824Y-149239848D01*
X147664283Y-149255064D01*
X147602759Y-149290494D01*
X147531846Y-149287037D01*
X147474060Y-149245791D01*
X147455207Y-149212243D01*
X147413767Y-149101703D01*
X147410615Y-149093295D01*
X147323261Y-148976739D01*
X147206705Y-148889385D01*
X147070316Y-148838255D01*
X147008134Y-148831500D01*
X145211866Y-148831500D01*
X145149684Y-148838255D01*
X145013295Y-148889385D01*
X144896739Y-148976739D01*
X144809385Y-149093295D01*
X144758255Y-149229684D01*
X144751500Y-149291866D01*
X144751500Y-151088134D01*
X144758255Y-151150316D01*
X144809385Y-151286705D01*
X144896739Y-151403261D01*
X145013295Y-151490615D01*
X145021704Y-151493767D01*
X145021705Y-151493768D01*
X145130451Y-151534535D01*
X145187216Y-151577176D01*
X145211916Y-151643738D01*
X145196709Y-151713087D01*
X145177316Y-151739568D01*
X145050629Y-151872138D01*
X145047720Y-151876403D01*
X145047714Y-151876411D01*
X144995730Y-151952617D01*
X144924743Y-152056680D01*
X144909003Y-152090590D01*
X144847127Y-152223891D01*
X144830688Y-152259305D01*
X144770989Y-152474570D01*
X144747251Y-152696695D01*
X141896307Y-152696695D01*
X141884852Y-152557361D01*
X141830431Y-152340702D01*
X141741354Y-152135840D01*
X141637485Y-151975283D01*
X141622822Y-151952617D01*
X141622820Y-151952614D01*
X141620014Y-151948277D01*
X141469670Y-151783051D01*
X141465619Y-151779852D01*
X141465615Y-151779848D01*
X141298414Y-151647800D01*
X141298410Y-151647798D01*
X141294359Y-151644598D01*
X141253053Y-151621796D01*
X141203084Y-151571364D01*
X141188312Y-151501921D01*
X141213428Y-151435516D01*
X141240780Y-151408909D01*
X141308092Y-151360896D01*
X141419860Y-151281173D01*
X141578096Y-151123489D01*
X141609950Y-151079160D01*
X141705435Y-150946277D01*
X141708453Y-150942077D01*
X141724307Y-150910000D01*
X141805136Y-150746453D01*
X141805137Y-150746451D01*
X141807430Y-150741811D01*
X141872370Y-150528069D01*
X141901529Y-150306590D01*
X141902156Y-150280915D01*
X141903074Y-150243365D01*
X141903074Y-150243361D01*
X141903156Y-150240000D01*
X141884852Y-150017361D01*
X141830431Y-149800702D01*
X141741354Y-149595840D01*
X141680315Y-149501488D01*
X141622822Y-149412617D01*
X141622820Y-149412614D01*
X141620014Y-149408277D01*
X141469670Y-149243051D01*
X141465619Y-149239852D01*
X141465615Y-149239848D01*
X141298414Y-149107800D01*
X141298410Y-149107798D01*
X141294359Y-149104598D01*
X141098789Y-148996638D01*
X141093920Y-148994914D01*
X141093916Y-148994912D01*
X140893087Y-148923795D01*
X140893083Y-148923794D01*
X140888212Y-148922069D01*
X140883119Y-148921162D01*
X140883116Y-148921161D01*
X140673373Y-148883800D01*
X140673367Y-148883799D01*
X140668284Y-148882894D01*
X140594452Y-148881992D01*
X140450081Y-148880228D01*
X140450079Y-148880228D01*
X140444911Y-148880165D01*
X140224091Y-148913955D01*
X140011756Y-148983357D01*
X139982323Y-148998679D01*
X139868753Y-149057800D01*
X139813607Y-149086507D01*
X139809474Y-149089610D01*
X139809471Y-149089612D01*
X139698626Y-149172837D01*
X139634965Y-149220635D01*
X139570142Y-149288469D01*
X139554283Y-149305064D01*
X139492759Y-149340494D01*
X139421846Y-149337037D01*
X139364060Y-149295791D01*
X139345207Y-149262243D01*
X139303767Y-149151703D01*
X139300615Y-149143295D01*
X139213261Y-149026739D01*
X139096705Y-148939385D01*
X138960316Y-148888255D01*
X138898134Y-148881500D01*
X137101866Y-148881500D01*
X137039684Y-148888255D01*
X136903295Y-148939385D01*
X136786739Y-149026739D01*
X136699385Y-149143295D01*
X136648255Y-149279684D01*
X136641500Y-149341866D01*
X136641500Y-151138134D01*
X136648255Y-151200316D01*
X136699385Y-151336705D01*
X136786739Y-151453261D01*
X136903295Y-151540615D01*
X136911704Y-151543767D01*
X136911705Y-151543768D01*
X137020451Y-151584535D01*
X137077216Y-151627176D01*
X137101916Y-151693738D01*
X137086709Y-151763087D01*
X137067316Y-151789568D01*
X136967082Y-151894457D01*
X136940629Y-151922138D01*
X136814743Y-152106680D01*
X136799003Y-152140590D01*
X136723725Y-152302763D01*
X136720688Y-152309305D01*
X136660989Y-152524570D01*
X136637251Y-152746695D01*
X136043706Y-152746695D01*
X136034527Y-152718444D01*
X135939040Y-152553056D01*
X135918017Y-152529707D01*
X135815675Y-152416045D01*
X135815674Y-152416044D01*
X135811253Y-152411134D01*
X135656752Y-152298882D01*
X135650724Y-152296198D01*
X135650722Y-152296197D01*
X135488319Y-152223891D01*
X135488318Y-152223891D01*
X135482288Y-152221206D01*
X135388888Y-152201353D01*
X135301944Y-152182872D01*
X135301939Y-152182872D01*
X135295487Y-152181500D01*
X135104513Y-152181500D01*
X135098061Y-152182872D01*
X135098056Y-152182872D01*
X135011112Y-152201353D01*
X134917712Y-152221206D01*
X134911682Y-152223891D01*
X134911681Y-152223891D01*
X134749278Y-152296197D01*
X134749276Y-152296198D01*
X134743248Y-152298882D01*
X134588747Y-152411134D01*
X134584326Y-152416044D01*
X134584325Y-152416045D01*
X134481984Y-152529707D01*
X134460960Y-152553056D01*
X134365473Y-152718444D01*
X134306458Y-152900072D01*
X134305768Y-152906633D01*
X134305768Y-152906635D01*
X134304393Y-152919715D01*
X134286496Y-153090000D01*
X134287186Y-153096565D01*
X134305171Y-153267680D01*
X134306458Y-153279928D01*
X134365473Y-153461556D01*
X134368776Y-153467278D01*
X134368777Y-153467279D01*
X134460960Y-153626944D01*
X134459828Y-153627598D01*
X134481309Y-153687813D01*
X134465225Y-153756964D01*
X134462183Y-153761698D01*
X134460960Y-153763056D01*
X134457866Y-153768415D01*
X134417856Y-153837715D01*
X134365473Y-153928444D01*
X134306458Y-154110072D01*
X134305768Y-154116633D01*
X134305768Y-154116635D01*
X134301964Y-154152831D01*
X134286496Y-154300000D01*
X116008000Y-154300000D01*
X116008000Y-148258640D01*
X128386463Y-148258640D01*
X128404163Y-148439160D01*
X128461418Y-148611273D01*
X128465065Y-148617295D01*
X128465066Y-148617297D01*
X128551288Y-148759667D01*
X128555380Y-148766424D01*
X128560269Y-148771487D01*
X128560270Y-148771488D01*
X128618224Y-148831500D01*
X128681382Y-148896902D01*
X128741486Y-148936233D01*
X128817152Y-148985747D01*
X128833159Y-148996222D01*
X128839763Y-148998678D01*
X128839765Y-148998679D01*
X128996558Y-149056990D01*
X128996560Y-149056990D01*
X129003168Y-149059448D01*
X129086995Y-149070633D01*
X129175980Y-149082507D01*
X129175984Y-149082507D01*
X129182961Y-149083438D01*
X129189972Y-149082800D01*
X129189976Y-149082800D01*
X129332459Y-149069832D01*
X129363600Y-149066998D01*
X129370302Y-149064820D01*
X129370304Y-149064820D01*
X129529409Y-149013124D01*
X129529412Y-149013123D01*
X129536108Y-149010947D01*
X129691912Y-148918069D01*
X129823266Y-148792982D01*
X129923643Y-148641902D01*
X129980703Y-148491693D01*
X129985555Y-148478920D01*
X129985556Y-148478918D01*
X129988055Y-148472338D01*
X129991739Y-148446124D01*
X130012748Y-148296639D01*
X130012748Y-148296636D01*
X130013299Y-148292717D01*
X130013616Y-148270000D01*
X129993397Y-148089745D01*
X129991080Y-148083091D01*
X129936064Y-147925106D01*
X129936062Y-147925103D01*
X129933745Y-147918448D01*
X129837626Y-147764624D01*
X129810559Y-147737367D01*
X129714778Y-147640915D01*
X129714774Y-147640912D01*
X129709815Y-147635918D01*
X129698697Y-147628862D01*
X129604975Y-147569385D01*
X129556666Y-147538727D01*
X129515822Y-147524183D01*
X129392425Y-147480243D01*
X129392420Y-147480242D01*
X129385790Y-147477881D01*
X129378802Y-147477048D01*
X129378799Y-147477047D01*
X129255698Y-147462368D01*
X129205680Y-147456404D01*
X129198677Y-147457140D01*
X129198676Y-147457140D01*
X129032288Y-147474628D01*
X129032286Y-147474629D01*
X129025288Y-147475364D01*
X128853579Y-147533818D01*
X128796974Y-147568642D01*
X128705095Y-147625166D01*
X128705092Y-147625168D01*
X128699088Y-147628862D01*
X128694053Y-147633793D01*
X128694050Y-147633795D01*
X128574525Y-147750843D01*
X128569493Y-147755771D01*
X128471235Y-147908238D01*
X128468826Y-147914858D01*
X128468824Y-147914861D01*
X128420375Y-148047973D01*
X128409197Y-148078685D01*
X128386463Y-148258640D01*
X116008000Y-148258640D01*
X116008000Y-146888134D01*
X135961500Y-146888134D01*
X135968255Y-146950316D01*
X136019385Y-147086705D01*
X136106739Y-147203261D01*
X136223295Y-147290615D01*
X136359684Y-147341745D01*
X136421866Y-147348500D01*
X138218134Y-147348500D01*
X138280316Y-147341745D01*
X138416705Y-147290615D01*
X138533261Y-147203261D01*
X138620615Y-147086705D01*
X138642833Y-147027438D01*
X138664598Y-146969382D01*
X138707240Y-146912618D01*
X138773802Y-146887918D01*
X138843150Y-146903126D01*
X138877817Y-146931114D01*
X138906250Y-146963938D01*
X139078126Y-147106632D01*
X139271000Y-147219338D01*
X139479692Y-147299030D01*
X139484760Y-147300061D01*
X139484763Y-147300062D01*
X139539445Y-147311187D01*
X139698597Y-147343567D01*
X139703772Y-147343757D01*
X139703774Y-147343757D01*
X139916673Y-147351564D01*
X139916677Y-147351564D01*
X139921837Y-147351753D01*
X139926957Y-147351097D01*
X139926959Y-147351097D01*
X140138288Y-147324025D01*
X140138289Y-147324025D01*
X140143416Y-147323368D01*
X140148366Y-147321883D01*
X140352429Y-147260661D01*
X140352434Y-147260659D01*
X140357384Y-147259174D01*
X140557994Y-147160896D01*
X140739860Y-147031173D01*
X140768370Y-147002763D01*
X140842675Y-146928717D01*
X140898096Y-146873489D01*
X140939170Y-146816329D01*
X141028453Y-146692077D01*
X141029776Y-146693028D01*
X141076645Y-146649857D01*
X141146580Y-146637625D01*
X141212026Y-146665144D01*
X141239875Y-146696994D01*
X141299987Y-146795088D01*
X141446250Y-146963938D01*
X141618126Y-147106632D01*
X141811000Y-147219338D01*
X142019692Y-147299030D01*
X142024760Y-147300061D01*
X142024763Y-147300062D01*
X142079445Y-147311187D01*
X142238597Y-147343567D01*
X142243772Y-147343757D01*
X142243774Y-147343757D01*
X142456673Y-147351564D01*
X142456677Y-147351564D01*
X142461837Y-147351753D01*
X142466957Y-147351097D01*
X142466959Y-147351097D01*
X142678288Y-147324025D01*
X142678289Y-147324025D01*
X142683416Y-147323368D01*
X142688366Y-147321883D01*
X142892429Y-147260661D01*
X142892434Y-147260659D01*
X142897384Y-147259174D01*
X143097994Y-147160896D01*
X143279860Y-147031173D01*
X143308370Y-147002763D01*
X143382675Y-146928717D01*
X143438096Y-146873489D01*
X143479170Y-146816329D01*
X143568453Y-146692077D01*
X143569640Y-146692930D01*
X143616960Y-146649362D01*
X143686897Y-146637145D01*
X143752338Y-146664678D01*
X143780166Y-146696511D01*
X143837694Y-146790388D01*
X143843777Y-146798699D01*
X143983213Y-146959667D01*
X143990580Y-146966883D01*
X144154434Y-147102916D01*
X144162881Y-147108831D01*
X144346756Y-147216279D01*
X144356042Y-147220729D01*
X144555001Y-147296703D01*
X144564899Y-147299579D01*
X144668250Y-147320606D01*
X144682299Y-147319410D01*
X144686000Y-147309065D01*
X144686000Y-147308517D01*
X145194000Y-147308517D01*
X145198064Y-147322359D01*
X145211478Y-147324393D01*
X145218184Y-147323534D01*
X145228262Y-147321392D01*
X145432255Y-147260191D01*
X145441842Y-147256433D01*
X145633095Y-147162739D01*
X145641945Y-147157464D01*
X145815328Y-147033792D01*
X145823200Y-147027139D01*
X145974052Y-146876812D01*
X145980730Y-146868965D01*
X146105003Y-146696020D01*
X146110313Y-146687183D01*
X146204670Y-146496267D01*
X146208469Y-146486672D01*
X146270377Y-146282910D01*
X146272555Y-146272837D01*
X146273986Y-146261962D01*
X146271775Y-146247778D01*
X146258617Y-146244000D01*
X145212115Y-146244000D01*
X145196876Y-146248475D01*
X145195671Y-146249865D01*
X145194000Y-146257548D01*
X145194000Y-147308517D01*
X144686000Y-147308517D01*
X144686000Y-145717885D01*
X145194000Y-145717885D01*
X145198475Y-145733124D01*
X145199865Y-145734329D01*
X145207548Y-145736000D01*
X146258344Y-145736000D01*
X146271875Y-145732027D01*
X146273180Y-145722947D01*
X146231214Y-145555875D01*
X146227894Y-145546124D01*
X146142972Y-145350814D01*
X146138105Y-145341739D01*
X146022426Y-145162926D01*
X146016136Y-145154757D01*
X145872806Y-144997240D01*
X145865273Y-144990215D01*
X145698139Y-144858222D01*
X145689552Y-144852517D01*
X145503117Y-144749599D01*
X145493705Y-144745369D01*
X145422066Y-144720000D01*
X148576496Y-144720000D01*
X148577186Y-144726565D01*
X148595659Y-144902323D01*
X148596458Y-144909928D01*
X148655473Y-145091556D01*
X148658776Y-145097278D01*
X148658777Y-145097279D01*
X148676928Y-145128717D01*
X148750960Y-145256944D01*
X148755378Y-145261851D01*
X148755379Y-145261852D01*
X148827310Y-145341739D01*
X148878747Y-145398866D01*
X148951296Y-145451576D01*
X149019881Y-145501406D01*
X149033248Y-145511118D01*
X149039276Y-145513802D01*
X149039278Y-145513803D01*
X149133774Y-145555875D01*
X149207712Y-145588794D01*
X149301113Y-145608647D01*
X149388056Y-145627128D01*
X149388061Y-145627128D01*
X149394513Y-145628500D01*
X149585487Y-145628500D01*
X149591939Y-145627128D01*
X149591944Y-145627128D01*
X149678887Y-145608647D01*
X149772288Y-145588794D01*
X149846226Y-145555875D01*
X149940722Y-145513803D01*
X149940724Y-145513802D01*
X149946752Y-145511118D01*
X149960120Y-145501406D01*
X150028704Y-145451576D01*
X150101253Y-145398866D01*
X150152690Y-145341739D01*
X150224621Y-145261852D01*
X150224622Y-145261851D01*
X150229040Y-145256944D01*
X150303072Y-145128717D01*
X150321223Y-145097279D01*
X150321224Y-145097278D01*
X150324527Y-145091556D01*
X150383542Y-144909928D01*
X150384342Y-144902323D01*
X150402814Y-144726565D01*
X150403504Y-144720000D01*
X150397614Y-144663955D01*
X150384232Y-144536635D01*
X150384232Y-144536633D01*
X150383542Y-144530072D01*
X150324527Y-144348444D01*
X150229040Y-144183056D01*
X150216389Y-144169005D01*
X150105675Y-144046045D01*
X150105674Y-144046044D01*
X150101253Y-144041134D01*
X149971016Y-143946511D01*
X149952094Y-143932763D01*
X149952093Y-143932762D01*
X149946752Y-143928882D01*
X149940724Y-143926198D01*
X149940722Y-143926197D01*
X149778319Y-143853891D01*
X149778318Y-143853891D01*
X149772288Y-143851206D01*
X149678888Y-143831353D01*
X149591944Y-143812872D01*
X149591939Y-143812872D01*
X149585487Y-143811500D01*
X149394513Y-143811500D01*
X149388061Y-143812872D01*
X149388056Y-143812872D01*
X149301112Y-143831353D01*
X149207712Y-143851206D01*
X149201682Y-143853891D01*
X149201681Y-143853891D01*
X149039278Y-143926197D01*
X149039276Y-143926198D01*
X149033248Y-143928882D01*
X149027907Y-143932762D01*
X149027906Y-143932763D01*
X149008984Y-143946511D01*
X148878747Y-144041134D01*
X148874326Y-144046044D01*
X148874325Y-144046045D01*
X148763612Y-144169005D01*
X148750960Y-144183056D01*
X148655473Y-144348444D01*
X148596458Y-144530072D01*
X148595768Y-144536633D01*
X148595768Y-144536635D01*
X148582386Y-144663955D01*
X148576496Y-144720000D01*
X145422066Y-144720000D01*
X145292959Y-144674280D01*
X145282988Y-144671646D01*
X145211837Y-144658972D01*
X145198540Y-144660432D01*
X145194000Y-144674989D01*
X145194000Y-145717885D01*
X144686000Y-145717885D01*
X144686000Y-144673102D01*
X144682082Y-144659758D01*
X144667806Y-144657771D01*
X144629324Y-144663660D01*
X144619288Y-144666051D01*
X144416868Y-144732212D01*
X144407359Y-144736209D01*
X144218463Y-144834542D01*
X144209738Y-144840036D01*
X144039433Y-144967905D01*
X144031726Y-144974748D01*
X143884590Y-145128717D01*
X143878109Y-145136722D01*
X143773498Y-145290074D01*
X143718587Y-145335076D01*
X143648062Y-145343247D01*
X143584315Y-145311993D01*
X143563618Y-145287509D01*
X143482822Y-145162617D01*
X143482820Y-145162614D01*
X143480014Y-145158277D01*
X143329670Y-144993051D01*
X143325619Y-144989852D01*
X143325615Y-144989848D01*
X143158414Y-144857800D01*
X143158410Y-144857798D01*
X143154359Y-144854598D01*
X143118028Y-144834542D01*
X143102136Y-144825769D01*
X142958789Y-144746638D01*
X142953920Y-144744914D01*
X142953916Y-144744912D01*
X142753087Y-144673795D01*
X142753083Y-144673794D01*
X142748212Y-144672069D01*
X142743119Y-144671162D01*
X142743116Y-144671161D01*
X142533373Y-144633800D01*
X142533367Y-144633799D01*
X142528284Y-144632894D01*
X142454452Y-144631992D01*
X142310081Y-144630228D01*
X142310079Y-144630228D01*
X142304911Y-144630165D01*
X142084091Y-144663955D01*
X141871756Y-144733357D01*
X141824287Y-144758068D01*
X141769351Y-144786666D01*
X141673607Y-144836507D01*
X141669474Y-144839610D01*
X141669471Y-144839612D01*
X141499100Y-144967530D01*
X141494965Y-144970635D01*
X141491393Y-144974373D01*
X141345162Y-145127395D01*
X141340629Y-145132138D01*
X141233201Y-145289621D01*
X141178293Y-145334621D01*
X141107768Y-145342792D01*
X141044021Y-145311538D01*
X141023324Y-145287054D01*
X140942822Y-145162617D01*
X140942820Y-145162614D01*
X140940014Y-145158277D01*
X140789670Y-144993051D01*
X140785619Y-144989852D01*
X140785615Y-144989848D01*
X140618414Y-144857800D01*
X140618410Y-144857798D01*
X140614359Y-144854598D01*
X140578028Y-144834542D01*
X140562136Y-144825769D01*
X140418789Y-144746638D01*
X140413920Y-144744914D01*
X140413916Y-144744912D01*
X140213087Y-144673795D01*
X140213083Y-144673794D01*
X140208212Y-144672069D01*
X140203119Y-144671162D01*
X140203116Y-144671161D01*
X139993373Y-144633800D01*
X139993367Y-144633799D01*
X139988284Y-144632894D01*
X139914452Y-144631992D01*
X139770081Y-144630228D01*
X139770079Y-144630228D01*
X139764911Y-144630165D01*
X139544091Y-144663955D01*
X139331756Y-144733357D01*
X139284287Y-144758068D01*
X139229351Y-144786666D01*
X139133607Y-144836507D01*
X139129474Y-144839610D01*
X139129471Y-144839612D01*
X138959100Y-144967530D01*
X138954965Y-144970635D01*
X138898537Y-145029684D01*
X138874283Y-145055064D01*
X138812759Y-145090494D01*
X138741846Y-145087037D01*
X138684060Y-145045791D01*
X138665207Y-145012243D01*
X138623767Y-144901703D01*
X138620615Y-144893295D01*
X138533261Y-144776739D01*
X138416705Y-144689385D01*
X138280316Y-144638255D01*
X138218134Y-144631500D01*
X136421866Y-144631500D01*
X136359684Y-144638255D01*
X136223295Y-144689385D01*
X136106739Y-144776739D01*
X136019385Y-144893295D01*
X135968255Y-145029684D01*
X135961500Y-145091866D01*
X135961500Y-146888134D01*
X116008000Y-146888134D01*
X116008000Y-146375251D01*
X116028002Y-146307130D01*
X116081658Y-146260637D01*
X116151932Y-146250533D01*
X116216512Y-146280027D01*
X116241086Y-146308854D01*
X116323708Y-146442108D01*
X116331460Y-146452174D01*
X116456408Y-146584303D01*
X116466026Y-146592605D01*
X116614987Y-146696908D01*
X116626081Y-146703108D01*
X116792980Y-146775332D01*
X116805083Y-146779171D01*
X116984600Y-146816675D01*
X116994152Y-146817915D01*
X116997384Y-146818000D01*
X117217885Y-146818000D01*
X117233124Y-146813525D01*
X117234329Y-146812135D01*
X117236000Y-146804452D01*
X117236000Y-146799885D01*
X117744000Y-146799885D01*
X117748475Y-146815124D01*
X117749865Y-146816329D01*
X117757548Y-146818000D01*
X117935447Y-146818000D01*
X117941822Y-146817677D01*
X118077277Y-146803918D01*
X118089717Y-146801364D01*
X118263244Y-146746984D01*
X118274932Y-146741975D01*
X118433979Y-146653813D01*
X118444412Y-146646562D01*
X118582491Y-146528215D01*
X118591244Y-146519024D01*
X118702711Y-146375320D01*
X118709435Y-146364560D01*
X118789732Y-146201375D01*
X118794155Y-146189481D01*
X118809251Y-146131530D01*
X118809021Y-146124075D01*
X120186363Y-146124075D01*
X120242310Y-146276136D01*
X120247877Y-146287549D01*
X120343708Y-146442108D01*
X120351460Y-146452174D01*
X120476408Y-146584303D01*
X120486026Y-146592605D01*
X120634987Y-146696908D01*
X120646081Y-146703108D01*
X120812980Y-146775332D01*
X120825083Y-146779171D01*
X121004600Y-146816675D01*
X121014152Y-146817915D01*
X121017384Y-146818000D01*
X121387885Y-146818000D01*
X121403124Y-146813525D01*
X121404329Y-146812135D01*
X121406000Y-146804452D01*
X121406000Y-146799885D01*
X121914000Y-146799885D01*
X121918475Y-146815124D01*
X121919865Y-146816329D01*
X121927548Y-146818000D01*
X122255447Y-146818000D01*
X122261822Y-146817677D01*
X122397277Y-146803918D01*
X122409717Y-146801364D01*
X122583244Y-146746984D01*
X122594932Y-146741975D01*
X122753979Y-146653813D01*
X122764412Y-146646562D01*
X122902491Y-146528215D01*
X122911244Y-146519024D01*
X123022711Y-146375320D01*
X123029435Y-146364560D01*
X123109732Y-146201375D01*
X123114155Y-146189481D01*
X123129251Y-146131530D01*
X123128817Y-146117436D01*
X123120636Y-146114000D01*
X121932115Y-146114000D01*
X121916876Y-146118475D01*
X121915671Y-146119865D01*
X121914000Y-146127548D01*
X121914000Y-146799885D01*
X121406000Y-146799885D01*
X121406000Y-146132115D01*
X121401525Y-146116876D01*
X121400135Y-146115671D01*
X121392452Y-146114000D01*
X120200771Y-146114000D01*
X120187240Y-146117973D01*
X120186363Y-146124075D01*
X118809021Y-146124075D01*
X118808817Y-146117436D01*
X118800636Y-146114000D01*
X117762115Y-146114000D01*
X117746876Y-146118475D01*
X117745671Y-146119865D01*
X117744000Y-146127548D01*
X117744000Y-146799885D01*
X117236000Y-146799885D01*
X117236000Y-145587885D01*
X117744000Y-145587885D01*
X117748475Y-145603124D01*
X117749865Y-145604329D01*
X117757548Y-145606000D01*
X118799229Y-145606000D01*
X118812760Y-145602027D01*
X118813637Y-145595925D01*
X118810894Y-145588470D01*
X120190749Y-145588470D01*
X120191183Y-145602564D01*
X120199364Y-145606000D01*
X123119229Y-145606000D01*
X123132760Y-145602027D01*
X123133637Y-145595925D01*
X123077690Y-145443864D01*
X123072123Y-145432451D01*
X122976292Y-145277892D01*
X122968540Y-145267826D01*
X122843592Y-145135697D01*
X122833974Y-145127395D01*
X122685013Y-145023092D01*
X122673919Y-145016892D01*
X122507020Y-144944668D01*
X122494917Y-144940829D01*
X122315400Y-144903325D01*
X122305848Y-144902085D01*
X122302616Y-144902000D01*
X122048821Y-144902000D01*
X121980700Y-144881998D01*
X121934207Y-144828342D01*
X121924103Y-144758068D01*
X121930122Y-144733734D01*
X121969756Y-144622428D01*
X121969757Y-144622422D01*
X121972119Y-144615790D01*
X121975406Y-144588230D01*
X121992762Y-144442673D01*
X121993596Y-144435680D01*
X121981340Y-144319073D01*
X121975372Y-144262288D01*
X121975371Y-144262286D01*
X121974636Y-144255288D01*
X121916182Y-144083579D01*
X121856519Y-143986598D01*
X121824834Y-143935095D01*
X121824832Y-143935092D01*
X121821138Y-143929088D01*
X121816207Y-143924053D01*
X121816205Y-143924050D01*
X121699157Y-143804525D01*
X121699156Y-143804524D01*
X121694229Y-143799493D01*
X121541762Y-143701235D01*
X121535142Y-143698826D01*
X121535139Y-143698824D01*
X121377934Y-143641606D01*
X121377933Y-143641606D01*
X121371315Y-143639197D01*
X121231231Y-143621500D01*
X121134390Y-143621500D01*
X120999745Y-143636603D01*
X120993092Y-143638920D01*
X120993091Y-143638920D01*
X120835106Y-143693936D01*
X120835103Y-143693938D01*
X120828448Y-143696255D01*
X120822469Y-143699991D01*
X120814367Y-143705054D01*
X120674624Y-143792374D01*
X120669628Y-143797335D01*
X120669627Y-143797336D01*
X120550915Y-143915222D01*
X120550912Y-143915226D01*
X120545918Y-143920185D01*
X120542144Y-143926131D01*
X120542143Y-143926133D01*
X120529211Y-143946511D01*
X120448727Y-144073334D01*
X120446362Y-144079976D01*
X120390243Y-144237575D01*
X120390242Y-144237580D01*
X120387881Y-144244210D01*
X120387048Y-144251198D01*
X120387047Y-144251201D01*
X120379533Y-144314214D01*
X120366404Y-144424320D01*
X120367140Y-144431323D01*
X120367140Y-144431324D01*
X120383632Y-144588230D01*
X120385364Y-144604712D01*
X120443818Y-144776421D01*
X120447512Y-144782425D01*
X120535167Y-144924907D01*
X120535170Y-144924911D01*
X120538862Y-144930912D01*
X120539603Y-144931669D01*
X120564908Y-144995459D01*
X120551252Y-145065129D01*
X120521438Y-145102709D01*
X120417504Y-145191790D01*
X120408756Y-145200976D01*
X120297289Y-145344680D01*
X120290565Y-145355440D01*
X120210268Y-145518625D01*
X120205845Y-145530519D01*
X120190749Y-145588470D01*
X118810894Y-145588470D01*
X118757690Y-145443864D01*
X118752123Y-145432451D01*
X118656292Y-145277892D01*
X118648540Y-145267826D01*
X118523592Y-145135697D01*
X118513974Y-145127395D01*
X118365013Y-145023092D01*
X118353919Y-145016892D01*
X118187020Y-144944668D01*
X118174917Y-144940829D01*
X117995400Y-144903325D01*
X117985848Y-144902085D01*
X117982616Y-144902000D01*
X117762115Y-144902000D01*
X117746876Y-144906475D01*
X117745671Y-144907865D01*
X117744000Y-144915548D01*
X117744000Y-145587885D01*
X117236000Y-145587885D01*
X117236000Y-144920115D01*
X117231525Y-144904876D01*
X117230135Y-144903671D01*
X117222452Y-144902000D01*
X117044553Y-144902000D01*
X117038178Y-144902323D01*
X116902723Y-144916082D01*
X116890283Y-144918636D01*
X116716756Y-144973016D01*
X116705068Y-144978025D01*
X116546021Y-145066187D01*
X116535588Y-145073438D01*
X116397509Y-145191785D01*
X116388756Y-145200976D01*
X116277289Y-145344680D01*
X116270563Y-145355443D01*
X116247055Y-145403218D01*
X116199032Y-145455509D01*
X116130362Y-145473536D01*
X116062848Y-145451576D01*
X116017923Y-145396601D01*
X116008000Y-145347589D01*
X116008000Y-143037408D01*
X117215231Y-143037408D01*
X117232931Y-143217928D01*
X117290186Y-143390041D01*
X117293833Y-143396063D01*
X117293834Y-143396065D01*
X117379249Y-143537102D01*
X117384148Y-143545192D01*
X117389037Y-143550255D01*
X117389038Y-143550256D01*
X117447676Y-143610977D01*
X117510150Y-143675670D01*
X117585948Y-143725271D01*
X117604299Y-143737279D01*
X117661927Y-143774990D01*
X117668531Y-143777446D01*
X117668533Y-143777447D01*
X117825326Y-143835758D01*
X117825328Y-143835758D01*
X117831936Y-143838216D01*
X117859138Y-143841846D01*
X117866170Y-143842784D01*
X117931047Y-143871620D01*
X117970035Y-143930954D01*
X117973135Y-143946511D01*
X117973242Y-143946488D01*
X117974708Y-143953382D01*
X117975395Y-143960392D01*
X118032650Y-144132505D01*
X118036297Y-144138527D01*
X118036298Y-144138529D01*
X118115011Y-144268500D01*
X118126612Y-144287656D01*
X118252614Y-144418134D01*
X118404391Y-144517454D01*
X118410995Y-144519910D01*
X118410997Y-144519911D01*
X118567790Y-144578222D01*
X118567792Y-144578222D01*
X118574400Y-144580680D01*
X118658227Y-144591865D01*
X118747212Y-144603739D01*
X118747216Y-144603739D01*
X118754193Y-144604670D01*
X118761204Y-144604032D01*
X118761208Y-144604032D01*
X118903691Y-144591064D01*
X118934832Y-144588230D01*
X118941534Y-144586052D01*
X118941536Y-144586052D01*
X119100641Y-144534356D01*
X119100644Y-144534355D01*
X119107340Y-144532179D01*
X119263144Y-144439301D01*
X119394498Y-144314214D01*
X119494875Y-144163134D01*
X119539353Y-144046045D01*
X119556787Y-144000152D01*
X119556788Y-144000150D01*
X119559287Y-143993570D01*
X119560267Y-143986598D01*
X119583980Y-143817871D01*
X119583980Y-143817868D01*
X119584531Y-143813949D01*
X119584848Y-143791232D01*
X119564629Y-143610977D01*
X119543484Y-143550256D01*
X119507296Y-143446338D01*
X119507294Y-143446335D01*
X119504977Y-143439680D01*
X119473959Y-143390041D01*
X119455188Y-143360000D01*
X122786496Y-143360000D01*
X122787186Y-143366565D01*
X122794215Y-143433438D01*
X122806458Y-143549928D01*
X122865473Y-143731556D01*
X122960960Y-143896944D01*
X122965378Y-143901851D01*
X122965379Y-143901852D01*
X123005590Y-143946511D01*
X123088747Y-144038866D01*
X123127993Y-144067380D01*
X123217630Y-144132505D01*
X123243248Y-144151118D01*
X123249276Y-144153802D01*
X123249278Y-144153803D01*
X123314982Y-144183056D01*
X123417712Y-144228794D01*
X123511004Y-144248624D01*
X123598056Y-144267128D01*
X123598061Y-144267128D01*
X123604513Y-144268500D01*
X123795487Y-144268500D01*
X123801939Y-144267128D01*
X123801944Y-144267128D01*
X123888996Y-144248624D01*
X123982288Y-144228794D01*
X124085018Y-144183056D01*
X124150722Y-144153803D01*
X124150724Y-144153802D01*
X124156752Y-144151118D01*
X124182371Y-144132505D01*
X124272007Y-144067380D01*
X124311253Y-144038866D01*
X124394410Y-143946511D01*
X124434621Y-143901852D01*
X124434622Y-143901851D01*
X124439040Y-143896944D01*
X124534527Y-143731556D01*
X124593542Y-143549928D01*
X124594318Y-143542547D01*
X124594499Y-143542106D01*
X124595606Y-143536900D01*
X124596558Y-143537102D01*
X124621327Y-143476889D01*
X124679546Y-143436256D01*
X124708207Y-143430230D01*
X124853600Y-143416998D01*
X124860302Y-143414820D01*
X124860304Y-143414820D01*
X125019409Y-143363124D01*
X125019412Y-143363123D01*
X125026108Y-143360947D01*
X125181912Y-143268069D01*
X125313266Y-143142982D01*
X125413643Y-142991902D01*
X125478055Y-142822338D01*
X125497900Y-142681134D01*
X125502748Y-142646639D01*
X125502748Y-142646636D01*
X125503299Y-142642717D01*
X125503616Y-142620000D01*
X125483397Y-142439745D01*
X125481080Y-142433091D01*
X125426064Y-142275106D01*
X125426062Y-142275103D01*
X125423745Y-142268448D01*
X125415851Y-142255815D01*
X125331359Y-142120598D01*
X125327626Y-142114624D01*
X125305656Y-142092500D01*
X125204778Y-141990915D01*
X125204774Y-141990912D01*
X125199815Y-141985918D01*
X125188697Y-141978862D01*
X125110076Y-141928968D01*
X125046666Y-141888727D01*
X125017463Y-141878328D01*
X124882425Y-141830243D01*
X124882420Y-141830242D01*
X124875790Y-141827881D01*
X124868802Y-141827048D01*
X124868799Y-141827047D01*
X124714406Y-141808637D01*
X124695680Y-141806404D01*
X124688677Y-141807140D01*
X124688676Y-141807140D01*
X124522288Y-141824628D01*
X124522286Y-141824629D01*
X124515288Y-141825364D01*
X124343579Y-141883818D01*
X124299041Y-141911218D01*
X124195095Y-141975166D01*
X124195092Y-141975168D01*
X124189088Y-141978862D01*
X124184053Y-141983793D01*
X124184050Y-141983795D01*
X124073045Y-142092500D01*
X124059493Y-142105771D01*
X123961235Y-142258238D01*
X123958824Y-142264862D01*
X123958823Y-142264864D01*
X123920804Y-142369321D01*
X123878710Y-142426493D01*
X123812389Y-142451831D01*
X123796070Y-142451624D01*
X123795487Y-142451500D01*
X123604513Y-142451500D01*
X123598061Y-142452872D01*
X123598056Y-142452872D01*
X123511112Y-142471353D01*
X123417712Y-142491206D01*
X123411682Y-142493891D01*
X123411681Y-142493891D01*
X123249278Y-142566197D01*
X123249276Y-142566198D01*
X123243248Y-142568882D01*
X123088747Y-142681134D01*
X122960960Y-142823056D01*
X122865473Y-142988444D01*
X122806458Y-143170072D01*
X122786496Y-143360000D01*
X119455188Y-143360000D01*
X119412591Y-143291830D01*
X119408858Y-143285856D01*
X119391195Y-143268069D01*
X119286010Y-143162147D01*
X119286006Y-143162144D01*
X119281047Y-143157150D01*
X119266379Y-143147841D01*
X119221770Y-143119532D01*
X119127898Y-143059959D01*
X119084262Y-143044421D01*
X118963657Y-143001475D01*
X118963652Y-143001474D01*
X118957022Y-142999113D01*
X118950029Y-142998279D01*
X118950024Y-142998278D01*
X118934347Y-142996408D01*
X118869074Y-142968480D01*
X118829262Y-142909696D01*
X118824054Y-142885343D01*
X118822952Y-142875521D01*
X118822950Y-142875513D01*
X118822165Y-142868513D01*
X118762513Y-142697216D01*
X118666394Y-142543392D01*
X118652709Y-142529611D01*
X118543546Y-142419683D01*
X118543542Y-142419680D01*
X118538583Y-142414686D01*
X118527465Y-142407630D01*
X118467099Y-142369321D01*
X118385434Y-142317495D01*
X118356231Y-142307096D01*
X118221193Y-142259011D01*
X118221188Y-142259010D01*
X118214558Y-142256649D01*
X118207570Y-142255816D01*
X118207567Y-142255815D01*
X118084466Y-142241136D01*
X118034448Y-142235172D01*
X118027445Y-142235908D01*
X118027444Y-142235908D01*
X117861056Y-142253396D01*
X117861054Y-142253397D01*
X117854056Y-142254132D01*
X117682347Y-142312586D01*
X117676343Y-142316280D01*
X117533863Y-142403934D01*
X117533860Y-142403936D01*
X117527856Y-142407630D01*
X117522821Y-142412561D01*
X117522818Y-142412563D01*
X117445978Y-142487811D01*
X117398261Y-142534539D01*
X117300003Y-142687006D01*
X117297594Y-142693626D01*
X117297592Y-142693629D01*
X117248403Y-142828774D01*
X117237965Y-142857453D01*
X117215231Y-143037408D01*
X116008000Y-143037408D01*
X116008000Y-140546140D01*
X117363963Y-140546140D01*
X117381663Y-140726660D01*
X117438918Y-140898773D01*
X117442565Y-140904795D01*
X117442566Y-140904797D01*
X117528698Y-141047018D01*
X117532880Y-141053924D01*
X117537769Y-141058987D01*
X117537770Y-141058988D01*
X117570598Y-141092982D01*
X117658882Y-141184402D01*
X117671656Y-141192761D01*
X117802250Y-141278219D01*
X117810659Y-141283722D01*
X117817263Y-141286178D01*
X117817265Y-141286179D01*
X117974058Y-141344490D01*
X117974060Y-141344490D01*
X117980668Y-141346948D01*
X118055928Y-141356990D01*
X118153480Y-141370007D01*
X118153484Y-141370007D01*
X118160461Y-141370938D01*
X118167472Y-141370300D01*
X118167476Y-141370300D01*
X118313718Y-141356990D01*
X118341100Y-141354498D01*
X118347802Y-141352320D01*
X118347804Y-141352320D01*
X118506909Y-141300624D01*
X118506912Y-141300623D01*
X118513608Y-141298447D01*
X118519659Y-141294840D01*
X118622828Y-141233339D01*
X118691583Y-141215639D01*
X118756338Y-141236136D01*
X118832812Y-141286179D01*
X118848159Y-141296222D01*
X118854763Y-141298678D01*
X118854765Y-141298679D01*
X119011558Y-141356990D01*
X119011560Y-141356990D01*
X119018168Y-141359448D01*
X119099498Y-141370300D01*
X119190980Y-141382507D01*
X119190984Y-141382507D01*
X119197961Y-141383438D01*
X119204972Y-141382800D01*
X119204976Y-141382800D01*
X119347459Y-141369832D01*
X119378600Y-141366998D01*
X119385302Y-141364820D01*
X119385304Y-141364820D01*
X119544409Y-141313124D01*
X119544412Y-141313123D01*
X119551108Y-141310947D01*
X119653290Y-141250034D01*
X119700860Y-141221677D01*
X119700862Y-141221676D01*
X119706912Y-141218069D01*
X119838266Y-141092982D01*
X119938643Y-140941902D01*
X119980423Y-140831917D01*
X120000555Y-140778920D01*
X120000556Y-140778918D01*
X120003055Y-140772338D01*
X120010460Y-140719651D01*
X120027748Y-140596639D01*
X120027748Y-140596636D01*
X120028299Y-140592717D01*
X120028616Y-140570000D01*
X120008397Y-140389745D01*
X119997888Y-140359566D01*
X119951064Y-140225106D01*
X119951062Y-140225103D01*
X119948745Y-140218448D01*
X119852626Y-140064624D01*
X119845823Y-140057773D01*
X119729778Y-139940915D01*
X119729774Y-139940912D01*
X119724815Y-139935918D01*
X119713697Y-139928862D01*
X119629400Y-139875366D01*
X119571666Y-139838727D01*
X119516398Y-139819047D01*
X119407425Y-139780243D01*
X119407420Y-139780242D01*
X119400790Y-139777881D01*
X119393802Y-139777048D01*
X119393799Y-139777047D01*
X119268682Y-139762128D01*
X119220680Y-139756404D01*
X119213677Y-139757140D01*
X119213676Y-139757140D01*
X119047288Y-139774628D01*
X119047286Y-139774629D01*
X119040288Y-139775364D01*
X118911969Y-139819047D01*
X118879789Y-139830002D01*
X118868579Y-139833818D01*
X118801044Y-139875366D01*
X118771909Y-139893290D01*
X118703408Y-139911949D01*
X118638374Y-139892359D01*
X118534166Y-139826227D01*
X118504963Y-139815828D01*
X118369925Y-139767743D01*
X118369920Y-139767742D01*
X118363290Y-139765381D01*
X118356302Y-139764548D01*
X118356299Y-139764547D01*
X118233198Y-139749868D01*
X118183180Y-139743904D01*
X118176177Y-139744640D01*
X118176176Y-139744640D01*
X118009788Y-139762128D01*
X118009786Y-139762129D01*
X118002788Y-139762864D01*
X117831079Y-139821318D01*
X117774958Y-139855844D01*
X117682595Y-139912666D01*
X117682592Y-139912668D01*
X117676588Y-139916362D01*
X117671553Y-139921293D01*
X117671550Y-139921295D01*
X117556828Y-140033640D01*
X117546993Y-140043271D01*
X117448735Y-140195738D01*
X117446326Y-140202358D01*
X117446324Y-140202361D01*
X117432078Y-140241502D01*
X117386697Y-140366185D01*
X117363963Y-140546140D01*
X116008000Y-140546140D01*
X116008000Y-137735251D01*
X116028002Y-137667130D01*
X116081658Y-137620637D01*
X116151932Y-137610533D01*
X116216512Y-137640027D01*
X116241086Y-137668854D01*
X116323708Y-137802108D01*
X116331460Y-137812174D01*
X116456408Y-137944303D01*
X116466026Y-137952605D01*
X116614987Y-138056908D01*
X116626081Y-138063108D01*
X116792980Y-138135332D01*
X116805083Y-138139171D01*
X116984600Y-138176675D01*
X116994152Y-138177915D01*
X116997384Y-138178000D01*
X117217885Y-138178000D01*
X117233124Y-138173525D01*
X117234329Y-138172135D01*
X117236000Y-138164452D01*
X117236000Y-138159885D01*
X117744000Y-138159885D01*
X117748475Y-138175124D01*
X117749865Y-138176329D01*
X117757548Y-138178000D01*
X117935447Y-138178000D01*
X117941822Y-138177677D01*
X118077277Y-138163918D01*
X118089717Y-138161364D01*
X118263244Y-138106984D01*
X118274932Y-138101975D01*
X118433979Y-138013813D01*
X118444412Y-138006562D01*
X118582491Y-137888215D01*
X118591244Y-137879024D01*
X118702711Y-137735320D01*
X118709435Y-137724560D01*
X118789732Y-137561375D01*
X118794155Y-137549481D01*
X118809251Y-137491530D01*
X118809021Y-137484075D01*
X120186363Y-137484075D01*
X120242310Y-137636136D01*
X120247877Y-137647549D01*
X120343708Y-137802108D01*
X120351460Y-137812174D01*
X120476406Y-137944301D01*
X120486028Y-137952607D01*
X120511279Y-137970288D01*
X120555607Y-138025745D01*
X120562915Y-138096365D01*
X120545392Y-138141014D01*
X120448727Y-138293334D01*
X120445079Y-138303579D01*
X120390243Y-138457575D01*
X120390242Y-138457580D01*
X120387881Y-138464210D01*
X120387048Y-138471198D01*
X120387047Y-138471201D01*
X120376799Y-138557143D01*
X120366404Y-138644320D01*
X120367140Y-138651323D01*
X120367140Y-138651324D01*
X120382406Y-138796565D01*
X120385364Y-138824712D01*
X120443818Y-138996421D01*
X120538862Y-139150912D01*
X120543793Y-139155947D01*
X120543795Y-139155950D01*
X120582036Y-139195000D01*
X120665771Y-139280507D01*
X120818238Y-139378765D01*
X120824858Y-139381174D01*
X120824861Y-139381176D01*
X120887350Y-139403920D01*
X120988685Y-139440803D01*
X121128769Y-139458500D01*
X121225610Y-139458500D01*
X121360255Y-139443397D01*
X121374622Y-139438394D01*
X121524894Y-139386064D01*
X121524897Y-139386062D01*
X121531552Y-139383745D01*
X121539522Y-139378765D01*
X121679402Y-139291359D01*
X121685376Y-139287626D01*
X121697612Y-139275475D01*
X121809085Y-139164778D01*
X121809088Y-139164774D01*
X121814082Y-139159815D01*
X121911273Y-139006666D01*
X121923131Y-138973365D01*
X121969757Y-138842425D01*
X121969758Y-138842420D01*
X121972119Y-138835790D01*
X121976797Y-138796565D01*
X121992762Y-138662673D01*
X121993596Y-138655680D01*
X121988441Y-138606635D01*
X121975372Y-138482288D01*
X121975371Y-138482286D01*
X121974636Y-138475288D01*
X121930148Y-138344604D01*
X121927130Y-138273673D01*
X121962940Y-138212369D01*
X122026209Y-138180157D01*
X122049426Y-138178000D01*
X122255447Y-138178000D01*
X122261822Y-138177677D01*
X122397277Y-138163918D01*
X122409717Y-138161364D01*
X122583244Y-138106984D01*
X122594932Y-138101975D01*
X122674046Y-138058121D01*
X122743323Y-138042589D01*
X122809999Y-138066977D01*
X122844251Y-138105324D01*
X122850960Y-138116944D01*
X122855378Y-138121851D01*
X122855379Y-138121852D01*
X122893736Y-138164452D01*
X122978747Y-138258866D01*
X123133248Y-138371118D01*
X123139276Y-138373802D01*
X123139278Y-138373803D01*
X123301681Y-138446109D01*
X123307712Y-138448794D01*
X123314173Y-138450167D01*
X123314178Y-138450169D01*
X123372559Y-138462579D01*
X123435033Y-138496307D01*
X123469354Y-138558457D01*
X123464626Y-138629296D01*
X123438374Y-138669889D01*
X123438979Y-138670382D01*
X123434526Y-138675842D01*
X123429493Y-138680771D01*
X123331235Y-138833238D01*
X123328826Y-138839858D01*
X123328824Y-138839861D01*
X123277844Y-138979928D01*
X123269197Y-139003685D01*
X123246463Y-139183640D01*
X123264163Y-139364160D01*
X123321418Y-139536273D01*
X123325065Y-139542295D01*
X123325066Y-139542297D01*
X123331504Y-139552927D01*
X123349683Y-139621556D01*
X123336587Y-139674224D01*
X123335054Y-139677313D01*
X123331235Y-139683238D01*
X123328826Y-139689858D01*
X123328824Y-139689861D01*
X123274641Y-139838727D01*
X123269197Y-139853685D01*
X123246463Y-140033640D01*
X123264163Y-140214160D01*
X123321418Y-140386273D01*
X123325065Y-140392295D01*
X123325066Y-140392297D01*
X123385933Y-140492800D01*
X123415380Y-140541424D01*
X123420269Y-140546487D01*
X123420270Y-140546488D01*
X123435357Y-140562111D01*
X123541382Y-140671902D01*
X123693159Y-140771222D01*
X123699763Y-140773678D01*
X123699765Y-140773679D01*
X123856558Y-140831990D01*
X123856560Y-140831990D01*
X123863168Y-140834448D01*
X123946995Y-140845633D01*
X124035980Y-140857507D01*
X124035984Y-140857507D01*
X124042961Y-140858438D01*
X124049972Y-140857800D01*
X124049976Y-140857800D01*
X124192459Y-140844832D01*
X124223600Y-140841998D01*
X124230302Y-140839820D01*
X124230304Y-140839820D01*
X124389409Y-140788124D01*
X124389412Y-140788123D01*
X124396108Y-140785947D01*
X124551912Y-140693069D01*
X124683266Y-140567982D01*
X124783643Y-140416902D01*
X124848055Y-140247338D01*
X124850835Y-140227557D01*
X124872748Y-140071639D01*
X124872748Y-140071636D01*
X124873299Y-140067717D01*
X124873545Y-140050121D01*
X124873561Y-140048962D01*
X124873561Y-140048957D01*
X124873616Y-140045000D01*
X124872342Y-140033640D01*
X127376463Y-140033640D01*
X127394163Y-140214160D01*
X127451418Y-140386273D01*
X127455065Y-140392295D01*
X127455066Y-140392297D01*
X127515933Y-140492800D01*
X127545380Y-140541424D01*
X127550269Y-140546487D01*
X127550270Y-140546488D01*
X127565357Y-140562111D01*
X127671382Y-140671902D01*
X127823159Y-140771222D01*
X127829763Y-140773678D01*
X127829765Y-140773679D01*
X127986558Y-140831990D01*
X127986560Y-140831990D01*
X127993168Y-140834448D01*
X128076995Y-140845633D01*
X128165980Y-140857507D01*
X128165984Y-140857507D01*
X128172961Y-140858438D01*
X128179972Y-140857800D01*
X128179976Y-140857800D01*
X128322459Y-140844832D01*
X128353600Y-140841998D01*
X128360302Y-140839820D01*
X128360304Y-140839820D01*
X128519409Y-140788124D01*
X128519412Y-140788123D01*
X128526108Y-140785947D01*
X128681912Y-140693069D01*
X128813266Y-140567982D01*
X128913643Y-140416902D01*
X128978055Y-140247338D01*
X128980835Y-140227557D01*
X129002748Y-140071639D01*
X129002748Y-140071636D01*
X129003299Y-140067717D01*
X129003545Y-140050121D01*
X129003561Y-140048962D01*
X129003561Y-140048957D01*
X129003616Y-140045000D01*
X128983397Y-139864745D01*
X128980298Y-139855844D01*
X128939931Y-139739928D01*
X128923745Y-139693448D01*
X128920013Y-139687476D01*
X128920009Y-139687467D01*
X128919958Y-139687386D01*
X128919941Y-139687326D01*
X128916967Y-139681118D01*
X128918058Y-139680595D01*
X128914713Y-139668640D01*
X129956463Y-139668640D01*
X129974163Y-139849160D01*
X130031418Y-140021273D01*
X130035065Y-140027295D01*
X130035066Y-140027297D01*
X130114068Y-140157745D01*
X130125380Y-140176424D01*
X130130269Y-140181487D01*
X130130270Y-140181488D01*
X130193861Y-140247338D01*
X130251382Y-140306902D01*
X130257278Y-140310760D01*
X130372674Y-140386273D01*
X130403159Y-140406222D01*
X130409763Y-140408678D01*
X130409765Y-140408679D01*
X130566558Y-140466990D01*
X130566560Y-140466990D01*
X130573168Y-140469448D01*
X130656995Y-140480633D01*
X130745980Y-140492507D01*
X130745984Y-140492507D01*
X130752961Y-140493438D01*
X130759972Y-140492800D01*
X130759976Y-140492800D01*
X130902459Y-140479832D01*
X130933600Y-140476998D01*
X130940302Y-140474820D01*
X130940304Y-140474820D01*
X131099409Y-140423124D01*
X131099412Y-140423123D01*
X131106108Y-140420947D01*
X131261912Y-140328069D01*
X131393266Y-140202982D01*
X131493643Y-140051902D01*
X131543157Y-139921556D01*
X131555555Y-139888920D01*
X131555556Y-139888918D01*
X131558055Y-139882338D01*
X131561463Y-139858091D01*
X131582748Y-139706639D01*
X131582748Y-139706636D01*
X131583299Y-139702717D01*
X131583616Y-139680000D01*
X131563397Y-139499745D01*
X131561080Y-139493091D01*
X131506064Y-139335106D01*
X131506062Y-139335103D01*
X131503745Y-139328448D01*
X131407626Y-139174624D01*
X131398835Y-139165771D01*
X131284778Y-139050915D01*
X131284774Y-139050912D01*
X131279815Y-139045918D01*
X131268697Y-139038862D01*
X131191308Y-138989750D01*
X131126666Y-138948727D01*
X131097463Y-138938328D01*
X130962425Y-138890243D01*
X130962420Y-138890242D01*
X130955790Y-138887881D01*
X130948802Y-138887048D01*
X130948799Y-138887047D01*
X130825698Y-138872368D01*
X130775680Y-138866404D01*
X130768677Y-138867140D01*
X130768676Y-138867140D01*
X130602288Y-138884628D01*
X130602286Y-138884629D01*
X130595288Y-138885364D01*
X130423579Y-138943818D01*
X130417575Y-138947512D01*
X130275095Y-139035166D01*
X130275092Y-139035168D01*
X130269088Y-139038862D01*
X130264053Y-139043793D01*
X130264050Y-139043795D01*
X130154666Y-139150912D01*
X130139493Y-139165771D01*
X130041235Y-139318238D01*
X130038826Y-139324858D01*
X130038824Y-139324861D01*
X129984997Y-139472749D01*
X129979197Y-139488685D01*
X129956463Y-139668640D01*
X128914713Y-139668640D01*
X128900827Y-139619016D01*
X128913775Y-139566952D01*
X128913643Y-139566902D01*
X128914060Y-139565804D01*
X128920064Y-139550000D01*
X128975555Y-139403920D01*
X128975556Y-139403918D01*
X128978055Y-139397338D01*
X128979035Y-139390366D01*
X129002748Y-139221639D01*
X129002748Y-139221636D01*
X129003299Y-139217717D01*
X129003616Y-139195000D01*
X128983397Y-139014745D01*
X128980584Y-139006666D01*
X128926064Y-138850106D01*
X128926062Y-138850103D01*
X128923745Y-138843448D01*
X128890347Y-138790000D01*
X132186496Y-138790000D01*
X132187186Y-138796565D01*
X132196784Y-138887881D01*
X132206458Y-138979928D01*
X132265473Y-139161556D01*
X132268776Y-139167278D01*
X132268777Y-139167279D01*
X132271919Y-139172721D01*
X132360960Y-139326944D01*
X132365378Y-139331851D01*
X132365379Y-139331852D01*
X132479413Y-139458500D01*
X132488747Y-139468866D01*
X132572326Y-139529590D01*
X132614617Y-139560316D01*
X132643248Y-139581118D01*
X132649276Y-139583802D01*
X132649278Y-139583803D01*
X132811681Y-139656109D01*
X132817712Y-139658794D01*
X132897027Y-139675653D01*
X132998056Y-139697128D01*
X132998061Y-139697128D01*
X133004513Y-139698500D01*
X133195487Y-139698500D01*
X133201939Y-139697128D01*
X133201944Y-139697128D01*
X133302973Y-139675653D01*
X133382288Y-139658794D01*
X133388319Y-139656109D01*
X133550722Y-139583803D01*
X133550724Y-139583802D01*
X133556752Y-139581118D01*
X133585384Y-139560316D01*
X133627674Y-139529590D01*
X133711253Y-139468866D01*
X133720587Y-139458500D01*
X133834621Y-139331852D01*
X133834622Y-139331851D01*
X133839040Y-139326944D01*
X133928081Y-139172721D01*
X133931223Y-139167279D01*
X133931224Y-139167278D01*
X133934527Y-139161556D01*
X133993542Y-138979928D01*
X134003217Y-138887881D01*
X134012814Y-138796565D01*
X134013504Y-138790000D01*
X134002352Y-138683891D01*
X133994232Y-138606635D01*
X133994232Y-138606633D01*
X133993542Y-138600072D01*
X133934527Y-138418444D01*
X133930298Y-138411118D01*
X133872615Y-138311209D01*
X133839040Y-138253056D01*
X133766179Y-138172135D01*
X133715675Y-138116045D01*
X133715674Y-138116044D01*
X133711253Y-138111134D01*
X133593726Y-138025745D01*
X133562094Y-138002763D01*
X133562093Y-138002762D01*
X133556752Y-137998882D01*
X133550724Y-137996198D01*
X133550722Y-137996197D01*
X133388319Y-137923891D01*
X133388318Y-137923891D01*
X133382288Y-137921206D01*
X133288887Y-137901353D01*
X133201944Y-137882872D01*
X133201939Y-137882872D01*
X133195487Y-137881500D01*
X133004513Y-137881500D01*
X132998061Y-137882872D01*
X132998056Y-137882872D01*
X132911113Y-137901353D01*
X132817712Y-137921206D01*
X132811682Y-137923891D01*
X132811681Y-137923891D01*
X132649278Y-137996197D01*
X132649276Y-137996198D01*
X132643248Y-137998882D01*
X132637907Y-138002762D01*
X132637906Y-138002763D01*
X132606274Y-138025745D01*
X132488747Y-138111134D01*
X132484326Y-138116044D01*
X132484325Y-138116045D01*
X132433822Y-138172135D01*
X132360960Y-138253056D01*
X132327385Y-138311209D01*
X132269703Y-138411118D01*
X132265473Y-138418444D01*
X132206458Y-138600072D01*
X132205768Y-138606633D01*
X132205768Y-138606635D01*
X132197648Y-138683891D01*
X132186496Y-138790000D01*
X128890347Y-138790000D01*
X128827626Y-138689624D01*
X128808518Y-138670382D01*
X128704778Y-138565915D01*
X128704774Y-138565912D01*
X128699815Y-138560918D01*
X128688697Y-138553862D01*
X128585702Y-138488500D01*
X128546666Y-138463727D01*
X128497189Y-138446109D01*
X128382425Y-138405243D01*
X128382420Y-138405242D01*
X128375790Y-138402881D01*
X128368802Y-138402048D01*
X128368799Y-138402047D01*
X128244177Y-138387187D01*
X128195680Y-138381404D01*
X128188677Y-138382140D01*
X128188676Y-138382140D01*
X128022288Y-138399628D01*
X128022286Y-138399629D01*
X128015288Y-138400364D01*
X127843579Y-138458818D01*
X127795332Y-138488500D01*
X127695095Y-138550166D01*
X127695092Y-138550168D01*
X127689088Y-138553862D01*
X127684053Y-138558793D01*
X127684050Y-138558795D01*
X127635198Y-138606635D01*
X127559493Y-138680771D01*
X127461235Y-138833238D01*
X127458826Y-138839858D01*
X127458824Y-138839861D01*
X127407844Y-138979928D01*
X127399197Y-139003685D01*
X127376463Y-139183640D01*
X127394163Y-139364160D01*
X127451418Y-139536273D01*
X127455065Y-139542295D01*
X127455066Y-139542297D01*
X127461504Y-139552927D01*
X127479683Y-139621556D01*
X127466587Y-139674224D01*
X127465054Y-139677313D01*
X127461235Y-139683238D01*
X127458826Y-139689858D01*
X127458824Y-139689861D01*
X127404641Y-139838727D01*
X127399197Y-139853685D01*
X127376463Y-140033640D01*
X124872342Y-140033640D01*
X124853397Y-139864745D01*
X124850298Y-139855844D01*
X124809931Y-139739928D01*
X124793745Y-139693448D01*
X124790013Y-139687476D01*
X124790009Y-139687467D01*
X124789958Y-139687386D01*
X124789941Y-139687326D01*
X124786967Y-139681118D01*
X124788058Y-139680595D01*
X124770827Y-139619016D01*
X124783775Y-139566952D01*
X124783643Y-139566902D01*
X124784060Y-139565804D01*
X124790064Y-139550000D01*
X124845555Y-139403920D01*
X124845556Y-139403918D01*
X124848055Y-139397338D01*
X124849035Y-139390366D01*
X124872748Y-139221639D01*
X124872748Y-139221636D01*
X124873299Y-139217717D01*
X124873616Y-139195000D01*
X124853397Y-139014745D01*
X124850584Y-139006666D01*
X124796064Y-138850106D01*
X124796062Y-138850103D01*
X124793745Y-138843448D01*
X124697626Y-138689624D01*
X124678518Y-138670382D01*
X124574778Y-138565915D01*
X124574774Y-138565912D01*
X124569815Y-138560918D01*
X124558697Y-138553862D01*
X124455702Y-138488500D01*
X124416666Y-138463727D01*
X124291185Y-138419045D01*
X124233722Y-138377352D01*
X124207922Y-138311209D01*
X124221977Y-138241618D01*
X124239816Y-138216037D01*
X124243119Y-138212369D01*
X124329040Y-138116944D01*
X124398129Y-137997279D01*
X124421223Y-137957279D01*
X124421224Y-137957278D01*
X124424527Y-137951556D01*
X124483542Y-137769928D01*
X124487180Y-137735320D01*
X124502814Y-137586565D01*
X124503504Y-137580000D01*
X124484513Y-137399310D01*
X124497285Y-137329472D01*
X124545787Y-137277625D01*
X124614620Y-137260231D01*
X124654771Y-137268430D01*
X124754996Y-137306702D01*
X124764899Y-137309579D01*
X124868250Y-137330606D01*
X124882299Y-137329410D01*
X124886000Y-137319065D01*
X124886000Y-137318517D01*
X125394000Y-137318517D01*
X125398064Y-137332359D01*
X125411478Y-137334393D01*
X125418184Y-137333534D01*
X125428262Y-137331392D01*
X125632255Y-137270191D01*
X125641842Y-137266433D01*
X125833095Y-137172739D01*
X125841945Y-137167464D01*
X126015328Y-137043792D01*
X126023200Y-137037139D01*
X126174052Y-136886812D01*
X126180730Y-136878965D01*
X126308022Y-136701819D01*
X126309279Y-136702722D01*
X126356373Y-136659362D01*
X126426311Y-136647145D01*
X126491751Y-136674678D01*
X126519579Y-136706511D01*
X126579987Y-136805088D01*
X126726250Y-136973938D01*
X126898126Y-137116632D01*
X127091000Y-137229338D01*
X127095825Y-137231180D01*
X127095826Y-137231181D01*
X127126046Y-137242721D01*
X127299692Y-137309030D01*
X127304760Y-137310061D01*
X127304763Y-137310062D01*
X127399862Y-137329410D01*
X127518597Y-137353567D01*
X127523772Y-137353757D01*
X127523774Y-137353757D01*
X127736673Y-137361564D01*
X127736677Y-137361564D01*
X127741837Y-137361753D01*
X127746957Y-137361097D01*
X127746959Y-137361097D01*
X127958288Y-137334025D01*
X127958289Y-137334025D01*
X127963416Y-137333368D01*
X127968366Y-137331883D01*
X128172429Y-137270661D01*
X128172434Y-137270659D01*
X128177384Y-137269174D01*
X128377994Y-137170896D01*
X128559860Y-137041173D01*
X128668091Y-136933319D01*
X128730462Y-136899404D01*
X128801268Y-136904592D01*
X128858030Y-136947238D01*
X128875012Y-136978341D01*
X128919385Y-137096705D01*
X129006739Y-137213261D01*
X129123295Y-137300615D01*
X129259684Y-137351745D01*
X129321866Y-137358500D01*
X131118134Y-137358500D01*
X131180316Y-137351745D01*
X131316705Y-137300615D01*
X131433261Y-137213261D01*
X131520615Y-137096705D01*
X131571745Y-136960316D01*
X131578500Y-136898134D01*
X131578500Y-136158640D01*
X135026463Y-136158640D01*
X135044163Y-136339160D01*
X135101418Y-136511273D01*
X135105065Y-136517295D01*
X135105066Y-136517297D01*
X135183130Y-136646196D01*
X135195380Y-136666424D01*
X135200269Y-136671487D01*
X135200270Y-136671488D01*
X135242717Y-136715443D01*
X135321382Y-136796902D01*
X135377365Y-136833536D01*
X135457300Y-136885844D01*
X135473159Y-136896222D01*
X135479763Y-136898678D01*
X135479765Y-136898679D01*
X135636558Y-136956990D01*
X135636560Y-136956990D01*
X135643168Y-136959448D01*
X135722482Y-136970031D01*
X135815980Y-136982507D01*
X135815984Y-136982507D01*
X135822961Y-136983438D01*
X135829972Y-136982800D01*
X135829976Y-136982800D01*
X135972459Y-136969832D01*
X136003600Y-136966998D01*
X136010302Y-136964820D01*
X136010304Y-136964820D01*
X136169409Y-136913124D01*
X136169412Y-136913123D01*
X136176108Y-136910947D01*
X136313773Y-136828882D01*
X136325860Y-136821677D01*
X136325862Y-136821676D01*
X136331912Y-136818069D01*
X136463266Y-136692982D01*
X136563643Y-136541902D01*
X136628055Y-136372338D01*
X136629035Y-136365366D01*
X136652748Y-136196639D01*
X136652748Y-136196636D01*
X136653299Y-136192717D01*
X136653501Y-136178238D01*
X136653561Y-136173962D01*
X136653561Y-136173957D01*
X136653616Y-136170000D01*
X136633397Y-135989745D01*
X136629560Y-135978727D01*
X136576064Y-135825106D01*
X136576062Y-135825103D01*
X136573745Y-135818448D01*
X136528475Y-135746000D01*
X136481359Y-135670598D01*
X136477626Y-135664624D01*
X136416413Y-135602982D01*
X136354778Y-135540915D01*
X136354774Y-135540912D01*
X136349815Y-135535918D01*
X136338697Y-135528862D01*
X136226668Y-135457767D01*
X136196666Y-135438727D01*
X136164567Y-135427297D01*
X136032425Y-135380243D01*
X136032420Y-135380242D01*
X136025790Y-135377881D01*
X136018802Y-135377048D01*
X136018799Y-135377047D01*
X135895698Y-135362368D01*
X135845680Y-135356404D01*
X135838677Y-135357140D01*
X135838676Y-135357140D01*
X135672288Y-135374628D01*
X135672286Y-135374629D01*
X135665288Y-135375364D01*
X135493579Y-135433818D01*
X135487575Y-135437512D01*
X135345095Y-135525166D01*
X135345092Y-135525168D01*
X135339088Y-135528862D01*
X135334053Y-135533793D01*
X135334050Y-135533795D01*
X135290519Y-135576424D01*
X135209493Y-135655771D01*
X135111235Y-135808238D01*
X135108826Y-135814858D01*
X135108824Y-135814861D01*
X135071418Y-135917633D01*
X135049197Y-135978685D01*
X135026463Y-136158640D01*
X131578500Y-136158640D01*
X131578500Y-135101866D01*
X131574891Y-135068640D01*
X138266463Y-135068640D01*
X138284163Y-135249160D01*
X138341418Y-135421273D01*
X138345065Y-135427295D01*
X138345066Y-135427297D01*
X138421023Y-135552717D01*
X138435380Y-135576424D01*
X138561382Y-135706902D01*
X138713159Y-135806222D01*
X138719763Y-135808678D01*
X138719765Y-135808679D01*
X138876558Y-135866990D01*
X138876560Y-135866990D01*
X138883168Y-135869448D01*
X138988955Y-135883563D01*
X139061205Y-135893204D01*
X139126082Y-135922040D01*
X139165070Y-135981373D01*
X139165790Y-136052366D01*
X139150454Y-136086348D01*
X139091235Y-136178238D01*
X139088826Y-136184858D01*
X139088824Y-136184861D01*
X139046615Y-136300829D01*
X139029197Y-136348685D01*
X139006463Y-136528640D01*
X139024163Y-136709160D01*
X139081418Y-136881273D01*
X139085065Y-136887295D01*
X139085066Y-136887297D01*
X139143291Y-136983438D01*
X139175380Y-137036424D01*
X139180269Y-137041487D01*
X139180270Y-137041488D01*
X139225934Y-137088774D01*
X139301382Y-137166902D01*
X139310302Y-137172739D01*
X139444004Y-137260231D01*
X139453159Y-137266222D01*
X139459763Y-137268678D01*
X139459765Y-137268679D01*
X139616558Y-137326990D01*
X139616560Y-137326990D01*
X139623168Y-137329448D01*
X139699964Y-137339695D01*
X139795980Y-137352507D01*
X139795984Y-137352507D01*
X139802961Y-137353438D01*
X139809972Y-137352800D01*
X139809976Y-137352800D01*
X139953966Y-137339695D01*
X139983600Y-137336998D01*
X139990302Y-137334820D01*
X139990304Y-137334820D01*
X140149409Y-137283124D01*
X140149412Y-137283123D01*
X140156108Y-137280947D01*
X140252513Y-137223478D01*
X140305860Y-137191677D01*
X140305862Y-137191676D01*
X140311912Y-137188069D01*
X140443266Y-137062982D01*
X140543643Y-136911902D01*
X140595379Y-136775708D01*
X140605555Y-136748920D01*
X140605556Y-136748918D01*
X140608055Y-136742338D01*
X140611537Y-136717563D01*
X140614196Y-136698640D01*
X142526463Y-136698640D01*
X142544163Y-136879160D01*
X142601418Y-137051273D01*
X142605065Y-137057295D01*
X142605066Y-137057297D01*
X142695380Y-137206424D01*
X142694400Y-137207017D01*
X142710882Y-137239505D01*
X142714978Y-137253604D01*
X142718987Y-137272964D01*
X142720271Y-137283124D01*
X142721526Y-137293061D01*
X142724445Y-137300432D01*
X142724445Y-137300434D01*
X142737804Y-137334176D01*
X142741649Y-137345406D01*
X142744020Y-137353567D01*
X142753982Y-137387857D01*
X142758015Y-137394676D01*
X142758017Y-137394681D01*
X142764293Y-137405292D01*
X142772988Y-137423040D01*
X142780448Y-137441881D01*
X142785110Y-137448297D01*
X142785110Y-137448298D01*
X142806436Y-137477651D01*
X142812952Y-137487571D01*
X142835458Y-137525626D01*
X142849779Y-137539947D01*
X142862619Y-137554980D01*
X142874528Y-137571371D01*
X142908605Y-137599562D01*
X142917384Y-137607552D01*
X146342079Y-141032247D01*
X146349623Y-141040537D01*
X146353736Y-141047018D01*
X146359513Y-141052443D01*
X146403403Y-141093658D01*
X146406245Y-141096413D01*
X146425966Y-141116134D01*
X146429161Y-141118612D01*
X146438183Y-141126318D01*
X146470415Y-141156586D01*
X146477364Y-141160406D01*
X146488168Y-141166346D01*
X146504692Y-141177199D01*
X146520695Y-141189613D01*
X146561279Y-141207176D01*
X146571909Y-141212383D01*
X146610676Y-141233695D01*
X146618353Y-141235666D01*
X146618358Y-141235668D01*
X146630294Y-141238732D01*
X146649002Y-141245137D01*
X146667591Y-141253181D01*
X146675416Y-141254420D01*
X146675418Y-141254421D01*
X146711255Y-141260097D01*
X146722876Y-141262504D01*
X146758025Y-141271528D01*
X146765706Y-141273500D01*
X146785967Y-141273500D01*
X146805676Y-141275051D01*
X146825679Y-141278219D01*
X146833571Y-141277473D01*
X146838798Y-141276979D01*
X146869690Y-141274059D01*
X146881547Y-141273500D01*
X152145406Y-141273500D01*
X152213527Y-141293502D01*
X152234501Y-141310405D01*
X153349595Y-142425499D01*
X153383621Y-142487811D01*
X153386500Y-142514594D01*
X153386500Y-145051692D01*
X153366498Y-145119813D01*
X153318683Y-145163453D01*
X153293607Y-145176507D01*
X153289474Y-145179610D01*
X153289471Y-145179612D01*
X153119100Y-145307530D01*
X153114965Y-145310635D01*
X153091609Y-145335076D01*
X152980279Y-145451576D01*
X152960629Y-145472138D01*
X152834743Y-145656680D01*
X152740688Y-145859305D01*
X152680989Y-146074570D01*
X152657251Y-146296695D01*
X152657548Y-146301848D01*
X152657548Y-146301851D01*
X152663011Y-146396590D01*
X152670110Y-146519715D01*
X152671247Y-146524761D01*
X152671248Y-146524767D01*
X152691119Y-146612939D01*
X152719222Y-146737639D01*
X152757461Y-146831811D01*
X152800063Y-146936727D01*
X152803266Y-146944616D01*
X152816911Y-146966883D01*
X152911736Y-147121623D01*
X152919987Y-147135088D01*
X153066250Y-147303938D01*
X153070230Y-147307242D01*
X153074981Y-147311187D01*
X153114616Y-147370090D01*
X153116113Y-147441071D01*
X153078997Y-147501593D01*
X153038725Y-147526112D01*
X152958783Y-147556081D01*
X152923295Y-147569385D01*
X152806739Y-147656739D01*
X152719385Y-147773295D01*
X152668255Y-147909684D01*
X152661500Y-147971866D01*
X152661500Y-149768134D01*
X152668255Y-149830316D01*
X152719385Y-149966705D01*
X152806739Y-150083261D01*
X152923295Y-150170615D01*
X153059684Y-150221745D01*
X153121866Y-150228500D01*
X154918134Y-150228500D01*
X154980316Y-150221745D01*
X155116705Y-150170615D01*
X155233261Y-150083261D01*
X155320615Y-149966705D01*
X155371745Y-149830316D01*
X155378500Y-149768134D01*
X155378500Y-149157966D01*
X157078257Y-149157966D01*
X157108565Y-149292446D01*
X157111645Y-149302275D01*
X157191770Y-149499603D01*
X157196413Y-149508794D01*
X157307694Y-149690388D01*
X157313777Y-149698699D01*
X157453213Y-149859667D01*
X157460580Y-149866883D01*
X157624434Y-150002916D01*
X157632881Y-150008831D01*
X157816756Y-150116279D01*
X157826042Y-150120729D01*
X158025001Y-150196703D01*
X158034899Y-150199579D01*
X158138250Y-150220606D01*
X158152299Y-150219410D01*
X158156000Y-150209065D01*
X158156000Y-150208517D01*
X158664000Y-150208517D01*
X158668064Y-150222359D01*
X158681478Y-150224393D01*
X158688184Y-150223534D01*
X158698262Y-150221392D01*
X158902255Y-150160191D01*
X158911842Y-150156433D01*
X159103095Y-150062739D01*
X159111945Y-150057464D01*
X159285328Y-149933792D01*
X159293200Y-149927139D01*
X159444052Y-149776812D01*
X159450730Y-149768965D01*
X159575003Y-149596020D01*
X159580313Y-149587183D01*
X159674670Y-149396267D01*
X159678469Y-149386672D01*
X159740377Y-149182910D01*
X159742555Y-149172837D01*
X159743986Y-149161962D01*
X159741775Y-149147778D01*
X159728617Y-149144000D01*
X158682115Y-149144000D01*
X158666876Y-149148475D01*
X158665671Y-149149865D01*
X158664000Y-149157548D01*
X158664000Y-150208517D01*
X158156000Y-150208517D01*
X158156000Y-149162115D01*
X158151525Y-149146876D01*
X158150135Y-149145671D01*
X158142452Y-149144000D01*
X157093225Y-149144000D01*
X157079694Y-149147973D01*
X157078257Y-149157966D01*
X155378500Y-149157966D01*
X155378500Y-148988640D01*
X177776463Y-148988640D01*
X177794163Y-149169160D01*
X177851418Y-149341273D01*
X177855065Y-149347295D01*
X177855066Y-149347297D01*
X177891997Y-149408277D01*
X177945380Y-149496424D01*
X177950269Y-149501487D01*
X177950270Y-149501488D01*
X177959622Y-149511172D01*
X178071382Y-149626902D01*
X178223159Y-149726222D01*
X178229763Y-149728678D01*
X178229765Y-149728679D01*
X178386558Y-149786990D01*
X178386560Y-149786990D01*
X178393168Y-149789448D01*
X178476995Y-149800633D01*
X178565980Y-149812507D01*
X178565984Y-149812507D01*
X178572961Y-149813438D01*
X178579972Y-149812800D01*
X178579976Y-149812800D01*
X178722459Y-149799832D01*
X178753600Y-149796998D01*
X178760302Y-149794820D01*
X178760304Y-149794820D01*
X178919409Y-149743124D01*
X178919412Y-149743123D01*
X178926108Y-149740947D01*
X179081912Y-149648069D01*
X179213266Y-149522982D01*
X179313643Y-149371902D01*
X179378055Y-149202338D01*
X179379360Y-149193051D01*
X179402748Y-149026639D01*
X179402748Y-149026636D01*
X179403299Y-149022717D01*
X179403616Y-149000000D01*
X179383397Y-148819745D01*
X179381080Y-148813091D01*
X179326064Y-148655106D01*
X179326062Y-148655103D01*
X179323745Y-148648448D01*
X179319655Y-148641902D01*
X179231359Y-148500598D01*
X179227626Y-148494624D01*
X179202047Y-148468866D01*
X179104778Y-148370915D01*
X179104774Y-148370912D01*
X179099815Y-148365918D01*
X179088697Y-148358862D01*
X178978228Y-148288757D01*
X178946666Y-148268727D01*
X178898697Y-148251646D01*
X178782425Y-148210243D01*
X178782420Y-148210242D01*
X178775790Y-148207881D01*
X178768802Y-148207048D01*
X178768799Y-148207047D01*
X178645698Y-148192368D01*
X178595680Y-148186404D01*
X178588677Y-148187140D01*
X178588676Y-148187140D01*
X178422288Y-148204628D01*
X178422286Y-148204629D01*
X178415288Y-148205364D01*
X178243579Y-148263818D01*
X178196605Y-148292717D01*
X178095095Y-148355166D01*
X178095092Y-148355168D01*
X178089088Y-148358862D01*
X178084053Y-148363793D01*
X178084050Y-148363795D01*
X177966489Y-148478920D01*
X177959493Y-148485771D01*
X177861235Y-148638238D01*
X177858826Y-148644858D01*
X177858824Y-148644861D01*
X177807049Y-148787111D01*
X177799197Y-148808685D01*
X177776463Y-148988640D01*
X155378500Y-148988640D01*
X155378500Y-147971866D01*
X155371745Y-147909684D01*
X155320615Y-147773295D01*
X155233261Y-147656739D01*
X155116705Y-147569385D01*
X155081217Y-147556081D01*
X154998203Y-147524960D01*
X154941439Y-147482318D01*
X154916739Y-147415756D01*
X154931947Y-147346408D01*
X154953493Y-147317727D01*
X154967330Y-147303938D01*
X155023330Y-147248134D01*
X157051500Y-147248134D01*
X157058255Y-147310316D01*
X157109385Y-147446705D01*
X157196739Y-147563261D01*
X157313295Y-147650615D01*
X157321704Y-147653767D01*
X157321705Y-147653768D01*
X157430960Y-147694726D01*
X157487725Y-147737367D01*
X157512425Y-147803929D01*
X157497218Y-147873278D01*
X157477825Y-147899759D01*
X157354590Y-148028717D01*
X157348104Y-148036727D01*
X157228098Y-148212649D01*
X157223000Y-148221623D01*
X157133338Y-148414783D01*
X157129775Y-148424470D01*
X157074389Y-148624183D01*
X157075912Y-148632607D01*
X157088292Y-148636000D01*
X159728344Y-148636000D01*
X159741875Y-148632027D01*
X159743180Y-148622947D01*
X159701214Y-148455875D01*
X159697894Y-148446124D01*
X159612972Y-148250814D01*
X159608105Y-148241739D01*
X159492426Y-148062926D01*
X159486136Y-148054757D01*
X159342293Y-147896677D01*
X159311241Y-147832831D01*
X159316341Y-147790000D01*
X180716496Y-147790000D01*
X180717186Y-147796565D01*
X180735611Y-147971866D01*
X180736458Y-147979928D01*
X180795473Y-148161556D01*
X180798776Y-148167278D01*
X180798777Y-148167279D01*
X180824972Y-148212649D01*
X180890960Y-148326944D01*
X180895378Y-148331851D01*
X180895379Y-148331852D01*
X180998018Y-148445844D01*
X181018747Y-148468866D01*
X181173248Y-148581118D01*
X181179276Y-148583802D01*
X181179278Y-148583803D01*
X181341681Y-148656109D01*
X181347712Y-148658794D01*
X181432480Y-148676812D01*
X181528056Y-148697128D01*
X181528061Y-148697128D01*
X181534513Y-148698500D01*
X181725487Y-148698500D01*
X181731939Y-148697128D01*
X181731944Y-148697128D01*
X181827520Y-148676812D01*
X181912288Y-148658794D01*
X181918319Y-148656109D01*
X182080722Y-148583803D01*
X182080724Y-148583802D01*
X182086752Y-148581118D01*
X182241253Y-148468866D01*
X182261982Y-148445844D01*
X182364621Y-148331852D01*
X182364622Y-148331851D01*
X182369040Y-148326944D01*
X182435028Y-148212649D01*
X182461223Y-148167279D01*
X182461224Y-148167278D01*
X182464527Y-148161556D01*
X182498186Y-148057966D01*
X185338257Y-148057966D01*
X185368565Y-148192446D01*
X185371645Y-148202275D01*
X185451770Y-148399603D01*
X185456413Y-148408794D01*
X185567694Y-148590388D01*
X185573777Y-148598699D01*
X185713213Y-148759667D01*
X185720580Y-148766883D01*
X185884434Y-148902916D01*
X185892881Y-148908831D01*
X186076756Y-149016279D01*
X186086042Y-149020729D01*
X186285001Y-149096703D01*
X186294899Y-149099579D01*
X186398250Y-149120606D01*
X186412299Y-149119410D01*
X186416000Y-149109065D01*
X186416000Y-148062115D01*
X186411525Y-148046876D01*
X186410135Y-148045671D01*
X186402452Y-148044000D01*
X185353225Y-148044000D01*
X185339694Y-148047973D01*
X185338257Y-148057966D01*
X182498186Y-148057966D01*
X182523542Y-147979928D01*
X182524390Y-147971866D01*
X182542814Y-147796565D01*
X182543504Y-147790000D01*
X182539906Y-147755771D01*
X182524232Y-147606635D01*
X182524232Y-147606633D01*
X182523542Y-147600072D01*
X182498884Y-147524183D01*
X185334389Y-147524183D01*
X185335912Y-147532607D01*
X185348292Y-147536000D01*
X186397885Y-147536000D01*
X186413124Y-147531525D01*
X186414329Y-147530135D01*
X186416000Y-147522452D01*
X186416000Y-146473102D01*
X186412082Y-146459758D01*
X186397806Y-146457771D01*
X186359324Y-146463660D01*
X186349288Y-146466051D01*
X186146868Y-146532212D01*
X186137359Y-146536209D01*
X185948463Y-146634542D01*
X185939738Y-146640036D01*
X185769433Y-146767905D01*
X185761726Y-146774748D01*
X185614590Y-146928717D01*
X185608104Y-146936727D01*
X185488098Y-147112649D01*
X185483000Y-147121623D01*
X185393338Y-147314783D01*
X185389775Y-147324470D01*
X185334389Y-147524183D01*
X182498884Y-147524183D01*
X182464527Y-147418444D01*
X182369040Y-147253056D01*
X182336699Y-147217137D01*
X182245675Y-147116045D01*
X182245674Y-147116044D01*
X182241253Y-147111134D01*
X182086752Y-146998882D01*
X182080724Y-146996198D01*
X182080722Y-146996197D01*
X181918319Y-146923891D01*
X181918318Y-146923891D01*
X181912288Y-146921206D01*
X181818888Y-146901353D01*
X181731944Y-146882872D01*
X181731939Y-146882872D01*
X181725487Y-146881500D01*
X181534513Y-146881500D01*
X181528061Y-146882872D01*
X181528056Y-146882872D01*
X181441112Y-146901353D01*
X181347712Y-146921206D01*
X181341682Y-146923891D01*
X181341681Y-146923891D01*
X181179278Y-146996197D01*
X181179276Y-146996198D01*
X181173248Y-146998882D01*
X181018747Y-147111134D01*
X181014326Y-147116044D01*
X181014325Y-147116045D01*
X180923302Y-147217137D01*
X180890960Y-147253056D01*
X180795473Y-147418444D01*
X180736458Y-147600072D01*
X180735768Y-147606633D01*
X180735768Y-147606635D01*
X180720094Y-147755771D01*
X180716496Y-147790000D01*
X159316341Y-147790000D01*
X159319635Y-147762333D01*
X159364812Y-147707564D01*
X159391256Y-147693895D01*
X159498297Y-147653767D01*
X159506705Y-147650615D01*
X159623261Y-147563261D01*
X159710615Y-147446705D01*
X159761745Y-147310316D01*
X159768500Y-147248134D01*
X159768500Y-145451866D01*
X159761745Y-145389684D01*
X159710615Y-145253295D01*
X159623261Y-145136739D01*
X159506705Y-145049385D01*
X159370316Y-144998255D01*
X159308134Y-144991500D01*
X157511866Y-144991500D01*
X157449684Y-144998255D01*
X157313295Y-145049385D01*
X157196739Y-145136739D01*
X157109385Y-145253295D01*
X157058255Y-145389684D01*
X157051500Y-145451866D01*
X157051500Y-147248134D01*
X155023330Y-147248134D01*
X155058096Y-147213489D01*
X155117594Y-147130689D01*
X155185435Y-147036277D01*
X155188453Y-147032077D01*
X155190894Y-147027139D01*
X155285136Y-146836453D01*
X155285137Y-146836451D01*
X155287430Y-146831811D01*
X155329885Y-146692077D01*
X155350865Y-146623023D01*
X155350865Y-146623021D01*
X155352370Y-146618069D01*
X155381529Y-146396590D01*
X155382049Y-146375320D01*
X155383074Y-146333365D01*
X155383074Y-146333361D01*
X155383156Y-146330000D01*
X155364852Y-146107361D01*
X155310431Y-145890702D01*
X155221354Y-145685840D01*
X155158572Y-145588794D01*
X155102822Y-145502617D01*
X155102820Y-145502614D01*
X155100014Y-145498277D01*
X154949670Y-145333051D01*
X154945619Y-145329852D01*
X154945615Y-145329848D01*
X154778414Y-145197800D01*
X154778410Y-145197798D01*
X154774359Y-145194598D01*
X154769835Y-145192101D01*
X154769831Y-145192098D01*
X154718608Y-145163822D01*
X154668636Y-145113390D01*
X154653500Y-145053513D01*
X154653500Y-142278767D01*
X154654027Y-142267584D01*
X154655702Y-142260091D01*
X154653562Y-142192014D01*
X154653500Y-142188055D01*
X154653500Y-142160144D01*
X154652995Y-142156144D01*
X154652062Y-142144301D01*
X154650922Y-142108029D01*
X154650673Y-142100110D01*
X154645022Y-142080658D01*
X154641014Y-142061306D01*
X154639467Y-142049063D01*
X154638474Y-142041203D01*
X154635556Y-142033832D01*
X154622200Y-142000097D01*
X154618355Y-141988870D01*
X154616880Y-141983795D01*
X154606018Y-141946407D01*
X154601984Y-141939585D01*
X154601981Y-141939579D01*
X154595706Y-141928968D01*
X154587010Y-141911218D01*
X154582472Y-141899756D01*
X154582469Y-141899751D01*
X154579552Y-141892383D01*
X154553573Y-141856625D01*
X154547057Y-141846707D01*
X154528575Y-141815457D01*
X154524542Y-141808637D01*
X154510218Y-141794313D01*
X154497376Y-141779278D01*
X154485472Y-141762893D01*
X154451406Y-141734711D01*
X154442627Y-141726722D01*
X152963652Y-140247747D01*
X152956112Y-140239461D01*
X152952000Y-140232982D01*
X152902348Y-140186356D01*
X152899507Y-140183602D01*
X152879770Y-140163865D01*
X152876573Y-140161385D01*
X152867551Y-140153680D01*
X152841100Y-140128841D01*
X152835321Y-140123414D01*
X152828375Y-140119595D01*
X152828372Y-140119593D01*
X152817566Y-140113652D01*
X152801047Y-140102801D01*
X152800583Y-140102441D01*
X152785041Y-140090386D01*
X152777772Y-140087241D01*
X152777768Y-140087238D01*
X152744463Y-140072826D01*
X152733813Y-140067609D01*
X152695060Y-140046305D01*
X152683244Y-140043271D01*
X152675438Y-140041267D01*
X152656734Y-140034863D01*
X152645420Y-140029967D01*
X152645419Y-140029967D01*
X152638145Y-140026819D01*
X152630322Y-140025580D01*
X152630312Y-140025577D01*
X152594476Y-140019901D01*
X152582856Y-140017495D01*
X152547711Y-140008472D01*
X152547710Y-140008472D01*
X152540030Y-140006500D01*
X152519776Y-140006500D01*
X152500065Y-140004949D01*
X152487886Y-140003020D01*
X152480057Y-140001780D01*
X152472165Y-140002526D01*
X152436039Y-140005941D01*
X152424181Y-140006500D01*
X147160331Y-140006500D01*
X147092210Y-139986498D01*
X147071236Y-139969595D01*
X146651641Y-139550000D01*
X173056496Y-139550000D01*
X173057186Y-139556565D01*
X173071960Y-139697128D01*
X173076458Y-139739928D01*
X173135473Y-139921556D01*
X173230960Y-140086944D01*
X173235378Y-140091851D01*
X173235379Y-140091852D01*
X173351524Y-140220844D01*
X173358747Y-140228866D01*
X173393231Y-140253920D01*
X173500254Y-140331677D01*
X173513248Y-140341118D01*
X173519276Y-140343802D01*
X173519278Y-140343803D01*
X173681681Y-140416109D01*
X173687712Y-140418794D01*
X173781113Y-140438647D01*
X173868056Y-140457128D01*
X173868061Y-140457128D01*
X173874513Y-140458500D01*
X174065487Y-140458500D01*
X174071939Y-140457128D01*
X174071944Y-140457128D01*
X174158887Y-140438647D01*
X174252288Y-140418794D01*
X174258319Y-140416109D01*
X174420722Y-140343803D01*
X174420724Y-140343802D01*
X174426752Y-140341118D01*
X174439747Y-140331677D01*
X174546769Y-140253920D01*
X174581253Y-140228866D01*
X174588476Y-140220844D01*
X174704621Y-140091852D01*
X174704622Y-140091851D01*
X174709040Y-140086944D01*
X174804527Y-139921556D01*
X174863542Y-139739928D01*
X174868041Y-139697128D01*
X174882814Y-139556565D01*
X174883504Y-139550000D01*
X174874977Y-139468866D01*
X174864232Y-139366635D01*
X174864232Y-139366633D01*
X174863542Y-139360072D01*
X174804527Y-139178444D01*
X174799437Y-139169627D01*
X174712341Y-139018774D01*
X174709040Y-139013056D01*
X174704570Y-139008091D01*
X174585675Y-138876045D01*
X174585674Y-138876044D01*
X174581253Y-138871134D01*
X174426752Y-138758882D01*
X174420724Y-138756198D01*
X174420722Y-138756197D01*
X174258319Y-138683891D01*
X174258318Y-138683891D01*
X174252288Y-138681206D01*
X174158888Y-138661353D01*
X174071944Y-138642872D01*
X174071939Y-138642872D01*
X174065487Y-138641500D01*
X173874513Y-138641500D01*
X173868061Y-138642872D01*
X173868056Y-138642872D01*
X173781112Y-138661353D01*
X173687712Y-138681206D01*
X173681682Y-138683891D01*
X173681681Y-138683891D01*
X173519278Y-138756197D01*
X173519276Y-138756198D01*
X173513248Y-138758882D01*
X173358747Y-138871134D01*
X173354326Y-138876044D01*
X173354325Y-138876045D01*
X173235431Y-139008091D01*
X173230960Y-139013056D01*
X173227659Y-139018774D01*
X173140564Y-139169627D01*
X173135473Y-139178444D01*
X173076458Y-139360072D01*
X173075768Y-139366633D01*
X173075768Y-139366635D01*
X173065023Y-139468866D01*
X173056496Y-139550000D01*
X146651641Y-139550000D01*
X144721641Y-137620000D01*
X149506496Y-137620000D01*
X149507186Y-137626565D01*
X149517486Y-137724560D01*
X149526458Y-137809928D01*
X149585473Y-137991556D01*
X149588776Y-137997278D01*
X149588777Y-137997279D01*
X149591943Y-138002763D01*
X149680960Y-138156944D01*
X149685378Y-138161851D01*
X149685379Y-138161852D01*
X149768309Y-138253955D01*
X149808747Y-138298866D01*
X149815234Y-138303579D01*
X149911889Y-138373803D01*
X149963248Y-138411118D01*
X149969276Y-138413802D01*
X149969278Y-138413803D01*
X150123099Y-138482288D01*
X150137712Y-138488794D01*
X150231112Y-138508647D01*
X150318056Y-138527128D01*
X150318061Y-138527128D01*
X150324513Y-138528500D01*
X150515487Y-138528500D01*
X150521939Y-138527128D01*
X150521944Y-138527128D01*
X150608888Y-138508647D01*
X150702288Y-138488794D01*
X150716901Y-138482288D01*
X150870722Y-138413803D01*
X150870724Y-138413802D01*
X150876752Y-138411118D01*
X150928112Y-138373803D01*
X151024766Y-138303579D01*
X151031253Y-138298866D01*
X151071691Y-138253955D01*
X151154621Y-138161852D01*
X151154622Y-138161851D01*
X151159040Y-138156944D01*
X151248057Y-138002763D01*
X151251223Y-137997279D01*
X151251224Y-137997278D01*
X151254527Y-137991556D01*
X151313542Y-137809928D01*
X151322515Y-137724560D01*
X151332814Y-137626565D01*
X151333504Y-137620000D01*
X151323585Y-137525626D01*
X151314232Y-137436635D01*
X151314232Y-137436633D01*
X151313542Y-137430072D01*
X151254527Y-137248444D01*
X151221753Y-137191677D01*
X151162341Y-137088774D01*
X151159040Y-137083056D01*
X151145341Y-137067841D01*
X151035675Y-136946045D01*
X151035674Y-136946044D01*
X151031253Y-136941134D01*
X150876752Y-136828882D01*
X150870724Y-136826198D01*
X150870722Y-136826197D01*
X150708319Y-136753891D01*
X150708318Y-136753891D01*
X150702288Y-136751206D01*
X150608887Y-136731353D01*
X150521944Y-136712872D01*
X150521939Y-136712872D01*
X150515487Y-136711500D01*
X150324513Y-136711500D01*
X150318061Y-136712872D01*
X150318056Y-136712872D01*
X150231113Y-136731353D01*
X150137712Y-136751206D01*
X150131682Y-136753891D01*
X150131681Y-136753891D01*
X149969278Y-136826197D01*
X149969276Y-136826198D01*
X149963248Y-136828882D01*
X149808747Y-136941134D01*
X149804326Y-136946044D01*
X149804325Y-136946045D01*
X149694660Y-137067841D01*
X149680960Y-137083056D01*
X149677659Y-137088774D01*
X149618248Y-137191677D01*
X149585473Y-137248444D01*
X149526458Y-137430072D01*
X149525768Y-137436633D01*
X149525768Y-137436635D01*
X149516415Y-137525626D01*
X149506496Y-137620000D01*
X144721641Y-137620000D01*
X144154289Y-137052648D01*
X144120263Y-136990336D01*
X144125057Y-136926066D01*
X144123802Y-136925744D01*
X144125553Y-136918925D01*
X144128055Y-136912338D01*
X144148583Y-136766274D01*
X144152748Y-136736639D01*
X144152748Y-136736636D01*
X144153299Y-136732717D01*
X144153452Y-136721738D01*
X144153561Y-136713962D01*
X144153561Y-136713957D01*
X144153616Y-136710000D01*
X144133397Y-136529745D01*
X144130577Y-136521646D01*
X144076064Y-136365106D01*
X144076062Y-136365103D01*
X144073745Y-136358448D01*
X144070009Y-136352469D01*
X143981359Y-136210598D01*
X143977626Y-136204624D01*
X143962821Y-136189715D01*
X143854778Y-136080915D01*
X143854774Y-136080912D01*
X143849815Y-136075918D01*
X143838697Y-136068862D01*
X143725056Y-135996744D01*
X143696666Y-135978727D01*
X143662876Y-135966695D01*
X143532425Y-135920243D01*
X143532420Y-135920242D01*
X143525790Y-135917881D01*
X143518802Y-135917048D01*
X143518799Y-135917047D01*
X143391787Y-135901902D01*
X143345680Y-135896404D01*
X143338677Y-135897140D01*
X143338676Y-135897140D01*
X143172288Y-135914628D01*
X143172286Y-135914629D01*
X143165288Y-135915364D01*
X142993579Y-135973818D01*
X142987575Y-135977512D01*
X142845095Y-136065166D01*
X142845092Y-136065168D01*
X142839088Y-136068862D01*
X142834053Y-136073793D01*
X142834050Y-136073795D01*
X142720634Y-136184861D01*
X142709493Y-136195771D01*
X142611235Y-136348238D01*
X142608826Y-136354858D01*
X142608824Y-136354861D01*
X142560586Y-136487395D01*
X142549197Y-136518685D01*
X142526463Y-136698640D01*
X140614196Y-136698640D01*
X140632748Y-136566639D01*
X140632748Y-136566636D01*
X140633299Y-136562717D01*
X140633616Y-136540000D01*
X140613397Y-136359745D01*
X140610863Y-136352469D01*
X140556064Y-136195106D01*
X140556062Y-136195103D01*
X140553745Y-136188448D01*
X140476711Y-136065166D01*
X140461359Y-136040598D01*
X140457626Y-136034624D01*
X140443502Y-136020401D01*
X140334778Y-135910915D01*
X140334774Y-135910912D01*
X140329815Y-135905918D01*
X140318697Y-135898862D01*
X140202475Y-135825106D01*
X140176666Y-135808727D01*
X140147463Y-135798328D01*
X140012425Y-135750243D01*
X140012420Y-135750242D01*
X140005790Y-135747881D01*
X139998804Y-135747048D01*
X139998800Y-135747047D01*
X139907011Y-135736102D01*
X139839639Y-135728069D01*
X139774367Y-135700142D01*
X139734554Y-135641359D01*
X139732842Y-135570383D01*
X139749610Y-135533228D01*
X139751755Y-135530000D01*
X139759303Y-135518640D01*
X146096463Y-135518640D01*
X146114163Y-135699160D01*
X146171418Y-135871273D01*
X146175065Y-135877295D01*
X146175066Y-135877297D01*
X146243167Y-135989745D01*
X146265380Y-136026424D01*
X146270269Y-136031487D01*
X146270270Y-136031488D01*
X146311126Y-136073795D01*
X146391382Y-136156902D01*
X146543159Y-136256222D01*
X146549763Y-136258678D01*
X146549765Y-136258679D01*
X146706558Y-136316990D01*
X146706560Y-136316990D01*
X146713168Y-136319448D01*
X146796995Y-136330633D01*
X146885980Y-136342507D01*
X146885984Y-136342507D01*
X146892961Y-136343438D01*
X146899972Y-136342800D01*
X146899976Y-136342800D01*
X147042459Y-136329832D01*
X147073600Y-136326998D01*
X147080302Y-136324820D01*
X147080304Y-136324820D01*
X147239409Y-136273124D01*
X147239412Y-136273123D01*
X147246108Y-136270947D01*
X147357366Y-136204624D01*
X147395860Y-136181677D01*
X147395862Y-136181676D01*
X147401912Y-136178069D01*
X147533266Y-136052982D01*
X147633643Y-135901902D01*
X147675423Y-135791917D01*
X147695555Y-135738920D01*
X147695556Y-135738918D01*
X147698055Y-135732338D01*
X147701630Y-135706902D01*
X147722748Y-135556639D01*
X147722748Y-135556636D01*
X147723299Y-135552717D01*
X147723464Y-135540915D01*
X147723561Y-135533962D01*
X147723561Y-135533957D01*
X147723616Y-135530000D01*
X147703397Y-135349745D01*
X147701080Y-135343091D01*
X147646064Y-135185106D01*
X147646062Y-135185103D01*
X147643745Y-135178448D01*
X147613927Y-135130729D01*
X147551359Y-135030598D01*
X147547626Y-135024624D01*
X147542664Y-135019627D01*
X147424778Y-134900915D01*
X147424774Y-134900912D01*
X147419815Y-134895918D01*
X147413133Y-134891677D01*
X147338191Y-134844118D01*
X147266666Y-134798727D01*
X147217888Y-134781358D01*
X147102425Y-134740243D01*
X147102420Y-134740242D01*
X147095790Y-134737881D01*
X147088802Y-134737048D01*
X147088799Y-134737047D01*
X146965698Y-134722368D01*
X146915680Y-134716404D01*
X146908677Y-134717140D01*
X146908676Y-134717140D01*
X146742288Y-134734628D01*
X146742286Y-134734629D01*
X146735288Y-134735364D01*
X146563579Y-134793818D01*
X146557575Y-134797512D01*
X146415095Y-134885166D01*
X146415092Y-134885168D01*
X146409088Y-134888862D01*
X146404053Y-134893793D01*
X146404050Y-134893795D01*
X146284525Y-135010843D01*
X146279493Y-135015771D01*
X146181235Y-135168238D01*
X146178826Y-135174858D01*
X146178824Y-135174861D01*
X146149349Y-135255844D01*
X146119197Y-135338685D01*
X146096463Y-135518640D01*
X139759303Y-135518640D01*
X139803643Y-135451902D01*
X139868055Y-135282338D01*
X139869035Y-135275366D01*
X139892748Y-135106639D01*
X139892748Y-135106636D01*
X139893299Y-135102717D01*
X139893616Y-135080000D01*
X139873397Y-134899745D01*
X139870750Y-134892143D01*
X139816064Y-134735106D01*
X139816062Y-134735103D01*
X139813745Y-134728448D01*
X139785410Y-134683102D01*
X139721359Y-134580598D01*
X139717626Y-134574624D01*
X139703941Y-134560843D01*
X139594778Y-134450915D01*
X139594774Y-134450912D01*
X139589815Y-134445918D01*
X139578697Y-134438862D01*
X139520849Y-134402151D01*
X139436666Y-134348727D01*
X139334297Y-134312275D01*
X139272425Y-134290243D01*
X139272420Y-134290242D01*
X139265790Y-134287881D01*
X139258802Y-134287048D01*
X139258799Y-134287047D01*
X139135698Y-134272368D01*
X139085680Y-134266404D01*
X139078677Y-134267140D01*
X139078676Y-134267140D01*
X138912288Y-134284628D01*
X138912286Y-134284629D01*
X138905288Y-134285364D01*
X138733579Y-134343818D01*
X138727575Y-134347512D01*
X138585095Y-134435166D01*
X138585092Y-134435168D01*
X138579088Y-134438862D01*
X138574053Y-134443793D01*
X138574050Y-134443795D01*
X138497464Y-134518794D01*
X138449493Y-134565771D01*
X138351235Y-134718238D01*
X138348826Y-134724858D01*
X138348824Y-134724861D01*
X138291606Y-134882066D01*
X138289197Y-134888685D01*
X138266463Y-135068640D01*
X131574891Y-135068640D01*
X131571745Y-135039684D01*
X131520615Y-134903295D01*
X131433261Y-134786739D01*
X131316705Y-134699385D01*
X131180316Y-134648255D01*
X131118134Y-134641500D01*
X129321866Y-134641500D01*
X129259684Y-134648255D01*
X129123295Y-134699385D01*
X129006739Y-134786739D01*
X128919385Y-134903295D01*
X128916233Y-134911703D01*
X128874919Y-135021907D01*
X128832277Y-135078671D01*
X128765716Y-135103371D01*
X128696367Y-135088163D01*
X128663743Y-135062476D01*
X128613151Y-135006875D01*
X128613142Y-135006866D01*
X128609670Y-135003051D01*
X128605619Y-134999852D01*
X128605615Y-134999848D01*
X128438414Y-134867800D01*
X128438410Y-134867798D01*
X128434359Y-134864598D01*
X128398028Y-134844542D01*
X128310749Y-134796362D01*
X128238789Y-134756638D01*
X128233920Y-134754914D01*
X128233916Y-134754912D01*
X128033087Y-134683795D01*
X128033083Y-134683794D01*
X128028212Y-134682069D01*
X128023119Y-134681162D01*
X128023116Y-134681161D01*
X127813373Y-134643800D01*
X127813367Y-134643799D01*
X127808284Y-134642894D01*
X127734452Y-134641992D01*
X127590081Y-134640228D01*
X127590079Y-134640228D01*
X127584911Y-134640165D01*
X127364091Y-134673955D01*
X127151756Y-134743357D01*
X126953607Y-134846507D01*
X126949474Y-134849610D01*
X126949471Y-134849612D01*
X126779100Y-134977530D01*
X126774965Y-134980635D01*
X126749541Y-135007240D01*
X126680010Y-135080000D01*
X126620629Y-135142138D01*
X126617715Y-135146410D01*
X126617714Y-135146411D01*
X126512898Y-135300066D01*
X126457987Y-135345069D01*
X126387462Y-135353240D01*
X126323715Y-135321986D01*
X126303018Y-135297502D01*
X126222426Y-135172926D01*
X126216136Y-135164757D01*
X126072806Y-135007240D01*
X126065273Y-135000215D01*
X125898139Y-134868222D01*
X125889552Y-134862517D01*
X125703117Y-134759599D01*
X125693705Y-134755369D01*
X125492959Y-134684280D01*
X125482988Y-134681646D01*
X125411837Y-134668972D01*
X125398540Y-134670432D01*
X125394000Y-134684989D01*
X125394000Y-137318517D01*
X124886000Y-137318517D01*
X124886000Y-136272115D01*
X124881525Y-136256876D01*
X124880135Y-136255671D01*
X124872452Y-136254000D01*
X123823225Y-136254000D01*
X123809694Y-136257973D01*
X123808257Y-136267966D01*
X123838565Y-136402446D01*
X123841645Y-136412275D01*
X123882256Y-136512291D01*
X123889352Y-136582933D01*
X123857130Y-136646196D01*
X123795820Y-136681996D01*
X123739315Y-136682941D01*
X123691951Y-136672873D01*
X123691942Y-136672872D01*
X123685487Y-136671500D01*
X123494513Y-136671500D01*
X123488061Y-136672872D01*
X123488056Y-136672872D01*
X123421069Y-136687111D01*
X123307712Y-136711206D01*
X123301685Y-136713889D01*
X123301677Y-136713892D01*
X123184025Y-136766274D01*
X123113658Y-136775708D01*
X123049361Y-136745601D01*
X123025691Y-136717563D01*
X122976295Y-136637896D01*
X122968540Y-136627826D01*
X122843592Y-136495697D01*
X122833974Y-136487395D01*
X122685013Y-136383092D01*
X122673919Y-136376892D01*
X122507020Y-136304668D01*
X122494917Y-136300829D01*
X122315400Y-136263325D01*
X122305848Y-136262085D01*
X122302616Y-136262000D01*
X121932115Y-136262000D01*
X121916876Y-136266475D01*
X121915671Y-136267865D01*
X121914000Y-136275548D01*
X121914000Y-137348000D01*
X121893998Y-137416121D01*
X121840342Y-137462614D01*
X121788000Y-137474000D01*
X120200771Y-137474000D01*
X120187240Y-137477973D01*
X120186363Y-137484075D01*
X118809021Y-137484075D01*
X118808817Y-137477436D01*
X118800636Y-137474000D01*
X117762115Y-137474000D01*
X117746876Y-137478475D01*
X117745671Y-137479865D01*
X117744000Y-137487548D01*
X117744000Y-138159885D01*
X117236000Y-138159885D01*
X117236000Y-136947885D01*
X117744000Y-136947885D01*
X117748475Y-136963124D01*
X117749865Y-136964329D01*
X117757548Y-136966000D01*
X118799229Y-136966000D01*
X118812760Y-136962027D01*
X118813637Y-136955925D01*
X118810894Y-136948470D01*
X120190749Y-136948470D01*
X120191183Y-136962564D01*
X120199364Y-136966000D01*
X121387885Y-136966000D01*
X121403124Y-136961525D01*
X121404329Y-136960135D01*
X121406000Y-136952452D01*
X121406000Y-136280115D01*
X121401525Y-136264876D01*
X121400135Y-136263671D01*
X121392452Y-136262000D01*
X121064553Y-136262000D01*
X121058178Y-136262323D01*
X120922723Y-136276082D01*
X120910283Y-136278636D01*
X120736756Y-136333016D01*
X120725068Y-136338025D01*
X120566021Y-136426187D01*
X120555588Y-136433438D01*
X120417509Y-136551785D01*
X120408756Y-136560976D01*
X120297289Y-136704680D01*
X120290565Y-136715440D01*
X120210268Y-136878625D01*
X120205845Y-136890519D01*
X120190749Y-136948470D01*
X118810894Y-136948470D01*
X118757690Y-136803864D01*
X118752123Y-136792451D01*
X118656292Y-136637892D01*
X118648540Y-136627826D01*
X118523592Y-136495697D01*
X118513974Y-136487395D01*
X118365013Y-136383092D01*
X118353919Y-136376892D01*
X118187020Y-136304668D01*
X118174917Y-136300829D01*
X117995400Y-136263325D01*
X117985848Y-136262085D01*
X117982616Y-136262000D01*
X117762115Y-136262000D01*
X117746876Y-136266475D01*
X117745671Y-136267865D01*
X117744000Y-136275548D01*
X117744000Y-136947885D01*
X117236000Y-136947885D01*
X117236000Y-136280115D01*
X117231525Y-136264876D01*
X117230135Y-136263671D01*
X117222452Y-136262000D01*
X117044553Y-136262000D01*
X117038178Y-136262323D01*
X116902723Y-136276082D01*
X116890283Y-136278636D01*
X116716756Y-136333016D01*
X116705068Y-136338025D01*
X116546021Y-136426187D01*
X116535588Y-136433438D01*
X116397509Y-136551785D01*
X116388756Y-136560976D01*
X116277289Y-136704680D01*
X116270563Y-136715443D01*
X116247055Y-136763218D01*
X116199032Y-136815509D01*
X116130362Y-136833536D01*
X116062848Y-136811576D01*
X116017923Y-136756601D01*
X116008000Y-136707589D01*
X116008000Y-135734183D01*
X123804389Y-135734183D01*
X123805912Y-135742607D01*
X123818292Y-135746000D01*
X124867885Y-135746000D01*
X124883124Y-135741525D01*
X124884329Y-135740135D01*
X124886000Y-135732452D01*
X124886000Y-134683102D01*
X124882082Y-134669758D01*
X124867806Y-134667771D01*
X124829324Y-134673660D01*
X124819288Y-134676051D01*
X124616868Y-134742212D01*
X124607359Y-134746209D01*
X124418463Y-134844542D01*
X124409738Y-134850036D01*
X124239433Y-134977905D01*
X124231726Y-134984748D01*
X124084590Y-135138717D01*
X124078104Y-135146727D01*
X123958098Y-135322649D01*
X123953000Y-135331623D01*
X123863338Y-135524783D01*
X123859775Y-135534470D01*
X123804389Y-135734183D01*
X116008000Y-135734183D01*
X116008000Y-124634000D01*
X116028002Y-124565879D01*
X116081658Y-124519386D01*
X116134000Y-124508000D01*
X131993630Y-124508000D01*
X132061751Y-124528002D01*
G37*
G04 #@! TD.AperFunction*
M02*
