M48
; DRILL file {KiCad (6.0.0)} date Sat Jan 21 18:13:20 2023
; FORMAT={-:-/ absolute / inch / decimal}
; #@! TF.CreationDate,2023-01-21T18:13:20+03:00
; #@! TF.GenerationSoftware,Kicad,Pcbnew,(6.0.0)
; #@! TF.FileFunction,MixedPlating,1,4
FMAT,2
INCH
; #@! TA.AperFunction,Plated,PTH,ViaDrill
T1C0.0118
; #@! TA.AperFunction,Plated,PTH,ViaDrill
T2C0.0157
; #@! TA.AperFunction,Plated,PTH,ComponentDrill
T3C0.0236
; #@! TA.AperFunction,Plated,PTH,ComponentDrill
T4C0.0315
; #@! TA.AperFunction,Plated,PTH,ComponentDrill
T5C0.0394
; #@! TA.AperFunction,NonPlated,NPTH,ComponentDrill
T6C0.0236
%
G90
G05
T1
X4.6468Y-5.6318
X4.65Y-4.95
X4.65Y-5.95
X4.65Y-6.0
X4.65Y-6.05
X4.6527Y-5.5338
X4.676Y-5.6611
X4.6935Y-5.5343
X4.7Y-4.95
X4.75Y-4.95
X4.8Y-4.95
X4.85Y-4.95
X4.8843Y-5.4801
X4.8843Y-5.5136
X4.9091Y-5.615
X4.975Y-5.975
X4.975Y-6.025
X5.0469Y-5.4801
X5.0469Y-5.5136
X5.0866Y-5.8374
X5.14Y-5.6
X5.1484Y-5.4992
X5.2181Y-5.6874
X5.348Y-5.361
X5.35Y-5.5
X5.4756Y-5.3181
X5.5047Y-5.3756
X5.5717Y-5.1559
X5.6142Y-5.1563
X5.6433Y-5.3823
X5.6783Y-5.1567
X5.6811Y-5.9646
X5.6811Y-6.0118
X5.6811Y-6.0567
X5.7319Y-5.1559
X5.7839Y-5.3358
X5.95Y-4.95
X5.95Y-5.0
X6.0Y-4.95
X6.0Y-5.0
X6.4Y-5.3
X6.4Y-5.35
X6.4Y-5.4
X6.6217Y-5.1882
X6.8Y-5.95
X6.8Y-6.0
X6.8Y-6.05
X6.8Y-6.1
X6.8618Y-6.0232
X7.0311Y-5.8661
X7.0689Y-5.9413
X7.0858Y-5.285
X7.2Y-6.1
X7.25Y-6.1
X7.3Y-6.1
X7.35Y-5.45
X7.35Y-5.5
X7.35Y-5.55
X7.35Y-5.6
X7.35Y-5.65
X7.35Y-6.1
T2
X4.8657Y-5.4165
X4.8701Y-5.6441
X5.2264Y-4.9346
X5.2362Y-5.3933
X5.2402Y-5.4642
X5.2717Y-4.9346
X5.3154Y-4.9346
X5.3228Y-6.0272
X5.3228Y-6.0748
X5.4106Y-5.0622
X5.4827Y-4.9441
X5.5579Y-5.4327
X5.6126Y-5.4327
X5.6854Y-4.9441
X5.6858Y-5.0122
X5.8854Y-5.6976
X5.922Y-5.4181
X5.9677Y-5.126
X6.8283Y-5.3724
X6.8465Y-5.4122
X6.8492Y-5.4941
X6.8795Y-5.089
X6.8807Y-5.1445
X6.9098Y-5.561
X6.9409Y-5.302
X6.9705Y-6.0913
X7.1508Y-5.8185
T4
X6.5406Y-5.063
X6.6406Y-5.063
X6.7406Y-5.063
T5
X4.9268Y-5.3543
X5.0268Y-5.3543
X5.1268Y-5.3543
X5.189Y-5.0315
X5.189Y-5.1315
X5.189Y-5.2315
X5.289Y-5.0315
X5.289Y-5.1315
X5.289Y-5.2315
X5.4063Y-5.7476
X5.4331Y-5.915
X5.4331Y-6.015
X5.5063Y-5.7476
X5.5331Y-5.915
X5.5331Y-6.015
X5.6063Y-5.7476
X5.7063Y-5.7476
X5.7524Y-5.913
X5.7524Y-6.013
X5.8524Y-5.913
X5.8524Y-6.013
X6.0638Y-5.761
X6.0638Y-5.861
X6.2366Y-5.7618
X6.2366Y-5.8618
X7.3472Y-5.0717
X7.3472Y-5.2717
X7.3492Y-5.8185
X7.3492Y-6.0185
T6
X4.7709Y-5.4587
X4.7709Y-5.6862
T3
G00X4.6098Y-5.4024
M15
G01X4.6413Y-5.4024
M16
G05
G00X4.6098Y-5.7425
M15
G01X4.6413Y-5.7425
M16
G05
G00X4.7681Y-5.4024
M15
G01X4.8114Y-5.4024
M16
G05
G00X4.7681Y-5.7425
M15
G01X4.8114Y-5.7425
M16
G05
T0
M30
