G04 #@! TF.GenerationSoftware,KiCad,Pcbnew,(6.0.0)*
G04 #@! TF.CreationDate,2023-01-21T18:13:16+03:00*
G04 #@! TF.ProjectId,im_converter,696d5f63-6f6e-4766-9572-7465722e6b69,rev?*
G04 #@! TF.SameCoordinates,Original*
G04 #@! TF.FileFunction,Copper,L4,Bot*
G04 #@! TF.FilePolarity,Positive*
%FSLAX46Y46*%
G04 Gerber Fmt 4.6, Leading zero omitted, Abs format (unit mm)*
G04 Created by KiCad (PCBNEW (6.0.0)) date 2023-01-21 18:13:16*
%MOMM*%
%LPD*%
G01*
G04 APERTURE LIST*
G04 #@! TA.AperFunction,ComponentPad*
%ADD10R,1.700000X1.700000*%
G04 #@! TD*
G04 #@! TA.AperFunction,ComponentPad*
%ADD11O,1.700000X1.700000*%
G04 #@! TD*
G04 #@! TA.AperFunction,ComponentPad*
%ADD12O,1.700000X0.900000*%
G04 #@! TD*
G04 #@! TA.AperFunction,ComponentPad*
%ADD13O,2.000000X0.900000*%
G04 #@! TD*
G04 #@! TA.AperFunction,ComponentPad*
%ADD14C,1.440000*%
G04 #@! TD*
G04 #@! TA.AperFunction,ViaPad*
%ADD15C,0.600000*%
G04 #@! TD*
G04 #@! TA.AperFunction,ViaPad*
%ADD16C,0.800000*%
G04 #@! TD*
G04 #@! TA.AperFunction,Conductor*
%ADD17C,0.500000*%
G04 #@! TD*
G04 #@! TA.AperFunction,Conductor*
%ADD18C,0.250000*%
G04 #@! TD*
G04 #@! TA.AperFunction,Conductor*
%ADD19C,0.400000*%
G04 #@! TD*
G04 #@! TA.AperFunction,Conductor*
%ADD20C,0.200000*%
G04 #@! TD*
G04 APERTURE END LIST*
D10*
X130220000Y-136000000D03*
D11*
X127680000Y-136000000D03*
X125140000Y-136000000D03*
D10*
X154020000Y-148870000D03*
D11*
X154020000Y-146330000D03*
D10*
X158410000Y-146350000D03*
D11*
X158410000Y-148890000D03*
D10*
X186620000Y-128820000D03*
D11*
X186620000Y-133900000D03*
D10*
X186670000Y-152870000D03*
D11*
X186670000Y-147790000D03*
D10*
X138000000Y-150240000D03*
D11*
X140540000Y-150240000D03*
X138000000Y-152780000D03*
X140540000Y-152780000D03*
D10*
X146110000Y-150190000D03*
D11*
X148650000Y-150190000D03*
X146110000Y-152730000D03*
X148650000Y-152730000D03*
D10*
X131800000Y-127800000D03*
D11*
X134340000Y-127800000D03*
X131800000Y-130340000D03*
X134340000Y-130340000D03*
X131800000Y-132880000D03*
X134340000Y-132880000D03*
D10*
X137320000Y-145990000D03*
D11*
X139860000Y-145990000D03*
X142400000Y-145990000D03*
X144940000Y-145990000D03*
D12*
X117490000Y-145860000D03*
D13*
X121660000Y-145860000D03*
D12*
X117490000Y-137220000D03*
D13*
X121660000Y-137220000D03*
D14*
X171210000Y-128600000D03*
X168670000Y-128600000D03*
X166130000Y-128600000D03*
D15*
X119380000Y-125730000D03*
D16*
X142560000Y-137990000D03*
X175510000Y-141250000D03*
D15*
X151130000Y-125730000D03*
D16*
X133000000Y-136990000D03*
D15*
X144300000Y-151500000D03*
X144300000Y-152700000D03*
X172720000Y-154940000D03*
X126365000Y-153035000D03*
X185420000Y-154940000D03*
D16*
X173900000Y-137470000D03*
D15*
X118110000Y-151130000D03*
X182880000Y-154940000D03*
X184150000Y-154940000D03*
X172720000Y-151130000D03*
D16*
X174740000Y-129260000D03*
X141170000Y-137990000D03*
D15*
X121920000Y-125730000D03*
X144300000Y-153840000D03*
X126365000Y-151765000D03*
X186690000Y-140970000D03*
X162560000Y-134620000D03*
X152400000Y-127000000D03*
X120650000Y-125730000D03*
X118110000Y-125730000D03*
D16*
X173440000Y-136460000D03*
D15*
X130556000Y-142240000D03*
X135890000Y-139700000D03*
X186690000Y-143510000D03*
X162560000Y-137160000D03*
X186690000Y-139700000D03*
X152400000Y-125730000D03*
X151130000Y-127000000D03*
X186690000Y-154940000D03*
X172720000Y-153670000D03*
X132540000Y-144460000D03*
D16*
X174770000Y-130670000D03*
D15*
X123190000Y-125730000D03*
D16*
X137430000Y-128580000D03*
D15*
X186690000Y-138430000D03*
X186690000Y-142240000D03*
X172720000Y-152400000D03*
X118110000Y-153670000D03*
D16*
X176300000Y-134670000D03*
X144420000Y-127310000D03*
D15*
X118110000Y-152400000D03*
X162560000Y-135890000D03*
D16*
X135200000Y-154300000D03*
X135200000Y-153090000D03*
X177050000Y-154720000D03*
X173970000Y-139550000D03*
X123700000Y-143360000D03*
X181630000Y-147790000D03*
X123590000Y-137580000D03*
D15*
X146910000Y-135530000D03*
X174290000Y-152990000D03*
D16*
X149490000Y-144720000D03*
X135010000Y-125340000D03*
X144410000Y-125580000D03*
X139260000Y-125580000D03*
X132750000Y-125340000D03*
X150420000Y-137620000D03*
X133900000Y-125340000D03*
X151580000Y-130200000D03*
X133100000Y-138790000D03*
D15*
X143340000Y-136710000D03*
X139080000Y-135080000D03*
X145590000Y-130960000D03*
X144230000Y-130980000D03*
X139820000Y-136540000D03*
X142600000Y-130970000D03*
X141520000Y-130960000D03*
X124690000Y-142620000D03*
X129200000Y-148270000D03*
X118177500Y-140557500D03*
X118028768Y-143048768D03*
X124060000Y-139195000D03*
X128190000Y-139195000D03*
X118771232Y-143791232D03*
X124060000Y-140045000D03*
X119215000Y-140570000D03*
X128190000Y-140045000D03*
X135840000Y-136170000D03*
X130770000Y-139680000D03*
X178590000Y-149000000D03*
X168190000Y-131780000D03*
X179980000Y-134240000D03*
X179550000Y-150910000D03*
D17*
X135200000Y-153090000D02*
X135200000Y-154300000D01*
X122880001Y-137979999D02*
X122180000Y-138680000D01*
X122180000Y-138680000D02*
X122180000Y-142790000D01*
X122180000Y-142790000D02*
X122750000Y-143360000D01*
X123590000Y-137580000D02*
X123190001Y-137979999D01*
X123190001Y-137979999D02*
X122880001Y-137979999D01*
X122750000Y-143360000D02*
X123700000Y-143360000D01*
D18*
X158410000Y-144870000D02*
X158410000Y-146350000D01*
X149900000Y-141720000D02*
X152270000Y-144090000D01*
X146910000Y-135530000D02*
X146910000Y-140300000D01*
X148330000Y-141720000D02*
X149900000Y-141720000D01*
X146910000Y-140300000D02*
X148330000Y-141720000D01*
X152270000Y-144090000D02*
X157630000Y-144090000D01*
X157630000Y-144090000D02*
X158410000Y-144870000D01*
D19*
X174290000Y-152990000D02*
X176480000Y-150800000D01*
X167070000Y-131160000D02*
X167070000Y-130200000D01*
X166790000Y-133510000D02*
X166790000Y-131440000D01*
X166790000Y-131440000D02*
X167070000Y-131160000D01*
X176480000Y-150800000D02*
X176480000Y-137070000D01*
X167070000Y-130200000D02*
X168670000Y-128600000D01*
X167960000Y-134680000D02*
X166790000Y-133510000D01*
X174090000Y-134680000D02*
X167960000Y-134680000D01*
X176480000Y-137070000D02*
X174090000Y-134680000D01*
D18*
X136100000Y-150240000D02*
X138000000Y-150240000D01*
X135990000Y-143400000D02*
X135100000Y-144290000D01*
X135100000Y-149240000D02*
X136100000Y-150240000D01*
X139100000Y-135524264D02*
X139100000Y-142450000D01*
X139080000Y-135080000D02*
X139080000Y-135504264D01*
X138150000Y-143400000D02*
X135990000Y-143400000D01*
X139100000Y-142450000D02*
X138150000Y-143400000D01*
X139080000Y-135504264D02*
X139100000Y-135524264D01*
X135100000Y-144290000D02*
X135100000Y-149240000D01*
X151400000Y-148240000D02*
X150590000Y-147430000D01*
X151400000Y-154140000D02*
X151400000Y-148240000D01*
X151070000Y-144250000D02*
X149530000Y-142710000D01*
X145580000Y-140560000D02*
X145590000Y-140550000D01*
X140540000Y-152780000D02*
X142620000Y-154860000D01*
X150590000Y-147430000D02*
X150590000Y-145870000D01*
X151070000Y-145390000D02*
X151070000Y-144250000D01*
X147730000Y-142710000D02*
X145580000Y-140560000D01*
X145590000Y-140550000D02*
X145590000Y-130960000D01*
X149530000Y-142710000D02*
X147730000Y-142710000D01*
X150590000Y-145870000D02*
X151070000Y-145390000D01*
X150680000Y-154860000D02*
X151400000Y-154140000D01*
X142620000Y-154860000D02*
X150680000Y-154860000D01*
X148860000Y-147190000D02*
X147960000Y-146290000D01*
X149080000Y-147190000D02*
X148860000Y-147190000D01*
X145170000Y-141530000D02*
X145170000Y-141510000D01*
X147960000Y-144320000D02*
X145170000Y-141530000D01*
X149852081Y-152730000D02*
X150540000Y-152042081D01*
X145170000Y-141510000D02*
X144760000Y-141100000D01*
X150540000Y-148650000D02*
X149080000Y-147190000D01*
X147960000Y-146290000D02*
X147960000Y-144320000D01*
X144760000Y-141100000D02*
X144760000Y-131510000D01*
X150540000Y-152042081D02*
X150540000Y-148650000D01*
X144760000Y-131510000D02*
X144230000Y-130980000D01*
X148650000Y-152730000D02*
X149852081Y-152730000D01*
X146110000Y-148950000D02*
X146110000Y-150190000D01*
X139820000Y-136964264D02*
X139810000Y-136974264D01*
X147180000Y-144590000D02*
X147180000Y-147880000D01*
X147180000Y-147880000D02*
X146110000Y-148950000D01*
X139810000Y-136974264D02*
X139810000Y-142940000D01*
X139810000Y-142940000D02*
X140000000Y-143130000D01*
X145720000Y-143130000D02*
X147180000Y-144590000D01*
X139820000Y-136540000D02*
X139820000Y-136964264D01*
X140000000Y-143130000D02*
X145720000Y-143130000D01*
X131980000Y-129080000D02*
X131800000Y-128900000D01*
X142600000Y-130970000D02*
X142600000Y-130545736D01*
X142600000Y-130545736D02*
X141904264Y-129850000D01*
X141904264Y-129850000D02*
X136940000Y-129850000D01*
X131800000Y-128900000D02*
X131800000Y-127800000D01*
X136170000Y-129080000D02*
X131980000Y-129080000D01*
X136940000Y-129850000D02*
X136170000Y-129080000D01*
X140860000Y-131620000D02*
X133060000Y-131620000D01*
X133060000Y-131620000D02*
X131800000Y-132880000D01*
X141520000Y-130960000D02*
X140860000Y-131620000D01*
X129220000Y-145090000D02*
X129220000Y-147825736D01*
X129220000Y-147825736D02*
X129200000Y-147845736D01*
X127860088Y-143730088D02*
X129220000Y-145090000D01*
X129200000Y-147845736D02*
X129200000Y-148270000D01*
X126230000Y-143280000D02*
X126680088Y-143730088D01*
X125350000Y-143280000D02*
X126230000Y-143280000D01*
X126680088Y-143730088D02*
X127860088Y-143730088D01*
X124690000Y-142620000D02*
X125350000Y-143280000D01*
D20*
X118465000Y-143036801D02*
X118465000Y-140870000D01*
X118465000Y-140870000D02*
X118165000Y-140570000D01*
X118028768Y-143048768D02*
X118453033Y-143048768D01*
X124260000Y-139395000D02*
X124060000Y-139195000D01*
X128190000Y-139195000D02*
X127990000Y-139395000D01*
X118453033Y-143048768D02*
X118465000Y-143036801D01*
X127990000Y-139395000D02*
X124260000Y-139395000D01*
X118915000Y-140870000D02*
X119215000Y-140570000D01*
X118771232Y-143791232D02*
X118771232Y-143366967D01*
X128190000Y-140045000D02*
X127990000Y-139845000D01*
X127990000Y-139845000D02*
X124260000Y-139845000D01*
X124260000Y-139845000D02*
X124060000Y-140045000D01*
X118915000Y-143223199D02*
X118915000Y-140870000D01*
X118771232Y-143366967D02*
X118915000Y-143223199D01*
X132120000Y-136170000D02*
X131560000Y-136730000D01*
D18*
X128020000Y-137520000D02*
X127680000Y-137180000D01*
X127680000Y-137180000D02*
X127680000Y-136000000D01*
D20*
X131270000Y-137520000D02*
X130770000Y-137520000D01*
X135840000Y-136170000D02*
X132120000Y-136170000D01*
D18*
X130770000Y-137520000D02*
X128020000Y-137520000D01*
D20*
X130770000Y-137520000D02*
X130770000Y-139680000D01*
X131560000Y-136730000D02*
X131560000Y-137230000D01*
X131560000Y-137230000D02*
X131270000Y-137520000D01*
D19*
X176940000Y-132600000D02*
X175570000Y-132600000D01*
X169010000Y-132600000D02*
X168190000Y-131780000D01*
X178190000Y-148600000D02*
X178190000Y-133850000D01*
X178590000Y-149000000D02*
X178190000Y-148600000D01*
X178190000Y-133850000D02*
X176940000Y-132600000D01*
X175570000Y-132600000D02*
X169010000Y-132600000D01*
D17*
X179980000Y-134240000D02*
X179550000Y-134670000D01*
X179550000Y-134670000D02*
X179550000Y-150910000D01*
G04 #@! TA.AperFunction,Conductor*
G36*
X138909457Y-124528002D02*
G01*
X138955950Y-124581658D01*
X138966054Y-124651932D01*
X138936560Y-124716512D01*
X138892584Y-124749107D01*
X138809281Y-124786195D01*
X138809274Y-124786199D01*
X138803248Y-124788882D01*
X138797907Y-124792762D01*
X138797906Y-124792763D01*
X138783739Y-124803056D01*
X138648747Y-124901134D01*
X138520960Y-125043056D01*
X138425473Y-125208444D01*
X138366458Y-125390072D01*
X138365768Y-125396633D01*
X138365768Y-125396635D01*
X138351759Y-125529928D01*
X138346496Y-125580000D01*
X138366458Y-125769928D01*
X138425473Y-125951556D01*
X138520960Y-126116944D01*
X138648747Y-126258866D01*
X138803248Y-126371118D01*
X138809276Y-126373802D01*
X138809278Y-126373803D01*
X138964460Y-126442894D01*
X138977712Y-126448794D01*
X139071112Y-126468647D01*
X139158056Y-126487128D01*
X139158061Y-126487128D01*
X139164513Y-126488500D01*
X139355487Y-126488500D01*
X139361939Y-126487128D01*
X139361944Y-126487128D01*
X139448888Y-126468647D01*
X139542288Y-126448794D01*
X139555540Y-126442894D01*
X139710722Y-126373803D01*
X139710724Y-126373802D01*
X139716752Y-126371118D01*
X139871253Y-126258866D01*
X139999040Y-126116944D01*
X140094527Y-125951556D01*
X140153542Y-125769928D01*
X140173504Y-125580000D01*
X140168241Y-125529928D01*
X140154232Y-125396635D01*
X140154232Y-125396633D01*
X140153542Y-125390072D01*
X140094527Y-125208444D01*
X139999040Y-125043056D01*
X139871253Y-124901134D01*
X139736261Y-124803056D01*
X139722094Y-124792763D01*
X139722093Y-124792762D01*
X139716752Y-124788882D01*
X139710726Y-124786199D01*
X139710719Y-124786195D01*
X139627416Y-124749107D01*
X139573320Y-124703127D01*
X139552670Y-124635200D01*
X139572022Y-124566892D01*
X139625233Y-124519890D01*
X139678664Y-124508000D01*
X143991336Y-124508000D01*
X144059457Y-124528002D01*
X144105950Y-124581658D01*
X144116054Y-124651932D01*
X144086560Y-124716512D01*
X144042584Y-124749107D01*
X143959281Y-124786195D01*
X143959274Y-124786199D01*
X143953248Y-124788882D01*
X143947907Y-124792762D01*
X143947906Y-124792763D01*
X143933739Y-124803056D01*
X143798747Y-124901134D01*
X143670960Y-125043056D01*
X143575473Y-125208444D01*
X143516458Y-125390072D01*
X143515768Y-125396633D01*
X143515768Y-125396635D01*
X143501759Y-125529928D01*
X143496496Y-125580000D01*
X143516458Y-125769928D01*
X143575473Y-125951556D01*
X143670960Y-126116944D01*
X143798747Y-126258866D01*
X143953248Y-126371118D01*
X143959276Y-126373802D01*
X143959278Y-126373803D01*
X144114460Y-126442894D01*
X144127712Y-126448794D01*
X144221112Y-126468647D01*
X144308056Y-126487128D01*
X144308061Y-126487128D01*
X144314513Y-126488500D01*
X144505487Y-126488500D01*
X144511939Y-126487128D01*
X144511944Y-126487128D01*
X144598888Y-126468647D01*
X144692288Y-126448794D01*
X144705540Y-126442894D01*
X144860722Y-126373803D01*
X144860724Y-126373802D01*
X144866752Y-126371118D01*
X145021253Y-126258866D01*
X145149040Y-126116944D01*
X145244527Y-125951556D01*
X145303542Y-125769928D01*
X145323504Y-125580000D01*
X145318241Y-125529928D01*
X145304232Y-125396635D01*
X145304232Y-125396633D01*
X145303542Y-125390072D01*
X145244527Y-125208444D01*
X145149040Y-125043056D01*
X145021253Y-124901134D01*
X144886261Y-124803056D01*
X144872094Y-124792763D01*
X144872093Y-124792762D01*
X144866752Y-124788882D01*
X144860726Y-124786199D01*
X144860719Y-124786195D01*
X144777416Y-124749107D01*
X144723320Y-124703127D01*
X144702670Y-124635200D01*
X144722022Y-124566892D01*
X144775233Y-124519890D01*
X144828664Y-124508000D01*
X187866000Y-124508000D01*
X187934121Y-124528002D01*
X187980614Y-124581658D01*
X187992000Y-124634000D01*
X187992000Y-127473817D01*
X187971998Y-127541938D01*
X187918342Y-127588431D01*
X187848068Y-127598535D01*
X187790435Y-127574643D01*
X187746797Y-127541938D01*
X187716705Y-127519385D01*
X187580316Y-127468255D01*
X187518134Y-127461500D01*
X185721866Y-127461500D01*
X185659684Y-127468255D01*
X185523295Y-127519385D01*
X185406739Y-127606739D01*
X185319385Y-127723295D01*
X185268255Y-127859684D01*
X185261500Y-127921866D01*
X185261500Y-129718134D01*
X185268255Y-129780316D01*
X185319385Y-129916705D01*
X185406739Y-130033261D01*
X185523295Y-130120615D01*
X185659684Y-130171745D01*
X185721866Y-130178500D01*
X187518134Y-130178500D01*
X187580316Y-130171745D01*
X187716705Y-130120615D01*
X187790436Y-130065357D01*
X187856941Y-130040509D01*
X187926323Y-130055562D01*
X187976554Y-130105736D01*
X187992000Y-130166183D01*
X187992000Y-133093803D01*
X187971998Y-133161924D01*
X187918342Y-133208417D01*
X187848068Y-133218521D01*
X187783488Y-133189027D01*
X187760208Y-133162243D01*
X187702426Y-133072926D01*
X187696136Y-133064757D01*
X187552806Y-132907240D01*
X187545273Y-132900215D01*
X187378139Y-132768222D01*
X187369552Y-132762517D01*
X187183117Y-132659599D01*
X187173705Y-132655369D01*
X186972959Y-132584280D01*
X186962988Y-132581646D01*
X186891837Y-132568972D01*
X186878540Y-132570432D01*
X186874000Y-132584989D01*
X186874000Y-135218517D01*
X186878064Y-135232359D01*
X186891478Y-135234393D01*
X186898184Y-135233534D01*
X186908262Y-135231392D01*
X187112255Y-135170191D01*
X187121842Y-135166433D01*
X187313095Y-135072739D01*
X187321945Y-135067464D01*
X187495328Y-134943792D01*
X187503200Y-134937139D01*
X187654052Y-134786812D01*
X187660723Y-134778972D01*
X187763677Y-134635697D01*
X187819672Y-134592049D01*
X187890375Y-134585603D01*
X187953340Y-134618406D01*
X187988574Y-134680042D01*
X187992000Y-134709223D01*
X187992000Y-146906514D01*
X187971998Y-146974635D01*
X187918342Y-147021128D01*
X187848068Y-147031232D01*
X187783488Y-147001738D01*
X187760208Y-146974955D01*
X187752423Y-146962921D01*
X187746136Y-146954757D01*
X187602806Y-146797240D01*
X187595273Y-146790215D01*
X187428139Y-146658222D01*
X187419552Y-146652517D01*
X187233117Y-146549599D01*
X187223705Y-146545369D01*
X187022959Y-146474280D01*
X187012988Y-146471646D01*
X186941837Y-146458972D01*
X186928540Y-146460432D01*
X186924000Y-146474989D01*
X186924000Y-149108517D01*
X186928064Y-149122359D01*
X186941478Y-149124393D01*
X186948184Y-149123534D01*
X186958262Y-149121392D01*
X187162255Y-149060191D01*
X187171842Y-149056433D01*
X187363095Y-148962739D01*
X187371945Y-148957464D01*
X187545328Y-148833792D01*
X187553200Y-148827139D01*
X187704052Y-148676812D01*
X187710725Y-148668970D01*
X187763678Y-148595279D01*
X187819672Y-148551632D01*
X187890376Y-148545186D01*
X187953340Y-148577989D01*
X187988574Y-148639626D01*
X187992000Y-148668806D01*
X187992000Y-151486344D01*
X187971998Y-151554465D01*
X187918342Y-151600958D01*
X187848068Y-151611062D01*
X187790434Y-151587169D01*
X187773892Y-151574771D01*
X187773890Y-151574770D01*
X187766705Y-151569385D01*
X187630316Y-151518255D01*
X187568134Y-151511500D01*
X185771866Y-151511500D01*
X185709684Y-151518255D01*
X185573295Y-151569385D01*
X185456739Y-151656739D01*
X185369385Y-151773295D01*
X185318255Y-151909684D01*
X185311500Y-151971866D01*
X185311500Y-153768134D01*
X185318255Y-153830316D01*
X185369385Y-153966705D01*
X185456739Y-154083261D01*
X185573295Y-154170615D01*
X185709684Y-154221745D01*
X185771866Y-154228500D01*
X187568134Y-154228500D01*
X187630316Y-154221745D01*
X187766705Y-154170615D01*
X187780793Y-154160057D01*
X187790434Y-154152831D01*
X187856940Y-154127982D01*
X187926323Y-154143034D01*
X187976553Y-154193208D01*
X187992000Y-154253656D01*
X187992000Y-155366000D01*
X187971998Y-155434121D01*
X187918342Y-155480614D01*
X187866000Y-155492000D01*
X177860395Y-155492000D01*
X177792274Y-155471998D01*
X177745781Y-155418342D01*
X177735677Y-155348068D01*
X177766757Y-155281691D01*
X177789040Y-155256944D01*
X177884527Y-155091556D01*
X177943542Y-154909928D01*
X177963504Y-154720000D01*
X177953647Y-154626219D01*
X177944232Y-154536635D01*
X177944232Y-154536633D01*
X177943542Y-154530072D01*
X177884527Y-154348444D01*
X177862512Y-154310312D01*
X177815064Y-154228131D01*
X177789040Y-154183056D01*
X177751681Y-154141564D01*
X177665675Y-154046045D01*
X177665674Y-154046044D01*
X177661253Y-154041134D01*
X177506752Y-153928882D01*
X177500724Y-153926198D01*
X177500722Y-153926197D01*
X177338319Y-153853891D01*
X177338318Y-153853891D01*
X177332288Y-153851206D01*
X177234009Y-153830316D01*
X177151944Y-153812872D01*
X177151939Y-153812872D01*
X177145487Y-153811500D01*
X176954513Y-153811500D01*
X176948061Y-153812872D01*
X176948056Y-153812872D01*
X176865991Y-153830316D01*
X176767712Y-153851206D01*
X176761682Y-153853891D01*
X176761681Y-153853891D01*
X176599278Y-153926197D01*
X176599276Y-153926198D01*
X176593248Y-153928882D01*
X176438747Y-154041134D01*
X176434326Y-154046044D01*
X176434325Y-154046045D01*
X176348320Y-154141564D01*
X176310960Y-154183056D01*
X176284936Y-154228131D01*
X176237489Y-154310312D01*
X176215473Y-154348444D01*
X176156458Y-154530072D01*
X176155768Y-154536633D01*
X176155768Y-154536635D01*
X176146353Y-154626219D01*
X176136496Y-154720000D01*
X176156458Y-154909928D01*
X176215473Y-155091556D01*
X176310960Y-155256944D01*
X176333243Y-155281691D01*
X176363959Y-155345698D01*
X176355194Y-155416152D01*
X176309731Y-155470682D01*
X176239605Y-155492000D01*
X151248095Y-155492000D01*
X151179974Y-155471998D01*
X151133481Y-155418342D01*
X151123377Y-155348068D01*
X151152871Y-155283488D01*
X151159000Y-155276904D01*
X151792258Y-154643647D01*
X151800537Y-154636113D01*
X151807018Y-154632000D01*
X151853644Y-154582348D01*
X151856398Y-154579507D01*
X151876135Y-154559770D01*
X151878615Y-154556573D01*
X151886320Y-154547551D01*
X151911159Y-154521100D01*
X151916586Y-154515321D01*
X151920405Y-154508375D01*
X151920407Y-154508372D01*
X151926348Y-154497566D01*
X151937199Y-154481047D01*
X151944758Y-154471301D01*
X151949614Y-154465041D01*
X151952759Y-154457772D01*
X151952762Y-154457768D01*
X151967174Y-154424463D01*
X151972391Y-154413813D01*
X151993695Y-154375060D01*
X151998733Y-154355437D01*
X152005137Y-154336734D01*
X152010033Y-154325420D01*
X152010033Y-154325419D01*
X152013181Y-154318145D01*
X152014420Y-154310322D01*
X152014423Y-154310312D01*
X152020099Y-154274476D01*
X152022505Y-154262856D01*
X152031528Y-154227711D01*
X152031528Y-154227710D01*
X152033500Y-154220030D01*
X152033500Y-154199776D01*
X152035051Y-154180065D01*
X152036980Y-154167886D01*
X152038220Y-154160057D01*
X152034059Y-154116038D01*
X152033500Y-154104181D01*
X152033500Y-148318767D01*
X152034027Y-148307584D01*
X152035702Y-148300091D01*
X152034620Y-148265653D01*
X152033562Y-148232014D01*
X152033500Y-148228055D01*
X152033500Y-148200144D01*
X152032995Y-148196144D01*
X152032062Y-148184301D01*
X152030922Y-148148030D01*
X152030673Y-148140111D01*
X152025021Y-148120657D01*
X152021013Y-148101300D01*
X152019468Y-148089070D01*
X152019468Y-148089069D01*
X152018474Y-148081203D01*
X152015555Y-148073830D01*
X152002196Y-148040088D01*
X151998351Y-148028858D01*
X151988229Y-147994017D01*
X151988229Y-147994016D01*
X151986018Y-147986407D01*
X151981985Y-147979588D01*
X151981983Y-147979583D01*
X151975707Y-147968972D01*
X151967012Y-147951224D01*
X151959552Y-147932383D01*
X151943061Y-147909684D01*
X151933564Y-147896613D01*
X151927048Y-147886693D01*
X151908580Y-147855465D01*
X151908578Y-147855462D01*
X151904542Y-147848638D01*
X151890221Y-147834317D01*
X151877380Y-147819283D01*
X151865472Y-147802893D01*
X151859367Y-147797842D01*
X151859362Y-147797837D01*
X151831396Y-147774701D01*
X151822618Y-147766713D01*
X151260405Y-147204500D01*
X151226379Y-147142188D01*
X151223500Y-147115405D01*
X151223500Y-146184594D01*
X151243502Y-146116473D01*
X151260405Y-146095499D01*
X151462247Y-145893657D01*
X151470537Y-145886113D01*
X151477018Y-145882000D01*
X151523659Y-145832332D01*
X151526413Y-145829491D01*
X151546135Y-145809769D01*
X151548612Y-145806576D01*
X151556317Y-145797555D01*
X151581159Y-145771100D01*
X151586586Y-145765321D01*
X151590407Y-145758371D01*
X151596346Y-145747568D01*
X151607202Y-145731041D01*
X151614757Y-145721302D01*
X151614758Y-145721300D01*
X151619614Y-145715040D01*
X151637174Y-145674460D01*
X151642391Y-145663812D01*
X151659875Y-145632009D01*
X151659876Y-145632007D01*
X151663695Y-145625060D01*
X151668733Y-145605437D01*
X151675137Y-145586734D01*
X151680033Y-145575420D01*
X151680033Y-145575419D01*
X151683181Y-145568145D01*
X151684420Y-145560322D01*
X151684423Y-145560312D01*
X151690099Y-145524476D01*
X151692505Y-145512856D01*
X151701528Y-145477711D01*
X151701528Y-145477710D01*
X151703500Y-145470030D01*
X151703500Y-145449776D01*
X151705051Y-145430065D01*
X151706980Y-145417886D01*
X151708220Y-145410057D01*
X151704059Y-145366038D01*
X151703500Y-145354181D01*
X151703500Y-144713747D01*
X151723502Y-144645626D01*
X151777158Y-144599133D01*
X151847432Y-144589029D01*
X151893953Y-144607911D01*
X151894681Y-144606587D01*
X151912432Y-144616346D01*
X151928956Y-144627199D01*
X151944959Y-144639613D01*
X151985543Y-144657176D01*
X151996173Y-144662383D01*
X152034940Y-144683695D01*
X152042617Y-144685666D01*
X152042622Y-144685668D01*
X152054558Y-144688732D01*
X152073266Y-144695137D01*
X152091855Y-144703181D01*
X152099683Y-144704421D01*
X152099690Y-144704423D01*
X152135524Y-144710099D01*
X152147144Y-144712505D01*
X152182289Y-144721528D01*
X152189970Y-144723500D01*
X152210224Y-144723500D01*
X152229934Y-144725051D01*
X152249943Y-144728220D01*
X152257835Y-144727474D01*
X152283467Y-144725051D01*
X152293962Y-144724059D01*
X152305819Y-144723500D01*
X153880463Y-144723500D01*
X153948584Y-144743502D01*
X153995077Y-144797158D01*
X154005181Y-144867432D01*
X153975687Y-144932012D01*
X153915961Y-144970396D01*
X153899521Y-144974050D01*
X153704091Y-145003955D01*
X153491756Y-145073357D01*
X153465477Y-145087037D01*
X153318123Y-145163745D01*
X153293607Y-145176507D01*
X153289474Y-145179610D01*
X153289471Y-145179612D01*
X153119100Y-145307530D01*
X153114965Y-145310635D01*
X153091609Y-145335076D01*
X152970221Y-145462101D01*
X152960629Y-145472138D01*
X152957715Y-145476410D01*
X152957714Y-145476411D01*
X152942798Y-145498277D01*
X152834743Y-145656680D01*
X152811028Y-145707770D01*
X152745034Y-145849943D01*
X152740688Y-145859305D01*
X152680989Y-146074570D01*
X152657251Y-146296695D01*
X152657548Y-146301848D01*
X152657548Y-146301851D01*
X152663011Y-146396590D01*
X152670110Y-146519715D01*
X152671247Y-146524761D01*
X152671248Y-146524767D01*
X152692275Y-146618069D01*
X152719222Y-146737639D01*
X152757461Y-146831811D01*
X152800063Y-146936727D01*
X152803266Y-146944616D01*
X152834875Y-146996197D01*
X152911736Y-147121623D01*
X152919987Y-147135088D01*
X153066250Y-147303938D01*
X153070230Y-147307242D01*
X153074981Y-147311187D01*
X153114616Y-147370090D01*
X153116113Y-147441071D01*
X153078997Y-147501593D01*
X153038724Y-147526112D01*
X152923295Y-147569385D01*
X152806739Y-147656739D01*
X152719385Y-147773295D01*
X152668255Y-147909684D01*
X152661500Y-147971866D01*
X152661500Y-149768134D01*
X152668255Y-149830316D01*
X152719385Y-149966705D01*
X152806739Y-150083261D01*
X152923295Y-150170615D01*
X153059684Y-150221745D01*
X153121866Y-150228500D01*
X154918134Y-150228500D01*
X154980316Y-150221745D01*
X155116705Y-150170615D01*
X155233261Y-150083261D01*
X155320615Y-149966705D01*
X155371745Y-149830316D01*
X155378500Y-149768134D01*
X155378500Y-149157966D01*
X157078257Y-149157966D01*
X157108565Y-149292446D01*
X157111645Y-149302275D01*
X157191770Y-149499603D01*
X157196413Y-149508794D01*
X157307694Y-149690388D01*
X157313777Y-149698699D01*
X157453213Y-149859667D01*
X157460580Y-149866883D01*
X157624434Y-150002916D01*
X157632881Y-150008831D01*
X157816756Y-150116279D01*
X157826042Y-150120729D01*
X158025001Y-150196703D01*
X158034899Y-150199579D01*
X158138250Y-150220606D01*
X158152299Y-150219410D01*
X158156000Y-150209065D01*
X158156000Y-150208517D01*
X158664000Y-150208517D01*
X158668064Y-150222359D01*
X158681478Y-150224393D01*
X158688184Y-150223534D01*
X158698262Y-150221392D01*
X158902255Y-150160191D01*
X158911842Y-150156433D01*
X159103095Y-150062739D01*
X159111945Y-150057464D01*
X159285328Y-149933792D01*
X159293200Y-149927139D01*
X159444052Y-149776812D01*
X159450730Y-149768965D01*
X159575003Y-149596020D01*
X159580313Y-149587183D01*
X159674670Y-149396267D01*
X159678469Y-149386672D01*
X159740377Y-149182910D01*
X159742555Y-149172837D01*
X159743986Y-149161962D01*
X159741775Y-149147778D01*
X159728617Y-149144000D01*
X158682115Y-149144000D01*
X158666876Y-149148475D01*
X158665671Y-149149865D01*
X158664000Y-149157548D01*
X158664000Y-150208517D01*
X158156000Y-150208517D01*
X158156000Y-149162115D01*
X158151525Y-149146876D01*
X158150135Y-149145671D01*
X158142452Y-149144000D01*
X157093225Y-149144000D01*
X157079694Y-149147973D01*
X157078257Y-149157966D01*
X155378500Y-149157966D01*
X155378500Y-147971866D01*
X155371745Y-147909684D01*
X155320615Y-147773295D01*
X155233261Y-147656739D01*
X155116705Y-147569385D01*
X155081217Y-147556081D01*
X154998203Y-147524960D01*
X154941439Y-147482318D01*
X154916739Y-147415756D01*
X154931947Y-147346408D01*
X154953493Y-147317727D01*
X154967330Y-147303938D01*
X155058096Y-147213489D01*
X155117594Y-147130689D01*
X155185435Y-147036277D01*
X155188453Y-147032077D01*
X155190894Y-147027139D01*
X155285136Y-146836453D01*
X155285137Y-146836451D01*
X155287430Y-146831811D01*
X155329885Y-146692077D01*
X155350865Y-146623023D01*
X155350865Y-146623021D01*
X155352370Y-146618069D01*
X155381529Y-146396590D01*
X155382049Y-146375320D01*
X155383074Y-146333365D01*
X155383074Y-146333361D01*
X155383156Y-146330000D01*
X155364852Y-146107361D01*
X155310431Y-145890702D01*
X155221354Y-145685840D01*
X155163185Y-145595925D01*
X155102822Y-145502617D01*
X155102820Y-145502614D01*
X155100014Y-145498277D01*
X154949670Y-145333051D01*
X154945619Y-145329852D01*
X154945615Y-145329848D01*
X154778414Y-145197800D01*
X154778410Y-145197798D01*
X154774359Y-145194598D01*
X154769273Y-145191790D01*
X154716425Y-145162617D01*
X154578789Y-145086638D01*
X154573920Y-145084914D01*
X154573916Y-145084912D01*
X154373087Y-145013795D01*
X154373083Y-145013794D01*
X154368212Y-145012069D01*
X154363119Y-145011162D01*
X154363116Y-145011161D01*
X154151950Y-144973547D01*
X154088392Y-144941909D01*
X154052029Y-144880932D01*
X154054406Y-144809975D01*
X154094767Y-144751567D01*
X154160299Y-144724252D01*
X154174046Y-144723500D01*
X157315406Y-144723500D01*
X157383527Y-144743502D01*
X157404501Y-144760405D01*
X157451436Y-144807340D01*
X157485462Y-144869652D01*
X157480397Y-144940467D01*
X157437850Y-144997303D01*
X157406571Y-145014417D01*
X157383431Y-145023092D01*
X157313295Y-145049385D01*
X157196739Y-145136739D01*
X157109385Y-145253295D01*
X157058255Y-145389684D01*
X157051500Y-145451866D01*
X157051500Y-147248134D01*
X157058255Y-147310316D01*
X157109385Y-147446705D01*
X157196739Y-147563261D01*
X157313295Y-147650615D01*
X157321704Y-147653767D01*
X157321705Y-147653768D01*
X157430960Y-147694726D01*
X157487725Y-147737367D01*
X157512425Y-147803929D01*
X157497218Y-147873278D01*
X157477825Y-147899759D01*
X157354590Y-148028717D01*
X157348104Y-148036727D01*
X157228098Y-148212649D01*
X157223000Y-148221623D01*
X157133338Y-148414783D01*
X157129775Y-148424470D01*
X157074389Y-148624183D01*
X157075912Y-148632607D01*
X157088292Y-148636000D01*
X159728344Y-148636000D01*
X159741875Y-148632027D01*
X159743180Y-148622947D01*
X159701214Y-148455875D01*
X159697894Y-148446124D01*
X159612972Y-148250814D01*
X159608105Y-148241739D01*
X159492426Y-148062926D01*
X159486136Y-148054757D01*
X159342293Y-147896677D01*
X159311241Y-147832831D01*
X159319635Y-147762333D01*
X159364812Y-147707564D01*
X159391256Y-147693895D01*
X159498297Y-147653767D01*
X159506705Y-147650615D01*
X159623261Y-147563261D01*
X159710615Y-147446705D01*
X159761745Y-147310316D01*
X159768500Y-147248134D01*
X159768500Y-145451866D01*
X159761745Y-145389684D01*
X159710615Y-145253295D01*
X159623261Y-145136739D01*
X159506705Y-145049385D01*
X159370316Y-144998255D01*
X159308134Y-144991500D01*
X159169734Y-144991500D01*
X159101613Y-144971498D01*
X159055120Y-144917842D01*
X159043796Y-144869452D01*
X159043562Y-144861996D01*
X159043500Y-144858044D01*
X159043500Y-144830144D01*
X159042996Y-144826153D01*
X159042063Y-144814311D01*
X159041942Y-144810437D01*
X159040674Y-144770111D01*
X159037175Y-144758068D01*
X159035021Y-144750652D01*
X159031012Y-144731293D01*
X159029585Y-144720000D01*
X159028474Y-144711203D01*
X159025558Y-144703837D01*
X159025556Y-144703831D01*
X159012200Y-144670098D01*
X159008355Y-144658868D01*
X158998230Y-144624017D01*
X158998230Y-144624016D01*
X158996019Y-144616407D01*
X158988701Y-144604032D01*
X158985705Y-144598966D01*
X158977008Y-144581213D01*
X158972472Y-144569758D01*
X158969552Y-144562383D01*
X158943563Y-144526612D01*
X158937047Y-144516692D01*
X158914542Y-144478638D01*
X158900221Y-144464317D01*
X158887380Y-144449283D01*
X158882749Y-144442909D01*
X158875472Y-144432893D01*
X158869367Y-144427842D01*
X158869362Y-144427837D01*
X158841396Y-144404701D01*
X158832618Y-144396713D01*
X158133652Y-143697747D01*
X158126112Y-143689461D01*
X158122000Y-143682982D01*
X158114214Y-143675670D01*
X158072349Y-143636357D01*
X158069507Y-143633602D01*
X158049770Y-143613865D01*
X158046573Y-143611385D01*
X158037551Y-143603680D01*
X158005321Y-143573414D01*
X157998375Y-143569595D01*
X157998372Y-143569593D01*
X157987566Y-143563652D01*
X157971047Y-143552801D01*
X157967343Y-143549928D01*
X157955041Y-143540386D01*
X157947772Y-143537241D01*
X157947768Y-143537238D01*
X157914463Y-143522826D01*
X157903813Y-143517609D01*
X157865060Y-143496305D01*
X157845437Y-143491267D01*
X157826734Y-143484863D01*
X157815420Y-143479967D01*
X157815419Y-143479967D01*
X157808145Y-143476819D01*
X157800322Y-143475580D01*
X157800312Y-143475577D01*
X157764476Y-143469901D01*
X157752856Y-143467495D01*
X157717711Y-143458472D01*
X157717710Y-143458472D01*
X157710030Y-143456500D01*
X157689776Y-143456500D01*
X157670065Y-143454949D01*
X157657886Y-143453020D01*
X157650057Y-143451780D01*
X157642165Y-143452526D01*
X157606039Y-143455941D01*
X157594181Y-143456500D01*
X152584594Y-143456500D01*
X152516473Y-143436498D01*
X152495499Y-143419595D01*
X150403652Y-141327747D01*
X150396112Y-141319461D01*
X150392000Y-141312982D01*
X150378996Y-141300770D01*
X150342349Y-141266357D01*
X150339507Y-141263602D01*
X150319770Y-141243865D01*
X150316573Y-141241385D01*
X150307551Y-141233680D01*
X150281100Y-141208841D01*
X150275321Y-141203414D01*
X150268375Y-141199595D01*
X150268372Y-141199593D01*
X150257566Y-141193652D01*
X150241047Y-141182801D01*
X150236577Y-141179334D01*
X150225041Y-141170386D01*
X150217772Y-141167241D01*
X150217768Y-141167238D01*
X150184463Y-141152826D01*
X150173813Y-141147609D01*
X150135060Y-141126305D01*
X150115437Y-141121267D01*
X150096734Y-141114863D01*
X150085420Y-141109967D01*
X150085419Y-141109967D01*
X150078145Y-141106819D01*
X150070322Y-141105580D01*
X150070312Y-141105577D01*
X150034476Y-141099901D01*
X150022856Y-141097495D01*
X149987711Y-141088472D01*
X149987710Y-141088472D01*
X149980030Y-141086500D01*
X149959776Y-141086500D01*
X149940065Y-141084949D01*
X149927886Y-141083020D01*
X149920057Y-141081780D01*
X149912165Y-141082526D01*
X149876039Y-141085941D01*
X149864181Y-141086500D01*
X148644595Y-141086500D01*
X148576474Y-141066498D01*
X148555500Y-141049595D01*
X147580405Y-140074500D01*
X147546379Y-140012188D01*
X147543500Y-139985405D01*
X147543500Y-139550000D01*
X173056496Y-139550000D01*
X173057186Y-139556565D01*
X173071960Y-139697128D01*
X173076458Y-139739928D01*
X173135473Y-139921556D01*
X173230960Y-140086944D01*
X173235378Y-140091851D01*
X173235379Y-140091852D01*
X173351524Y-140220844D01*
X173358747Y-140228866D01*
X173393231Y-140253920D01*
X173500254Y-140331677D01*
X173513248Y-140341118D01*
X173519276Y-140343802D01*
X173519278Y-140343803D01*
X173681681Y-140416109D01*
X173687712Y-140418794D01*
X173781113Y-140438647D01*
X173868056Y-140457128D01*
X173868061Y-140457128D01*
X173874513Y-140458500D01*
X174065487Y-140458500D01*
X174071939Y-140457128D01*
X174071944Y-140457128D01*
X174158887Y-140438647D01*
X174252288Y-140418794D01*
X174258319Y-140416109D01*
X174420722Y-140343803D01*
X174420724Y-140343802D01*
X174426752Y-140341118D01*
X174439747Y-140331677D01*
X174546769Y-140253920D01*
X174581253Y-140228866D01*
X174588476Y-140220844D01*
X174704621Y-140091852D01*
X174704622Y-140091851D01*
X174709040Y-140086944D01*
X174804527Y-139921556D01*
X174863542Y-139739928D01*
X174868041Y-139697128D01*
X174882814Y-139556565D01*
X174883504Y-139550000D01*
X174874520Y-139464520D01*
X174864232Y-139366635D01*
X174864232Y-139366633D01*
X174863542Y-139360072D01*
X174804527Y-139178444D01*
X174798645Y-139168255D01*
X174712341Y-139018774D01*
X174709040Y-139013056D01*
X174704570Y-139008091D01*
X174585675Y-138876045D01*
X174585674Y-138876044D01*
X174581253Y-138871134D01*
X174449184Y-138775180D01*
X174432094Y-138762763D01*
X174432093Y-138762762D01*
X174426752Y-138758882D01*
X174420724Y-138756198D01*
X174420722Y-138756197D01*
X174258319Y-138683891D01*
X174258318Y-138683891D01*
X174252288Y-138681206D01*
X174158888Y-138661353D01*
X174071944Y-138642872D01*
X174071939Y-138642872D01*
X174065487Y-138641500D01*
X173874513Y-138641500D01*
X173868061Y-138642872D01*
X173868056Y-138642872D01*
X173781112Y-138661353D01*
X173687712Y-138681206D01*
X173681682Y-138683891D01*
X173681681Y-138683891D01*
X173519278Y-138756197D01*
X173519276Y-138756198D01*
X173513248Y-138758882D01*
X173507907Y-138762762D01*
X173507906Y-138762763D01*
X173490816Y-138775180D01*
X173358747Y-138871134D01*
X173354326Y-138876044D01*
X173354325Y-138876045D01*
X173235431Y-139008091D01*
X173230960Y-139013056D01*
X173227659Y-139018774D01*
X173141356Y-139168255D01*
X173135473Y-139178444D01*
X173076458Y-139360072D01*
X173075768Y-139366633D01*
X173075768Y-139366635D01*
X173065480Y-139464520D01*
X173056496Y-139550000D01*
X147543500Y-139550000D01*
X147543500Y-137620000D01*
X149506496Y-137620000D01*
X149507186Y-137626565D01*
X149517486Y-137724560D01*
X149526458Y-137809928D01*
X149585473Y-137991556D01*
X149588776Y-137997278D01*
X149588777Y-137997279D01*
X149591648Y-138002251D01*
X149680960Y-138156944D01*
X149685378Y-138161851D01*
X149685379Y-138161852D01*
X149772648Y-138258774D01*
X149808747Y-138298866D01*
X149963248Y-138411118D01*
X149969276Y-138413802D01*
X149969278Y-138413803D01*
X150070384Y-138458818D01*
X150137712Y-138488794D01*
X150231112Y-138508647D01*
X150318056Y-138527128D01*
X150318061Y-138527128D01*
X150324513Y-138528500D01*
X150515487Y-138528500D01*
X150521939Y-138527128D01*
X150521944Y-138527128D01*
X150608888Y-138508647D01*
X150702288Y-138488794D01*
X150769616Y-138458818D01*
X150870722Y-138413803D01*
X150870724Y-138413802D01*
X150876752Y-138411118D01*
X151031253Y-138298866D01*
X151067352Y-138258774D01*
X151154621Y-138161852D01*
X151154622Y-138161851D01*
X151159040Y-138156944D01*
X151248352Y-138002251D01*
X151251223Y-137997279D01*
X151251224Y-137997278D01*
X151254527Y-137991556D01*
X151313542Y-137809928D01*
X151322515Y-137724560D01*
X151332814Y-137626565D01*
X151333504Y-137620000D01*
X151328392Y-137571362D01*
X151314232Y-137436635D01*
X151314232Y-137436633D01*
X151313542Y-137430072D01*
X151254527Y-137248444D01*
X151159040Y-137083056D01*
X151130423Y-137051273D01*
X151035675Y-136946045D01*
X151035674Y-136946044D01*
X151031253Y-136941134D01*
X150924697Y-136863716D01*
X150882094Y-136832763D01*
X150882093Y-136832762D01*
X150876752Y-136828882D01*
X150870724Y-136826198D01*
X150870722Y-136826197D01*
X150708319Y-136753891D01*
X150708318Y-136753891D01*
X150702288Y-136751206D01*
X150605895Y-136730717D01*
X150521944Y-136712872D01*
X150521939Y-136712872D01*
X150515487Y-136711500D01*
X150324513Y-136711500D01*
X150318061Y-136712872D01*
X150318056Y-136712872D01*
X150234105Y-136730717D01*
X150137712Y-136751206D01*
X150131682Y-136753891D01*
X150131681Y-136753891D01*
X149969278Y-136826197D01*
X149969276Y-136826198D01*
X149963248Y-136828882D01*
X149957907Y-136832762D01*
X149957906Y-136832763D01*
X149915303Y-136863716D01*
X149808747Y-136941134D01*
X149804326Y-136946044D01*
X149804325Y-136946045D01*
X149709578Y-137051273D01*
X149680960Y-137083056D01*
X149585473Y-137248444D01*
X149526458Y-137430072D01*
X149525768Y-137436633D01*
X149525768Y-137436635D01*
X149511608Y-137571362D01*
X149506496Y-137620000D01*
X147543500Y-137620000D01*
X147543500Y-136075620D01*
X147564552Y-136005893D01*
X147575281Y-135989745D01*
X147633643Y-135901902D01*
X147684536Y-135767926D01*
X147695555Y-135738920D01*
X147695556Y-135738918D01*
X147698055Y-135732338D01*
X147700980Y-135711526D01*
X147722748Y-135556639D01*
X147722748Y-135556636D01*
X147723299Y-135552717D01*
X147723464Y-135540915D01*
X147723561Y-135533962D01*
X147723561Y-135533957D01*
X147723616Y-135530000D01*
X147703397Y-135349745D01*
X147701080Y-135343091D01*
X147646064Y-135185106D01*
X147646062Y-135185103D01*
X147643745Y-135178448D01*
X147634445Y-135163565D01*
X147551359Y-135030598D01*
X147547626Y-135024624D01*
X147542664Y-135019627D01*
X147424778Y-134900915D01*
X147424774Y-134900912D01*
X147419815Y-134895918D01*
X147413133Y-134891677D01*
X147312265Y-134827665D01*
X147266666Y-134798727D01*
X147217888Y-134781358D01*
X147102425Y-134740243D01*
X147102420Y-134740242D01*
X147095790Y-134737881D01*
X147088802Y-134737048D01*
X147088799Y-134737047D01*
X146965698Y-134722368D01*
X146915680Y-134716404D01*
X146908677Y-134717140D01*
X146908676Y-134717140D01*
X146742288Y-134734628D01*
X146742286Y-134734629D01*
X146735288Y-134735364D01*
X146563579Y-134793818D01*
X146415520Y-134884905D01*
X146347022Y-134903563D01*
X146279307Y-134882225D01*
X146233879Y-134827665D01*
X146223500Y-134777587D01*
X146223500Y-131505620D01*
X146244552Y-131435893D01*
X146288471Y-131369789D01*
X146313643Y-131331902D01*
X146366342Y-131193173D01*
X146375555Y-131168920D01*
X146375556Y-131168918D01*
X146378055Y-131162338D01*
X146379153Y-131154528D01*
X146402748Y-130986639D01*
X146402748Y-130986636D01*
X146403299Y-130982717D01*
X146403452Y-130971738D01*
X146403561Y-130963962D01*
X146403561Y-130963957D01*
X146403616Y-130960000D01*
X146383397Y-130779745D01*
X146381080Y-130773091D01*
X146326064Y-130615106D01*
X146326062Y-130615103D01*
X146323745Y-130608448D01*
X146284511Y-130545660D01*
X146231359Y-130460598D01*
X146227626Y-130454624D01*
X146218835Y-130445771D01*
X146104778Y-130330915D01*
X146104774Y-130330912D01*
X146099815Y-130325918D01*
X146088697Y-130318862D01*
X145999794Y-130262443D01*
X145946666Y-130228727D01*
X145884428Y-130206565D01*
X145865992Y-130200000D01*
X150666496Y-130200000D01*
X150667186Y-130206565D01*
X150685533Y-130381123D01*
X150686458Y-130389928D01*
X150745473Y-130571556D01*
X150840960Y-130736944D01*
X150845378Y-130741851D01*
X150845379Y-130741852D01*
X150936064Y-130842568D01*
X150968747Y-130878866D01*
X151066098Y-130949596D01*
X151117645Y-130987047D01*
X151123248Y-130991118D01*
X151129276Y-130993802D01*
X151129278Y-130993803D01*
X151261128Y-131052506D01*
X151297712Y-131068794D01*
X151385166Y-131087383D01*
X151478056Y-131107128D01*
X151478061Y-131107128D01*
X151484513Y-131108500D01*
X151675487Y-131108500D01*
X151681939Y-131107128D01*
X151681944Y-131107128D01*
X151774834Y-131087383D01*
X151862288Y-131068794D01*
X151898872Y-131052506D01*
X152030722Y-130993803D01*
X152030724Y-130993802D01*
X152036752Y-130991118D01*
X152042356Y-130987047D01*
X152093902Y-130949596D01*
X152191253Y-130878866D01*
X152223936Y-130842568D01*
X152314621Y-130741852D01*
X152314622Y-130741851D01*
X152319040Y-130736944D01*
X152414527Y-130571556D01*
X152473542Y-130389928D01*
X152474468Y-130381123D01*
X152492814Y-130206565D01*
X152493504Y-130200000D01*
X152488794Y-130155186D01*
X152474232Y-130016635D01*
X152474232Y-130016633D01*
X152473542Y-130010072D01*
X152414527Y-129828444D01*
X152319040Y-129663056D01*
X152272280Y-129611123D01*
X152195675Y-129526045D01*
X152195674Y-129526044D01*
X152191253Y-129521134D01*
X152036752Y-129408882D01*
X152030724Y-129406198D01*
X152030722Y-129406197D01*
X151868319Y-129333891D01*
X151868318Y-129333891D01*
X151862288Y-129331206D01*
X151740138Y-129305242D01*
X151681944Y-129292872D01*
X151681939Y-129292872D01*
X151675487Y-129291500D01*
X151484513Y-129291500D01*
X151478061Y-129292872D01*
X151478056Y-129292872D01*
X151419862Y-129305242D01*
X151297712Y-129331206D01*
X151291682Y-129333891D01*
X151291681Y-129333891D01*
X151129278Y-129406197D01*
X151129276Y-129406198D01*
X151123248Y-129408882D01*
X150968747Y-129521134D01*
X150964326Y-129526044D01*
X150964325Y-129526045D01*
X150887721Y-129611123D01*
X150840960Y-129663056D01*
X150745473Y-129828444D01*
X150686458Y-130010072D01*
X150685768Y-130016633D01*
X150685768Y-130016635D01*
X150671206Y-130155186D01*
X150666496Y-130200000D01*
X145865992Y-130200000D01*
X145782425Y-130170243D01*
X145782420Y-130170242D01*
X145775790Y-130167881D01*
X145768802Y-130167048D01*
X145768799Y-130167047D01*
X145645698Y-130152368D01*
X145595680Y-130146404D01*
X145588677Y-130147140D01*
X145588676Y-130147140D01*
X145422288Y-130164628D01*
X145422286Y-130164629D01*
X145415288Y-130165364D01*
X145243579Y-130223818D01*
X145181109Y-130262250D01*
X145095095Y-130315166D01*
X145095092Y-130315168D01*
X145089088Y-130318862D01*
X145084053Y-130323793D01*
X145084050Y-130323795D01*
X145045897Y-130361158D01*
X144987789Y-130418062D01*
X144925125Y-130451432D01*
X144854366Y-130445626D01*
X144810226Y-130416822D01*
X144744778Y-130350915D01*
X144744774Y-130350912D01*
X144739815Y-130345918D01*
X144728697Y-130338862D01*
X144655079Y-130292143D01*
X144586666Y-130248727D01*
X144538860Y-130231704D01*
X144422425Y-130190243D01*
X144422420Y-130190242D01*
X144415790Y-130187881D01*
X144408802Y-130187048D01*
X144408799Y-130187047D01*
X144285698Y-130172368D01*
X144235680Y-130166404D01*
X144228677Y-130167140D01*
X144228676Y-130167140D01*
X144062288Y-130184628D01*
X144062286Y-130184629D01*
X144055288Y-130185364D01*
X143883579Y-130243818D01*
X143833375Y-130274704D01*
X143735095Y-130335166D01*
X143735092Y-130335168D01*
X143729088Y-130338862D01*
X143724053Y-130343793D01*
X143724050Y-130343795D01*
X143614373Y-130451199D01*
X143599493Y-130465771D01*
X143523683Y-130583406D01*
X143469970Y-130629829D01*
X143399683Y-130639844D01*
X143335140Y-130610269D01*
X143310919Y-130581919D01*
X143304444Y-130571556D01*
X143244090Y-130474969D01*
X143229948Y-130443351D01*
X143225022Y-130426393D01*
X143221014Y-130407042D01*
X143219467Y-130394799D01*
X143218474Y-130386939D01*
X143214280Y-130376346D01*
X143202200Y-130345833D01*
X143198355Y-130334606D01*
X143196597Y-130328556D01*
X143186018Y-130292143D01*
X143181984Y-130285321D01*
X143181981Y-130285315D01*
X143175706Y-130274704D01*
X143167010Y-130256954D01*
X143162472Y-130245492D01*
X143162469Y-130245487D01*
X143159552Y-130238119D01*
X143133573Y-130202361D01*
X143127057Y-130192443D01*
X143113175Y-130168971D01*
X143104542Y-130154373D01*
X143090218Y-130140049D01*
X143077376Y-130125014D01*
X143076470Y-130123767D01*
X143065472Y-130108629D01*
X143031406Y-130080447D01*
X143022627Y-130072458D01*
X142407916Y-129457747D01*
X142400376Y-129449461D01*
X142396264Y-129442982D01*
X142346612Y-129396356D01*
X142343771Y-129393602D01*
X142324034Y-129373865D01*
X142320837Y-129371385D01*
X142311815Y-129363680D01*
X142285364Y-129338841D01*
X142279585Y-129333414D01*
X142272639Y-129329595D01*
X142272636Y-129329593D01*
X142261830Y-129323652D01*
X142245311Y-129312801D01*
X142244847Y-129312441D01*
X142229305Y-129300386D01*
X142222036Y-129297241D01*
X142222032Y-129297238D01*
X142188727Y-129282826D01*
X142178077Y-129277609D01*
X142139324Y-129256305D01*
X142130071Y-129253929D01*
X142119702Y-129251267D01*
X142100998Y-129244863D01*
X142089684Y-129239967D01*
X142089683Y-129239967D01*
X142082409Y-129236819D01*
X142074586Y-129235580D01*
X142074576Y-129235577D01*
X142038740Y-129229901D01*
X142027120Y-129227495D01*
X141991975Y-129218472D01*
X141991974Y-129218472D01*
X141984294Y-129216500D01*
X141964040Y-129216500D01*
X141944329Y-129214949D01*
X141932150Y-129213020D01*
X141924321Y-129211780D01*
X141916429Y-129212526D01*
X141880303Y-129215941D01*
X141868445Y-129216500D01*
X137254595Y-129216500D01*
X137186474Y-129196498D01*
X137165500Y-129179595D01*
X136673652Y-128687747D01*
X136666112Y-128679461D01*
X136662000Y-128672982D01*
X136612348Y-128626356D01*
X136609507Y-128623602D01*
X136589770Y-128603865D01*
X136586573Y-128601385D01*
X136584951Y-128600000D01*
X164896807Y-128600000D01*
X164915542Y-128814142D01*
X164916966Y-128819455D01*
X164916966Y-128819457D01*
X164958924Y-128976043D01*
X164971178Y-129021777D01*
X165062024Y-129216596D01*
X165185319Y-129392681D01*
X165337319Y-129544681D01*
X165513403Y-129667976D01*
X165518381Y-129670297D01*
X165518384Y-129670299D01*
X165703241Y-129756499D01*
X165708223Y-129758822D01*
X165713531Y-129760244D01*
X165713533Y-129760245D01*
X165910543Y-129813034D01*
X165910545Y-129813034D01*
X165915858Y-129814458D01*
X166130000Y-129833193D01*
X166259159Y-129821893D01*
X166328764Y-129835882D01*
X166379757Y-129885282D01*
X166395947Y-129954408D01*
X166390880Y-129982310D01*
X166388955Y-129986573D01*
X166387570Y-129994042D01*
X166386770Y-129996596D01*
X166382141Y-130012848D01*
X166381478Y-130015428D01*
X166378718Y-130022509D01*
X166377727Y-130030040D01*
X166377726Y-130030042D01*
X166373827Y-130059661D01*
X166371589Y-130076664D01*
X166370379Y-130085852D01*
X166369348Y-130092359D01*
X166357704Y-130155186D01*
X166358141Y-130162766D01*
X166358141Y-130162767D01*
X166361291Y-130217392D01*
X166361500Y-130224646D01*
X166361500Y-130814340D01*
X166341498Y-130882461D01*
X166324595Y-130903435D01*
X166309480Y-130918550D01*
X166303215Y-130924404D01*
X166259615Y-130962439D01*
X166241734Y-130987881D01*
X166222872Y-131014719D01*
X166218939Y-131020014D01*
X166179524Y-131070282D01*
X166176401Y-131077198D01*
X166175017Y-131079484D01*
X166166643Y-131094165D01*
X166165378Y-131096525D01*
X166161010Y-131102739D01*
X166158250Y-131109818D01*
X166158249Y-131109820D01*
X166137798Y-131162275D01*
X166135247Y-131168344D01*
X166108955Y-131226573D01*
X166107571Y-131234040D01*
X166106770Y-131236595D01*
X166102141Y-131252848D01*
X166101478Y-131255428D01*
X166098718Y-131262509D01*
X166097727Y-131270040D01*
X166097726Y-131270042D01*
X166090379Y-131325852D01*
X166089348Y-131332359D01*
X166077704Y-131395186D01*
X166078141Y-131402766D01*
X166078141Y-131402767D01*
X166081291Y-131457392D01*
X166081500Y-131464646D01*
X166081500Y-133481088D01*
X166081208Y-133489658D01*
X166078620Y-133527625D01*
X166077275Y-133547352D01*
X166086838Y-133602143D01*
X166088261Y-133610299D01*
X166089223Y-133616821D01*
X166096898Y-133680242D01*
X166099581Y-133687343D01*
X166100222Y-133689952D01*
X166104685Y-133706262D01*
X166105450Y-133708798D01*
X166106757Y-133716284D01*
X166125637Y-133759292D01*
X166132442Y-133774795D01*
X166134933Y-133780899D01*
X166157513Y-133840656D01*
X166161817Y-133846919D01*
X166163054Y-133849285D01*
X166171299Y-133864097D01*
X166172632Y-133866351D01*
X166175685Y-133873305D01*
X166212417Y-133921173D01*
X166214579Y-133923991D01*
X166218459Y-133929332D01*
X166250339Y-133975720D01*
X166250344Y-133975725D01*
X166254643Y-133981981D01*
X166260313Y-133987032D01*
X166260314Y-133987034D01*
X166301170Y-134023435D01*
X166306446Y-134028416D01*
X167438550Y-135160520D01*
X167444404Y-135166785D01*
X167482439Y-135210385D01*
X167534719Y-135247128D01*
X167540014Y-135251061D01*
X167590282Y-135290476D01*
X167597198Y-135293599D01*
X167599484Y-135294983D01*
X167614165Y-135303357D01*
X167616525Y-135304622D01*
X167622739Y-135308990D01*
X167629818Y-135311750D01*
X167629820Y-135311751D01*
X167682275Y-135332202D01*
X167688344Y-135334753D01*
X167746573Y-135361045D01*
X167754040Y-135362429D01*
X167756595Y-135363230D01*
X167772848Y-135367859D01*
X167775428Y-135368522D01*
X167782509Y-135371282D01*
X167790040Y-135372273D01*
X167790042Y-135372274D01*
X167807924Y-135374628D01*
X167845861Y-135379622D01*
X167852359Y-135380652D01*
X167915186Y-135392296D01*
X167922766Y-135391859D01*
X167922767Y-135391859D01*
X167977392Y-135388709D01*
X167984646Y-135388500D01*
X173744340Y-135388500D01*
X173812461Y-135408502D01*
X173833435Y-135425405D01*
X175734595Y-137326566D01*
X175768621Y-137388878D01*
X175771500Y-137415661D01*
X175771500Y-150454340D01*
X175751498Y-150522461D01*
X175734595Y-150543435D01*
X174086563Y-152191467D01*
X174038074Y-152221650D01*
X173943579Y-152253818D01*
X173926546Y-152264297D01*
X173795095Y-152345166D01*
X173795092Y-152345168D01*
X173789088Y-152348862D01*
X173784053Y-152353793D01*
X173784050Y-152353795D01*
X173729463Y-152407251D01*
X173659493Y-152475771D01*
X173561235Y-152628238D01*
X173558826Y-152634858D01*
X173558824Y-152634861D01*
X173505998Y-152780000D01*
X173499197Y-152798685D01*
X173476463Y-152978640D01*
X173494163Y-153159160D01*
X173551418Y-153331273D01*
X173555065Y-153337295D01*
X173555066Y-153337297D01*
X173630320Y-153461556D01*
X173645380Y-153486424D01*
X173650269Y-153491487D01*
X173650270Y-153491488D01*
X173696143Y-153538990D01*
X173771382Y-153616902D01*
X173777278Y-153620760D01*
X173898417Y-153700031D01*
X173923159Y-153716222D01*
X173929763Y-153718678D01*
X173929765Y-153718679D01*
X174086558Y-153776990D01*
X174086560Y-153776990D01*
X174093168Y-153779448D01*
X174176995Y-153790633D01*
X174265980Y-153802507D01*
X174265984Y-153802507D01*
X174272961Y-153803438D01*
X174279972Y-153802800D01*
X174279976Y-153802800D01*
X174422459Y-153789832D01*
X174453600Y-153786998D01*
X174460302Y-153784820D01*
X174460304Y-153784820D01*
X174619409Y-153733124D01*
X174619412Y-153733123D01*
X174626108Y-153730947D01*
X174781912Y-153638069D01*
X174913266Y-153512982D01*
X175013643Y-153361902D01*
X175050998Y-153263564D01*
X175061372Y-153236256D01*
X175090065Y-153191905D01*
X176960520Y-151321450D01*
X176966785Y-151315596D01*
X176974069Y-151309242D01*
X177010385Y-151277561D01*
X177047114Y-151225300D01*
X177051046Y-151220005D01*
X177060683Y-151207715D01*
X177090477Y-151169718D01*
X177093602Y-151162796D01*
X177094964Y-151160548D01*
X177103368Y-151145815D01*
X177104622Y-151143476D01*
X177108990Y-151137261D01*
X177111749Y-151130185D01*
X177111751Y-151130181D01*
X177132200Y-151077731D01*
X177134749Y-151071666D01*
X177161045Y-151013427D01*
X177162429Y-151005962D01*
X177163226Y-151003418D01*
X177167859Y-150987152D01*
X177168521Y-150984572D01*
X177171282Y-150977491D01*
X177179622Y-150914143D01*
X177180653Y-150907629D01*
X177180944Y-150906062D01*
X177192296Y-150844813D01*
X177188709Y-150782602D01*
X177188500Y-150775349D01*
X177188500Y-137098911D01*
X177188792Y-137090342D01*
X177192209Y-137040223D01*
X177192209Y-137040219D01*
X177192725Y-137032647D01*
X177181736Y-136969685D01*
X177180777Y-136963182D01*
X177180703Y-136962564D01*
X177173102Y-136899758D01*
X177170416Y-136892649D01*
X177169784Y-136890078D01*
X177165324Y-136873772D01*
X177164549Y-136871204D01*
X177163242Y-136863716D01*
X177141072Y-136813211D01*
X177137561Y-136805212D01*
X177135069Y-136799105D01*
X177115173Y-136746452D01*
X177115173Y-136746451D01*
X177112487Y-136739344D01*
X177108184Y-136733083D01*
X177106947Y-136730717D01*
X177098720Y-136715937D01*
X177097369Y-136713652D01*
X177094315Y-136706695D01*
X177089695Y-136700675D01*
X177089692Y-136700669D01*
X177055421Y-136656009D01*
X177051541Y-136650668D01*
X177019661Y-136604280D01*
X177019656Y-136604275D01*
X177015357Y-136598019D01*
X176968829Y-136556564D01*
X176963554Y-136551584D01*
X174611450Y-134199480D01*
X174605596Y-134193215D01*
X174584364Y-134168877D01*
X174567561Y-134149615D01*
X174515280Y-134112871D01*
X174509986Y-134108939D01*
X174465693Y-134074209D01*
X174459718Y-134069524D01*
X174452802Y-134066401D01*
X174450516Y-134065017D01*
X174435835Y-134056643D01*
X174433475Y-134055378D01*
X174427261Y-134051010D01*
X174420182Y-134048250D01*
X174420180Y-134048249D01*
X174367725Y-134027798D01*
X174361656Y-134025247D01*
X174303427Y-133998955D01*
X174295960Y-133997571D01*
X174293405Y-133996770D01*
X174277152Y-133992141D01*
X174274572Y-133991478D01*
X174267491Y-133988718D01*
X174259960Y-133987727D01*
X174259958Y-133987726D01*
X174230339Y-133983827D01*
X174204139Y-133980378D01*
X174197641Y-133979348D01*
X174134814Y-133967704D01*
X174127234Y-133968141D01*
X174127233Y-133968141D01*
X174072608Y-133971291D01*
X174065354Y-133971500D01*
X168305660Y-133971500D01*
X168237539Y-133951498D01*
X168216565Y-133934595D01*
X167535405Y-133253435D01*
X167501379Y-133191123D01*
X167498500Y-133164340D01*
X167498500Y-132526803D01*
X167518502Y-132458682D01*
X167572158Y-132412189D01*
X167642432Y-132402085D01*
X167693493Y-132421371D01*
X167823159Y-132506222D01*
X167942440Y-132550583D01*
X167987613Y-132579584D01*
X168488557Y-133080528D01*
X168494411Y-133086793D01*
X168532439Y-133130385D01*
X168584729Y-133167136D01*
X168589971Y-133171028D01*
X168640282Y-133210476D01*
X168647201Y-133213600D01*
X168649493Y-133214988D01*
X168664165Y-133223357D01*
X168666525Y-133224622D01*
X168672739Y-133228990D01*
X168679818Y-133231750D01*
X168679820Y-133231751D01*
X168732275Y-133252202D01*
X168738344Y-133254753D01*
X168796573Y-133281045D01*
X168804046Y-133282430D01*
X168806612Y-133283234D01*
X168822835Y-133287855D01*
X168825427Y-133288520D01*
X168832509Y-133291282D01*
X168840044Y-133292274D01*
X168895861Y-133299622D01*
X168902377Y-133300654D01*
X168940770Y-133307770D01*
X168965186Y-133312295D01*
X168972766Y-133311858D01*
X168972767Y-133311858D01*
X169027380Y-133308709D01*
X169034633Y-133308500D01*
X176594340Y-133308500D01*
X176662461Y-133328502D01*
X176683435Y-133345405D01*
X177444595Y-134106565D01*
X177478621Y-134168877D01*
X177481500Y-134195660D01*
X177481500Y-148571088D01*
X177481208Y-148579658D01*
X177478120Y-148624959D01*
X177477275Y-148637352D01*
X177487708Y-148697128D01*
X177488261Y-148700299D01*
X177489223Y-148706821D01*
X177496898Y-148770242D01*
X177499581Y-148777343D01*
X177500222Y-148779952D01*
X177504685Y-148796262D01*
X177505450Y-148798798D01*
X177506757Y-148806284D01*
X177520792Y-148838255D01*
X177532442Y-148864795D01*
X177534933Y-148870899D01*
X177539808Y-148883800D01*
X177551810Y-148915562D01*
X177557513Y-148930656D01*
X177561817Y-148936919D01*
X177563054Y-148939285D01*
X177571299Y-148954097D01*
X177572632Y-148956351D01*
X177575685Y-148963305D01*
X177613914Y-149013124D01*
X177614579Y-149013991D01*
X177618459Y-149019332D01*
X177650339Y-149065720D01*
X177650344Y-149065725D01*
X177654643Y-149071981D01*
X177660310Y-149077030D01*
X177660316Y-149077037D01*
X177701179Y-149113444D01*
X177706455Y-149118425D01*
X177791532Y-149203502D01*
X177821995Y-149252825D01*
X177836288Y-149295791D01*
X177851418Y-149341273D01*
X177855065Y-149347295D01*
X177855066Y-149347297D01*
X177939057Y-149485983D01*
X177945380Y-149496424D01*
X177950269Y-149501487D01*
X177950270Y-149501488D01*
X177959483Y-149511028D01*
X178071382Y-149626902D01*
X178110801Y-149652697D01*
X178203394Y-149713288D01*
X178223159Y-149726222D01*
X178229763Y-149728678D01*
X178229765Y-149728679D01*
X178386558Y-149786990D01*
X178386560Y-149786990D01*
X178393168Y-149789448D01*
X178476995Y-149800633D01*
X178565980Y-149812507D01*
X178565984Y-149812507D01*
X178572961Y-149813438D01*
X178579972Y-149812800D01*
X178579975Y-149812800D01*
X178612976Y-149809796D01*
X178654080Y-149806055D01*
X178723733Y-149819800D01*
X178774898Y-149869021D01*
X178791500Y-149931536D01*
X178791500Y-150607717D01*
X178783901Y-150650812D01*
X178759197Y-150718685D01*
X178736463Y-150898640D01*
X178754163Y-151079160D01*
X178811418Y-151251273D01*
X178815065Y-151257295D01*
X178815066Y-151257297D01*
X178892718Y-151385516D01*
X178905380Y-151406424D01*
X178910269Y-151411487D01*
X178910270Y-151411488D01*
X178948537Y-151451114D01*
X179031382Y-151536902D01*
X179049106Y-151548500D01*
X179123795Y-151597375D01*
X179183159Y-151636222D01*
X179189763Y-151638678D01*
X179189765Y-151638679D01*
X179346558Y-151696990D01*
X179346560Y-151696990D01*
X179353168Y-151699448D01*
X179436995Y-151710633D01*
X179525980Y-151722507D01*
X179525984Y-151722507D01*
X179532961Y-151723438D01*
X179539972Y-151722800D01*
X179539976Y-151722800D01*
X179682459Y-151709832D01*
X179713600Y-151706998D01*
X179720302Y-151704820D01*
X179720304Y-151704820D01*
X179879409Y-151653124D01*
X179879412Y-151653123D01*
X179886108Y-151650947D01*
X179998906Y-151583706D01*
X180035860Y-151561677D01*
X180035862Y-151561676D01*
X180041912Y-151558069D01*
X180173266Y-151432982D01*
X180273643Y-151281902D01*
X180322561Y-151153126D01*
X180335555Y-151118920D01*
X180335556Y-151118918D01*
X180338055Y-151112338D01*
X180341487Y-151087918D01*
X180362748Y-150936639D01*
X180362748Y-150936636D01*
X180363299Y-150932717D01*
X180363616Y-150910000D01*
X180343397Y-150729745D01*
X180339546Y-150718685D01*
X180315509Y-150649662D01*
X180308500Y-150608225D01*
X180308500Y-147790000D01*
X180716496Y-147790000D01*
X180717186Y-147796565D01*
X180735611Y-147971866D01*
X180736458Y-147979928D01*
X180795473Y-148161556D01*
X180798776Y-148167278D01*
X180798777Y-148167279D01*
X180824194Y-148211302D01*
X180890960Y-148326944D01*
X180895378Y-148331851D01*
X180895379Y-148331852D01*
X180998018Y-148445844D01*
X181018747Y-148468866D01*
X181099348Y-148527426D01*
X181164386Y-148574679D01*
X181173248Y-148581118D01*
X181179276Y-148583802D01*
X181179278Y-148583803D01*
X181316348Y-148644830D01*
X181347712Y-148658794D01*
X181429591Y-148676198D01*
X181528056Y-148697128D01*
X181528061Y-148697128D01*
X181534513Y-148698500D01*
X181725487Y-148698500D01*
X181731939Y-148697128D01*
X181731944Y-148697128D01*
X181830409Y-148676198D01*
X181912288Y-148658794D01*
X181943652Y-148644830D01*
X182080722Y-148583803D01*
X182080724Y-148583802D01*
X182086752Y-148581118D01*
X182095615Y-148574679D01*
X182160652Y-148527426D01*
X182241253Y-148468866D01*
X182261982Y-148445844D01*
X182364621Y-148331852D01*
X182364622Y-148331851D01*
X182369040Y-148326944D01*
X182435806Y-148211302D01*
X182461223Y-148167279D01*
X182461224Y-148167278D01*
X182464527Y-148161556D01*
X182498186Y-148057966D01*
X185338257Y-148057966D01*
X185368565Y-148192446D01*
X185371645Y-148202275D01*
X185451770Y-148399603D01*
X185456413Y-148408794D01*
X185567694Y-148590388D01*
X185573777Y-148598699D01*
X185713213Y-148759667D01*
X185720580Y-148766883D01*
X185884434Y-148902916D01*
X185892881Y-148908831D01*
X186076756Y-149016279D01*
X186086042Y-149020729D01*
X186285001Y-149096703D01*
X186294899Y-149099579D01*
X186398250Y-149120606D01*
X186412299Y-149119410D01*
X186416000Y-149109065D01*
X186416000Y-148062115D01*
X186411525Y-148046876D01*
X186410135Y-148045671D01*
X186402452Y-148044000D01*
X185353225Y-148044000D01*
X185339694Y-148047973D01*
X185338257Y-148057966D01*
X182498186Y-148057966D01*
X182523542Y-147979928D01*
X182524390Y-147971866D01*
X182542814Y-147796565D01*
X182543504Y-147790000D01*
X182535227Y-147711248D01*
X182524232Y-147606635D01*
X182524232Y-147606633D01*
X182523542Y-147600072D01*
X182498884Y-147524183D01*
X185334389Y-147524183D01*
X185335912Y-147532607D01*
X185348292Y-147536000D01*
X186397885Y-147536000D01*
X186413124Y-147531525D01*
X186414329Y-147530135D01*
X186416000Y-147522452D01*
X186416000Y-146473102D01*
X186412082Y-146459758D01*
X186397806Y-146457771D01*
X186359324Y-146463660D01*
X186349288Y-146466051D01*
X186146868Y-146532212D01*
X186137359Y-146536209D01*
X185948463Y-146634542D01*
X185939738Y-146640036D01*
X185769433Y-146767905D01*
X185761726Y-146774748D01*
X185614590Y-146928717D01*
X185608104Y-146936727D01*
X185488098Y-147112649D01*
X185483000Y-147121623D01*
X185393338Y-147314783D01*
X185389775Y-147324470D01*
X185334389Y-147524183D01*
X182498884Y-147524183D01*
X182464527Y-147418444D01*
X182369040Y-147253056D01*
X182336699Y-147217137D01*
X182245675Y-147116045D01*
X182245674Y-147116044D01*
X182241253Y-147111134D01*
X182086752Y-146998882D01*
X182080724Y-146996198D01*
X182080722Y-146996197D01*
X181918319Y-146923891D01*
X181918318Y-146923891D01*
X181912288Y-146921206D01*
X181818888Y-146901353D01*
X181731944Y-146882872D01*
X181731939Y-146882872D01*
X181725487Y-146881500D01*
X181534513Y-146881500D01*
X181528061Y-146882872D01*
X181528056Y-146882872D01*
X181441112Y-146901353D01*
X181347712Y-146921206D01*
X181341682Y-146923891D01*
X181341681Y-146923891D01*
X181179278Y-146996197D01*
X181179276Y-146996198D01*
X181173248Y-146998882D01*
X181018747Y-147111134D01*
X181014326Y-147116044D01*
X181014325Y-147116045D01*
X180923302Y-147217137D01*
X180890960Y-147253056D01*
X180795473Y-147418444D01*
X180736458Y-147600072D01*
X180735768Y-147606633D01*
X180735768Y-147606635D01*
X180724773Y-147711248D01*
X180716496Y-147790000D01*
X180308500Y-147790000D01*
X180308500Y-135057060D01*
X180328502Y-134988939D01*
X180369983Y-134948831D01*
X180465860Y-134891677D01*
X180465862Y-134891676D01*
X180471912Y-134888069D01*
X180603266Y-134762982D01*
X180703643Y-134611902D01*
X180768055Y-134442338D01*
X180786334Y-134312275D01*
X180792748Y-134266639D01*
X180792748Y-134266636D01*
X180793299Y-134262717D01*
X180793616Y-134240000D01*
X180785536Y-134167966D01*
X185288257Y-134167966D01*
X185318565Y-134302446D01*
X185321645Y-134312275D01*
X185401770Y-134509603D01*
X185406413Y-134518794D01*
X185517694Y-134700388D01*
X185523777Y-134708699D01*
X185663213Y-134869667D01*
X185670580Y-134876883D01*
X185834434Y-135012916D01*
X185842881Y-135018831D01*
X186026756Y-135126279D01*
X186036042Y-135130729D01*
X186235001Y-135206703D01*
X186244899Y-135209579D01*
X186348250Y-135230606D01*
X186362299Y-135229410D01*
X186366000Y-135219065D01*
X186366000Y-134172115D01*
X186361525Y-134156876D01*
X186360135Y-134155671D01*
X186352452Y-134154000D01*
X185303225Y-134154000D01*
X185289694Y-134157973D01*
X185288257Y-134167966D01*
X180785536Y-134167966D01*
X180773397Y-134059745D01*
X180770355Y-134051010D01*
X180716064Y-133895106D01*
X180716062Y-133895103D01*
X180713745Y-133888448D01*
X180689740Y-133850031D01*
X180621359Y-133740598D01*
X180617626Y-133734624D01*
X180599414Y-133716284D01*
X180517884Y-133634183D01*
X185284389Y-133634183D01*
X185285912Y-133642607D01*
X185298292Y-133646000D01*
X186347885Y-133646000D01*
X186363124Y-133641525D01*
X186364329Y-133640135D01*
X186366000Y-133632452D01*
X186366000Y-132583102D01*
X186362082Y-132569758D01*
X186347806Y-132567771D01*
X186309324Y-132573660D01*
X186299288Y-132576051D01*
X186096868Y-132642212D01*
X186087359Y-132646209D01*
X185898463Y-132744542D01*
X185889738Y-132750036D01*
X185719433Y-132877905D01*
X185711726Y-132884748D01*
X185564590Y-133038717D01*
X185558104Y-133046727D01*
X185438098Y-133222649D01*
X185433000Y-133231623D01*
X185343338Y-133424783D01*
X185339775Y-133434470D01*
X185284389Y-133634183D01*
X180517884Y-133634183D01*
X180494778Y-133610915D01*
X180494774Y-133610912D01*
X180489815Y-133605918D01*
X180478697Y-133598862D01*
X180385719Y-133539857D01*
X180336666Y-133508727D01*
X180271086Y-133485375D01*
X180172425Y-133450243D01*
X180172420Y-133450242D01*
X180165790Y-133447881D01*
X180158802Y-133447048D01*
X180158799Y-133447047D01*
X180035698Y-133432368D01*
X179985680Y-133426404D01*
X179978677Y-133427140D01*
X179978676Y-133427140D01*
X179812288Y-133444628D01*
X179812286Y-133444629D01*
X179805288Y-133445364D01*
X179633579Y-133503818D01*
X179575130Y-133539776D01*
X179485095Y-133595166D01*
X179485092Y-133595168D01*
X179479088Y-133598862D01*
X179474053Y-133603793D01*
X179474050Y-133603795D01*
X179354525Y-133720843D01*
X179349493Y-133725771D01*
X179251235Y-133878238D01*
X179248825Y-133884860D01*
X179245692Y-133891170D01*
X179244021Y-133890340D01*
X179221269Y-133926050D01*
X179113595Y-134033724D01*
X179051283Y-134067750D01*
X178980468Y-134062685D01*
X178923632Y-134020138D01*
X178898821Y-133953618D01*
X178898500Y-133944629D01*
X178898500Y-133878912D01*
X178898792Y-133870342D01*
X178902209Y-133820224D01*
X178902209Y-133820220D01*
X178902725Y-133812648D01*
X178891738Y-133749697D01*
X178890776Y-133743175D01*
X178889741Y-133734624D01*
X178883102Y-133679758D01*
X178880419Y-133672657D01*
X178879778Y-133670048D01*
X178875315Y-133653738D01*
X178874550Y-133651202D01*
X178873243Y-133643716D01*
X178847556Y-133585200D01*
X178845065Y-133579096D01*
X178825173Y-133526452D01*
X178825172Y-133526451D01*
X178822487Y-133519344D01*
X178818183Y-133513081D01*
X178816946Y-133510715D01*
X178808701Y-133495903D01*
X178807368Y-133493649D01*
X178804315Y-133486695D01*
X178765413Y-133435998D01*
X178761541Y-133430668D01*
X178729661Y-133384280D01*
X178729656Y-133384275D01*
X178725357Y-133378019D01*
X178678829Y-133336564D01*
X178673554Y-133331584D01*
X177461450Y-132119480D01*
X177455596Y-132113215D01*
X177431394Y-132085472D01*
X177417561Y-132069615D01*
X177365280Y-132032871D01*
X177359986Y-132028939D01*
X177315693Y-131994209D01*
X177309718Y-131989524D01*
X177302802Y-131986401D01*
X177300516Y-131985017D01*
X177285835Y-131976643D01*
X177283475Y-131975378D01*
X177277261Y-131971010D01*
X177270182Y-131968250D01*
X177270180Y-131968249D01*
X177217725Y-131947798D01*
X177211656Y-131945247D01*
X177153427Y-131918955D01*
X177145960Y-131917571D01*
X177143405Y-131916770D01*
X177127152Y-131912141D01*
X177124572Y-131911478D01*
X177117491Y-131908718D01*
X177109960Y-131907727D01*
X177109958Y-131907726D01*
X177080339Y-131903827D01*
X177054139Y-131900378D01*
X177047641Y-131899348D01*
X176984814Y-131887704D01*
X176977234Y-131888141D01*
X176977233Y-131888141D01*
X176922608Y-131891291D01*
X176915354Y-131891500D01*
X169355660Y-131891500D01*
X169287539Y-131871498D01*
X169266565Y-131854595D01*
X168988673Y-131576703D01*
X168958777Y-131529046D01*
X168950619Y-131505620D01*
X168923745Y-131428448D01*
X168827626Y-131274624D01*
X168822664Y-131269627D01*
X168704778Y-131150915D01*
X168704774Y-131150912D01*
X168699815Y-131145918D01*
X168691102Y-131140388D01*
X168638692Y-131107128D01*
X168546666Y-131048727D01*
X168505257Y-131033982D01*
X168382425Y-130990243D01*
X168382420Y-130990242D01*
X168375790Y-130987881D01*
X168368802Y-130987048D01*
X168368799Y-130987047D01*
X168245698Y-130972368D01*
X168195680Y-130966404D01*
X168188677Y-130967140D01*
X168188676Y-130967140D01*
X168022288Y-130984628D01*
X168022286Y-130984629D01*
X168015288Y-130985364D01*
X167978922Y-130997744D01*
X167945105Y-131009256D01*
X167874173Y-131012274D01*
X167812869Y-130976464D01*
X167780657Y-130913195D01*
X167778500Y-130889978D01*
X167778500Y-130545660D01*
X167798502Y-130477539D01*
X167815405Y-130456565D01*
X168415832Y-129856138D01*
X168478144Y-129822112D01*
X168515908Y-129819712D01*
X168664524Y-129832714D01*
X168664525Y-129832714D01*
X168670000Y-129833193D01*
X168884142Y-129814458D01*
X168889455Y-129813034D01*
X168889457Y-129813034D01*
X169086467Y-129760245D01*
X169086469Y-129760244D01*
X169091777Y-129758822D01*
X169096759Y-129756499D01*
X169281616Y-129670299D01*
X169281619Y-129670297D01*
X169286597Y-129667976D01*
X169462681Y-129544681D01*
X169614681Y-129392681D01*
X169737976Y-129216596D01*
X169825805Y-129028247D01*
X169872723Y-128974962D01*
X169941000Y-128955501D01*
X170008960Y-128976043D01*
X170054195Y-129028247D01*
X170142024Y-129216596D01*
X170265319Y-129392681D01*
X170417319Y-129544681D01*
X170593403Y-129667976D01*
X170598381Y-129670297D01*
X170598384Y-129670299D01*
X170783241Y-129756499D01*
X170788223Y-129758822D01*
X170793531Y-129760244D01*
X170793533Y-129760245D01*
X170990543Y-129813034D01*
X170990545Y-129813034D01*
X170995858Y-129814458D01*
X171210000Y-129833193D01*
X171424142Y-129814458D01*
X171429455Y-129813034D01*
X171429457Y-129813034D01*
X171626467Y-129760245D01*
X171626469Y-129760244D01*
X171631777Y-129758822D01*
X171636759Y-129756499D01*
X171821616Y-129670299D01*
X171821619Y-129670297D01*
X171826597Y-129667976D01*
X172002681Y-129544681D01*
X172154681Y-129392681D01*
X172277976Y-129216596D01*
X172368822Y-129021777D01*
X172381077Y-128976043D01*
X172423034Y-128819457D01*
X172423034Y-128819455D01*
X172424458Y-128814142D01*
X172443193Y-128600000D01*
X172424458Y-128385858D01*
X172423034Y-128380543D01*
X172370245Y-128183533D01*
X172370244Y-128183531D01*
X172368822Y-128178223D01*
X172329089Y-128093015D01*
X172280299Y-127988385D01*
X172280297Y-127988382D01*
X172277976Y-127983404D01*
X172154681Y-127807319D01*
X172002681Y-127655319D01*
X171826597Y-127532024D01*
X171821619Y-127529703D01*
X171821616Y-127529701D01*
X171636759Y-127443501D01*
X171636758Y-127443500D01*
X171631777Y-127441178D01*
X171626469Y-127439756D01*
X171626467Y-127439755D01*
X171429457Y-127386966D01*
X171429455Y-127386966D01*
X171424142Y-127385542D01*
X171210000Y-127366807D01*
X170995858Y-127385542D01*
X170990545Y-127386966D01*
X170990543Y-127386966D01*
X170793533Y-127439755D01*
X170793531Y-127439756D01*
X170788223Y-127441178D01*
X170783243Y-127443500D01*
X170783241Y-127443501D01*
X170598385Y-127529701D01*
X170598382Y-127529703D01*
X170593404Y-127532024D01*
X170417319Y-127655319D01*
X170265319Y-127807319D01*
X170142024Y-127983404D01*
X170139703Y-127988382D01*
X170139701Y-127988385D01*
X170054195Y-128171753D01*
X170007277Y-128225038D01*
X169939000Y-128244499D01*
X169871040Y-128223957D01*
X169825805Y-128171753D01*
X169740299Y-127988385D01*
X169740297Y-127988382D01*
X169737976Y-127983404D01*
X169614681Y-127807319D01*
X169462681Y-127655319D01*
X169286597Y-127532024D01*
X169281619Y-127529703D01*
X169281616Y-127529701D01*
X169096759Y-127443501D01*
X169096758Y-127443500D01*
X169091777Y-127441178D01*
X169086469Y-127439756D01*
X169086467Y-127439755D01*
X168889457Y-127386966D01*
X168889455Y-127386966D01*
X168884142Y-127385542D01*
X168670000Y-127366807D01*
X168455858Y-127385542D01*
X168450545Y-127386966D01*
X168450543Y-127386966D01*
X168253533Y-127439755D01*
X168253531Y-127439756D01*
X168248223Y-127441178D01*
X168243243Y-127443500D01*
X168243241Y-127443501D01*
X168058385Y-127529701D01*
X168058382Y-127529703D01*
X168053404Y-127532024D01*
X167877319Y-127655319D01*
X167725319Y-127807319D01*
X167602024Y-127983404D01*
X167599703Y-127988382D01*
X167599701Y-127988385D01*
X167514195Y-128171753D01*
X167467277Y-128225038D01*
X167399000Y-128244499D01*
X167331040Y-128223957D01*
X167285805Y-128171753D01*
X167200299Y-127988385D01*
X167200297Y-127988382D01*
X167197976Y-127983404D01*
X167074681Y-127807319D01*
X166922681Y-127655319D01*
X166746597Y-127532024D01*
X166741619Y-127529703D01*
X166741616Y-127529701D01*
X166556759Y-127443501D01*
X166556758Y-127443500D01*
X166551777Y-127441178D01*
X166546469Y-127439756D01*
X166546467Y-127439755D01*
X166349457Y-127386966D01*
X166349455Y-127386966D01*
X166344142Y-127385542D01*
X166130000Y-127366807D01*
X165915858Y-127385542D01*
X165910545Y-127386966D01*
X165910543Y-127386966D01*
X165713533Y-127439755D01*
X165713531Y-127439756D01*
X165708223Y-127441178D01*
X165703243Y-127443500D01*
X165703241Y-127443501D01*
X165518385Y-127529701D01*
X165518382Y-127529703D01*
X165513404Y-127532024D01*
X165337319Y-127655319D01*
X165185319Y-127807319D01*
X165062024Y-127983404D01*
X165059703Y-127988382D01*
X165059701Y-127988385D01*
X165010911Y-128093015D01*
X164971178Y-128178223D01*
X164969756Y-128183531D01*
X164969755Y-128183533D01*
X164916966Y-128380543D01*
X164915542Y-128385858D01*
X164896807Y-128600000D01*
X136584951Y-128600000D01*
X136577551Y-128593680D01*
X136551100Y-128568841D01*
X136545321Y-128563414D01*
X136538375Y-128559595D01*
X136538372Y-128559593D01*
X136527566Y-128553652D01*
X136511047Y-128542801D01*
X136510583Y-128542441D01*
X136495041Y-128530386D01*
X136487772Y-128527241D01*
X136487768Y-128527238D01*
X136454463Y-128512826D01*
X136443813Y-128507609D01*
X136405060Y-128486305D01*
X136385437Y-128481267D01*
X136366734Y-128474863D01*
X136355420Y-128469967D01*
X136355419Y-128469967D01*
X136348145Y-128466819D01*
X136340322Y-128465580D01*
X136340312Y-128465577D01*
X136304476Y-128459901D01*
X136292856Y-128457495D01*
X136257711Y-128448472D01*
X136257710Y-128448472D01*
X136250030Y-128446500D01*
X136229776Y-128446500D01*
X136210065Y-128444949D01*
X136197886Y-128443020D01*
X136190057Y-128441780D01*
X136182165Y-128442526D01*
X136146039Y-128445941D01*
X136134181Y-128446500D01*
X135733439Y-128446500D01*
X135665318Y-128426498D01*
X135618825Y-128372842D01*
X135608721Y-128302568D01*
X135612880Y-128283872D01*
X135624843Y-128244499D01*
X135672370Y-128088069D01*
X135701529Y-127866590D01*
X135702977Y-127807319D01*
X135703074Y-127803365D01*
X135703074Y-127803361D01*
X135703156Y-127800000D01*
X135684852Y-127577361D01*
X135630431Y-127360702D01*
X135541354Y-127155840D01*
X135420014Y-126968277D01*
X135269670Y-126803051D01*
X135265619Y-126799852D01*
X135265615Y-126799848D01*
X135098414Y-126667800D01*
X135098410Y-126667798D01*
X135094359Y-126664598D01*
X134898789Y-126556638D01*
X134893920Y-126554914D01*
X134893916Y-126554912D01*
X134693087Y-126483795D01*
X134693083Y-126483794D01*
X134688212Y-126482069D01*
X134683119Y-126481162D01*
X134683116Y-126481161D01*
X134473373Y-126443800D01*
X134473367Y-126443799D01*
X134468284Y-126442894D01*
X134406259Y-126442136D01*
X134253607Y-126440271D01*
X134185735Y-126419438D01*
X134139901Y-126365218D01*
X134130657Y-126294826D01*
X134160937Y-126230610D01*
X134203897Y-126199173D01*
X134350722Y-126133803D01*
X134350724Y-126133802D01*
X134356752Y-126131118D01*
X134369506Y-126121852D01*
X134380939Y-126113545D01*
X134447806Y-126089687D01*
X134516958Y-126105767D01*
X134529061Y-126113545D01*
X134540495Y-126121852D01*
X134553248Y-126131118D01*
X134559276Y-126133802D01*
X134559278Y-126133803D01*
X134708843Y-126200393D01*
X134727712Y-126208794D01*
X134821113Y-126228647D01*
X134908056Y-126247128D01*
X134908061Y-126247128D01*
X134914513Y-126248500D01*
X135105487Y-126248500D01*
X135111939Y-126247128D01*
X135111944Y-126247128D01*
X135198887Y-126228647D01*
X135292288Y-126208794D01*
X135311157Y-126200393D01*
X135460722Y-126133803D01*
X135460724Y-126133802D01*
X135466752Y-126131118D01*
X135621253Y-126018866D01*
X135749040Y-125876944D01*
X135844527Y-125711556D01*
X135903542Y-125529928D01*
X135917552Y-125396635D01*
X135922814Y-125346565D01*
X135923504Y-125340000D01*
X135903542Y-125150072D01*
X135844527Y-124968444D01*
X135749040Y-124803056D01*
X135672732Y-124718308D01*
X135642017Y-124654303D01*
X135650780Y-124583850D01*
X135696243Y-124529318D01*
X135766370Y-124508000D01*
X138841336Y-124508000D01*
X138909457Y-124528002D01*
G37*
G04 #@! TD.AperFunction*
G04 #@! TA.AperFunction,Conductor*
G36*
X132061751Y-124528002D02*
G01*
X132108244Y-124581658D01*
X132118348Y-124651932D01*
X132087267Y-124718308D01*
X132010960Y-124803056D01*
X131915473Y-124968444D01*
X131856458Y-125150072D01*
X131836496Y-125340000D01*
X131837186Y-125346565D01*
X131842449Y-125396635D01*
X131856458Y-125529928D01*
X131915473Y-125711556D01*
X132010960Y-125876944D01*
X132138747Y-126018866D01*
X132293248Y-126131118D01*
X132299276Y-126133802D01*
X132299278Y-126133803D01*
X132448843Y-126200393D01*
X132502939Y-126246373D01*
X132523588Y-126314300D01*
X132504236Y-126382608D01*
X132451025Y-126429610D01*
X132397594Y-126441500D01*
X130901866Y-126441500D01*
X130839684Y-126448255D01*
X130703295Y-126499385D01*
X130586739Y-126586739D01*
X130499385Y-126703295D01*
X130448255Y-126839684D01*
X130441500Y-126901866D01*
X130441500Y-128698134D01*
X130448255Y-128760316D01*
X130499385Y-128896705D01*
X130586739Y-129013261D01*
X130703295Y-129100615D01*
X130711704Y-129103767D01*
X130711705Y-129103768D01*
X130820960Y-129144726D01*
X130877725Y-129187367D01*
X130902425Y-129253929D01*
X130887218Y-129323278D01*
X130867825Y-129349759D01*
X130744590Y-129478717D01*
X130738104Y-129486727D01*
X130618098Y-129662649D01*
X130613000Y-129671623D01*
X130523338Y-129864783D01*
X130519775Y-129874470D01*
X130464389Y-130074183D01*
X130465912Y-130082607D01*
X130478292Y-130086000D01*
X131928000Y-130086000D01*
X131996121Y-130106002D01*
X132042614Y-130159658D01*
X132054000Y-130212000D01*
X132054000Y-130468000D01*
X132033998Y-130536121D01*
X131980342Y-130582614D01*
X131928000Y-130594000D01*
X130483225Y-130594000D01*
X130469694Y-130597973D01*
X130468257Y-130607966D01*
X130498565Y-130742446D01*
X130501645Y-130752275D01*
X130581767Y-130949596D01*
X130586413Y-130958794D01*
X130697694Y-131140388D01*
X130703777Y-131148699D01*
X130843213Y-131309667D01*
X130850580Y-131316883D01*
X131014434Y-131452916D01*
X131022881Y-131458831D01*
X131091969Y-131499203D01*
X131140693Y-131550842D01*
X131153764Y-131620625D01*
X131127033Y-131686396D01*
X131086584Y-131719752D01*
X131073607Y-131726507D01*
X131069474Y-131729610D01*
X131069471Y-131729612D01*
X130899100Y-131857530D01*
X130894965Y-131860635D01*
X130891393Y-131864373D01*
X130767319Y-131994209D01*
X130740629Y-132022138D01*
X130737715Y-132026410D01*
X130737714Y-132026411D01*
X130720666Y-132051402D01*
X130614743Y-132206680D01*
X130520688Y-132409305D01*
X130460989Y-132624570D01*
X130437251Y-132846695D01*
X130437548Y-132851848D01*
X130437548Y-132851851D01*
X130443011Y-132946590D01*
X130450110Y-133069715D01*
X130451247Y-133074761D01*
X130451248Y-133074767D01*
X130462493Y-133124664D01*
X130499222Y-133287639D01*
X130558843Y-133434470D01*
X130580050Y-133486695D01*
X130583266Y-133494616D01*
X130634019Y-133577438D01*
X130697291Y-133680688D01*
X130699987Y-133685088D01*
X130846250Y-133853938D01*
X130933785Y-133926611D01*
X131012717Y-133992141D01*
X131018126Y-133996632D01*
X131211000Y-134109338D01*
X131215825Y-134111180D01*
X131215826Y-134111181D01*
X131288612Y-134138975D01*
X131419692Y-134189030D01*
X131424760Y-134190061D01*
X131424763Y-134190062D01*
X131532017Y-134211883D01*
X131638597Y-134233567D01*
X131643772Y-134233757D01*
X131643774Y-134233757D01*
X131856673Y-134241564D01*
X131856677Y-134241564D01*
X131861837Y-134241753D01*
X131866957Y-134241097D01*
X131866959Y-134241097D01*
X132078288Y-134214025D01*
X132078289Y-134214025D01*
X132083416Y-134213368D01*
X132129707Y-134199480D01*
X132292429Y-134150661D01*
X132292434Y-134150659D01*
X132297384Y-134149174D01*
X132497994Y-134050896D01*
X132679860Y-133921173D01*
X132718700Y-133882469D01*
X132834435Y-133767137D01*
X132838096Y-133763489D01*
X132850331Y-133746463D01*
X132968453Y-133582077D01*
X132969776Y-133583028D01*
X133016645Y-133539857D01*
X133086580Y-133527625D01*
X133152026Y-133555144D01*
X133179875Y-133586994D01*
X133239987Y-133685088D01*
X133386250Y-133853938D01*
X133473785Y-133926611D01*
X133552717Y-133992141D01*
X133558126Y-133996632D01*
X133751000Y-134109338D01*
X133755825Y-134111180D01*
X133755826Y-134111181D01*
X133828612Y-134138975D01*
X133959692Y-134189030D01*
X133964760Y-134190061D01*
X133964763Y-134190062D01*
X134072017Y-134211883D01*
X134178597Y-134233567D01*
X134183772Y-134233757D01*
X134183774Y-134233757D01*
X134396673Y-134241564D01*
X134396677Y-134241564D01*
X134401837Y-134241753D01*
X134406957Y-134241097D01*
X134406959Y-134241097D01*
X134618288Y-134214025D01*
X134618289Y-134214025D01*
X134623416Y-134213368D01*
X134669707Y-134199480D01*
X134832429Y-134150661D01*
X134832434Y-134150659D01*
X134837384Y-134149174D01*
X135037994Y-134050896D01*
X135219860Y-133921173D01*
X135258700Y-133882469D01*
X135374435Y-133767137D01*
X135378096Y-133763489D01*
X135390331Y-133746463D01*
X135505435Y-133586277D01*
X135508453Y-133582077D01*
X135529320Y-133539857D01*
X135605136Y-133386453D01*
X135605137Y-133386451D01*
X135607430Y-133381811D01*
X135639900Y-133274940D01*
X135670865Y-133173023D01*
X135670865Y-133173021D01*
X135672370Y-133168069D01*
X135701529Y-132946590D01*
X135701611Y-132943240D01*
X135703074Y-132883365D01*
X135703074Y-132883361D01*
X135703156Y-132880000D01*
X135684852Y-132657361D01*
X135647505Y-132508677D01*
X135631689Y-132445709D01*
X135631688Y-132445705D01*
X135630431Y-132440702D01*
X135628375Y-132435973D01*
X135628370Y-132435959D01*
X135625666Y-132429741D01*
X135616847Y-132359295D01*
X135647514Y-132295263D01*
X135707930Y-132257976D01*
X135741216Y-132253500D01*
X140781233Y-132253500D01*
X140792416Y-132254027D01*
X140799909Y-132255702D01*
X140807835Y-132255453D01*
X140807836Y-132255453D01*
X140867986Y-132253562D01*
X140871945Y-132253500D01*
X140899856Y-132253500D01*
X140903791Y-132253003D01*
X140903856Y-132252995D01*
X140915693Y-132252062D01*
X140947951Y-132251048D01*
X140951970Y-132250922D01*
X140959889Y-132250673D01*
X140979343Y-132245021D01*
X140998700Y-132241013D01*
X141010930Y-132239468D01*
X141010931Y-132239468D01*
X141018797Y-132238474D01*
X141026168Y-132235555D01*
X141026170Y-132235555D01*
X141059912Y-132222196D01*
X141071142Y-132218351D01*
X141105983Y-132208229D01*
X141105984Y-132208229D01*
X141113593Y-132206018D01*
X141120412Y-132201985D01*
X141120417Y-132201983D01*
X141131028Y-132195707D01*
X141148776Y-132187012D01*
X141167617Y-132179552D01*
X141203387Y-132153564D01*
X141213307Y-132147048D01*
X141244535Y-132128580D01*
X141244538Y-132128578D01*
X141251362Y-132124542D01*
X141265683Y-132110221D01*
X141280717Y-132097380D01*
X141290693Y-132090132D01*
X141297107Y-132085472D01*
X141325293Y-132051401D01*
X141333282Y-132042622D01*
X141580177Y-131795727D01*
X141642489Y-131761701D01*
X141657837Y-131759343D01*
X141683600Y-131756998D01*
X141690302Y-131754820D01*
X141690304Y-131754820D01*
X141849409Y-131703124D01*
X141849412Y-131703123D01*
X141856108Y-131700947D01*
X141989569Y-131621388D01*
X142058321Y-131603689D01*
X142123076Y-131624186D01*
X142233159Y-131696222D01*
X142239763Y-131698678D01*
X142239765Y-131698679D01*
X142396558Y-131756990D01*
X142396560Y-131756990D01*
X142403168Y-131759448D01*
X142478113Y-131769448D01*
X142575980Y-131782507D01*
X142575984Y-131782507D01*
X142582961Y-131783438D01*
X142589972Y-131782800D01*
X142589976Y-131782800D01*
X142751546Y-131768095D01*
X142763600Y-131766998D01*
X142770302Y-131764820D01*
X142770304Y-131764820D01*
X142929409Y-131713124D01*
X142929412Y-131713123D01*
X142936108Y-131710947D01*
X143081651Y-131624186D01*
X143085860Y-131621677D01*
X143085862Y-131621676D01*
X143091912Y-131618069D01*
X143223266Y-131492982D01*
X143240144Y-131467579D01*
X143308076Y-131365333D01*
X143362434Y-131319662D01*
X143432853Y-131310630D01*
X143496977Y-131341103D01*
X143520800Y-131369789D01*
X143576049Y-131461016D01*
X143585380Y-131476424D01*
X143590269Y-131481487D01*
X143590270Y-131481488D01*
X143613574Y-131505620D01*
X143711382Y-131606902D01*
X143733961Y-131621677D01*
X143841982Y-131692364D01*
X143863159Y-131706222D01*
X143869763Y-131708678D01*
X143869765Y-131708679D01*
X143948164Y-131737835D01*
X144033168Y-131769448D01*
X144033335Y-131769470D01*
X144092245Y-131803986D01*
X144124373Y-131867297D01*
X144126500Y-131890351D01*
X144126500Y-136048842D01*
X144106498Y-136116963D01*
X144052842Y-136163456D01*
X143982568Y-136173560D01*
X143917988Y-136144066D01*
X143911094Y-136137626D01*
X143854778Y-136080915D01*
X143854774Y-136080912D01*
X143849815Y-136075918D01*
X143838697Y-136068862D01*
X143771825Y-136026424D01*
X143696666Y-135978727D01*
X143662876Y-135966695D01*
X143532425Y-135920243D01*
X143532420Y-135920242D01*
X143525790Y-135917881D01*
X143518802Y-135917048D01*
X143518799Y-135917047D01*
X143391787Y-135901902D01*
X143345680Y-135896404D01*
X143338677Y-135897140D01*
X143338676Y-135897140D01*
X143172288Y-135914628D01*
X143172286Y-135914629D01*
X143165288Y-135915364D01*
X142993579Y-135973818D01*
X142987575Y-135977512D01*
X142845095Y-136065166D01*
X142845092Y-136065168D01*
X142839088Y-136068862D01*
X142834053Y-136073793D01*
X142834050Y-136073795D01*
X142716971Y-136188448D01*
X142709493Y-136195771D01*
X142611235Y-136348238D01*
X142608826Y-136354858D01*
X142608824Y-136354861D01*
X142560586Y-136487395D01*
X142549197Y-136518685D01*
X142526463Y-136698640D01*
X142544163Y-136879160D01*
X142601418Y-137051273D01*
X142605065Y-137057295D01*
X142605066Y-137057297D01*
X142674980Y-137172739D01*
X142695380Y-137206424D01*
X142700269Y-137211487D01*
X142700270Y-137211488D01*
X142741876Y-137254572D01*
X142821382Y-137336902D01*
X142827278Y-137340760D01*
X142963761Y-137430072D01*
X142973159Y-137436222D01*
X142979763Y-137438678D01*
X142979765Y-137438679D01*
X143136558Y-137496990D01*
X143136560Y-137496990D01*
X143143168Y-137499448D01*
X143226995Y-137510633D01*
X143315980Y-137522507D01*
X143315984Y-137522507D01*
X143322961Y-137523438D01*
X143329972Y-137522800D01*
X143329976Y-137522800D01*
X143472459Y-137509832D01*
X143503600Y-137506998D01*
X143510302Y-137504820D01*
X143510304Y-137504820D01*
X143669409Y-137453124D01*
X143669412Y-137453123D01*
X143676108Y-137450947D01*
X143795270Y-137379912D01*
X143825860Y-137361677D01*
X143825862Y-137361676D01*
X143831912Y-137358069D01*
X143885853Y-137306702D01*
X143913608Y-137280271D01*
X143976733Y-137247779D01*
X144047404Y-137254572D01*
X144103183Y-137298495D01*
X144126500Y-137371517D01*
X144126500Y-141021233D01*
X144125973Y-141032416D01*
X144124298Y-141039909D01*
X144124547Y-141047835D01*
X144124547Y-141047836D01*
X144126438Y-141107986D01*
X144126500Y-141111945D01*
X144126500Y-141139856D01*
X144126997Y-141143790D01*
X144126997Y-141143791D01*
X144127005Y-141143856D01*
X144127938Y-141155693D01*
X144129327Y-141199889D01*
X144134609Y-141218069D01*
X144134978Y-141219339D01*
X144138987Y-141238700D01*
X144139640Y-141243865D01*
X144141526Y-141258797D01*
X144144445Y-141266168D01*
X144144445Y-141266170D01*
X144157804Y-141299912D01*
X144161649Y-141311142D01*
X144173982Y-141353593D01*
X144178015Y-141360412D01*
X144178017Y-141360417D01*
X144184293Y-141371028D01*
X144192988Y-141388776D01*
X144200448Y-141407617D01*
X144205110Y-141414033D01*
X144205110Y-141414034D01*
X144226436Y-141443387D01*
X144232952Y-141453307D01*
X144255458Y-141491362D01*
X144269779Y-141505683D01*
X144282619Y-141520716D01*
X144294528Y-141537107D01*
X144300634Y-141542158D01*
X144328605Y-141565298D01*
X144337384Y-141573288D01*
X144625253Y-141861157D01*
X144644611Y-141886112D01*
X144665458Y-141921362D01*
X144679779Y-141935683D01*
X144692619Y-141950716D01*
X144704528Y-141967107D01*
X144724700Y-141983795D01*
X144738605Y-141995298D01*
X144747384Y-142003288D01*
X145025501Y-142281405D01*
X145059527Y-142343717D01*
X145054462Y-142414532D01*
X145011915Y-142471368D01*
X144945395Y-142496179D01*
X144936406Y-142496500D01*
X140569500Y-142496500D01*
X140501379Y-142476498D01*
X140454886Y-142422842D01*
X140443500Y-142370500D01*
X140443500Y-137100671D01*
X140464552Y-137030943D01*
X140505236Y-136969709D01*
X140543643Y-136911902D01*
X140546145Y-136905316D01*
X140605555Y-136748920D01*
X140605556Y-136748918D01*
X140608055Y-136742338D01*
X140611537Y-136717563D01*
X140632748Y-136566639D01*
X140632748Y-136566636D01*
X140633299Y-136562717D01*
X140633616Y-136540000D01*
X140613397Y-136359745D01*
X140594217Y-136304668D01*
X140556064Y-136195106D01*
X140556062Y-136195103D01*
X140553745Y-136188448D01*
X140457626Y-136034624D01*
X140429095Y-136005893D01*
X140334778Y-135910915D01*
X140334774Y-135910912D01*
X140329815Y-135905918D01*
X140316138Y-135897238D01*
X140270538Y-135868300D01*
X140176666Y-135808727D01*
X140147463Y-135798328D01*
X140012425Y-135750243D01*
X140012420Y-135750242D01*
X140005790Y-135747881D01*
X139998802Y-135747048D01*
X139998799Y-135747047D01*
X139890916Y-135734183D01*
X139844580Y-135728658D01*
X139779308Y-135700731D01*
X139739495Y-135641947D01*
X139733500Y-135603544D01*
X139733500Y-135603031D01*
X139734027Y-135591847D01*
X139735702Y-135584355D01*
X139735580Y-135580458D01*
X139755380Y-135524544D01*
X139799742Y-135457773D01*
X139803643Y-135451902D01*
X139868055Y-135282338D01*
X139869035Y-135275366D01*
X139892748Y-135106639D01*
X139892748Y-135106636D01*
X139893299Y-135102717D01*
X139893616Y-135080000D01*
X139873397Y-134899745D01*
X139870750Y-134892143D01*
X139816064Y-134735106D01*
X139816062Y-134735103D01*
X139813745Y-134728448D01*
X139785410Y-134683102D01*
X139721359Y-134580598D01*
X139717626Y-134574624D01*
X139703941Y-134560843D01*
X139594778Y-134450915D01*
X139594774Y-134450912D01*
X139589815Y-134445918D01*
X139578697Y-134438862D01*
X139530538Y-134408300D01*
X139436666Y-134348727D01*
X139334297Y-134312275D01*
X139272425Y-134290243D01*
X139272420Y-134290242D01*
X139265790Y-134287881D01*
X139258802Y-134287048D01*
X139258799Y-134287047D01*
X139135698Y-134272368D01*
X139085680Y-134266404D01*
X139078677Y-134267140D01*
X139078676Y-134267140D01*
X138912288Y-134284628D01*
X138912286Y-134284629D01*
X138905288Y-134285364D01*
X138733579Y-134343818D01*
X138727575Y-134347512D01*
X138585095Y-134435166D01*
X138585092Y-134435168D01*
X138579088Y-134438862D01*
X138574053Y-134443793D01*
X138574050Y-134443795D01*
X138497464Y-134518794D01*
X138449493Y-134565771D01*
X138351235Y-134718238D01*
X138348826Y-134724858D01*
X138348824Y-134724861D01*
X138291606Y-134882066D01*
X138289197Y-134888685D01*
X138266463Y-135068640D01*
X138284163Y-135249160D01*
X138341418Y-135421273D01*
X138345065Y-135427295D01*
X138345066Y-135427297D01*
X138435380Y-135576424D01*
X138434400Y-135577017D01*
X138450882Y-135609505D01*
X138454978Y-135623604D01*
X138458987Y-135642964D01*
X138461526Y-135663061D01*
X138463024Y-135666845D01*
X138466500Y-135694355D01*
X138466500Y-142135405D01*
X138446498Y-142203526D01*
X138429595Y-142224501D01*
X137924499Y-142729596D01*
X137862187Y-142763621D01*
X137835404Y-142766500D01*
X136068767Y-142766500D01*
X136057584Y-142765973D01*
X136050091Y-142764298D01*
X136042165Y-142764547D01*
X136042164Y-142764547D01*
X135982014Y-142766438D01*
X135978055Y-142766500D01*
X135950144Y-142766500D01*
X135946210Y-142766997D01*
X135946209Y-142766997D01*
X135946144Y-142767005D01*
X135934307Y-142767938D01*
X135902049Y-142768952D01*
X135898030Y-142769078D01*
X135890111Y-142769327D01*
X135870657Y-142774979D01*
X135851300Y-142778987D01*
X135839070Y-142780532D01*
X135839069Y-142780532D01*
X135831203Y-142781526D01*
X135823832Y-142784445D01*
X135823830Y-142784445D01*
X135790088Y-142797804D01*
X135778858Y-142801649D01*
X135744017Y-142811771D01*
X135744016Y-142811771D01*
X135736407Y-142813982D01*
X135729588Y-142818015D01*
X135729583Y-142818017D01*
X135718972Y-142824293D01*
X135701224Y-142832988D01*
X135682383Y-142840448D01*
X135675967Y-142845110D01*
X135675966Y-142845110D01*
X135646613Y-142866436D01*
X135636693Y-142872952D01*
X135605465Y-142891420D01*
X135605462Y-142891422D01*
X135598638Y-142895458D01*
X135584317Y-142909779D01*
X135569284Y-142922619D01*
X135552893Y-142934528D01*
X135547842Y-142940633D01*
X135547837Y-142940638D01*
X135524701Y-142968604D01*
X135516713Y-142977382D01*
X134707747Y-143786348D01*
X134699461Y-143793888D01*
X134692982Y-143798000D01*
X134687557Y-143803777D01*
X134646357Y-143847651D01*
X134643602Y-143850493D01*
X134623865Y-143870230D01*
X134621385Y-143873427D01*
X134613682Y-143882447D01*
X134583414Y-143914679D01*
X134579595Y-143921625D01*
X134579593Y-143921628D01*
X134573652Y-143932434D01*
X134562801Y-143948953D01*
X134550386Y-143964959D01*
X134547241Y-143972228D01*
X134547238Y-143972232D01*
X134532826Y-144005537D01*
X134527609Y-144016187D01*
X134506305Y-144054940D01*
X134502335Y-144070404D01*
X134501267Y-144074562D01*
X134494863Y-144093266D01*
X134491750Y-144100461D01*
X134486819Y-144111855D01*
X134485580Y-144119678D01*
X134485577Y-144119688D01*
X134479901Y-144155524D01*
X134477495Y-144167144D01*
X134471336Y-144191134D01*
X134466500Y-144209970D01*
X134466500Y-144230224D01*
X134464949Y-144249934D01*
X134461780Y-144269943D01*
X134462526Y-144277835D01*
X134465941Y-144313961D01*
X134466500Y-144325819D01*
X134466500Y-149161233D01*
X134465973Y-149172416D01*
X134464298Y-149179909D01*
X134464547Y-149187835D01*
X134464547Y-149187836D01*
X134466438Y-149247986D01*
X134466500Y-149251945D01*
X134466500Y-149279856D01*
X134466997Y-149283790D01*
X134466997Y-149283791D01*
X134467005Y-149283856D01*
X134467938Y-149295693D01*
X134469327Y-149339889D01*
X134474669Y-149358277D01*
X134474978Y-149359339D01*
X134478987Y-149378700D01*
X134481526Y-149398797D01*
X134484445Y-149406168D01*
X134484445Y-149406170D01*
X134497804Y-149439912D01*
X134501649Y-149451142D01*
X134513982Y-149493593D01*
X134518015Y-149500412D01*
X134518017Y-149500417D01*
X134524293Y-149511028D01*
X134532988Y-149528776D01*
X134540448Y-149547617D01*
X134545110Y-149554033D01*
X134545110Y-149554034D01*
X134566436Y-149583387D01*
X134572952Y-149593307D01*
X134574557Y-149596020D01*
X134595458Y-149631362D01*
X134609779Y-149645683D01*
X134622619Y-149660716D01*
X134634528Y-149677107D01*
X134640634Y-149682158D01*
X134668605Y-149705298D01*
X134677384Y-149713288D01*
X135596343Y-150632247D01*
X135603887Y-150640537D01*
X135608000Y-150647018D01*
X135613777Y-150652443D01*
X135657667Y-150693658D01*
X135660509Y-150696413D01*
X135680231Y-150716135D01*
X135683355Y-150718558D01*
X135683359Y-150718562D01*
X135683424Y-150718612D01*
X135692445Y-150726317D01*
X135724679Y-150756586D01*
X135731627Y-150760405D01*
X135731629Y-150760407D01*
X135742432Y-150766346D01*
X135758959Y-150777202D01*
X135768698Y-150784757D01*
X135768700Y-150784758D01*
X135774960Y-150789614D01*
X135815540Y-150807174D01*
X135826188Y-150812391D01*
X135864940Y-150833695D01*
X135872616Y-150835666D01*
X135872619Y-150835667D01*
X135884562Y-150838733D01*
X135903267Y-150845137D01*
X135921855Y-150853181D01*
X135929678Y-150854420D01*
X135929688Y-150854423D01*
X135965524Y-150860099D01*
X135977144Y-150862505D01*
X136012289Y-150871528D01*
X136019970Y-150873500D01*
X136040224Y-150873500D01*
X136059934Y-150875051D01*
X136079943Y-150878220D01*
X136087835Y-150877474D01*
X136123961Y-150874059D01*
X136135819Y-150873500D01*
X136515500Y-150873500D01*
X136583621Y-150893502D01*
X136630114Y-150947158D01*
X136641500Y-150999500D01*
X136641500Y-151138134D01*
X136648255Y-151200316D01*
X136699385Y-151336705D01*
X136786739Y-151453261D01*
X136903295Y-151540615D01*
X136911704Y-151543767D01*
X136911705Y-151543768D01*
X137020451Y-151584535D01*
X137077216Y-151627176D01*
X137101916Y-151693738D01*
X137086709Y-151763087D01*
X137067316Y-151789568D01*
X136940629Y-151922138D01*
X136814743Y-152106680D01*
X136799003Y-152140590D01*
X136723725Y-152302763D01*
X136720688Y-152309305D01*
X136660989Y-152524570D01*
X136637251Y-152746695D01*
X136637548Y-152751848D01*
X136637548Y-152751851D01*
X136645953Y-152897619D01*
X136650110Y-152969715D01*
X136651247Y-152974761D01*
X136651248Y-152974767D01*
X136671119Y-153062939D01*
X136699222Y-153187639D01*
X136751351Y-153316018D01*
X136777061Y-153379334D01*
X136783266Y-153394616D01*
X136820435Y-153455271D01*
X136897291Y-153580688D01*
X136899987Y-153585088D01*
X137046250Y-153753938D01*
X137218126Y-153896632D01*
X137411000Y-154009338D01*
X137619692Y-154089030D01*
X137624760Y-154090061D01*
X137624763Y-154090062D01*
X137732012Y-154111882D01*
X137838597Y-154133567D01*
X137843772Y-154133757D01*
X137843774Y-154133757D01*
X138056673Y-154141564D01*
X138056677Y-154141564D01*
X138061837Y-154141753D01*
X138066957Y-154141097D01*
X138066959Y-154141097D01*
X138278288Y-154114025D01*
X138278289Y-154114025D01*
X138283416Y-154113368D01*
X138288369Y-154111882D01*
X138492429Y-154050661D01*
X138492434Y-154050659D01*
X138497384Y-154049174D01*
X138697994Y-153950896D01*
X138879860Y-153821173D01*
X138898298Y-153802800D01*
X139034435Y-153667137D01*
X139038096Y-153663489D01*
X139053770Y-153641677D01*
X139168453Y-153482077D01*
X139169776Y-153483028D01*
X139216645Y-153439857D01*
X139286580Y-153427625D01*
X139352026Y-153455144D01*
X139379875Y-153486994D01*
X139439987Y-153585088D01*
X139586250Y-153753938D01*
X139758126Y-153896632D01*
X139951000Y-154009338D01*
X140159692Y-154089030D01*
X140164760Y-154090061D01*
X140164763Y-154090062D01*
X140272012Y-154111882D01*
X140378597Y-154133567D01*
X140383772Y-154133757D01*
X140383774Y-154133757D01*
X140596673Y-154141564D01*
X140596677Y-154141564D01*
X140601837Y-154141753D01*
X140606957Y-154141097D01*
X140606959Y-154141097D01*
X140818288Y-154114025D01*
X140818289Y-154114025D01*
X140823416Y-154113368D01*
X140828367Y-154111883D01*
X140828370Y-154111882D01*
X140869829Y-154099444D01*
X140940825Y-154099028D01*
X140995131Y-154131035D01*
X142116343Y-155252247D01*
X142123887Y-155260537D01*
X142128000Y-155267018D01*
X142135594Y-155274149D01*
X142136588Y-155275841D01*
X142138831Y-155278552D01*
X142138394Y-155278914D01*
X142171560Y-155335361D01*
X142168723Y-155406301D01*
X142127983Y-155464446D01*
X142062276Y-155491334D01*
X142049342Y-155492000D01*
X116134000Y-155492000D01*
X116065879Y-155471998D01*
X116019386Y-155418342D01*
X116008000Y-155366000D01*
X116008000Y-154300000D01*
X134286496Y-154300000D01*
X134287186Y-154306565D01*
X134305525Y-154481047D01*
X134306458Y-154489928D01*
X134365473Y-154671556D01*
X134368776Y-154677278D01*
X134368777Y-154677279D01*
X134402686Y-154736010D01*
X134460960Y-154836944D01*
X134588747Y-154978866D01*
X134743248Y-155091118D01*
X134749276Y-155093802D01*
X134749278Y-155093803D01*
X134911681Y-155166109D01*
X134917712Y-155168794D01*
X135011112Y-155188647D01*
X135098056Y-155207128D01*
X135098061Y-155207128D01*
X135104513Y-155208500D01*
X135295487Y-155208500D01*
X135301939Y-155207128D01*
X135301944Y-155207128D01*
X135388888Y-155188647D01*
X135482288Y-155168794D01*
X135488319Y-155166109D01*
X135650722Y-155093803D01*
X135650724Y-155093802D01*
X135656752Y-155091118D01*
X135811253Y-154978866D01*
X135939040Y-154836944D01*
X135997314Y-154736010D01*
X136031223Y-154677279D01*
X136031224Y-154677278D01*
X136034527Y-154671556D01*
X136093542Y-154489928D01*
X136094476Y-154481047D01*
X136112814Y-154306565D01*
X136113504Y-154300000D01*
X136101213Y-154183056D01*
X136094232Y-154116635D01*
X136094232Y-154116633D01*
X136093542Y-154110072D01*
X136034527Y-153928444D01*
X135975381Y-153826000D01*
X135958500Y-153763001D01*
X135958500Y-153626999D01*
X135975381Y-153563999D01*
X136031223Y-153467279D01*
X136031224Y-153467278D01*
X136034527Y-153461556D01*
X136093542Y-153279928D01*
X136094830Y-153267680D01*
X136112814Y-153096565D01*
X136113504Y-153090000D01*
X136105692Y-153015675D01*
X136094232Y-152906635D01*
X136094232Y-152906633D01*
X136093542Y-152900072D01*
X136034527Y-152718444D01*
X135939040Y-152553056D01*
X135918017Y-152529707D01*
X135815675Y-152416045D01*
X135815674Y-152416044D01*
X135811253Y-152411134D01*
X135656752Y-152298882D01*
X135650724Y-152296198D01*
X135650722Y-152296197D01*
X135488319Y-152223891D01*
X135488318Y-152223891D01*
X135482288Y-152221206D01*
X135388888Y-152201353D01*
X135301944Y-152182872D01*
X135301939Y-152182872D01*
X135295487Y-152181500D01*
X135104513Y-152181500D01*
X135098061Y-152182872D01*
X135098056Y-152182872D01*
X135011112Y-152201353D01*
X134917712Y-152221206D01*
X134911682Y-152223891D01*
X134911681Y-152223891D01*
X134749278Y-152296197D01*
X134749276Y-152296198D01*
X134743248Y-152298882D01*
X134588747Y-152411134D01*
X134584326Y-152416044D01*
X134584325Y-152416045D01*
X134481984Y-152529707D01*
X134460960Y-152553056D01*
X134365473Y-152718444D01*
X134306458Y-152900072D01*
X134305768Y-152906633D01*
X134305768Y-152906635D01*
X134294308Y-153015675D01*
X134286496Y-153090000D01*
X134287186Y-153096565D01*
X134305171Y-153267680D01*
X134306458Y-153279928D01*
X134365473Y-153461556D01*
X134368776Y-153467278D01*
X134368777Y-153467279D01*
X134424619Y-153563999D01*
X134441500Y-153626999D01*
X134441500Y-153763001D01*
X134424619Y-153826000D01*
X134365473Y-153928444D01*
X134306458Y-154110072D01*
X134305768Y-154116633D01*
X134305768Y-154116635D01*
X134298787Y-154183056D01*
X134286496Y-154300000D01*
X116008000Y-154300000D01*
X116008000Y-146375251D01*
X116028002Y-146307130D01*
X116081658Y-146260637D01*
X116151932Y-146250533D01*
X116216512Y-146280027D01*
X116241086Y-146308854D01*
X116323708Y-146442108D01*
X116331460Y-146452174D01*
X116456408Y-146584303D01*
X116466026Y-146592605D01*
X116614987Y-146696908D01*
X116626081Y-146703108D01*
X116792980Y-146775332D01*
X116805083Y-146779171D01*
X116984600Y-146816675D01*
X116994152Y-146817915D01*
X116997384Y-146818000D01*
X117217885Y-146818000D01*
X117233124Y-146813525D01*
X117234329Y-146812135D01*
X117236000Y-146804452D01*
X117236000Y-146799885D01*
X117744000Y-146799885D01*
X117748475Y-146815124D01*
X117749865Y-146816329D01*
X117757548Y-146818000D01*
X117935447Y-146818000D01*
X117941822Y-146817677D01*
X118077277Y-146803918D01*
X118089717Y-146801364D01*
X118263244Y-146746984D01*
X118274932Y-146741975D01*
X118433979Y-146653813D01*
X118444412Y-146646562D01*
X118582491Y-146528215D01*
X118591244Y-146519024D01*
X118702711Y-146375320D01*
X118709435Y-146364560D01*
X118789732Y-146201375D01*
X118794155Y-146189481D01*
X118809251Y-146131530D01*
X118809021Y-146124075D01*
X120186363Y-146124075D01*
X120242310Y-146276136D01*
X120247877Y-146287549D01*
X120343708Y-146442108D01*
X120351460Y-146452174D01*
X120476408Y-146584303D01*
X120486026Y-146592605D01*
X120634987Y-146696908D01*
X120646081Y-146703108D01*
X120812980Y-146775332D01*
X120825083Y-146779171D01*
X121004600Y-146816675D01*
X121014152Y-146817915D01*
X121017384Y-146818000D01*
X121387885Y-146818000D01*
X121403124Y-146813525D01*
X121404329Y-146812135D01*
X121406000Y-146804452D01*
X121406000Y-146799885D01*
X121914000Y-146799885D01*
X121918475Y-146815124D01*
X121919865Y-146816329D01*
X121927548Y-146818000D01*
X122255447Y-146818000D01*
X122261822Y-146817677D01*
X122397277Y-146803918D01*
X122409717Y-146801364D01*
X122583244Y-146746984D01*
X122594932Y-146741975D01*
X122753979Y-146653813D01*
X122764412Y-146646562D01*
X122902491Y-146528215D01*
X122911244Y-146519024D01*
X123022711Y-146375320D01*
X123029435Y-146364560D01*
X123109732Y-146201375D01*
X123114155Y-146189481D01*
X123129251Y-146131530D01*
X123128817Y-146117436D01*
X123120636Y-146114000D01*
X121932115Y-146114000D01*
X121916876Y-146118475D01*
X121915671Y-146119865D01*
X121914000Y-146127548D01*
X121914000Y-146799885D01*
X121406000Y-146799885D01*
X121406000Y-146132115D01*
X121401525Y-146116876D01*
X121400135Y-146115671D01*
X121392452Y-146114000D01*
X120200771Y-146114000D01*
X120187240Y-146117973D01*
X120186363Y-146124075D01*
X118809021Y-146124075D01*
X118808817Y-146117436D01*
X118800636Y-146114000D01*
X117762115Y-146114000D01*
X117746876Y-146118475D01*
X117745671Y-146119865D01*
X117744000Y-146127548D01*
X117744000Y-146799885D01*
X117236000Y-146799885D01*
X117236000Y-145587885D01*
X117744000Y-145587885D01*
X117748475Y-145603124D01*
X117749865Y-145604329D01*
X117757548Y-145606000D01*
X118799229Y-145606000D01*
X118812760Y-145602027D01*
X118813637Y-145595925D01*
X118810894Y-145588470D01*
X120190749Y-145588470D01*
X120191183Y-145602564D01*
X120199364Y-145606000D01*
X123119229Y-145606000D01*
X123132760Y-145602027D01*
X123133637Y-145595925D01*
X123077690Y-145443864D01*
X123072123Y-145432451D01*
X122976292Y-145277892D01*
X122968540Y-145267826D01*
X122843592Y-145135697D01*
X122833974Y-145127395D01*
X122685013Y-145023092D01*
X122673919Y-145016892D01*
X122507020Y-144944668D01*
X122494917Y-144940829D01*
X122315400Y-144903325D01*
X122305848Y-144902085D01*
X122302616Y-144902000D01*
X122048821Y-144902000D01*
X121980700Y-144881998D01*
X121934207Y-144828342D01*
X121924103Y-144758068D01*
X121930122Y-144733734D01*
X121969756Y-144622428D01*
X121969757Y-144622422D01*
X121972119Y-144615790D01*
X121973217Y-144606587D01*
X121992762Y-144442673D01*
X121993596Y-144435680D01*
X121989898Y-144400493D01*
X121975372Y-144262288D01*
X121975371Y-144262286D01*
X121974636Y-144255288D01*
X121916182Y-144083579D01*
X121863749Y-143998351D01*
X121824834Y-143935095D01*
X121824832Y-143935092D01*
X121821138Y-143929088D01*
X121816207Y-143924053D01*
X121816205Y-143924050D01*
X121699157Y-143804525D01*
X121699156Y-143804524D01*
X121694229Y-143799493D01*
X121541762Y-143701235D01*
X121535142Y-143698826D01*
X121535139Y-143698824D01*
X121377934Y-143641606D01*
X121377933Y-143641606D01*
X121371315Y-143639197D01*
X121231231Y-143621500D01*
X121134390Y-143621500D01*
X120999745Y-143636603D01*
X120993092Y-143638920D01*
X120993091Y-143638920D01*
X120835106Y-143693936D01*
X120835103Y-143693938D01*
X120828448Y-143696255D01*
X120822469Y-143699991D01*
X120716320Y-143766320D01*
X120674624Y-143792374D01*
X120669628Y-143797335D01*
X120669627Y-143797336D01*
X120550915Y-143915222D01*
X120550912Y-143915226D01*
X120545918Y-143920185D01*
X120542144Y-143926131D01*
X120542143Y-143926133D01*
X120521476Y-143958699D01*
X120448727Y-144073334D01*
X120446362Y-144079976D01*
X120390243Y-144237575D01*
X120390242Y-144237580D01*
X120387881Y-144244210D01*
X120387048Y-144251198D01*
X120387047Y-144251201D01*
X120377028Y-144335225D01*
X120366404Y-144424320D01*
X120367140Y-144431323D01*
X120367140Y-144431324D01*
X120383716Y-144589029D01*
X120385364Y-144604712D01*
X120443818Y-144776421D01*
X120447512Y-144782425D01*
X120535167Y-144924907D01*
X120535170Y-144924911D01*
X120538862Y-144930912D01*
X120539603Y-144931669D01*
X120564908Y-144995459D01*
X120551252Y-145065129D01*
X120521438Y-145102709D01*
X120417504Y-145191790D01*
X120408756Y-145200976D01*
X120297289Y-145344680D01*
X120290565Y-145355440D01*
X120210268Y-145518625D01*
X120205845Y-145530519D01*
X120190749Y-145588470D01*
X118810894Y-145588470D01*
X118757690Y-145443864D01*
X118752123Y-145432451D01*
X118656292Y-145277892D01*
X118648540Y-145267826D01*
X118523592Y-145135697D01*
X118513974Y-145127395D01*
X118365013Y-145023092D01*
X118353919Y-145016892D01*
X118187020Y-144944668D01*
X118174917Y-144940829D01*
X117995400Y-144903325D01*
X117985848Y-144902085D01*
X117982616Y-144902000D01*
X117762115Y-144902000D01*
X117746876Y-144906475D01*
X117745671Y-144907865D01*
X117744000Y-144915548D01*
X117744000Y-145587885D01*
X117236000Y-145587885D01*
X117236000Y-144920115D01*
X117231525Y-144904876D01*
X117230135Y-144903671D01*
X117222452Y-144902000D01*
X117044553Y-144902000D01*
X117038178Y-144902323D01*
X116902723Y-144916082D01*
X116890283Y-144918636D01*
X116716756Y-144973016D01*
X116705068Y-144978025D01*
X116546021Y-145066187D01*
X116535588Y-145073438D01*
X116397509Y-145191785D01*
X116388756Y-145200976D01*
X116277289Y-145344680D01*
X116270563Y-145355443D01*
X116247055Y-145403218D01*
X116199032Y-145455509D01*
X116130362Y-145473536D01*
X116062848Y-145451576D01*
X116017923Y-145396601D01*
X116008000Y-145347589D01*
X116008000Y-143037408D01*
X117215231Y-143037408D01*
X117232931Y-143217928D01*
X117290186Y-143390041D01*
X117293833Y-143396063D01*
X117293834Y-143396065D01*
X117379198Y-143537018D01*
X117384148Y-143545192D01*
X117389037Y-143550255D01*
X117389038Y-143550256D01*
X117443000Y-143606135D01*
X117510150Y-143675670D01*
X117577702Y-143719875D01*
X117646739Y-143765051D01*
X117661927Y-143774990D01*
X117668531Y-143777446D01*
X117668533Y-143777447D01*
X117825326Y-143835758D01*
X117825328Y-143835758D01*
X117831936Y-143838216D01*
X117859138Y-143841846D01*
X117866170Y-143842784D01*
X117931047Y-143871620D01*
X117970035Y-143930954D01*
X117973135Y-143946511D01*
X117973242Y-143946488D01*
X117974708Y-143953382D01*
X117975395Y-143960392D01*
X118032650Y-144132505D01*
X118036297Y-144138527D01*
X118036298Y-144138529D01*
X118122063Y-144280144D01*
X118126612Y-144287656D01*
X118131501Y-144292719D01*
X118131502Y-144292720D01*
X118152259Y-144314214D01*
X118252614Y-144418134D01*
X118275168Y-144432893D01*
X118355504Y-144485463D01*
X118404391Y-144517454D01*
X118410995Y-144519910D01*
X118410997Y-144519911D01*
X118567790Y-144578222D01*
X118567792Y-144578222D01*
X118574400Y-144580680D01*
X118658227Y-144591865D01*
X118747212Y-144603739D01*
X118747216Y-144603739D01*
X118754193Y-144604670D01*
X118761204Y-144604032D01*
X118761208Y-144604032D01*
X118910637Y-144590432D01*
X118934832Y-144588230D01*
X118941534Y-144586052D01*
X118941536Y-144586052D01*
X119100641Y-144534356D01*
X119100644Y-144534355D01*
X119107340Y-144532179D01*
X119206565Y-144473029D01*
X119257092Y-144442909D01*
X119257094Y-144442908D01*
X119263144Y-144439301D01*
X119394498Y-144314214D01*
X119494875Y-144163134D01*
X119539355Y-144046040D01*
X119556787Y-144000152D01*
X119556788Y-144000150D01*
X119559287Y-143993570D01*
X119560267Y-143986598D01*
X119583980Y-143817871D01*
X119583980Y-143817868D01*
X119584531Y-143813949D01*
X119584763Y-143797336D01*
X119584793Y-143795194D01*
X119584793Y-143795189D01*
X119584848Y-143791232D01*
X119564629Y-143610977D01*
X119559555Y-143596405D01*
X119535906Y-143528495D01*
X119509984Y-143454058D01*
X119507383Y-143383148D01*
X119507838Y-143382050D01*
X119528751Y-143223199D01*
X119524578Y-143191500D01*
X119523500Y-143175055D01*
X119523500Y-141398982D01*
X119543502Y-141330861D01*
X119584982Y-141290754D01*
X119667705Y-141241441D01*
X119700860Y-141221677D01*
X119700862Y-141221676D01*
X119706912Y-141218069D01*
X119838266Y-141092982D01*
X119938643Y-140941902D01*
X119980423Y-140831917D01*
X120000555Y-140778920D01*
X120000556Y-140778918D01*
X120003055Y-140772338D01*
X120010460Y-140719651D01*
X120027748Y-140596639D01*
X120027748Y-140596636D01*
X120028299Y-140592717D01*
X120028616Y-140570000D01*
X120008397Y-140389745D01*
X119994473Y-140349760D01*
X119951064Y-140225106D01*
X119951062Y-140225103D01*
X119948745Y-140218448D01*
X119852626Y-140064624D01*
X119845823Y-140057773D01*
X119729778Y-139940915D01*
X119729774Y-139940912D01*
X119724815Y-139935918D01*
X119713697Y-139928862D01*
X119629400Y-139875366D01*
X119571666Y-139838727D01*
X119516398Y-139819047D01*
X119407425Y-139780243D01*
X119407420Y-139780242D01*
X119400790Y-139777881D01*
X119393802Y-139777048D01*
X119393799Y-139777047D01*
X119268682Y-139762128D01*
X119220680Y-139756404D01*
X119213677Y-139757140D01*
X119213676Y-139757140D01*
X119047288Y-139774628D01*
X119047286Y-139774629D01*
X119040288Y-139775364D01*
X118911969Y-139819047D01*
X118879789Y-139830002D01*
X118868579Y-139833818D01*
X118801044Y-139875366D01*
X118771909Y-139893290D01*
X118703408Y-139911949D01*
X118638374Y-139892359D01*
X118534166Y-139826227D01*
X118504963Y-139815828D01*
X118369925Y-139767743D01*
X118369920Y-139767742D01*
X118363290Y-139765381D01*
X118356302Y-139764548D01*
X118356299Y-139764547D01*
X118233198Y-139749868D01*
X118183180Y-139743904D01*
X118176177Y-139744640D01*
X118176176Y-139744640D01*
X118009788Y-139762128D01*
X118009786Y-139762129D01*
X118002788Y-139762864D01*
X117831079Y-139821318D01*
X117774958Y-139855844D01*
X117682595Y-139912666D01*
X117682592Y-139912668D01*
X117676588Y-139916362D01*
X117671553Y-139921293D01*
X117671550Y-139921295D01*
X117563970Y-140026646D01*
X117546993Y-140043271D01*
X117448735Y-140195738D01*
X117446326Y-140202358D01*
X117446324Y-140202361D01*
X117429954Y-140247338D01*
X117386697Y-140366185D01*
X117363963Y-140546140D01*
X117381663Y-140726660D01*
X117438918Y-140898773D01*
X117442565Y-140904795D01*
X117442566Y-140904797D01*
X117513082Y-141021233D01*
X117532880Y-141053924D01*
X117537769Y-141058987D01*
X117537770Y-141058988D01*
X117595531Y-141118801D01*
X117658882Y-141184402D01*
X117799493Y-141276415D01*
X117845542Y-141330452D01*
X117856500Y-141381847D01*
X117856500Y-142163093D01*
X117836498Y-142231214D01*
X117782842Y-142277707D01*
X117771112Y-142282368D01*
X117682347Y-142312586D01*
X117676343Y-142316280D01*
X117533863Y-142403934D01*
X117533860Y-142403936D01*
X117527856Y-142407630D01*
X117522821Y-142412561D01*
X117522818Y-142412563D01*
X117405638Y-142527315D01*
X117398261Y-142534539D01*
X117300003Y-142687006D01*
X117297594Y-142693626D01*
X117297592Y-142693629D01*
X117240374Y-142850834D01*
X117237965Y-142857453D01*
X117215231Y-143037408D01*
X116008000Y-143037408D01*
X116008000Y-137735251D01*
X116028002Y-137667130D01*
X116081658Y-137620637D01*
X116151932Y-137610533D01*
X116216512Y-137640027D01*
X116241086Y-137668854D01*
X116323708Y-137802108D01*
X116331460Y-137812174D01*
X116456408Y-137944303D01*
X116466026Y-137952605D01*
X116614987Y-138056908D01*
X116626081Y-138063108D01*
X116792980Y-138135332D01*
X116805083Y-138139171D01*
X116984600Y-138176675D01*
X116994152Y-138177915D01*
X116997384Y-138178000D01*
X117217885Y-138178000D01*
X117233124Y-138173525D01*
X117234329Y-138172135D01*
X117236000Y-138164452D01*
X117236000Y-138159885D01*
X117744000Y-138159885D01*
X117748475Y-138175124D01*
X117749865Y-138176329D01*
X117757548Y-138178000D01*
X117935447Y-138178000D01*
X117941822Y-138177677D01*
X118077277Y-138163918D01*
X118089717Y-138161364D01*
X118263244Y-138106984D01*
X118274932Y-138101975D01*
X118433979Y-138013813D01*
X118444412Y-138006562D01*
X118582491Y-137888215D01*
X118591244Y-137879024D01*
X118702711Y-137735320D01*
X118709435Y-137724560D01*
X118789732Y-137561375D01*
X118794155Y-137549481D01*
X118809251Y-137491530D01*
X118809021Y-137484075D01*
X120186363Y-137484075D01*
X120242310Y-137636136D01*
X120247877Y-137647549D01*
X120343708Y-137802108D01*
X120351460Y-137812174D01*
X120476406Y-137944301D01*
X120486028Y-137952607D01*
X120511279Y-137970288D01*
X120555607Y-138025745D01*
X120562915Y-138096365D01*
X120545392Y-138141014D01*
X120448727Y-138293334D01*
X120438328Y-138322537D01*
X120390243Y-138457575D01*
X120390242Y-138457580D01*
X120387881Y-138464210D01*
X120387048Y-138471198D01*
X120387047Y-138471201D01*
X120376799Y-138557143D01*
X120366404Y-138644320D01*
X120367140Y-138651323D01*
X120367140Y-138651324D01*
X120382406Y-138796565D01*
X120385364Y-138824712D01*
X120443818Y-138996421D01*
X120451033Y-139008148D01*
X120512288Y-139107716D01*
X120538862Y-139150912D01*
X120543793Y-139155947D01*
X120543795Y-139155950D01*
X120582036Y-139195000D01*
X120665771Y-139280507D01*
X120818238Y-139378765D01*
X120824858Y-139381174D01*
X120824861Y-139381176D01*
X120982066Y-139438394D01*
X120988685Y-139440803D01*
X121128769Y-139458500D01*
X121225610Y-139458500D01*
X121272891Y-139453196D01*
X121281455Y-139452236D01*
X121351381Y-139464520D01*
X121403565Y-139512659D01*
X121421500Y-139577451D01*
X121421500Y-142722930D01*
X121420067Y-142741880D01*
X121416801Y-142763349D01*
X121417394Y-142770641D01*
X121417394Y-142770644D01*
X121421085Y-142816018D01*
X121421500Y-142826233D01*
X121421500Y-142834293D01*
X121421925Y-142837937D01*
X121424789Y-142862507D01*
X121425222Y-142866882D01*
X121429756Y-142922620D01*
X121431140Y-142939637D01*
X121433396Y-142946601D01*
X121434587Y-142952560D01*
X121435971Y-142958415D01*
X121436818Y-142965681D01*
X121461735Y-143034327D01*
X121463152Y-143038455D01*
X121482624Y-143098560D01*
X121485649Y-143107899D01*
X121489445Y-143114154D01*
X121491951Y-143119628D01*
X121494670Y-143125058D01*
X121497167Y-143131937D01*
X121501180Y-143138057D01*
X121501180Y-143138058D01*
X121537186Y-143192976D01*
X121539523Y-143196680D01*
X121577405Y-143259107D01*
X121581121Y-143263315D01*
X121581122Y-143263316D01*
X121584803Y-143267484D01*
X121584776Y-143267508D01*
X121587429Y-143270500D01*
X121590132Y-143273733D01*
X121594144Y-143279852D01*
X121599456Y-143284884D01*
X121650383Y-143333128D01*
X121652825Y-143335506D01*
X122166230Y-143848911D01*
X122178616Y-143863323D01*
X122187149Y-143874918D01*
X122187154Y-143874923D01*
X122191492Y-143880818D01*
X122197070Y-143885557D01*
X122197073Y-143885560D01*
X122231768Y-143915035D01*
X122239284Y-143921965D01*
X122244980Y-143927661D01*
X122247841Y-143929924D01*
X122247846Y-143929929D01*
X122267266Y-143945293D01*
X122270667Y-143948082D01*
X122326285Y-143995333D01*
X122332798Y-143998659D01*
X122337837Y-144002020D01*
X122342979Y-144005196D01*
X122348716Y-144009734D01*
X122414875Y-144040655D01*
X122418769Y-144042558D01*
X122483808Y-144075769D01*
X122490917Y-144077508D01*
X122496551Y-144079604D01*
X122502321Y-144081523D01*
X122508950Y-144084622D01*
X122516113Y-144086112D01*
X122516116Y-144086113D01*
X122550506Y-144093266D01*
X122580435Y-144099491D01*
X122584701Y-144100457D01*
X122655610Y-144117808D01*
X122661212Y-144118156D01*
X122661215Y-144118156D01*
X122666764Y-144118500D01*
X122666762Y-144118535D01*
X122670734Y-144118775D01*
X122674955Y-144119152D01*
X122682115Y-144120641D01*
X122759542Y-144118546D01*
X122762950Y-144118500D01*
X123157413Y-144118500D01*
X123231472Y-144142563D01*
X123237902Y-144147235D01*
X123237909Y-144147239D01*
X123243248Y-144151118D01*
X123249276Y-144153802D01*
X123249278Y-144153803D01*
X123411681Y-144226109D01*
X123417712Y-144228794D01*
X123511004Y-144248624D01*
X123598056Y-144267128D01*
X123598061Y-144267128D01*
X123604513Y-144268500D01*
X123795487Y-144268500D01*
X123801939Y-144267128D01*
X123801944Y-144267128D01*
X123888996Y-144248624D01*
X123982288Y-144228794D01*
X123988319Y-144226109D01*
X124150722Y-144153803D01*
X124150724Y-144153802D01*
X124156752Y-144151118D01*
X124162097Y-144147235D01*
X124227200Y-144099934D01*
X124311253Y-144038866D01*
X124334697Y-144012829D01*
X124434621Y-143901852D01*
X124434622Y-143901851D01*
X124439040Y-143896944D01*
X124517223Y-143761528D01*
X124531223Y-143737279D01*
X124531224Y-143737278D01*
X124534527Y-143731556D01*
X124562003Y-143646994D01*
X124602077Y-143588389D01*
X124667474Y-143560752D01*
X124737430Y-143572859D01*
X124770930Y-143596834D01*
X124809111Y-143635016D01*
X124846353Y-143672258D01*
X124853887Y-143680537D01*
X124858000Y-143687018D01*
X124898739Y-143725274D01*
X124907651Y-143733643D01*
X124910493Y-143736398D01*
X124930230Y-143756135D01*
X124933427Y-143758615D01*
X124942447Y-143766318D01*
X124974679Y-143796586D01*
X124981625Y-143800405D01*
X124981628Y-143800407D01*
X124992434Y-143806348D01*
X125008953Y-143817199D01*
X125024959Y-143829614D01*
X125032228Y-143832759D01*
X125032232Y-143832762D01*
X125065537Y-143847174D01*
X125076187Y-143852391D01*
X125114940Y-143873695D01*
X125131092Y-143877842D01*
X125134562Y-143878733D01*
X125153266Y-143885137D01*
X125154244Y-143885560D01*
X125171855Y-143893181D01*
X125179678Y-143894420D01*
X125179688Y-143894423D01*
X125215524Y-143900099D01*
X125227144Y-143902505D01*
X125252053Y-143908900D01*
X125269970Y-143913500D01*
X125290224Y-143913500D01*
X125309934Y-143915051D01*
X125329943Y-143918220D01*
X125337835Y-143917474D01*
X125363467Y-143915051D01*
X125373962Y-143914059D01*
X125385819Y-143913500D01*
X125915406Y-143913500D01*
X125983527Y-143933502D01*
X126004501Y-143950405D01*
X126176431Y-144122335D01*
X126183975Y-144130625D01*
X126188088Y-144137106D01*
X126193865Y-144142531D01*
X126237755Y-144183746D01*
X126240597Y-144186501D01*
X126260319Y-144206223D01*
X126263443Y-144208646D01*
X126263447Y-144208650D01*
X126263512Y-144208700D01*
X126272533Y-144216405D01*
X126304767Y-144246674D01*
X126311715Y-144250493D01*
X126311717Y-144250495D01*
X126322520Y-144256434D01*
X126339047Y-144267290D01*
X126348786Y-144274845D01*
X126348788Y-144274846D01*
X126355048Y-144279702D01*
X126395628Y-144297262D01*
X126406276Y-144302479D01*
X126436461Y-144319073D01*
X126445028Y-144323783D01*
X126452704Y-144325754D01*
X126452707Y-144325755D01*
X126464650Y-144328821D01*
X126483355Y-144335225D01*
X126501943Y-144343269D01*
X126509766Y-144344508D01*
X126509776Y-144344511D01*
X126545612Y-144350187D01*
X126557232Y-144352593D01*
X126592377Y-144361616D01*
X126600058Y-144363588D01*
X126620312Y-144363588D01*
X126640022Y-144365139D01*
X126660031Y-144368308D01*
X126667923Y-144367562D01*
X126704049Y-144364147D01*
X126715907Y-144363588D01*
X127545494Y-144363588D01*
X127613615Y-144383590D01*
X127634585Y-144400489D01*
X128549597Y-145315502D01*
X128583621Y-145377812D01*
X128586500Y-145404595D01*
X128586500Y-147659691D01*
X128584950Y-147679392D01*
X128579900Y-147711271D01*
X128577497Y-147722874D01*
X128573832Y-147737147D01*
X128557703Y-147774065D01*
X128471235Y-147908238D01*
X128468826Y-147914858D01*
X128468825Y-147914859D01*
X128420375Y-148047973D01*
X128409197Y-148078685D01*
X128386463Y-148258640D01*
X128404163Y-148439160D01*
X128461418Y-148611273D01*
X128465065Y-148617295D01*
X128465066Y-148617297D01*
X128551288Y-148759667D01*
X128555380Y-148766424D01*
X128560269Y-148771487D01*
X128560270Y-148771488D01*
X128618224Y-148831500D01*
X128681382Y-148896902D01*
X128741486Y-148936233D01*
X128817152Y-148985747D01*
X128833159Y-148996222D01*
X128839763Y-148998678D01*
X128839765Y-148998679D01*
X128996558Y-149056990D01*
X128996560Y-149056990D01*
X129003168Y-149059448D01*
X129086995Y-149070633D01*
X129175980Y-149082507D01*
X129175984Y-149082507D01*
X129182961Y-149083438D01*
X129189972Y-149082800D01*
X129189976Y-149082800D01*
X129332459Y-149069832D01*
X129363600Y-149066998D01*
X129370302Y-149064820D01*
X129370304Y-149064820D01*
X129529409Y-149013124D01*
X129529412Y-149013123D01*
X129536108Y-149010947D01*
X129643987Y-148946638D01*
X129685860Y-148921677D01*
X129685862Y-148921676D01*
X129691912Y-148918069D01*
X129823266Y-148792982D01*
X129923643Y-148641902D01*
X129988055Y-148472338D01*
X129991739Y-148446124D01*
X130012748Y-148296639D01*
X130012748Y-148296636D01*
X130013299Y-148292717D01*
X130013616Y-148270000D01*
X129993397Y-148089745D01*
X129991080Y-148083091D01*
X129936064Y-147925106D01*
X129936062Y-147925103D01*
X129933745Y-147918448D01*
X129917099Y-147891808D01*
X129872646Y-147820668D01*
X129853500Y-147753899D01*
X129853500Y-145168767D01*
X129854027Y-145157584D01*
X129855702Y-145150091D01*
X129853562Y-145082014D01*
X129853500Y-145078055D01*
X129853500Y-145050144D01*
X129852995Y-145046144D01*
X129852062Y-145034301D01*
X129851418Y-145013795D01*
X129850673Y-144990111D01*
X129845021Y-144970657D01*
X129841013Y-144951300D01*
X129839468Y-144939070D01*
X129839468Y-144939069D01*
X129838474Y-144931203D01*
X129834084Y-144920115D01*
X129822196Y-144890088D01*
X129818351Y-144878858D01*
X129808229Y-144844017D01*
X129808229Y-144844016D01*
X129806018Y-144836407D01*
X129801985Y-144829588D01*
X129801983Y-144829583D01*
X129795707Y-144818972D01*
X129787012Y-144801224D01*
X129779552Y-144782383D01*
X129753564Y-144746613D01*
X129747048Y-144736693D01*
X129728580Y-144705465D01*
X129728578Y-144705462D01*
X129724542Y-144698638D01*
X129710221Y-144684317D01*
X129697380Y-144669283D01*
X129695032Y-144666051D01*
X129685472Y-144652893D01*
X129651395Y-144624702D01*
X129642616Y-144616712D01*
X128363740Y-143337835D01*
X128356200Y-143329549D01*
X128352088Y-143323070D01*
X128302436Y-143276444D01*
X128299595Y-143273690D01*
X128279858Y-143253953D01*
X128276661Y-143251473D01*
X128267639Y-143243768D01*
X128235409Y-143213502D01*
X128228463Y-143209683D01*
X128228460Y-143209681D01*
X128217654Y-143203740D01*
X128201135Y-143192889D01*
X128199345Y-143191501D01*
X128185129Y-143180474D01*
X128177860Y-143177329D01*
X128177856Y-143177326D01*
X128144551Y-143162914D01*
X128133901Y-143157697D01*
X128095148Y-143136393D01*
X128075525Y-143131355D01*
X128056822Y-143124951D01*
X128045508Y-143120055D01*
X128045507Y-143120055D01*
X128038233Y-143116907D01*
X128030410Y-143115668D01*
X128030400Y-143115665D01*
X127994564Y-143109989D01*
X127982944Y-143107583D01*
X127947799Y-143098560D01*
X127947798Y-143098560D01*
X127940118Y-143096588D01*
X127919864Y-143096588D01*
X127900153Y-143095037D01*
X127887974Y-143093108D01*
X127880145Y-143091868D01*
X127872253Y-143092614D01*
X127836127Y-143096029D01*
X127824269Y-143096588D01*
X126994683Y-143096588D01*
X126926562Y-143076586D01*
X126905587Y-143059683D01*
X126823287Y-142977382D01*
X126733646Y-142887741D01*
X126726113Y-142879463D01*
X126722000Y-142872982D01*
X126684248Y-142837531D01*
X126672365Y-142826373D01*
X126669519Y-142823615D01*
X126652571Y-142806666D01*
X126649770Y-142803865D01*
X126646573Y-142801385D01*
X126637551Y-142793680D01*
X126623550Y-142780532D01*
X126605321Y-142763414D01*
X126598375Y-142759595D01*
X126598372Y-142759593D01*
X126587566Y-142753652D01*
X126571047Y-142742801D01*
X126569860Y-142741880D01*
X126555041Y-142730386D01*
X126547772Y-142727241D01*
X126547768Y-142727238D01*
X126514463Y-142712826D01*
X126503813Y-142707609D01*
X126465060Y-142686305D01*
X126445437Y-142681267D01*
X126426734Y-142674863D01*
X126415420Y-142669967D01*
X126415419Y-142669967D01*
X126408145Y-142666819D01*
X126400322Y-142665580D01*
X126400312Y-142665577D01*
X126364476Y-142659901D01*
X126352856Y-142657495D01*
X126317711Y-142648472D01*
X126317710Y-142648472D01*
X126310030Y-142646500D01*
X126289776Y-142646500D01*
X126270065Y-142644949D01*
X126257886Y-142643020D01*
X126250057Y-142641780D01*
X126242165Y-142642526D01*
X126206039Y-142645941D01*
X126194181Y-142646500D01*
X125664595Y-142646500D01*
X125596474Y-142626498D01*
X125575500Y-142609595D01*
X125524421Y-142558516D01*
X125490395Y-142496204D01*
X125488301Y-142483465D01*
X125483397Y-142439745D01*
X125452231Y-142350247D01*
X125426064Y-142275106D01*
X125426062Y-142275103D01*
X125423745Y-142268448D01*
X125417365Y-142258238D01*
X125331359Y-142120598D01*
X125327626Y-142114624D01*
X125313941Y-142100843D01*
X125204778Y-141990915D01*
X125204774Y-141990912D01*
X125199815Y-141985918D01*
X125188697Y-141978862D01*
X125106932Y-141926973D01*
X125046666Y-141888727D01*
X124992839Y-141869560D01*
X124882425Y-141830243D01*
X124882420Y-141830242D01*
X124875790Y-141827881D01*
X124868802Y-141827048D01*
X124868799Y-141827047D01*
X124745698Y-141812368D01*
X124695680Y-141806404D01*
X124688677Y-141807140D01*
X124688676Y-141807140D01*
X124522288Y-141824628D01*
X124522286Y-141824629D01*
X124515288Y-141825364D01*
X124343579Y-141883818D01*
X124282552Y-141921362D01*
X124195095Y-141975166D01*
X124195092Y-141975168D01*
X124189088Y-141978862D01*
X124184053Y-141983793D01*
X124184050Y-141983795D01*
X124064525Y-142100843D01*
X124059493Y-142105771D01*
X123961235Y-142258238D01*
X123958824Y-142264862D01*
X123958823Y-142264864D01*
X123920804Y-142369321D01*
X123878710Y-142426493D01*
X123812389Y-142451831D01*
X123796070Y-142451624D01*
X123795487Y-142451500D01*
X123604513Y-142451500D01*
X123598061Y-142452872D01*
X123598056Y-142452872D01*
X123511112Y-142471353D01*
X123417712Y-142491206D01*
X123411682Y-142493891D01*
X123411681Y-142493891D01*
X123249278Y-142566197D01*
X123249276Y-142566198D01*
X123243248Y-142568882D01*
X123237909Y-142572761D01*
X123237902Y-142572765D01*
X123231472Y-142577437D01*
X123157413Y-142601500D01*
X123116371Y-142601500D01*
X123048250Y-142581498D01*
X123027276Y-142564595D01*
X122975405Y-142512724D01*
X122941379Y-142450412D01*
X122938500Y-142423629D01*
X122938500Y-139046371D01*
X122958502Y-138978250D01*
X122975405Y-138957276D01*
X123061996Y-138870685D01*
X123124308Y-138836659D01*
X123195123Y-138841724D01*
X123251959Y-138884271D01*
X123276770Y-138950791D01*
X123271323Y-138989748D01*
X123273263Y-138990217D01*
X123271606Y-138997066D01*
X123269197Y-139003685D01*
X123246463Y-139183640D01*
X123264163Y-139364160D01*
X123321418Y-139536273D01*
X123325065Y-139542295D01*
X123325066Y-139542297D01*
X123331504Y-139552927D01*
X123349683Y-139621556D01*
X123336587Y-139674224D01*
X123335054Y-139677313D01*
X123331235Y-139683238D01*
X123328826Y-139689858D01*
X123328824Y-139689861D01*
X123274641Y-139838727D01*
X123269197Y-139853685D01*
X123246463Y-140033640D01*
X123264163Y-140214160D01*
X123321418Y-140386273D01*
X123325065Y-140392295D01*
X123325066Y-140392297D01*
X123398910Y-140514228D01*
X123415380Y-140541424D01*
X123420269Y-140546487D01*
X123420270Y-140546488D01*
X123435357Y-140562111D01*
X123541382Y-140671902D01*
X123693159Y-140771222D01*
X123699763Y-140773678D01*
X123699765Y-140773679D01*
X123856558Y-140831990D01*
X123856560Y-140831990D01*
X123863168Y-140834448D01*
X123946995Y-140845633D01*
X124035980Y-140857507D01*
X124035984Y-140857507D01*
X124042961Y-140858438D01*
X124049972Y-140857800D01*
X124049976Y-140857800D01*
X124192459Y-140844832D01*
X124223600Y-140841998D01*
X124230302Y-140839820D01*
X124230304Y-140839820D01*
X124389409Y-140788124D01*
X124389412Y-140788123D01*
X124396108Y-140785947D01*
X124551912Y-140693069D01*
X124683266Y-140567982D01*
X124687167Y-140562111D01*
X124721940Y-140509773D01*
X124776298Y-140464102D01*
X124826888Y-140453500D01*
X127421134Y-140453500D01*
X127489255Y-140473502D01*
X127528909Y-140514227D01*
X127545380Y-140541424D01*
X127550269Y-140546487D01*
X127550270Y-140546488D01*
X127565357Y-140562111D01*
X127671382Y-140671902D01*
X127823159Y-140771222D01*
X127829763Y-140773678D01*
X127829765Y-140773679D01*
X127986558Y-140831990D01*
X127986560Y-140831990D01*
X127993168Y-140834448D01*
X128076995Y-140845633D01*
X128165980Y-140857507D01*
X128165984Y-140857507D01*
X128172961Y-140858438D01*
X128179972Y-140857800D01*
X128179976Y-140857800D01*
X128322459Y-140844832D01*
X128353600Y-140841998D01*
X128360302Y-140839820D01*
X128360304Y-140839820D01*
X128519409Y-140788124D01*
X128519412Y-140788123D01*
X128526108Y-140785947D01*
X128681912Y-140693069D01*
X128813266Y-140567982D01*
X128913643Y-140416902D01*
X128978055Y-140247338D01*
X128980651Y-140228866D01*
X129002748Y-140071639D01*
X129002748Y-140071636D01*
X129003299Y-140067717D01*
X129003520Y-140051902D01*
X129003561Y-140048962D01*
X129003561Y-140048957D01*
X129003616Y-140045000D01*
X128983397Y-139864745D01*
X128980298Y-139855844D01*
X128939931Y-139739928D01*
X128923745Y-139693448D01*
X128920013Y-139687476D01*
X128920009Y-139687467D01*
X128919958Y-139687386D01*
X128919941Y-139687326D01*
X128916967Y-139681118D01*
X128918058Y-139680595D01*
X128900827Y-139619016D01*
X128913775Y-139566952D01*
X128913643Y-139566902D01*
X128914060Y-139565804D01*
X128920064Y-139550000D01*
X128975555Y-139403920D01*
X128975556Y-139403918D01*
X128978055Y-139397338D01*
X128979035Y-139390366D01*
X129002748Y-139221639D01*
X129002748Y-139221636D01*
X129003299Y-139217717D01*
X129003616Y-139195000D01*
X128983397Y-139014745D01*
X128981080Y-139008091D01*
X128926064Y-138850106D01*
X128926062Y-138850103D01*
X128923745Y-138843448D01*
X128827626Y-138689624D01*
X128813940Y-138675842D01*
X128704778Y-138565915D01*
X128704774Y-138565912D01*
X128699815Y-138560918D01*
X128688697Y-138553862D01*
X128586165Y-138488794D01*
X128546666Y-138463727D01*
X128517463Y-138453328D01*
X128382425Y-138405243D01*
X128382420Y-138405242D01*
X128375790Y-138402881D01*
X128369187Y-138402094D01*
X128307570Y-138367140D01*
X128274559Y-138304285D01*
X128280770Y-138233560D01*
X128324232Y-138177422D01*
X128398097Y-138153500D01*
X130035500Y-138153500D01*
X130103621Y-138173502D01*
X130150114Y-138227158D01*
X130161500Y-138279500D01*
X130161500Y-139095164D01*
X130141498Y-139163285D01*
X130140188Y-139165090D01*
X130139493Y-139165771D01*
X130137894Y-139168253D01*
X130137892Y-139168255D01*
X130131326Y-139178444D01*
X130041235Y-139318238D01*
X130038826Y-139324858D01*
X130038824Y-139324861D01*
X129984997Y-139472749D01*
X129979197Y-139488685D01*
X129956463Y-139668640D01*
X129974163Y-139849160D01*
X130031418Y-140021273D01*
X130035065Y-140027295D01*
X130035066Y-140027297D01*
X130067727Y-140081226D01*
X130125380Y-140176424D01*
X130130269Y-140181487D01*
X130130270Y-140181488D01*
X130144031Y-140195738D01*
X130251382Y-140306902D01*
X130257278Y-140310760D01*
X130372674Y-140386273D01*
X130403159Y-140406222D01*
X130409763Y-140408678D01*
X130409765Y-140408679D01*
X130566558Y-140466990D01*
X130566560Y-140466990D01*
X130573168Y-140469448D01*
X130656995Y-140480633D01*
X130745980Y-140492507D01*
X130745984Y-140492507D01*
X130752961Y-140493438D01*
X130759972Y-140492800D01*
X130759976Y-140492800D01*
X130902459Y-140479832D01*
X130933600Y-140476998D01*
X130940302Y-140474820D01*
X130940304Y-140474820D01*
X131099409Y-140423124D01*
X131099412Y-140423123D01*
X131106108Y-140420947D01*
X131240022Y-140341118D01*
X131255860Y-140331677D01*
X131255862Y-140331676D01*
X131261912Y-140328069D01*
X131393266Y-140202982D01*
X131493643Y-140051902D01*
X131543157Y-139921556D01*
X131555555Y-139888920D01*
X131555556Y-139888918D01*
X131558055Y-139882338D01*
X131561463Y-139858091D01*
X131582748Y-139706639D01*
X131582748Y-139706636D01*
X131583299Y-139702717D01*
X131583616Y-139680000D01*
X131563397Y-139499745D01*
X131561080Y-139493091D01*
X131506064Y-139335106D01*
X131506062Y-139335103D01*
X131503745Y-139328448D01*
X131407626Y-139174624D01*
X131405215Y-139172196D01*
X131379117Y-139107716D01*
X131378500Y-139095263D01*
X131378500Y-138790000D01*
X132186496Y-138790000D01*
X132187186Y-138796565D01*
X132203396Y-138950791D01*
X132206458Y-138979928D01*
X132265473Y-139161556D01*
X132268776Y-139167278D01*
X132268777Y-139167279D01*
X132271919Y-139172721D01*
X132360960Y-139326944D01*
X132365378Y-139331851D01*
X132365379Y-139331852D01*
X132479413Y-139458500D01*
X132488747Y-139468866D01*
X132549023Y-139512659D01*
X132614617Y-139560316D01*
X132643248Y-139581118D01*
X132649276Y-139583802D01*
X132649278Y-139583803D01*
X132811681Y-139656109D01*
X132817712Y-139658794D01*
X132897027Y-139675653D01*
X132998056Y-139697128D01*
X132998061Y-139697128D01*
X133004513Y-139698500D01*
X133195487Y-139698500D01*
X133201939Y-139697128D01*
X133201944Y-139697128D01*
X133302973Y-139675653D01*
X133382288Y-139658794D01*
X133388319Y-139656109D01*
X133550722Y-139583803D01*
X133550724Y-139583802D01*
X133556752Y-139581118D01*
X133585384Y-139560316D01*
X133650977Y-139512659D01*
X133711253Y-139468866D01*
X133720587Y-139458500D01*
X133834621Y-139331852D01*
X133834622Y-139331851D01*
X133839040Y-139326944D01*
X133928081Y-139172721D01*
X133931223Y-139167279D01*
X133931224Y-139167278D01*
X133934527Y-139161556D01*
X133993542Y-138979928D01*
X133996605Y-138950791D01*
X134012814Y-138796565D01*
X134013504Y-138790000D01*
X134006481Y-138723181D01*
X133994232Y-138606635D01*
X133994232Y-138606633D01*
X133993542Y-138600072D01*
X133934527Y-138418444D01*
X133930298Y-138411118D01*
X133862653Y-138293955D01*
X133839040Y-138253056D01*
X133815722Y-138227158D01*
X133715675Y-138116045D01*
X133715674Y-138116044D01*
X133711253Y-138111134D01*
X133593726Y-138025745D01*
X133562094Y-138002763D01*
X133562093Y-138002762D01*
X133556752Y-137998882D01*
X133550724Y-137996198D01*
X133550722Y-137996197D01*
X133388319Y-137923891D01*
X133388318Y-137923891D01*
X133382288Y-137921206D01*
X133288887Y-137901353D01*
X133201944Y-137882872D01*
X133201939Y-137882872D01*
X133195487Y-137881500D01*
X133004513Y-137881500D01*
X132998061Y-137882872D01*
X132998056Y-137882872D01*
X132911113Y-137901353D01*
X132817712Y-137921206D01*
X132811682Y-137923891D01*
X132811681Y-137923891D01*
X132649278Y-137996197D01*
X132649276Y-137996198D01*
X132643248Y-137998882D01*
X132637907Y-138002762D01*
X132637906Y-138002763D01*
X132606274Y-138025745D01*
X132488747Y-138111134D01*
X132484326Y-138116044D01*
X132484325Y-138116045D01*
X132384279Y-138227158D01*
X132360960Y-138253056D01*
X132337347Y-138293955D01*
X132269703Y-138411118D01*
X132265473Y-138418444D01*
X132206458Y-138600072D01*
X132205768Y-138606633D01*
X132205768Y-138606635D01*
X132193519Y-138723181D01*
X132186496Y-138790000D01*
X131378500Y-138790000D01*
X131378500Y-138217885D01*
X131398502Y-138149764D01*
X131456282Y-138101476D01*
X131525610Y-138072759D01*
X131576876Y-138051524D01*
X131596344Y-138036586D01*
X131672072Y-137978477D01*
X131672075Y-137978474D01*
X131697434Y-137959015D01*
X131703987Y-137953987D01*
X131723450Y-137928623D01*
X131734316Y-137916233D01*
X131956229Y-137694319D01*
X131968621Y-137683451D01*
X131987436Y-137669014D01*
X131987437Y-137669013D01*
X131993987Y-137663987D01*
X132049617Y-137591489D01*
X132091524Y-137536876D01*
X132097091Y-137523438D01*
X132149678Y-137396480D01*
X132152838Y-137388851D01*
X132156416Y-137361677D01*
X132158655Y-137344666D01*
X132168500Y-137269885D01*
X132168500Y-137269880D01*
X132172672Y-137238189D01*
X132173750Y-137230000D01*
X132169578Y-137198307D01*
X132168500Y-137181864D01*
X132168500Y-137034239D01*
X132188502Y-136966118D01*
X132205405Y-136945144D01*
X132335144Y-136815405D01*
X132397456Y-136781379D01*
X132424239Y-136778500D01*
X135255699Y-136778500D01*
X135324692Y-136799068D01*
X135457300Y-136885844D01*
X135473159Y-136896222D01*
X135479763Y-136898678D01*
X135479765Y-136898679D01*
X135636558Y-136956990D01*
X135636560Y-136956990D01*
X135643168Y-136959448D01*
X135720069Y-136969709D01*
X135815980Y-136982507D01*
X135815984Y-136982507D01*
X135822961Y-136983438D01*
X135829972Y-136982800D01*
X135829976Y-136982800D01*
X135973812Y-136969709D01*
X136003600Y-136966998D01*
X136010302Y-136964820D01*
X136010304Y-136964820D01*
X136169409Y-136913124D01*
X136169412Y-136913123D01*
X136176108Y-136910947D01*
X136313773Y-136828882D01*
X136325860Y-136821677D01*
X136325862Y-136821676D01*
X136331912Y-136818069D01*
X136463266Y-136692982D01*
X136563643Y-136541902D01*
X136628055Y-136372338D01*
X136632275Y-136342312D01*
X136652748Y-136196639D01*
X136652748Y-136196636D01*
X136653299Y-136192717D01*
X136653616Y-136170000D01*
X136633397Y-135989745D01*
X136625370Y-135966695D01*
X136576064Y-135825106D01*
X136576062Y-135825103D01*
X136573745Y-135818448D01*
X136516230Y-135726404D01*
X136481359Y-135670598D01*
X136477626Y-135664624D01*
X136437984Y-135624704D01*
X136354778Y-135540915D01*
X136354774Y-135540912D01*
X136349815Y-135535918D01*
X136338697Y-135528862D01*
X136290538Y-135498300D01*
X136196666Y-135438727D01*
X136159253Y-135425405D01*
X136032425Y-135380243D01*
X136032420Y-135380242D01*
X136025790Y-135377881D01*
X136018802Y-135377048D01*
X136018799Y-135377047D01*
X135884600Y-135361045D01*
X135845680Y-135356404D01*
X135838677Y-135357140D01*
X135838676Y-135357140D01*
X135672288Y-135374628D01*
X135672286Y-135374629D01*
X135665288Y-135375364D01*
X135493579Y-135433818D01*
X135339088Y-135528862D01*
X135334054Y-135533791D01*
X135332776Y-135534790D01*
X135266782Y-135560967D01*
X135255204Y-135561500D01*
X132168144Y-135561500D01*
X132151698Y-135560422D01*
X132128188Y-135557327D01*
X132120000Y-135556249D01*
X131961149Y-135577162D01*
X131813124Y-135638476D01*
X131781202Y-135662971D01*
X131714983Y-135688570D01*
X131645435Y-135674305D01*
X131594639Y-135624704D01*
X131578500Y-135563007D01*
X131578500Y-135101866D01*
X131571745Y-135039684D01*
X131520615Y-134903295D01*
X131433261Y-134786739D01*
X131316705Y-134699385D01*
X131180316Y-134648255D01*
X131118134Y-134641500D01*
X129321866Y-134641500D01*
X129259684Y-134648255D01*
X129123295Y-134699385D01*
X129006739Y-134786739D01*
X128919385Y-134903295D01*
X128916233Y-134911703D01*
X128874919Y-135021907D01*
X128832277Y-135078671D01*
X128765716Y-135103371D01*
X128696367Y-135088163D01*
X128663743Y-135062476D01*
X128613151Y-135006875D01*
X128613142Y-135006866D01*
X128609670Y-135003051D01*
X128605619Y-134999852D01*
X128605615Y-134999848D01*
X128438414Y-134867800D01*
X128438410Y-134867798D01*
X128434359Y-134864598D01*
X128398028Y-134844542D01*
X128315033Y-134798727D01*
X128238789Y-134756638D01*
X128233920Y-134754914D01*
X128233916Y-134754912D01*
X128033087Y-134683795D01*
X128033083Y-134683794D01*
X128028212Y-134682069D01*
X128023119Y-134681162D01*
X128023116Y-134681161D01*
X127813373Y-134643800D01*
X127813367Y-134643799D01*
X127808284Y-134642894D01*
X127734452Y-134641992D01*
X127590081Y-134640228D01*
X127590079Y-134640228D01*
X127584911Y-134640165D01*
X127364091Y-134673955D01*
X127151756Y-134743357D01*
X126953607Y-134846507D01*
X126949474Y-134849610D01*
X126949471Y-134849612D01*
X126832896Y-134937139D01*
X126774965Y-134980635D01*
X126749541Y-135007240D01*
X126680010Y-135080000D01*
X126620629Y-135142138D01*
X126617715Y-135146410D01*
X126617714Y-135146411D01*
X126512898Y-135300066D01*
X126457987Y-135345069D01*
X126387462Y-135353240D01*
X126323715Y-135321986D01*
X126303018Y-135297502D01*
X126222426Y-135172926D01*
X126216136Y-135164757D01*
X126072806Y-135007240D01*
X126065273Y-135000215D01*
X125898139Y-134868222D01*
X125889552Y-134862517D01*
X125703117Y-134759599D01*
X125693705Y-134755369D01*
X125492959Y-134684280D01*
X125482988Y-134681646D01*
X125411837Y-134668972D01*
X125398540Y-134670432D01*
X125394000Y-134684989D01*
X125394000Y-137318517D01*
X125398064Y-137332359D01*
X125411478Y-137334393D01*
X125418184Y-137333534D01*
X125428262Y-137331392D01*
X125632255Y-137270191D01*
X125641842Y-137266433D01*
X125833095Y-137172739D01*
X125841945Y-137167464D01*
X126015328Y-137043792D01*
X126023200Y-137037139D01*
X126174052Y-136886812D01*
X126180730Y-136878965D01*
X126308022Y-136701819D01*
X126309279Y-136702722D01*
X126356373Y-136659362D01*
X126426311Y-136647145D01*
X126491751Y-136674678D01*
X126519579Y-136706511D01*
X126579987Y-136805088D01*
X126726250Y-136973938D01*
X126898126Y-137116632D01*
X126986750Y-137168419D01*
X127035474Y-137220057D01*
X127046823Y-137264296D01*
X127047837Y-137264135D01*
X127049078Y-137271969D01*
X127049327Y-137279889D01*
X127054978Y-137299339D01*
X127058987Y-137318700D01*
X127061526Y-137338797D01*
X127064445Y-137346168D01*
X127064445Y-137346170D01*
X127077804Y-137379912D01*
X127081649Y-137391142D01*
X127093982Y-137433593D01*
X127098015Y-137440412D01*
X127098017Y-137440417D01*
X127104293Y-137451028D01*
X127112988Y-137468776D01*
X127120448Y-137487617D01*
X127125110Y-137494033D01*
X127125110Y-137494034D01*
X127146436Y-137523387D01*
X127152952Y-137533307D01*
X127169552Y-137561375D01*
X127175458Y-137571362D01*
X127189779Y-137585683D01*
X127202619Y-137600716D01*
X127214528Y-137617107D01*
X127248605Y-137645298D01*
X127257384Y-137653288D01*
X127516343Y-137912247D01*
X127523887Y-137920537D01*
X127528000Y-137927018D01*
X127533777Y-137932443D01*
X127577667Y-137973658D01*
X127580509Y-137976413D01*
X127600231Y-137996135D01*
X127603355Y-137998558D01*
X127603359Y-137998562D01*
X127603424Y-137998612D01*
X127612445Y-138006317D01*
X127644679Y-138036586D01*
X127651627Y-138040405D01*
X127651629Y-138040407D01*
X127662432Y-138046346D01*
X127678959Y-138057202D01*
X127688698Y-138064757D01*
X127688700Y-138064758D01*
X127694960Y-138069614D01*
X127735540Y-138087174D01*
X127746188Y-138092391D01*
X127772733Y-138106984D01*
X127784940Y-138113695D01*
X127792616Y-138115666D01*
X127792619Y-138115667D01*
X127804562Y-138118733D01*
X127823267Y-138125137D01*
X127841855Y-138133181D01*
X127849678Y-138134420D01*
X127849688Y-138134423D01*
X127885524Y-138140099D01*
X127897144Y-138142505D01*
X127931113Y-138151226D01*
X127939970Y-138153500D01*
X127960224Y-138153500D01*
X127979940Y-138155052D01*
X127992987Y-138157119D01*
X128057139Y-138187534D01*
X128094663Y-138247804D01*
X128093646Y-138318793D01*
X128054411Y-138377963D01*
X128013877Y-138400844D01*
X127843579Y-138458818D01*
X127794854Y-138488794D01*
X127695095Y-138550166D01*
X127695092Y-138550168D01*
X127689088Y-138553862D01*
X127684053Y-138558793D01*
X127684050Y-138558795D01*
X127635198Y-138606635D01*
X127559493Y-138680771D01*
X127555679Y-138686689D01*
X127555675Y-138686694D01*
X127528570Y-138728754D01*
X127474856Y-138775180D01*
X127422658Y-138786500D01*
X124828003Y-138786500D01*
X124759882Y-138766498D01*
X124721149Y-138727269D01*
X124701359Y-138695598D01*
X124697626Y-138689624D01*
X124683940Y-138675842D01*
X124574778Y-138565915D01*
X124574774Y-138565912D01*
X124569815Y-138560918D01*
X124558697Y-138553862D01*
X124456165Y-138488794D01*
X124416666Y-138463727D01*
X124291185Y-138419045D01*
X124233722Y-138377352D01*
X124207922Y-138311209D01*
X124221977Y-138241618D01*
X124239816Y-138216037D01*
X124329040Y-138116944D01*
X124398129Y-137997279D01*
X124421223Y-137957279D01*
X124421224Y-137957278D01*
X124424527Y-137951556D01*
X124483542Y-137769928D01*
X124487180Y-137735320D01*
X124502814Y-137586565D01*
X124503504Y-137580000D01*
X124490169Y-137453124D01*
X124484513Y-137399310D01*
X124497285Y-137329472D01*
X124545787Y-137277625D01*
X124614620Y-137260231D01*
X124654771Y-137268430D01*
X124754996Y-137306702D01*
X124764899Y-137309579D01*
X124868250Y-137330606D01*
X124882299Y-137329410D01*
X124886000Y-137319065D01*
X124886000Y-136272115D01*
X124881525Y-136256876D01*
X124880135Y-136255671D01*
X124872452Y-136254000D01*
X123823225Y-136254000D01*
X123809694Y-136257973D01*
X123808257Y-136267966D01*
X123838565Y-136402446D01*
X123841645Y-136412275D01*
X123882256Y-136512291D01*
X123889352Y-136582933D01*
X123857130Y-136646196D01*
X123795820Y-136681996D01*
X123739315Y-136682941D01*
X123691951Y-136672873D01*
X123691942Y-136672872D01*
X123685487Y-136671500D01*
X123494513Y-136671500D01*
X123488061Y-136672872D01*
X123488056Y-136672872D01*
X123421069Y-136687111D01*
X123307712Y-136711206D01*
X123301685Y-136713889D01*
X123301677Y-136713892D01*
X123184025Y-136766274D01*
X123113658Y-136775708D01*
X123049361Y-136745601D01*
X123025691Y-136717563D01*
X122976295Y-136637896D01*
X122968540Y-136627826D01*
X122843592Y-136495697D01*
X122833974Y-136487395D01*
X122685013Y-136383092D01*
X122673919Y-136376892D01*
X122507020Y-136304668D01*
X122494917Y-136300829D01*
X122315400Y-136263325D01*
X122305848Y-136262085D01*
X122302616Y-136262000D01*
X121932115Y-136262000D01*
X121916876Y-136266475D01*
X121915671Y-136267865D01*
X121914000Y-136275548D01*
X121914000Y-137348000D01*
X121893998Y-137416121D01*
X121840342Y-137462614D01*
X121788000Y-137474000D01*
X120200771Y-137474000D01*
X120187240Y-137477973D01*
X120186363Y-137484075D01*
X118809021Y-137484075D01*
X118808817Y-137477436D01*
X118800636Y-137474000D01*
X117762115Y-137474000D01*
X117746876Y-137478475D01*
X117745671Y-137479865D01*
X117744000Y-137487548D01*
X117744000Y-138159885D01*
X117236000Y-138159885D01*
X117236000Y-136947885D01*
X117744000Y-136947885D01*
X117748475Y-136963124D01*
X117749865Y-136964329D01*
X117757548Y-136966000D01*
X118799229Y-136966000D01*
X118812760Y-136962027D01*
X118813637Y-136955925D01*
X118810894Y-136948470D01*
X120190749Y-136948470D01*
X120191183Y-136962564D01*
X120199364Y-136966000D01*
X121387885Y-136966000D01*
X121403124Y-136961525D01*
X121404329Y-136960135D01*
X121406000Y-136952452D01*
X121406000Y-136280115D01*
X121401525Y-136264876D01*
X121400135Y-136263671D01*
X121392452Y-136262000D01*
X121064553Y-136262000D01*
X121058178Y-136262323D01*
X120922723Y-136276082D01*
X120910283Y-136278636D01*
X120736756Y-136333016D01*
X120725068Y-136338025D01*
X120566021Y-136426187D01*
X120555588Y-136433438D01*
X120417509Y-136551785D01*
X120408756Y-136560976D01*
X120297289Y-136704680D01*
X120290565Y-136715440D01*
X120210268Y-136878625D01*
X120205845Y-136890519D01*
X120190749Y-136948470D01*
X118810894Y-136948470D01*
X118757690Y-136803864D01*
X118752123Y-136792451D01*
X118656292Y-136637892D01*
X118648540Y-136627826D01*
X118523592Y-136495697D01*
X118513974Y-136487395D01*
X118365013Y-136383092D01*
X118353919Y-136376892D01*
X118187020Y-136304668D01*
X118174917Y-136300829D01*
X117995400Y-136263325D01*
X117985848Y-136262085D01*
X117982616Y-136262000D01*
X117762115Y-136262000D01*
X117746876Y-136266475D01*
X117745671Y-136267865D01*
X117744000Y-136275548D01*
X117744000Y-136947885D01*
X117236000Y-136947885D01*
X117236000Y-136280115D01*
X117231525Y-136264876D01*
X117230135Y-136263671D01*
X117222452Y-136262000D01*
X117044553Y-136262000D01*
X117038178Y-136262323D01*
X116902723Y-136276082D01*
X116890283Y-136278636D01*
X116716756Y-136333016D01*
X116705068Y-136338025D01*
X116546021Y-136426187D01*
X116535588Y-136433438D01*
X116397509Y-136551785D01*
X116388756Y-136560976D01*
X116277289Y-136704680D01*
X116270563Y-136715443D01*
X116247055Y-136763218D01*
X116199032Y-136815509D01*
X116130362Y-136833536D01*
X116062848Y-136811576D01*
X116017923Y-136756601D01*
X116008000Y-136707589D01*
X116008000Y-135734183D01*
X123804389Y-135734183D01*
X123805912Y-135742607D01*
X123818292Y-135746000D01*
X124867885Y-135746000D01*
X124883124Y-135741525D01*
X124884329Y-135740135D01*
X124886000Y-135732452D01*
X124886000Y-134683102D01*
X124882082Y-134669758D01*
X124867806Y-134667771D01*
X124829324Y-134673660D01*
X124819288Y-134676051D01*
X124616868Y-134742212D01*
X124607359Y-134746209D01*
X124418463Y-134844542D01*
X124409738Y-134850036D01*
X124239433Y-134977905D01*
X124231726Y-134984748D01*
X124084590Y-135138717D01*
X124078104Y-135146727D01*
X123958098Y-135322649D01*
X123953000Y-135331623D01*
X123863338Y-135524783D01*
X123859775Y-135534470D01*
X123804389Y-135734183D01*
X116008000Y-135734183D01*
X116008000Y-124634000D01*
X116028002Y-124565879D01*
X116081658Y-124519386D01*
X116134000Y-124508000D01*
X131993630Y-124508000D01*
X132061751Y-124528002D01*
G37*
G04 #@! TD.AperFunction*
G04 #@! TA.AperFunction,Conductor*
G36*
X139254836Y-143295235D02*
G01*
X139304827Y-143331993D01*
X139305458Y-143331362D01*
X139319779Y-143345683D01*
X139332619Y-143360716D01*
X139344528Y-143377107D01*
X139367444Y-143396065D01*
X139378605Y-143405298D01*
X139387384Y-143413288D01*
X139496343Y-143522247D01*
X139503887Y-143530537D01*
X139508000Y-143537018D01*
X139513777Y-143542443D01*
X139557667Y-143583658D01*
X139560509Y-143586413D01*
X139580231Y-143606135D01*
X139583355Y-143608558D01*
X139583359Y-143608562D01*
X139583424Y-143608612D01*
X139592445Y-143616317D01*
X139624679Y-143646586D01*
X139631627Y-143650405D01*
X139631629Y-143650407D01*
X139642432Y-143656346D01*
X139658959Y-143667202D01*
X139668698Y-143674757D01*
X139668700Y-143674758D01*
X139674960Y-143679614D01*
X139715540Y-143697174D01*
X139726188Y-143702391D01*
X139764940Y-143723695D01*
X139772616Y-143725666D01*
X139772619Y-143725667D01*
X139784562Y-143728733D01*
X139803267Y-143735137D01*
X139821855Y-143743181D01*
X139829678Y-143744420D01*
X139829688Y-143744423D01*
X139865524Y-143750099D01*
X139877144Y-143752505D01*
X139912289Y-143761528D01*
X139919970Y-143763500D01*
X139940224Y-143763500D01*
X139959934Y-143765051D01*
X139979943Y-143768220D01*
X139987835Y-143767474D01*
X140023961Y-143764059D01*
X140035819Y-143763500D01*
X145405406Y-143763500D01*
X145473527Y-143783502D01*
X145494501Y-143800405D01*
X146509595Y-144815500D01*
X146543621Y-144877812D01*
X146546500Y-144904595D01*
X146546500Y-147565405D01*
X146526498Y-147633526D01*
X146509595Y-147654501D01*
X146109338Y-148054757D01*
X145717742Y-148446353D01*
X145709463Y-148453887D01*
X145702982Y-148458000D01*
X145689518Y-148472338D01*
X145656357Y-148507651D01*
X145653602Y-148510493D01*
X145633865Y-148530230D01*
X145631385Y-148533427D01*
X145623682Y-148542447D01*
X145593414Y-148574679D01*
X145589595Y-148581625D01*
X145589593Y-148581628D01*
X145583652Y-148592434D01*
X145572801Y-148608953D01*
X145560386Y-148624959D01*
X145557241Y-148632228D01*
X145557238Y-148632232D01*
X145542826Y-148665537D01*
X145537609Y-148676187D01*
X145516305Y-148714940D01*
X145514334Y-148722615D01*
X145514334Y-148722616D01*
X145511267Y-148734562D01*
X145504864Y-148753265D01*
X145503880Y-148755539D01*
X145458470Y-148810114D01*
X145388242Y-148831500D01*
X145211866Y-148831500D01*
X145149684Y-148838255D01*
X145013295Y-148889385D01*
X144896739Y-148976739D01*
X144809385Y-149093295D01*
X144758255Y-149229684D01*
X144751500Y-149291866D01*
X144751500Y-151088134D01*
X144758255Y-151150316D01*
X144809385Y-151286705D01*
X144896739Y-151403261D01*
X145013295Y-151490615D01*
X145021704Y-151493767D01*
X145021705Y-151493768D01*
X145130451Y-151534535D01*
X145187216Y-151577176D01*
X145211916Y-151643738D01*
X145196709Y-151713087D01*
X145177316Y-151739568D01*
X145103721Y-151816581D01*
X145050629Y-151872138D01*
X145047720Y-151876403D01*
X145047714Y-151876411D01*
X144995730Y-151952617D01*
X144924743Y-152056680D01*
X144903921Y-152101538D01*
X144847127Y-152223891D01*
X144830688Y-152259305D01*
X144770989Y-152474570D01*
X144747251Y-152696695D01*
X144747548Y-152701848D01*
X144747548Y-152701851D01*
X144755894Y-152846590D01*
X144760110Y-152919715D01*
X144761247Y-152924761D01*
X144761248Y-152924767D01*
X144774970Y-152985653D01*
X144809222Y-153137639D01*
X144862026Y-153267680D01*
X144886662Y-153328351D01*
X144893266Y-153344616D01*
X144941307Y-153423012D01*
X145007291Y-153530688D01*
X145009987Y-153535088D01*
X145156250Y-153703938D01*
X145328126Y-153846632D01*
X145521000Y-153959338D01*
X145525820Y-153961179D01*
X145525825Y-153961181D01*
X145582415Y-153982790D01*
X145638918Y-154025777D01*
X145663211Y-154092488D01*
X145647581Y-154161743D01*
X145596990Y-154211554D01*
X145537466Y-154226500D01*
X142934595Y-154226500D01*
X142866474Y-154206498D01*
X142845500Y-154189595D01*
X141891218Y-153235313D01*
X141857192Y-153173001D01*
X141859755Y-153109589D01*
X141870865Y-153073022D01*
X141872370Y-153068069D01*
X141901529Y-152846590D01*
X141902529Y-152805675D01*
X141903074Y-152783365D01*
X141903074Y-152783361D01*
X141903156Y-152780000D01*
X141884852Y-152557361D01*
X141830431Y-152340702D01*
X141741354Y-152135840D01*
X141637485Y-151975283D01*
X141622822Y-151952617D01*
X141622820Y-151952614D01*
X141620014Y-151948277D01*
X141469670Y-151783051D01*
X141465619Y-151779852D01*
X141465615Y-151779848D01*
X141298414Y-151647800D01*
X141298410Y-151647798D01*
X141294359Y-151644598D01*
X141253053Y-151621796D01*
X141203084Y-151571364D01*
X141188312Y-151501921D01*
X141213428Y-151435516D01*
X141240780Y-151408909D01*
X141308092Y-151360896D01*
X141419860Y-151281173D01*
X141429725Y-151271343D01*
X141555692Y-151145815D01*
X141578096Y-151123489D01*
X141609950Y-151079160D01*
X141705435Y-150946277D01*
X141708453Y-150942077D01*
X141723875Y-150910874D01*
X141805136Y-150746453D01*
X141805137Y-150746451D01*
X141807430Y-150741811D01*
X141848171Y-150607717D01*
X141870865Y-150533023D01*
X141870865Y-150533021D01*
X141872370Y-150528069D01*
X141901529Y-150306590D01*
X141903156Y-150240000D01*
X141884852Y-150017361D01*
X141830431Y-149800702D01*
X141741354Y-149595840D01*
X141679622Y-149500417D01*
X141622822Y-149412617D01*
X141622820Y-149412614D01*
X141620014Y-149408277D01*
X141469670Y-149243051D01*
X141465619Y-149239852D01*
X141465615Y-149239848D01*
X141298414Y-149107800D01*
X141298410Y-149107798D01*
X141294359Y-149104598D01*
X141098789Y-148996638D01*
X141093920Y-148994914D01*
X141093916Y-148994912D01*
X140893087Y-148923795D01*
X140893083Y-148923794D01*
X140888212Y-148922069D01*
X140883119Y-148921162D01*
X140883116Y-148921161D01*
X140673373Y-148883800D01*
X140673367Y-148883799D01*
X140668284Y-148882894D01*
X140594452Y-148881992D01*
X140450081Y-148880228D01*
X140450079Y-148880228D01*
X140444911Y-148880165D01*
X140224091Y-148913955D01*
X140011756Y-148983357D01*
X139982323Y-148998679D01*
X139831799Y-149077037D01*
X139813607Y-149086507D01*
X139809474Y-149089610D01*
X139809471Y-149089612D01*
X139698626Y-149172837D01*
X139634965Y-149220635D01*
X139570142Y-149288469D01*
X139554283Y-149305064D01*
X139492759Y-149340494D01*
X139421846Y-149337037D01*
X139364060Y-149295791D01*
X139345207Y-149262243D01*
X139303767Y-149151703D01*
X139300615Y-149143295D01*
X139213261Y-149026739D01*
X139096705Y-148939385D01*
X138960316Y-148888255D01*
X138898134Y-148881500D01*
X137101866Y-148881500D01*
X137039684Y-148888255D01*
X136903295Y-148939385D01*
X136786739Y-149026739D01*
X136699385Y-149143295D01*
X136648255Y-149279684D01*
X136641500Y-149341866D01*
X136641500Y-149480500D01*
X136621498Y-149548621D01*
X136567842Y-149595114D01*
X136515500Y-149606500D01*
X136414595Y-149606500D01*
X136346474Y-149586498D01*
X136325499Y-149569595D01*
X135770404Y-149014499D01*
X135736379Y-148952187D01*
X135733500Y-148925404D01*
X135733500Y-147019159D01*
X135753502Y-146951038D01*
X135807158Y-146904545D01*
X135877432Y-146894441D01*
X135942012Y-146923935D01*
X135977482Y-146974929D01*
X136019385Y-147086705D01*
X136106739Y-147203261D01*
X136223295Y-147290615D01*
X136359684Y-147341745D01*
X136421866Y-147348500D01*
X138218134Y-147348500D01*
X138280316Y-147341745D01*
X138416705Y-147290615D01*
X138533261Y-147203261D01*
X138620615Y-147086705D01*
X138625346Y-147074086D01*
X138664598Y-146969382D01*
X138707240Y-146912618D01*
X138773802Y-146887918D01*
X138843150Y-146903126D01*
X138877817Y-146931114D01*
X138906250Y-146963938D01*
X139078126Y-147106632D01*
X139271000Y-147219338D01*
X139479692Y-147299030D01*
X139484760Y-147300061D01*
X139484763Y-147300062D01*
X139539445Y-147311187D01*
X139698597Y-147343567D01*
X139703772Y-147343757D01*
X139703774Y-147343757D01*
X139916673Y-147351564D01*
X139916677Y-147351564D01*
X139921837Y-147351753D01*
X139926957Y-147351097D01*
X139926959Y-147351097D01*
X140138288Y-147324025D01*
X140138289Y-147324025D01*
X140143416Y-147323368D01*
X140148366Y-147321883D01*
X140352429Y-147260661D01*
X140352434Y-147260659D01*
X140357384Y-147259174D01*
X140557994Y-147160896D01*
X140739860Y-147031173D01*
X140768370Y-147002763D01*
X140847473Y-146923935D01*
X140898096Y-146873489D01*
X140903187Y-146866405D01*
X141028453Y-146692077D01*
X141029776Y-146693028D01*
X141076645Y-146649857D01*
X141146580Y-146637625D01*
X141212026Y-146665144D01*
X141239875Y-146696994D01*
X141299987Y-146795088D01*
X141446250Y-146963938D01*
X141618126Y-147106632D01*
X141811000Y-147219338D01*
X142019692Y-147299030D01*
X142024760Y-147300061D01*
X142024763Y-147300062D01*
X142079445Y-147311187D01*
X142238597Y-147343567D01*
X142243772Y-147343757D01*
X142243774Y-147343757D01*
X142456673Y-147351564D01*
X142456677Y-147351564D01*
X142461837Y-147351753D01*
X142466957Y-147351097D01*
X142466959Y-147351097D01*
X142678288Y-147324025D01*
X142678289Y-147324025D01*
X142683416Y-147323368D01*
X142688366Y-147321883D01*
X142892429Y-147260661D01*
X142892434Y-147260659D01*
X142897384Y-147259174D01*
X143097994Y-147160896D01*
X143279860Y-147031173D01*
X143308370Y-147002763D01*
X143387473Y-146923935D01*
X143438096Y-146873489D01*
X143443187Y-146866405D01*
X143568453Y-146692077D01*
X143569640Y-146692930D01*
X143616960Y-146649362D01*
X143686897Y-146637145D01*
X143752338Y-146664678D01*
X143780166Y-146696511D01*
X143837694Y-146790388D01*
X143843777Y-146798699D01*
X143983213Y-146959667D01*
X143990580Y-146966883D01*
X144154434Y-147102916D01*
X144162881Y-147108831D01*
X144346756Y-147216279D01*
X144356042Y-147220729D01*
X144555001Y-147296703D01*
X144564899Y-147299579D01*
X144668250Y-147320606D01*
X144682299Y-147319410D01*
X144686000Y-147309065D01*
X144686000Y-147308517D01*
X145194000Y-147308517D01*
X145198064Y-147322359D01*
X145211478Y-147324393D01*
X145218184Y-147323534D01*
X145228262Y-147321392D01*
X145432255Y-147260191D01*
X145441842Y-147256433D01*
X145633095Y-147162739D01*
X145641945Y-147157464D01*
X145815328Y-147033792D01*
X145823200Y-147027139D01*
X145974052Y-146876812D01*
X145980730Y-146868965D01*
X146105003Y-146696020D01*
X146110313Y-146687183D01*
X146204670Y-146496267D01*
X146208469Y-146486672D01*
X146270377Y-146282910D01*
X146272555Y-146272837D01*
X146273986Y-146261962D01*
X146271775Y-146247778D01*
X146258617Y-146244000D01*
X145212115Y-146244000D01*
X145196876Y-146248475D01*
X145195671Y-146249865D01*
X145194000Y-146257548D01*
X145194000Y-147308517D01*
X144686000Y-147308517D01*
X144686000Y-145717885D01*
X145194000Y-145717885D01*
X145198475Y-145733124D01*
X145199865Y-145734329D01*
X145207548Y-145736000D01*
X146258344Y-145736000D01*
X146271875Y-145732027D01*
X146273180Y-145722947D01*
X146231214Y-145555875D01*
X146227894Y-145546124D01*
X146142972Y-145350814D01*
X146138105Y-145341739D01*
X146022426Y-145162926D01*
X146016136Y-145154757D01*
X145872806Y-144997240D01*
X145865273Y-144990215D01*
X145698139Y-144858222D01*
X145689552Y-144852517D01*
X145503117Y-144749599D01*
X145493705Y-144745369D01*
X145292959Y-144674280D01*
X145282988Y-144671646D01*
X145211837Y-144658972D01*
X145198540Y-144660432D01*
X145194000Y-144674989D01*
X145194000Y-145717885D01*
X144686000Y-145717885D01*
X144686000Y-144673102D01*
X144682082Y-144659758D01*
X144667806Y-144657771D01*
X144629324Y-144663660D01*
X144619288Y-144666051D01*
X144416868Y-144732212D01*
X144407359Y-144736209D01*
X144218463Y-144834542D01*
X144209738Y-144840036D01*
X144039433Y-144967905D01*
X144031726Y-144974748D01*
X143884590Y-145128717D01*
X143878109Y-145136722D01*
X143773498Y-145290074D01*
X143718587Y-145335076D01*
X143648062Y-145343247D01*
X143584315Y-145311993D01*
X143563618Y-145287509D01*
X143482822Y-145162617D01*
X143482820Y-145162614D01*
X143480014Y-145158277D01*
X143329670Y-144993051D01*
X143325619Y-144989852D01*
X143325615Y-144989848D01*
X143158414Y-144857800D01*
X143158410Y-144857798D01*
X143154359Y-144854598D01*
X143135192Y-144844017D01*
X143050306Y-144797158D01*
X142958789Y-144746638D01*
X142953920Y-144744914D01*
X142953916Y-144744912D01*
X142753087Y-144673795D01*
X142753083Y-144673794D01*
X142748212Y-144672069D01*
X142743119Y-144671162D01*
X142743116Y-144671161D01*
X142533373Y-144633800D01*
X142533367Y-144633799D01*
X142528284Y-144632894D01*
X142454452Y-144631992D01*
X142310081Y-144630228D01*
X142310079Y-144630228D01*
X142304911Y-144630165D01*
X142084091Y-144663955D01*
X141871756Y-144733357D01*
X141838533Y-144750652D01*
X141678212Y-144834110D01*
X141673607Y-144836507D01*
X141669474Y-144839610D01*
X141669471Y-144839612D01*
X141499100Y-144967530D01*
X141494965Y-144970635D01*
X141469386Y-144997402D01*
X141345162Y-145127395D01*
X141340629Y-145132138D01*
X141233201Y-145289621D01*
X141178293Y-145334621D01*
X141107768Y-145342792D01*
X141044021Y-145311538D01*
X141023324Y-145287054D01*
X140942822Y-145162617D01*
X140942820Y-145162614D01*
X140940014Y-145158277D01*
X140789670Y-144993051D01*
X140785619Y-144989852D01*
X140785615Y-144989848D01*
X140618414Y-144857800D01*
X140618410Y-144857798D01*
X140614359Y-144854598D01*
X140595192Y-144844017D01*
X140510306Y-144797158D01*
X140418789Y-144746638D01*
X140413920Y-144744914D01*
X140413916Y-144744912D01*
X140213087Y-144673795D01*
X140213083Y-144673794D01*
X140208212Y-144672069D01*
X140203119Y-144671162D01*
X140203116Y-144671161D01*
X139993373Y-144633800D01*
X139993367Y-144633799D01*
X139988284Y-144632894D01*
X139914452Y-144631992D01*
X139770081Y-144630228D01*
X139770079Y-144630228D01*
X139764911Y-144630165D01*
X139544091Y-144663955D01*
X139331756Y-144733357D01*
X139298533Y-144750652D01*
X139138212Y-144834110D01*
X139133607Y-144836507D01*
X139129474Y-144839610D01*
X139129471Y-144839612D01*
X138959100Y-144967530D01*
X138954965Y-144970635D01*
X138875197Y-145054108D01*
X138874283Y-145055064D01*
X138812759Y-145090494D01*
X138741846Y-145087037D01*
X138684060Y-145045791D01*
X138665207Y-145012243D01*
X138623767Y-144901703D01*
X138620615Y-144893295D01*
X138533261Y-144776739D01*
X138416705Y-144689385D01*
X138280316Y-144638255D01*
X138218134Y-144631500D01*
X136421866Y-144631500D01*
X136359684Y-144638255D01*
X136223295Y-144689385D01*
X136106739Y-144776739D01*
X136019385Y-144893295D01*
X136016233Y-144901703D01*
X135977482Y-145005071D01*
X135934840Y-145061835D01*
X135868279Y-145086535D01*
X135798930Y-145071328D01*
X135748812Y-145021042D01*
X135733500Y-144960841D01*
X135733500Y-144604595D01*
X135753502Y-144536474D01*
X135770405Y-144515499D01*
X136215501Y-144070404D01*
X136277813Y-144036379D01*
X136304596Y-144033500D01*
X138071233Y-144033500D01*
X138082416Y-144034027D01*
X138089909Y-144035702D01*
X138097835Y-144035453D01*
X138097836Y-144035453D01*
X138157986Y-144033562D01*
X138161945Y-144033500D01*
X138189856Y-144033500D01*
X138193791Y-144033003D01*
X138193856Y-144032995D01*
X138205693Y-144032062D01*
X138237951Y-144031048D01*
X138241970Y-144030922D01*
X138249889Y-144030673D01*
X138269343Y-144025021D01*
X138288700Y-144021013D01*
X138300930Y-144019468D01*
X138300931Y-144019468D01*
X138308797Y-144018474D01*
X138316168Y-144015555D01*
X138316170Y-144015555D01*
X138349912Y-144002196D01*
X138361142Y-143998351D01*
X138395983Y-143988229D01*
X138395984Y-143988229D01*
X138403593Y-143986018D01*
X138410412Y-143981985D01*
X138410417Y-143981983D01*
X138421028Y-143975707D01*
X138438776Y-143967012D01*
X138457617Y-143959552D01*
X138493387Y-143933564D01*
X138503307Y-143927048D01*
X138534535Y-143908580D01*
X138534538Y-143908578D01*
X138541362Y-143904542D01*
X138555683Y-143890221D01*
X138570717Y-143877380D01*
X138576169Y-143873419D01*
X138587107Y-143865472D01*
X138592158Y-143859367D01*
X138592163Y-143859362D01*
X138615299Y-143831396D01*
X138623287Y-143822618D01*
X139121709Y-143324196D01*
X139184021Y-143290170D01*
X139254836Y-143295235D01*
G37*
G04 #@! TD.AperFunction*
M02*
